<?xml version="1.0" encoding="UTF-8"?>
<svg id="Layer_1" data-name="Layer 1" xmlns="http://www.w3.org/2000/svg" viewBox="0 0 41.74 40.75">
  <defs>
    <style>
      .cls-1 {
        fill: #fff;
      }
    </style>
  </defs>
  <path class="cls-1" d="M40.76,17.15c-2.19-.69-3.49-.29-5.28-.8-.74-1.62-2.21-4.31-3.02-5.91,1.07-1.99,1.78-2.64,2.73-4.33-.08-.23-.3-.4-.53-.57-.54-.4-1.08-.81-1.63-1.2-2.03-1.43-4.2-2.64-6.49-3.59-1.05,2-1.83,3.87-2.62,5.74-2.2-.04-4.4.22-6.52.78-.93-1.83-1.98-3.6-3.13-5.3-2.58,1.39-5.06,3.13-7.1,5.3,1.09,1.64,1.95,2.58,3.15,3.92-1.07,2.05-2.14,3.99-2.85,6.02-2.23-.35-3.95-.28-6.05-.63-.86,3.42-1,6.96.16,10.15,2.08-.46,3.21-.96,5.08-1.49,1.02,1.97,2.43,3.82,4,5.47-.97,1.91-1.35,3.42-2.25,4.93,1.93,2.05,4.41,3.53,7.08,4.33.79-1.83,1.31-2.97,2.05-4.58,1.98.04,4.53.17,6.47-.28,1.24,1.6,1.7,2.57,2.51,4.2,3.04-.58,5.9-1.83,8.48-3.51-.97-1.88-1.19-3.08-2.25-4.62,1.23-1.76,2.27-3.98,2.81-5.84,1.99-.35,2.9-.24,4.71-.32.76-2.68.84-5.31.47-7.87ZM25.39,25.51c-1.1.9-2.22,1.75-6.26.85-1.59-.36-5.64-2.8-3.79-8.34.59-1.76,2.13-3.24,3.97-3.6,1.83-.36,3.32-.41,4.67.1,2.11.79,3.64,2.85,3.89,5.06.25,2.22-.74,4.51-2.47,5.93Z"/>
  <path d="M15.51,40.75c-.07,0-.15-.01-.22-.03-2.87-.86-5.43-2.43-7.42-4.53-.23-.25-.27-.62-.1-.91.46-.78.79-1.59,1.14-2.44.25-.62.51-1.26.85-1.97-1.41-1.54-2.58-3.11-3.46-4.7-.46.14-.88.28-1.29.41-.99.32-1.92.63-3.25.92-.37.08-.75-.12-.88-.48-1.12-3.07-1.18-6.63-.19-10.59.1-.38.47-.63.86-.57,1.03.17,1.96.24,2.94.31.79.06,1.6.12,2.49.23.62-1.61,1.42-3.14,2.26-4.75l.16-.31c-1.02-1.14-1.86-2.1-2.87-3.62-.19-.29-.16-.68.08-.94,1.9-2.03,4.35-3.86,7.29-5.45.34-.19.77-.08.99.24,1.05,1.55,2.03,3.17,2.9,4.84,1.84-.44,3.73-.66,5.62-.66.72-1.71,1.48-3.47,2.45-5.33.18-.35.6-.5.97-.35,2.33.97,4.56,2.21,6.63,3.67.56.39,1.1.8,1.64,1.21.28.21.63.48.79.92.07.21.05.43-.05.62-.46.82-.86,1.41-1.26,1.98-.39.57-.8,1.16-1.27,2,.25.49.55,1.06.86,1.65.64,1.21,1.35,2.56,1.83,3.59.61.14,1.18.17,1.78.2.9.05,1.91.11,3.19.52.28.09.48.33.52.62.42,2.89.26,5.56-.49,8.19-.09.32-.37.54-.7.55-.52.02-.97.03-1.39.04-.91.02-1.66.03-2.76.2-.55,1.73-1.45,3.61-2.49,5.17.5.81.8,1.54,1.13,2.31.25.6.51,1.22.89,1.95.18.35.07.77-.26.99-2.81,1.83-5.76,3.05-8.76,3.62-.34.06-.67-.1-.82-.41l-.12-.23c-.67-1.35-1.1-2.21-2.03-3.46-1.74.31-3.83.26-5.54.22h-.13c-.67,1.46-1.16,2.55-1.83,4.11-.12.28-.4.46-.7.46ZM9.37,35.53c1.59,1.56,3.55,2.76,5.72,3.52.61-1.4,1.09-2.47,1.78-3.96.13-.27.41-.45.71-.44l.64.02c1.78.05,4,.1,5.64-.28.29-.07.59.04.77.27,1.14,1.48,1.65,2.44,2.33,3.8,2.41-.53,4.78-1.51,7.08-2.92-.25-.53-.45-1.01-.63-1.44-.36-.87-.68-1.62-1.26-2.48-.18-.26-.18-.61,0-.87,1.14-1.63,2.17-3.78,2.7-5.61.08-.28.31-.49.6-.54,1.49-.26,2.4-.28,3.46-.3.25,0,.51,0,.79-.02.53-2.1.65-4.25.37-6.54-.89-.23-1.64-.27-2.36-.32-.76-.04-1.54-.09-2.43-.34-.22-.06-.39-.21-.49-.42-.47-1.02-1.26-2.52-1.95-3.85-.39-.75-.77-1.46-1.05-2.03-.11-.22-.11-.48,0-.7.6-1.11,1.08-1.81,1.55-2.49.31-.44.6-.87.92-1.4-.02-.02-.04-.03-.06-.04-.53-.4-1.07-.8-1.61-1.19-1.79-1.26-3.7-2.35-5.69-3.23-.88,1.75-1.59,3.43-2.27,5.06-.12.29-.4.46-.72.47-2.13-.04-4.26.21-6.32.75-.35.09-.71-.07-.87-.39-.81-1.59-1.71-3.15-2.69-4.64-2.32,1.31-4.29,2.78-5.88,4.38.86,1.23,1.6,2.05,2.58,3.15l.17.19c.21.24.25.58.11.86l-.41.79c-.92,1.76-1.79,3.42-2.39,5.14-.12.35-.47.56-.84.5-1.07-.17-2.04-.24-2.98-.31-.76-.06-1.55-.11-2.37-.22-.69,3.12-.66,5.93.09,8.39.92-.23,1.66-.47,2.44-.73.59-.19,1.21-.39,1.93-.6.35-.1.72.06.88.38.92,1.78,2.23,3.56,3.88,5.29.22.23.27.58.13.87-.43.84-.73,1.59-1.03,2.33-.3.73-.58,1.43-.96,2.14ZM22.08,27.51c-.83,0-1.85-.12-3.12-.41-.96-.21-2.89-1.12-4.03-3.14-.98-1.73-1.09-3.88-.32-6.19.7-2.09,2.48-3.7,4.54-4.11,2.18-.43,3.7-.39,5.08.13,2.33.88,4.1,3.16,4.38,5.69.28,2.45-.77,4.98-2.75,6.61-.95.79-1.91,1.41-3.79,1.41ZM21.77,14.9c-.67,0-1.42.09-2.32.26-1.51.3-2.87,1.54-3.39,3.09-.64,1.92-.57,3.59.2,4.96.82,1.45,2.26,2.23,3.04,2.4,3.75.84,4.66.1,5.61-.69,0,0,0,0,0,0,1.56-1.28,2.42-3.35,2.2-5.26-.22-1.97-1.59-3.76-3.41-4.44-.58-.22-1.2-.32-1.94-.32Z"/>
</svg>