<?xml version="1.0" encoding="UTF-8"?>
<svg id="Layer_1" data-name="Layer 1" xmlns="http://www.w3.org/2000/svg" viewBox="0 0 614.48 500.03">
  <defs>
    <style>
      .cls-1 {
        fill: #c1e1ea;
      }

      .cls-2 {
        fill: #fff;
      }

      .cls-3 {
        fill: #07090c;
      }

      .cls-4 {
        fill: #0091ff;
      }

      .cls-5 {
        fill: #3079bc;
      }

      .cls-6 {
        fill: #1f3371;
      }

      .cls-7 {
        fill: #ffcf25;
      }

      .cls-8 {
        fill: #22366d;
      }
    </style>
  </defs>
  <g>
    <g>
      <g>
        <g>
          <rect class="cls-2" x="302.48" y="211.96" width="155.79" height="249.39" rx="4.49" ry="4.49"/>
          <path d="M453.78,462.02h-146.81c-2.85,0-5.16-2.32-5.16-5.16v-240.41c0-2.85,2.31-5.16,5.16-5.16h146.81c2.85,0,5.16,2.31,5.16,5.16v240.41c0,2.85-2.31,5.16-5.16,5.16ZM306.97,212.63c-2.1,0-3.82,1.71-3.82,3.82v240.41c0,2.11,1.71,3.82,3.82,3.82h146.81c2.1,0,3.82-1.71,3.82-3.82v-240.41c0-2.1-1.71-3.82-3.82-3.82h-146.81Z"/>
        </g>
        <path d="M447.26,440.17h-133.76c-.37,0-.67-.3-.67-.67v-207.72c0-.37.3-.67.67-.67h133.76c.37,0,.67.3.67.67v207.72c0,.37-.3.67-.67.67ZM314.17,438.83h132.42v-206.38h-132.42v206.38Z"/>
        <g>
          <g>
            <path d="M432.07,432.81h-.15c-.93,0-1.85-.16-2.72-.47-.35-.13-.53-.51-.41-.86.13-.35.51-.53.86-.41.72.26,1.48.39,2.26.39h.15c.37,0,.67.3.67.67s-.3.67-.67.67ZM435.7,431.85c-.23,0-.46-.12-.58-.34-.18-.32-.07-.73.25-.92.71-.4,1.33-.93,1.86-1.56.24-.28.66-.33.95-.09.29.24.33.66.09.95-.63.76-1.38,1.39-2.23,1.88-.1.06-.22.09-.33.09ZM426.2,430.07c-.2,0-.39-.09-.52-.25-.62-.77-1.08-1.63-1.39-2.56-.11-.35.08-.73.43-.84.35-.11.73.08.85.43.25.78.64,1.5,1.15,2.13.23.29.19.71-.1.94-.12.1-.27.15-.42.15ZM439.35,426.49s-.06,0-.09,0c-.37-.05-.62-.39-.57-.76.04-.31.06-.62.06-.94v-.15c0-.46-.05-.91-.14-1.36-.07-.36.16-.72.52-.79.36-.08.72.16.79.52.11.53.17,1.08.17,1.63v.15c0,.38-.03.76-.08,1.12-.05.34-.33.58-.66.58ZM424.74,423.74s-.1,0-.14-.02c-.36-.08-.59-.44-.51-.8.21-.96.59-1.87,1.13-2.69.2-.31.62-.4.93-.19.31.2.39.62.19.93-.45.68-.77,1.44-.94,2.23-.07.31-.35.53-.66.53ZM437.43,420.28c-.18,0-.36-.07-.49-.21-.56-.6-1.22-1.08-1.95-1.44-.33-.16-.47-.56-.31-.9.16-.33.56-.47.9-.31.88.43,1.67,1.01,2.35,1.73.25.27.24.7-.03.95-.13.12-.3.18-.46.18ZM428.79,418.66c-.25,0-.49-.14-.61-.38-.16-.34-.02-.74.32-.89.89-.42,1.84-.67,2.82-.74.37-.04.69.25.72.62s-.25.69-.62.72c-.82.06-1.61.27-2.35.62-.09.04-.19.06-.29.06Z"/>
            <path d="M406.26,432.81h-.15c-.93,0-1.85-.16-2.71-.47-.35-.13-.53-.51-.41-.86.13-.35.51-.53.86-.41.72.26,1.48.39,2.26.39h.15c.37,0,.67.3.67.67s-.3.67-.67.67ZM409.89,431.85c-.23,0-.46-.12-.58-.34-.18-.32-.07-.73.25-.92.71-.4,1.33-.93,1.86-1.56.23-.28.66-.33.95-.09.29.24.33.66.09.95-.63.76-1.38,1.39-2.23,1.88-.1.06-.22.09-.33.09ZM400.39,430.07c-.2,0-.39-.09-.52-.25-.62-.77-1.08-1.63-1.39-2.56-.11-.35.08-.73.43-.84.35-.11.73.08.85.43.25.78.64,1.5,1.15,2.13.23.29.19.71-.1.94-.12.1-.27.15-.42.15ZM413.54,426.49s-.06,0-.1,0c-.37-.05-.62-.39-.57-.76.04-.31.07-.62.07-.94v-.15c0-.46-.05-.91-.14-1.36-.07-.36.16-.72.52-.79.36-.08.72.16.79.52.11.53.17,1.08.17,1.63v.15c0,.38-.03.76-.08,1.12-.05.34-.34.58-.66.58ZM398.93,423.74s-.1,0-.14-.02c-.36-.08-.59-.44-.51-.8.21-.96.59-1.87,1.13-2.69.2-.31.62-.4.93-.19.31.2.39.62.19.93-.45.68-.77,1.44-.94,2.23-.07.31-.35.53-.66.53ZM411.62,420.28c-.18,0-.36-.07-.49-.21-.56-.6-1.22-1.08-1.95-1.44-.33-.16-.47-.56-.31-.9.16-.33.56-.47.9-.31.88.43,1.67,1.01,2.35,1.73.25.27.24.7-.03.95-.13.12-.3.18-.46.18ZM402.98,418.66c-.25,0-.49-.14-.61-.38-.16-.34-.02-.74.32-.89.89-.42,1.84-.67,2.82-.74.37-.04.69.25.72.62s-.25.69-.62.72c-.82.06-1.61.27-2.35.62-.09.04-.19.06-.29.06Z"/>
            <path d="M380.45,432.81h-.15c-.93,0-1.85-.16-2.72-.47-.35-.13-.53-.51-.41-.86.13-.35.51-.53.86-.41.72.26,1.48.39,2.26.39h.15c.37,0,.67.3.67.67s-.3.67-.67.67ZM384.08,431.85c-.23,0-.46-.12-.58-.34-.18-.32-.07-.73.25-.92.71-.4,1.33-.93,1.86-1.56.23-.28.66-.33.95-.09.29.24.33.66.09.95-.63.76-1.38,1.39-2.23,1.88-.1.06-.22.09-.33.09ZM374.58,430.07c-.2,0-.39-.09-.52-.25-.62-.77-1.08-1.63-1.39-2.56-.11-.35.08-.73.43-.84.35-.11.73.08.85.43.25.78.64,1.5,1.15,2.13.23.29.19.71-.1.94-.12.1-.27.15-.42.15ZM387.73,426.49s-.06,0-.09,0c-.37-.05-.62-.39-.57-.76.04-.31.06-.62.06-.94v-.15c0-.46-.05-.91-.14-1.36-.07-.36.16-.72.52-.79.36-.08.72.16.79.52.11.53.17,1.08.17,1.63v.15c0,.38-.03.76-.08,1.12-.05.34-.33.58-.66.58ZM373.12,423.74s-.1,0-.14-.02c-.36-.08-.59-.44-.51-.8.21-.96.59-1.87,1.13-2.69.2-.31.62-.4.93-.19.31.2.39.62.19.93-.45.68-.77,1.44-.94,2.23-.07.31-.35.53-.66.53ZM385.82,420.28c-.18,0-.36-.07-.49-.21-.56-.6-1.22-1.08-1.95-1.44-.33-.16-.47-.56-.31-.9.16-.33.56-.47.9-.31.88.43,1.67,1.01,2.35,1.73.25.27.24.7-.03.95-.13.12-.3.18-.46.18ZM377.17,418.66c-.25,0-.49-.14-.61-.38-.16-.34-.02-.74.32-.89.89-.42,1.84-.67,2.82-.74.38-.04.69.25.72.62.03.37-.25.69-.62.72-.82.06-1.61.27-2.35.62-.09.04-.19.06-.29.06Z"/>
            <g>
              <rect class="cls-2" x="347.15" y="417.29" width="14.85" height="14.85" rx="7.35" ry="7.35"/>
              <path d="M354.64,432.81h-.15c-4.42,0-8.02-3.6-8.02-8.02v-.15c0-4.42,3.6-8.02,8.02-8.02h.15c4.42,0,8.02,3.6,8.02,8.02v.15c0,4.42-3.6,8.02-8.02,8.02ZM354.49,417.96c-3.68,0-6.68,3-6.68,6.68v.15c0,3.68,3,6.68,6.68,6.68h.15c3.68,0,6.68-3,6.68-6.68v-.15c0-3.68-3-6.68-6.68-6.68h-.15Z"/>
            </g>
            <g>
              <rect class="cls-2" x="321.34" y="417.29" width="14.85" height="14.85" rx="7.35" ry="7.35"/>
              <path d="M328.83,432.81h-.15c-4.42,0-8.02-3.6-8.02-8.02v-.15c0-4.42,3.6-8.02,8.02-8.02h.15c4.42,0,8.02,3.6,8.02,8.02v.15c0,4.42-3.6,8.02-8.02,8.02ZM328.69,417.96c-3.68,0-6.68,3-6.68,6.68v.15c0,3.68,3,6.68,6.68,6.68h.15c3.68,0,6.68-3,6.68-6.68v-.15c0-3.68-3-6.68-6.68-6.68h-.15Z"/>
            </g>
          </g>
          <g>
            <g>
              <rect class="cls-2" x="323.25" y="240.36" width="27.89" height="27.89"/>
              <path d="M351.15,268.93h-27.89c-.37,0-.67-.3-.67-.67v-27.89c0-.37.3-.67.67-.67h27.89c.37,0,.67.3.67.67v27.89c0,.37-.3.67-.67.67ZM323.93,267.59h26.55v-26.55h-26.55v26.55Z"/>
            </g>
            <path d="M437.5,268.93h-6.72c-.37,0-.67-.3-.67-.67s.3-.67.67-.67h6.72c.37,0,.67.3.67.67s-.3.67-.67.67ZM422.72,268.93h-6.72c-.37,0-.67-.3-.67-.67s.3-.67.67-.67h6.72c.37,0,.67.3.67.67s-.3.67-.67.67ZM407.95,268.93h-6.72c-.37,0-.67-.3-.67-.67s.3-.67.67-.67h6.72c.37,0,.67.3.67.67s-.3.67-.67.67ZM393.17,268.93h-6.72c-.37,0-.67-.3-.67-.67s.3-.67.67-.67h6.72c.37,0,.67.3.67.67s-.3.67-.67.67ZM378.39,268.93h-6.72c-.37,0-.67-.3-.67-.67s.3-.67.67-.67h6.72c.37,0,.67.3.67.67s-.3.67-.67.67ZM363.62,268.93h-.15c-.37,0-.67-.3-.67-.67v-6.57c0-.37.3-.67.67-.67s.67.3.67.67v6.15c.09.11.15.26.15.42,0,.37-.3.67-.67.67ZM437.5,263.89c-.37,0-.67-.3-.67-.67v-6.72c0-.37.3-.67.67-.67s.67.3.67.67v6.72c0,.37-.3.67-.67.67ZM363.47,254.3c-.37,0-.67-.3-.67-.67v-6.72c0-.37.3-.67.67-.67s.67.3.67.67v6.72c0,.37-.3.67-.67.67ZM437.5,249.12c-.37,0-.67-.3-.67-.67v-6.72c0-.37.3-.67.67-.67s.67.3.67.67v6.72c0,.37-.3.67-.67.67ZM430.8,241.04h-6.72c-.37,0-.67-.3-.67-.67s.3-.67.67-.67h6.72c.37,0,.67.3.67.67s-.3.67-.67.67ZM416.03,241.04h-6.72c-.37,0-.67-.3-.67-.67s.3-.67.67-.67h6.72c.37,0,.67.3.67.67s-.3.67-.67.67ZM401.25,241.04h-6.72c-.37,0-.67-.3-.67-.67s.3-.67.67-.67h6.72c.37,0,.67.3.67.67s-.3.67-.67.67ZM386.47,241.04h-6.72c-.37,0-.67-.3-.67-.67s.3-.67.67-.67h6.72c.37,0,.67.3.67.67s-.3.67-.67.67ZM371.7,241.04h-6.72c-.37,0-.67-.3-.67-.67s.3-.67.67-.67h6.72c.37,0,.67.3.67.67s-.3.67-.67.67Z"/>
            <g>
              <path d="M437.5,398.54h-3.36c-.37,0-.67-.3-.67-.67s.3-.67.67-.67h2.69v-2.69c0-.37.3-.67.67-.67s.67.3.67.67v3.36c0,.37-.3.67-.67.67Z"/>
              <path d="M426.37,398.54h-6.48c-.37,0-.67-.3-.67-.67s.3-.67.67-.67h6.48c.37,0,.67.3.67.67s-.3.67-.67.67ZM412.12,398.54h-6.48c-.37,0-.67-.3-.67-.67s.3-.67.67-.67h6.48c.37,0,.67.3.67.67s-.3.67-.67.67ZM397.87,398.54h-6.48c-.37,0-.67-.3-.67-.67s.3-.67.67-.67h6.48c.37,0,.67.3.67.67s-.3.67-.67.67ZM383.62,398.54h-6.48c-.37,0-.67-.3-.67-.67s.3-.67.67-.67h6.48c.37,0,.67.3.67.67s-.3.67-.67.67ZM369.37,398.54h-6.48c-.37,0-.67-.3-.67-.67s.3-.67.67-.67h6.48c.37,0,.67.3.67.67s-.3.67-.67.67ZM355.11,398.54h-6.48c-.37,0-.67-.3-.67-.67s.3-.67.67-.67h6.48c.37,0,.67.3.67.67s-.3.67-.67.67ZM340.86,398.54h-6.48c-.37,0-.67-.3-.67-.67s.3-.67.67-.67h6.48c.37,0,.67.3.67.67s-.3.67-.67.67Z"/>
              <path d="M326.61,398.54h-3.36c-.37,0-.67-.3-.67-.67v-3.36c0-.37.3-.67.67-.67s.67.3.67.67v2.69h2.69c.37,0,.67.3.67.67s-.3.67-.67.67Z"/>
              <path d="M323.25,387.7c-.37,0-.67-.3-.67-.67v-6.23c0-.37.3-.67.67-.67s.67.3.67.67v6.23c0,.37-.3.67-.67.67Z"/>
              <path d="M323.25,374c-.37,0-.67-.3-.67-.67v-3.36c0-.37.3-.67.67-.67h3.36c.37,0,.67.3.67.67s-.3.67-.67.67h-2.69v2.69c0,.37-.3.67-.67.67Z"/>
              <path d="M426.37,370.64h-6.48c-.37,0-.67-.3-.67-.67s.3-.67.67-.67h6.48c.37,0,.67.3.67.67s-.3.67-.67.67ZM412.12,370.64h-6.48c-.37,0-.67-.3-.67-.67s.3-.67.67-.67h6.48c.37,0,.67.3.67.67s-.3.67-.67.67ZM397.87,370.64h-6.48c-.37,0-.67-.3-.67-.67s.3-.67.67-.67h6.48c.37,0,.67.3.67.67s-.3.67-.67.67ZM383.62,370.64h-6.48c-.37,0-.67-.3-.67-.67s.3-.67.67-.67h6.48c.37,0,.67.3.67.67s-.3.67-.67.67ZM369.37,370.64h-6.48c-.37,0-.67-.3-.67-.67s.3-.67.67-.67h6.48c.37,0,.67.3.67.67s-.3.67-.67.67ZM355.11,370.64h-6.48c-.37,0-.67-.3-.67-.67s.3-.67.67-.67h6.48c.37,0,.67.3.67.67s-.3.67-.67.67ZM340.86,370.64h-6.48c-.37,0-.67-.3-.67-.67s.3-.67.67-.67h6.48c.37,0,.67.3.67.67s-.3.67-.67.67Z"/>
              <path d="M437.5,374c-.37,0-.67-.3-.67-.67v-2.69h-2.69c-.37,0-.67-.3-.67-.67s.3-.67.67-.67h3.36c.37,0,.67.3.67.67v3.36c0,.37-.3.67-.67.67Z"/>
              <path d="M437.5,387.7c-.37,0-.67-.3-.67-.67v-6.23c0-.37.3-.67.67-.67s.67.3.67.67v6.23c0,.37-.3.67-.67.67Z"/>
            </g>
            <path d="M375.13,360.98h-6.72c-.37,0-.67-.3-.67-.67s.3-.67.67-.67h6.47c.4-.18.91.11.91.57v.1c0,.37-.3.67-.67.67ZM360.35,360.98h-6.72c-.37,0-.67-.3-.67-.67s.3-.67.67-.67h6.72c.37,0,.67.3.67.67s-.3.67-.67.67ZM345.57,360.98h-6.72c-.37,0-.67-.3-.67-.67s.3-.67.67-.67h6.72c.37,0,.67.3.67.67s-.3.67-.67.67ZM330.8,360.98h-6.72c-.37,0-.67-.3-.67-.67s.3-.67.67-.67h6.72c.37,0,.67.3.67.67s-.3.67-.67.67ZM323.25,353.75c-.37,0-.67-.3-.67-.67v-6.72c0-.37.3-.67.67-.67s.67.3.67.67v6.72c0,.37-.3.67-.67.67ZM375.13,352.82c-.37,0-.67-.3-.67-.67v-6.72c0-.37.3-.67.67-.67s.67.3.67.67v6.72c0,.37-.3.67-.67.67ZM323.25,338.97c-.37,0-.67-.3-.67-.67v-6.72c0-.37.3-.67.67-.67s.67.3.67.67v6.72c0,.37-.3.67-.67.67ZM375.13,338.04c-.37,0-.67-.3-.67-.67v-6.72c0-.37.3-.67.67-.67s.67.3.67.67v6.72c0,.37-.3.67-.67.67ZM323.25,324.19c-.37,0-.67-.3-.67-.67v-6.72c0-.37.3-.67.67-.67s.67.3.67.67v6.72c0,.37-.3.67-.67.67ZM375.13,323.26c-.37,0-.67-.3-.67-.67v-6.72c0-.37.3-.67.67-.67s.67.3.67.67v6.72c0,.37-.3.67-.67.67ZM323.25,309.42c-.37,0-.67-.3-.67-.67v-6.72c0-.37.3-.67.67-.67s.67.3.67.67v6.72c0,.37-.3.67-.67.67ZM375.13,308.49c-.37,0-.67-.3-.67-.67v-6.72c0-.37.3-.67.67-.67s.67.3.67.67v6.72c0,.37-.3.67-.67.67ZM323.25,294.64c-.37,0-.67-.3-.67-.67v-6.72c0-.37.3-.67.67-.67s.67.3.67.67v6.72c0,.37-.3.67-.67.67ZM375.13,293.71c-.37,0-.67-.3-.67-.67v-6.72c0-.37.3-.67.67-.67s.67.3.67.67v6.72c0,.37-.3.67-.67.67ZM323.25,279.83c-.37,0-.67-.27-.67-.65v-.05c0-.37.3-.67.67-.67h6.66c.37,0,.67.3.67.67s-.3.67-.67.67h-6.48c-.06.02-.12.03-.18.03ZM374.25,279.81h-6.72c-.37,0-.67-.3-.67-.67s.3-.67.67-.67h6.72c.37,0,.67.3.67.67s-.3.67-.67.67ZM359.47,279.81h-6.72c-.37,0-.67-.3-.67-.67s.3-.67.67-.67h6.72c.37,0,.67.3.67.67s-.3.67-.67.67ZM344.7,279.81h-6.72c-.37,0-.67-.3-.67-.67s.3-.67.67-.67h6.72c.37,0,.67.3.67.67s-.3.67-.67.67Z"/>
            <path d="M437.5,360.98h-51.87c-.37,0-.67-.3-.67-.67v-81.18c0-.37.3-.67.67-.67h51.87c.37,0,.67.3.67.67v81.18c0,.37-.3.67-.67.67ZM386.3,359.64h50.53v-79.83h-50.53v79.83Z"/>
            <g>
              <path d="M429.74,320.7h-36.35c-.37,0-.67-.3-.67-.67s.3-.67.67-.67h36.35c.37,0,.67.3.67.67s-.3.67-.67.67Z"/>
              <path d="M429.74,330.51h-36.35c-.37,0-.67-.3-.67-.67s.3-.67.67-.67h36.35c.37,0,.67.3.67.67s-.3.67-.67.67Z"/>
              <path d="M429.74,340.31h-36.35c-.37,0-.67-.3-.67-.67s.3-.67.67-.67h36.35c.37,0,.67.3.67.67s-.3.67-.67.67Z"/>
              <path d="M429.74,350.11h-36.35c-.37,0-.67-.3-.67-.67s.3-.67.67-.67h36.35c.37,0,.67.3.67.67s-.3.67-.67.67Z"/>
            </g>
            <path d="M429.74,310.9h-36.35c-.37,0-.67-.3-.67-.67s.3-.67.67-.67h36.35c.37,0,.67.3.67.67s-.3.67-.67.67Z"/>
            <g>
              <rect class="cls-2" x="393.39" y="285.45" width="14.85" height="14.85"/>
              <path d="M408.24,300.97h-14.85c-.37,0-.67-.3-.67-.67v-14.85c0-.37.3-.67.67-.67h14.85c.37,0,.67.3.67.67v14.85c0,.37-.3.67-.67.67ZM394.06,299.63h13.5v-13.5h-13.5v13.5Z"/>
            </g>
            <g>
              <rect class="cls-2" x="414.89" y="285.45" width="14.85" height="14.85"/>
              <path d="M429.74,300.97h-14.85c-.37,0-.67-.3-.67-.67v-14.85c0-.37.3-.67.67-.67h14.85c.37,0,.67.3.67.67v14.85c0,.37-.3.67-.67.67ZM415.56,299.63h13.5v-13.5h-13.5v13.5Z"/>
            </g>
          </g>
          <path d="M439.42,411.06h-118.08c-.37,0-.67-.3-.67-.67s.3-.67.67-.67h118.08c.37,0,.67.3.67.67s-.3.67-.67.67Z"/>
        </g>
        <path class="cls-2" d="M393.62,454.97h-26.49c-1.75,0-3.17-1.38-3.17-3.09v-2.92c0-1.71,1.42-3.09,3.17-3.09h26.49c1.75,0,3.17,1.38,3.17,3.09v2.92c0,1.71-1.42,3.09-3.17,3.09Z"/>
        <path d="M393.81,455.24h-26.87c-1.94,0-3.51-1.58-3.51-3.51v-2.61c0-1.94,1.58-3.51,3.51-3.51h26.87c1.94,0,3.51,1.58,3.51,3.51v2.61c0,1.94-1.58,3.51-3.51,3.51ZM366.94,446.95c-1.2,0-2.17.97-2.17,2.17v2.61c0,1.2.97,2.17,2.17,2.17h26.87c1.2,0,2.17-.97,2.17-2.17v-2.61c0-1.2-.97-2.17-2.17-2.17h-26.87Z"/>
        <path d="M394.67,224.46h-28.58c-1.42,0-2.57-1.15-2.57-2.57s1.15-2.61,2.57-2.61h28.58c1.42,0,2.57,1.15,2.57,2.57s-1.15,2.61-2.57,2.61ZM366.09,220.62c-.68,0-1.23.55-1.23,1.23,0,.72.55,1.27,1.23,1.27h28.58c.68,0,1.23-.55,1.23-1.23,0-.72-.55-1.27-1.23-1.27h-28.58Z"/>
        <path d="M412.51,225.3c-1.89,0-3.44-1.54-3.44-3.44s1.54-3.44,3.44-3.44,3.44,1.54,3.44,3.44-1.54,3.44-3.44,3.44ZM412.51,219.78c-1.15,0-2.09.94-2.09,2.09s.94,2.09,2.09,2.09,2.09-.94,2.09-2.09-.94-2.09-2.09-2.09Z"/>
        <path d="M349.17,224.06h-2.68c-1.2,0-2.18-.98-2.18-2.18s.98-2.21,2.18-2.21h2.68c1.2,0,2.18.98,2.18,2.18s-.98,2.21-2.18,2.21ZM346.49,221.02c-.46,0-.83.37-.83.83,0,.49.37.86.83.86h2.68c.46,0,.83-.37.83-.83,0-.49-.37-.86-.83-.86h-2.68Z"/>
      </g>
      <g>
        <path class="cls-2" d="M439.84,211.38v.58h-12.78v-.58c0-.87.7-1.57,1.57-1.57h9.64c.87,0,1.57.7,1.57,1.57Z"/>
        <path d="M439.84,212.63h-12.78c-.37,0-.67-.3-.67-.67v-.58c0-1.24,1.01-2.25,2.25-2.25h9.64c1.24,0,2.25,1.01,2.25,2.25v.58c0,.37-.3.67-.67.67ZM427.74,211.29h11.43c-.05-.45-.43-.81-.9-.81h-9.64c-.47,0-.85.35-.9.81Z"/>
      </g>
    </g>
    <g>
      <g>
        <g>
          <g>
            <g>
              <path class="cls-2" d="M217.01,133.33h-26.85c-1.51,0-2.73,1.22-2.73,2.73v44.53c0,1.51,1.22,2.73,2.73,2.73h39.3c1.51,0,2.73-1.22,2.73-2.73v-32.08c0-.72-.29-1.42-.8-1.93l-12.45-12.45c-.51-.51-1.2-.8-1.93-.8Z"/>
              <path d="M229.46,183.98h-39.3c-1.87,0-3.4-1.52-3.4-3.4v-44.53c0-1.87,1.52-3.4,3.4-3.4h26.85c.91,0,1.76.35,2.4,1l12.45,12.45c.64.64,1,1.5,1,2.4v32.08c0,1.87-1.52,3.4-3.4,3.4ZM190.17,134c-1.13,0-2.05.92-2.05,2.05v44.53c0,1.13.92,2.05,2.05,2.05h39.3c1.13,0,2.05-.92,2.05-2.05v-32.08c0-.55-.21-1.06-.6-1.45l-12.45-12.45c-.39-.39-.9-.6-1.45-.6h-26.85Z"/>
            </g>
            <g>
              <rect class="cls-2" x="200.35" y="148.16" width="20.49" height="2.35" transform="translate(-43.91 192.65) rotate(-45)"/>
              <rect class="cls-2" x="199.07" y="154.97" width="25.55" height="4.06" transform="translate(-48.97 195.78) rotate(-45)"/>
              <path d="M221.42,165.98h-14.83c-1.27,0-2.31-1.04-2.31-2.31v-19.62c0-1.27,1.04-2.31,2.31-2.31h6.34c.94,0,1.83.37,2.5,1.03l7.27,7.27c.67.67,1.03,1.55,1.03,2.5v11.13c0,1.27-1.04,2.31-2.31,2.31ZM206.59,143.09c-.53,0-.96.43-.96.97v19.62c0,.53.43.96.96.96h14.83c.53,0,.96-.43.96-.96v-11.13c0-.58-.23-1.13-.64-1.55l-7.27-7.27c-.41-.41-.97-.64-1.55-.64h-6.34Z"/>
            </g>
            <polygon points="215.4 133.55 198.33 83.75 192.19 83.75 192.12 133.33 190.78 133.33 190.85 82.41 199.29 82.41 216.67 133.11 215.4 133.55"/>
            <rect x="201.04" y="104.06" width="1.34" height="23.54" transform="translate(2.05 235.16) rotate(-60.73)"/>
            <rect x="189.89" y="126.79" width="23.68" height="1.34" transform="translate(-36.65 116.75) rotate(-29.71)"/>
            <rect x="197.74" y="90.31" width="1.34" height="15.96" transform="translate(15.67 223.32) rotate(-60.73)"/>
            <rect x="195.52" y="81.1" width="1.34" height="10.57" transform="translate(24.93 215.32) rotate(-60.74)"/>
            <rect x="190.4" y="105.46" width="15.89" height="1.34" transform="translate(-26.53 112.27) rotate(-29.71)"/>
            <rect x="190.74" y="91.04" width="10.78" height="1.34" transform="translate(-19.67 109.26) rotate(-29.71)"/>
            <path d="M225,190.87h-31.71c-1.38,0-2.51-1.13-2.51-2.51v-5.72h36.73v5.72c0,1.39-1.13,2.51-2.51,2.51ZM192.12,183.98v4.38c0,.64.52,1.17,1.17,1.17h31.71c.64,0,1.17-.52,1.17-1.17v-4.38h-34.05Z"/>
            <g>
              <g>
                <g>
                  <rect x="208.47" y="182.66" width="1.34" height="36.29" transform="translate(-76.02 253.19) rotate(-54.24)"/>
                  <rect x="190.88" y="221.54" width="36.53" height="1.34" transform="translate(-90.93 166.75) rotate(-36.26)"/>
                  <rect x="208.47" y="225.48" width="1.34" height="36.29" transform="translate(-110.77 270.99) rotate(-54.24)"/>
                  <rect x="190.88" y="264.37" width="36.53" height="1.34" transform="translate(-116.26 175.05) rotate(-36.26)"/>
                  <rect x="208.47" y="268.31" width="1.34" height="36.29" transform="translate(-145.52 288.8) rotate(-54.25)"/>
                  <rect x="190.88" y="307.19" width="36.53" height="1.34" transform="translate(-141.6 183.36) rotate(-36.27)"/>
                  <rect x="208.47" y="311.13" width="1.34" height="36.29" transform="translate(-180.28 306.59) rotate(-54.24)"/>
                  <rect x="190.88" y="350.01" width="36.53" height="1.34" transform="translate(-166.93 191.66) rotate(-36.27)"/>
                  <rect x="208.47" y="353.95" width="1.34" height="36.29" transform="translate(-215.03 324.39) rotate(-54.24)"/>
                  <rect x="190.88" y="392.84" width="36.53" height="1.34" transform="translate(-192.26 199.96) rotate(-36.27)"/>
                  <rect x="208.47" y="396.78" width="1.34" height="36.29" transform="translate(-249.78 342.19) rotate(-54.24)"/>
                </g>
                <g>
                  <rect x="191" y="200.13" width="36.29" height="1.34" transform="translate(-77.93 160.15) rotate(-35.77)"/>
                  <rect x="208.47" y="203.95" width="1.34" height="36.53" transform="translate(-93.75 259.3) rotate(-53.72)"/>
                  <rect x="191" y="242.96" width="36.29" height="1.34" transform="translate(-102.96 168.21) rotate(-35.77)"/>
                  <rect x="208.47" y="246.77" width="1.34" height="36.53" transform="translate(-128.27 276.77) rotate(-53.71)"/>
                  <rect x="191" y="285.78" width="36.29" height="1.34" transform="translate(-128 176.31) rotate(-35.77)"/>
                  <rect x="208.47" y="289.6" width="1.34" height="36.53" transform="translate(-162.79 294.25) rotate(-53.71)"/>
                  <rect x="191" y="328.6" width="36.29" height="1.34" transform="translate(-153.02 184.37) rotate(-35.77)"/>
                  <rect x="208.47" y="332.42" width="1.34" height="36.53" transform="translate(-197.31 311.74) rotate(-53.72)"/>
                  <rect x="191" y="371.43" width="36.29" height="1.34" transform="translate(-178.07 192.47) rotate(-35.77)"/>
                  <rect x="208.47" y="375.24" width="1.34" height="36.53" transform="translate(-231.83 329.21) rotate(-53.71)"/>
                  <rect x="191" y="414.25" width="36.29" height="1.34" transform="translate(-203.09 200.53) rotate(-35.77)"/>
                </g>
              </g>
              <polygon points="224.54 426.18 193.75 426.18 193.75 190.2 195.09 190.2 195.09 424.84 223.2 424.84 223.2 190.2 224.54 190.2 224.54 426.18"/>
            </g>
            <g>
              <polygon points="474.56 183.98 223.87 183.98 223.87 182.64 472.07 182.64 455.19 156.97 244.84 156.97 232.59 170.91 231.58 170.02 244.23 155.63 455.91 155.63 474.56 183.98"/>
              <rect x="430.76" y="169.13" width="32.15" height="1.34" transform="translate(61.8 453.08) rotate(-57.15)"/>
              <rect x="428.57" y="153.64" width="1.34" height="32.33" transform="translate(-22.7 263.79) rotate(-33.33)"/>
              <rect x="395.57" y="169.13" width="32.15" height="1.34" transform="translate(45.7 423.51) rotate(-57.15)"/>
              <rect x="393.38" y="153.64" width="1.34" height="32.33" transform="translate(-28.49 244.46) rotate(-33.33)"/>
              <rect x="360.38" y="169.13" width="32.15" height="1.34" transform="translate(29.6 393.95) rotate(-57.15)"/>
              <rect x="358.18" y="153.64" width="1.34" height="32.33" transform="translate(-34.28 225.11) rotate(-33.33)"/>
              <rect x="325.18" y="169.13" width="32.15" height="1.34" transform="translate(13.49 364.38) rotate(-57.15)"/>
              <rect x="322.99" y="153.64" width="1.34" height="32.33" transform="translate(-40.06 205.78) rotate(-33.33)"/>
              <rect x="289.99" y="169.13" width="32.15" height="1.34" transform="translate(-2.6 334.83) rotate(-57.15)"/>
              <rect x="287.8" y="153.64" width="1.34" height="32.33" transform="translate(-45.85 186.44) rotate(-33.33)"/>
              <rect x="254.8" y="169.13" width="32.15" height="1.34" transform="translate(-18.71 305.25) rotate(-57.15)"/>
              <rect x="252.6" y="153.64" width="1.34" height="32.33" transform="translate(-51.64 167.1) rotate(-33.33)"/>
            </g>
            <g>
              <rect x="114.12" y="161.13" width="1.34" height="24.11" transform="translate(-75.55 89.87) rotate(-32.82)"/>
              <rect x="115.86" y="172.51" width="24.25" height="1.34" transform="translate(-87.02 185.12) rotate(-56.71)"/>
              <rect x="140.51" y="161.13" width="1.34" height="24.11" transform="translate(-71.33 104.17) rotate(-32.82)"/>
              <rect x="142.26" y="172.51" width="24.25" height="1.34" transform="translate(-75.12 207.17) rotate(-56.71)"/>
              <rect x="63.07" y="172.51" width="24.25" height="1.34" transform="translate(-110.84 140.99) rotate(-56.71)"/>
              <rect x="87.72" y="161.13" width="1.34" height="24.11" transform="translate(-79.76 75.56) rotate(-32.82)"/>
              <rect x="89.47" y="172.51" width="24.25" height="1.34" transform="translate(-98.93 163.04) rotate(-56.71)"/>
              <rect x="166.91" y="161.13" width="1.34" height="24.11" transform="translate(-67.12 118.48) rotate(-32.82)"/>
              <rect x="168.65" y="172.51" width="24.25" height="1.34" transform="translate(-63.21 229.25) rotate(-56.71)"/>
              <polygon points="190.17 183.98 67.99 183.98 67.99 162.38 187.42 162.38 187.42 163.72 69.33 163.72 69.33 182.64 190.17 182.64 190.17 183.98"/>
            </g>
            <rect x="308.95" y="3.06" width="1.34" height="233.27" transform="translate(98.8 376.09) rotate(-71.71)"/>
            <rect class="cls-2" x="81.84" y="154.61" width="13.18" height="35.53"/>
            <rect class="cls-2" x="95.02" y="154.61" width="13.18" height="35.53"/>
            <g>
              <rect class="cls-2" x="68.66" y="154.61" width="13.18" height="35.53"/>
              <rect class="cls-2" x="68.87" y="154.61" width="38.92" height="3.26"/>
              <rect class="cls-2" x="68.66" y="154.61" width="2.47" height="35.53"/>
              <rect class="cls-2" x="81.84" y="154.61" width="2.47" height="35.53"/>
              <rect class="cls-2" x="95.02" y="154.61" width="2.47" height="35.53"/>
              <path d="M95.69,153.94h-27.7v36.87h40.88v-36.87h-13.18ZM81.17,189.46h-11.83v-34.18h11.83v34.18ZM94.34,189.46h-11.84v-34.18h11.84v34.18ZM107.52,189.46h-11.84v-34.18h11.84v34.18Z"/>
            </g>
            <rect x="92.16" y="122.4" width="115.44" height="1.34" transform="translate(-43.46 138.16) rotate(-43.85)"/>
            <path d="M199.55,83.75h-8.71v-4.48h8.71v4.48ZM192.19,82.41h6.02v-1.8h-6.02v1.8Z"/>
            <rect x="167.33" y="436.01" width="31.7" height="1.34" transform="translate(-254.65 256.25) rotate(-44.85)"/>
            <rect x="193.75" y="425.51" width="1.34" height="22.34"/>
            <rect x="234.44" y="420.83" width="1.34" height="31.7" transform="translate(-240.38 295.71) rotate(-45.19)"/>
            <rect x="223.2" y="425.51" width="1.34" height="22.34"/>
            <rect x="208.47" y="418.2" width="1.34" height="36.96" transform="translate(-265.16 339.36) rotate(-52.81)"/>
            <rect x="190.66" y="436.01" width="36.96" height="1.34" transform="translate(-221.4 215.17) rotate(-37.18)"/>
            <g>
              <rect class="cls-2" x="151.49" y="447.85" width="115.31" height="10.4"/>
              <path d="M267.47,458.93h-116.66v-11.74h116.66v11.74ZM152.16,457.58h113.97v-9.06h-113.97v9.06Z"/>
            </g>
            <g>
              <g>
                <g>
                  <g>
                    <path class="cls-2" d="M156.19,461.6c0-2.79-2.26-5.05-5.05-5.05s-5.05,2.26-5.05,5.05,2.26,5.05,5.05,5.05,5.05-2.26,5.05-5.05Z"/>
                    <path d="M151.14,467.32c-3.16,0-5.72-2.57-5.72-5.72s2.57-5.72,5.72-5.72,5.72,2.57,5.72,5.72-2.57,5.72-5.72,5.72ZM151.14,457.22c-2.42,0-4.38,1.97-4.38,4.38s1.97,4.38,4.38,4.38,4.38-1.97,4.38-4.38-1.97-4.38-4.38-4.38Z"/>
                  </g>
                  <g>
                    <circle class="cls-2" cx="163.64" cy="461.6" r="5.05"/>
                    <path d="M163.64,467.32c-3.16,0-5.72-2.57-5.72-5.72s2.57-5.72,5.72-5.72,5.72,2.57,5.72,5.72-2.57,5.72-5.72,5.72ZM163.64,457.22c-2.42,0-4.38,1.97-4.38,4.38s1.97,4.38,4.38,4.38,4.38-1.97,4.38-4.38-1.97-4.38-4.38-4.38Z"/>
                  </g>
                </g>
                <g>
                  <rect class="cls-2" x="144.25" y="453.89" width="26.27" height="7.71"/>
                  <path d="M171.19,462.27h-27.61v-9.05h27.61v9.05ZM144.93,460.93h24.92v-6.36h-24.92v6.36Z"/>
                </g>
              </g>
              <g>
                <g>
                  <g>
                    <circle class="cls-2" cx="254.65" cy="461.6" r="5.05"/>
                    <path d="M254.65,467.32c-3.16,0-5.72-2.57-5.72-5.72s2.57-5.72,5.72-5.72,5.72,2.57,5.72,5.72-2.57,5.72-5.72,5.72ZM254.65,457.22c-2.42,0-4.38,1.97-4.38,4.38s1.96,4.38,4.38,4.38,4.38-1.97,4.38-4.38-1.97-4.38-4.38-4.38Z"/>
                  </g>
                  <g>
                    <path class="cls-2" d="M272.21,461.6c0-2.79-2.26-5.05-5.05-5.05s-5.05,2.26-5.05,5.05,2.26,5.05,5.05,5.05,5.05-2.26,5.05-5.05Z"/>
                    <path d="M267.15,467.32c-3.16,0-5.72-2.57-5.72-5.72s2.57-5.72,5.72-5.72,5.72,2.57,5.72,5.72-2.57,5.72-5.72,5.72ZM267.15,457.22c-2.42,0-4.38,1.97-4.38,4.38s1.97,4.38,4.38,4.38,4.38-1.97,4.38-4.38-1.97-4.38-4.38-4.38Z"/>
                  </g>
                </g>
                <g>
                  <rect class="cls-2" x="247.77" y="453.89" width="26.27" height="7.71"/>
                  <path d="M274.71,462.27h-27.61v-9.05h27.61v9.05ZM248.44,460.93h24.92v-6.36h-24.92v6.36Z"/>
                </g>
              </g>
            </g>
          </g>
          <g>
            <path d="M405.2,187.77h-16.8c-.77,0-1.39-.62-1.39-1.39v-3.74h19.58v3.74c0,.77-.63,1.39-1.39,1.39ZM388.35,183.98v2.39l16.85.05s.05-.02.05-.05v-2.39h-16.9Z"/>
            <g>
              <rect x="389.95" y="187.1" width="1.34" height="20.75"/>
              <rect x="402.31" y="187.1" width="1.34" height="20.75"/>
            </g>
            <g>
              <path class="cls-2" d="M398.78,224.89h-3.96c-.73,0-1.41-.42-1.73-1.08l-2.97-6.08c-.89-1.82-1.35-3.82-1.35-5.85v-2.57c0-4.39,2.23-2.46,4.35-3.52,2.32-1.16,5.05-1.16,7.38,0,2.11,1.06,4.35-.87,4.35,3.52v2.57c0,2.03-.46,4.03-1.35,5.85l-2.97,6.08c-.32.66-.99,1.08-1.73,1.08Z"/>
              <path d="M398.78,225.56h-3.96c-.98,0-1.9-.57-2.33-1.45l-2.98-6.08c-.93-1.9-1.42-4.03-1.42-6.15v-2.57c0-3.37,1.31-3.7,3.01-3.79.57-.03,1.16-.06,1.71-.33,2.47-1.23,5.51-1.23,7.98,0,.54.27,1.13.3,1.71.33,1.71.09,3.01.42,3.01,3.79v2.57c0,2.12-.49,4.24-1.42,6.15l-2.98,6.08c-.43.88-1.35,1.45-2.33,1.45ZM396.8,205.59c-1.17,0-2.34.28-3.39.8-.8.4-1.6.44-2.24.47-1.23.06-1.74.09-1.74,2.45v2.57c0,1.91.44,3.84,1.29,5.56l2.98,6.08c.21.43.65.7,1.12.7h3.96c.47,0,.92-.28,1.12-.7l2.98-6.08c.84-1.72,1.29-3.64,1.29-5.56v-2.57c0-2.36-.51-2.38-1.74-2.45-.64-.03-1.44-.07-2.24-.47-1.05-.52-2.22-.8-3.39-.8Z"/>
            </g>
          </g>
        </g>
        <g>
          <path class="cls-2" d="M398.04,226.05v.79c0,.98.59,2.34,1.3,3.01,3.71,3.48,3.71,5.57,3.71,6.78,0,3.82-3.47,7-7.5,6.34-2.99-.49-5.27-3.14-5.35-6.16,0-.33,0-.66.05-.98.1-.81.92-1.32,1.69-1.07h.02c.59.2.93.78.89,1.4-.02.26,0,.52.04.79.2,1.18,1.1,2.17,2.25,2.47,2.1.56,4.01-1.01,4.01-3.04,0-1.17-.67-2.08-1.47-2.83-.36-.34-1.15-1-1.78-1.53-.59-.49-.93-1.22-.93-1.98v-4.01h3.05Z"/>
          <path d="M396.61,243.73c-.39,0-.77-.03-1.16-.1-3.28-.54-5.82-3.47-5.91-6.8,0-.37,0-.73.05-1.08.07-.58.4-1.1.89-1.41.5-.32,1.11-.4,1.67-.22.89.29,1.44,1.14,1.37,2.09-.02.21,0,.42.03.63.16.92.87,1.7,1.76,1.94.78.21,1.58.05,2.19-.42.62-.47.97-1.19.97-1.97s-.39-1.52-1.25-2.34c-.36-.33-1.13-.98-1.75-1.5-.74-.62-1.17-1.53-1.17-2.5v-4.01h1.34v4.01c0,.57.25,1.1.69,1.47.64.53,1.43,1.2,1.8,1.55.72.68,1.68,1.76,1.68,3.32,0,1.2-.54,2.3-1.49,3.03-.95.73-2.17.97-3.36.65-1.4-.37-2.5-1.58-2.74-3.01-.06-.32-.07-.64-.05-.96.02-.28-.1-.6-.42-.71-.21-.07-.4-.04-.56.06-.09.06-.25.19-.28.44-.04.29-.05.58-.04.88.07,2.71,2.13,5.08,4.79,5.52,1.7.28,3.35-.18,4.66-1.29,1.31-1.11,2.06-2.71,2.06-4.39,0-1.12,0-3-3.5-6.29-.85-.79-1.51-2.33-1.51-3.5v-.79s1.34,0,1.34,0v.79c0,.8.51,1.98,1.09,2.53,3.92,3.68,3.92,6.01,3.92,7.27,0,2.07-.92,4.05-2.53,5.41-1.29,1.1-2.92,1.68-4.58,1.68Z"/>
        </g>
        <g>
          <path class="cls-2" d="M399.09,228.41h-4.5c-.36,0-.66-.3-.66-.66v-2.86h5.82v2.86c0,.36-.3.66-.66.66Z"/>
          <path d="M399.09,229.08h-4.5c-.73,0-1.33-.6-1.33-1.33v-3.53h7.16v3.53c0,.73-.6,1.33-1.33,1.33ZM399.09,227.74v.67-.67h0ZM394.61,225.56v2.19h4.48v-2.19h-4.48Z"/>
        </g>
      </g>
      <rect x="393.26" y="196.44" width="1.34" height="4.91"/>
      <rect x="393.26" y="192.51" width="1.34" height="1.82"/>
    </g>
    <g>
      <rect class="cls-2" x="86.83" y="238.81" width="60.84" height="60.84"/>
      <g>
        <g>
          <path d="M152.77,234.38h-3.86c-.37,0-.67-.3-.67-.67s.3-.67.67-.67h3.86c.37,0,.67.3.67.67s-.3.67-.67.67ZM139.51,234.38h-4.03c-.37,0-.67-.3-.67-.67s.3-.67.67-.67h4.03c.37,0,.67.3.67.67s-.3.67-.67.67ZM126.07,234.38h-4.03c-.37,0-.67-.3-.67-.67s.3-.67.67-.67h4.03c.37,0,.67.3.67.67s-.3.67-.67.67ZM112.64,234.38h-4.03c-.37,0-.67-.3-.67-.67s.3-.67.67-.67h4.03c.37,0,.67.3.67.67s-.3.67-.67.67ZM99.2,234.38h-4.03c-.37,0-.67-.3-.67-.67s.3-.67.67-.67h4.03c.37,0,.67.3.67.67s-.3.67-.67.67ZM85.77,234.38h-4.03c-.37,0-.67-.3-.67-.67s.3-.67.67-.67h4.03c.37,0,.67.3.67.67s-.3.67-.67.67Z"/>
          <path d="M152.77,305.42h-3.86c-.37,0-.67-.3-.67-.67s.3-.67.67-.67h3.86c.37,0,.67.3.67.67s-.3.67-.67.67ZM139.51,305.42h-4.03c-.37,0-.67-.3-.67-.67s.3-.67.67-.67h4.03c.37,0,.67.3.67.67s-.3.67-.67.67ZM126.07,305.42h-4.03c-.37,0-.67-.3-.67-.67s.3-.67.67-.67h4.03c.37,0,.67.3.67.67s-.3.67-.67.67ZM112.64,305.42h-4.03c-.37,0-.67-.3-.67-.67s.3-.67.67-.67h4.03c.37,0,.67.3.67.67s-.3.67-.67.67ZM99.2,305.42h-4.03c-.37,0-.67-.3-.67-.67s.3-.67.67-.67h4.03c.37,0,.67.3.67.67s-.3.67-.67.67ZM85.77,305.42h-4.03c-.37,0-.67-.3-.67-.67s.3-.67.67-.67h4.03c.37,0,.67.3.67.67s-.3.67-.67.67Z"/>
          <path d="M152.77,305.42c-.37,0-.67-.3-.67-.67v-3.86c0-.37.3-.67.67-.67s.67.3.67.67v3.86c0,.37-.3.67-.67.67ZM152.77,292.15c-.37,0-.67-.3-.67-.67v-4.03c0-.37.3-.67.67-.67s.67.3.67.67v4.03c0,.37-.3.67-.67.67ZM152.77,278.72c-.37,0-.67-.3-.67-.67v-4.03c0-.37.3-.67.67-.67s.67.3.67.67v4.03c0,.37-.3.67-.67.67ZM152.77,265.28c-.37,0-.67-.3-.67-.67v-4.03c0-.37.3-.67.67-.67s.67.3.67.67v4.03c0,.37-.3.67-.67.67ZM152.77,251.85c-.37,0-.67-.3-.67-.67v-4.03c0-.37.3-.67.67-.67s.67.3.67.67v4.03c0,.37-.3.67-.67.67ZM152.77,238.41c-.37,0-.67-.3-.67-.67v-4.03c0-.37.3-.67.67-.67s.67.3.67.67v4.03c0,.37-.3.67-.67.67Z"/>
          <path d="M81.74,305.42c-.37,0-.67-.3-.67-.67v-3.86c0-.37.3-.67.67-.67s.67.3.67.67v3.86c0,.37-.3.67-.67.67ZM81.74,292.15c-.37,0-.67-.3-.67-.67v-4.03c0-.37.3-.67.67-.67s.67.3.67.67v4.03c0,.37-.3.67-.67.67ZM81.74,278.72c-.37,0-.67-.3-.67-.67v-4.03c0-.37.3-.67.67-.67s.67.3.67.67v4.03c0,.37-.3.67-.67.67ZM81.74,265.28c-.37,0-.67-.3-.67-.67v-4.03c0-.37.3-.67.67-.67s.67.3.67.67v4.03c0,.37-.3.67-.67.67ZM81.74,251.85c-.37,0-.67-.3-.67-.67v-4.03c0-.37.3-.67.67-.67s.67.3.67.67v4.03c0,.37-.3.67-.67.67ZM81.74,238.41c-.37,0-.67-.3-.67-.67v-4.03c0-.37.3-.67.67-.67s.67.3.67.67v4.03c0,.37-.3.67-.67.67Z"/>
          <g>
            <g>
              <rect class="cls-2" x="75.25" y="227.22" width="12.98" height="12.98"/>
              <path d="M88.9,240.88h-14.33v-14.33h14.33v14.33ZM75.92,239.53h11.64v-11.64h-11.64v11.64Z"/>
            </g>
            <g>
              <rect class="cls-2" x="75.25" y="298.25" width="12.98" height="12.98"/>
              <path d="M88.9,311.91h-14.33v-14.33h14.33v14.33ZM75.92,310.56h11.64v-11.64h-11.64v11.64Z"/>
            </g>
            <g>
              <rect class="cls-2" x="146.28" y="227.22" width="12.98" height="12.98"/>
              <path d="M159.94,240.88h-14.33v-14.33h14.33v14.33ZM146.95,239.53h11.64v-11.64h-11.64v11.64Z"/>
            </g>
            <g>
              <rect class="cls-2" x="146.28" y="298.25" width="12.98" height="12.98"/>
              <path d="M159.94,311.91h-14.33v-14.33h14.33v14.33ZM146.95,310.56h11.64v-11.64h-11.64v11.64Z"/>
            </g>
          </g>
        </g>
        <g>
          <polygon class="cls-2" points="170.23 316.15 152.16 303.48 157.07 325 160.92 320.66 167.15 329.06 170.69 326.21 164.76 318.09 170.23 316.15"/>
          <path d="M167.15,329.73s-.06,0-.09,0c-.18-.02-.35-.12-.45-.27l-5.74-7.73-3.31,3.72c-.17.19-.43.27-.67.2-.24-.06-.43-.26-.49-.5l-4.91-21.52c-.06-.27.05-.55.28-.71.23-.15.53-.15.76,0l18.07,12.67c.21.14.31.39.28.64-.03.25-.2.46-.44.54l-4.62,1.63,5.4,7.4c.21.29.16.7-.12.92l-3.54,2.84c-.12.1-.27.15-.42.15ZM160.92,319.99h.03c.2,0,.39.11.51.27l5.81,7.83,2.5-2.01-5.56-7.61c-.13-.17-.16-.39-.1-.59.06-.2.22-.36.42-.44l4.24-1.5-15.58-10.92,4.23,18.55,2.99-3.36c.13-.14.31-.23.5-.23Z"/>
        </g>
      </g>
      <g>
        <path d="M106.45,277.19c-.13,0-.27-.04-.39-.12l-11.13-7.88c-.18-.13-.29-.34-.28-.56,0-.22.12-.43.3-.55l11.13-7.32c.31-.2.73-.12.93.19.2.31.12.73-.19.93l-10.31,6.78,10.33,7.31c.3.21.38.63.16.94-.13.18-.34.28-.55.28Z"/>
        <path d="M128.06,277.19c-.22,0-.43-.11-.56-.3-.2-.31-.12-.73.19-.93l10.31-6.78-10.33-7.31c-.3-.21-.38-.63-.16-.94s.63-.38.94-.16l11.13,7.88c.18.13.29.34.28.56,0,.22-.12.43-.3.55l-11.13,7.32c-.11.07-.24.11-.37.11Z"/>
        <path d="M112.27,279.74c-.1,0-.2-.02-.3-.07-.33-.17-.47-.57-.3-.9l10.6-21.08c.17-.33.57-.47.9-.3.33.17.47.57.3.9l-10.6,21.08c-.12.23-.35.37-.6.37Z"/>
      </g>
    </g>
    <g>
      <path d="M345.43,263.22h-16.39c-.37,0-.67-.3-.67-.67v-16.39c0-.37.3-.67.67-.67h11.66c.37,0,.67.3.67.67s-.3.67-.67.67h-10.99v15.05h15.05v-9.24c0-.37.3-.67.67-.67s.67.3.67.67v9.91c0,.37-.3.67-.67.67Z"/>
      <path d="M337.24,258.65h-.01c-.22,0-.43-.12-.55-.3l-3.75-5.74c-.2-.31-.11-.73.2-.93.31-.2.73-.11.93.2l3.2,4.91,8.36-11.96c.21-.31.63-.38.94-.17.3.21.38.63.17.94l-8.93,12.78c-.13.18-.33.29-.55.29Z"/>
    </g>
    <g>
      <g>
        <g>
          <path d="M499.09,408.5h-.28c-8.02,0-14.55-6.53-14.55-14.55v-.28c0-8.02,6.53-14.55,14.55-14.55h.28c8.02,0,14.55,6.53,14.55,14.55v.28c0,8.02-6.53,14.55-14.55,14.55ZM498.81,380.46c-7.28,0-13.21,5.92-13.21,13.21v.28c0,7.28,5.92,13.21,13.21,13.21h.28c7.28,0,13.21-5.92,13.21-13.21v-.28c0-7.28-5.92-13.21-13.21-13.21h-.28Z"/>
          <g>
            <path d="M505.83,394.48h-13.77c-.37,0-.67-.3-.67-.67s.3-.67.67-.67h13.77c.37,0,.67.3.67.67s-.3.67-.67.67Z"/>
            <path d="M505.83,389.31h-13.77c-.37,0-.67-.3-.67-.67s.3-.67.67-.67h13.77c.37,0,.67.3.67.67s-.3.67-.67.67Z"/>
            <path d="M505.83,399.65h-13.77c-.37,0-.67-.3-.67-.67s.3-.67.67-.67h13.77c.37,0,.67.3.67.67s-.3.67-.67.67Z"/>
          </g>
        </g>
        <g>
          <path d="M499.09,369.28h-.28c-8.02,0-14.55-6.53-14.55-14.55v-.28c0-8.02,6.53-14.55,14.55-14.55h.28c8.02,0,14.55,6.53,14.55,14.55v.28c0,8.02-6.53,14.55-14.55,14.55ZM498.81,341.24c-7.28,0-13.21,5.92-13.21,13.21v.28c0,7.28,5.92,13.21,13.21,13.21h.28c7.28,0,13.21-5.92,13.21-13.21v-.28c0-7.28-5.92-13.21-13.21-13.21h-.28Z"/>
          <g>
            <path d="M497.12,358.88c-1.63,0-3.17-.64-4.32-1.79-1.16-1.15-1.79-2.69-1.79-4.32s.64-3.17,1.79-4.32c1.15-1.15,2.69-1.79,4.32-1.79s3.17.64,4.32,1.79c2.38,2.38,2.38,6.26,0,8.65-1.15,1.15-2.69,1.79-4.32,1.79ZM497.12,348c-1.27,0-2.47.5-3.37,1.4s-1.4,2.1-1.4,3.37.5,2.47,1.4,3.37c1.8,1.8,4.95,1.8,6.75,0,1.86-1.86,1.86-4.89,0-6.75-.9-.9-2.1-1.4-3.37-1.4Z"/>
            <path d="M503.82,362.53h0c-.34,0-.66-.13-.9-.38l-3.97-3.98c-.26-.26-.26-.69,0-.95s.69-.26.95,0l3.98,3.98,1.69-1.78-3.97-3.88c-.26-.26-.26-.69,0-.95.26-.26.69-.26.95,0l3.97,3.98c.24.24.37.56.37.9,0,.34-.13.66-.37.91l-1.78,1.78c-.24.24-.56.38-.9.38Z"/>
          </g>
        </g>
        <g>
          <path d="M499.09,330.06h-.28c-8.02,0-14.55-6.53-14.55-14.55v-.28c0-8.02,6.53-14.55,14.55-14.55h.28c8.02,0,14.55,6.53,14.55,14.55v.28c0,8.02-6.53,14.55-14.55,14.55ZM498.81,302.02c-7.28,0-13.21,5.92-13.21,13.21v.28c0,7.28,5.92,13.21,13.21,13.21h.28c7.28,0,13.21-5.92,13.21-13.21v-.28c0-7.28-5.92-13.21-13.21-13.21h-.28Z"/>
          <g>
            <g>
              <path d="M502.48,318.89c-.17,0-.34-.07-.47-.2-1.69-1.69-4.43-1.69-6.12,0-.26.26-.69.26-.95,0s-.26-.69,0-.95c2.21-2.21,5.81-2.21,8.02,0,.26.26.26.69,0,.95-.13.13-.3.2-.47.2Z"/>
              <path d="M505.02,316.35c-.17,0-.34-.07-.47-.2-3.1-3.1-8.13-3.1-11.22-.01-.26.26-.69.26-.95,0-.26-.26-.26-.69,0-.95,3.61-3.61,9.5-3.61,13.12.01.26.26.26.69,0,.95-.13.13-.3.2-.47.2Z"/>
              <path d="M490.31,313.8c-.17,0-.34-.07-.47-.2-.26-.26-.26-.69,0-.95,2.43-2.43,5.67-3.77,9.11-3.77s6.67,1.34,9.11,3.77c.26.26.26.69,0,.95s-.69.26-.95,0c-2.18-2.18-5.08-3.38-8.16-3.38s-5.98,1.2-8.16,3.38c-.13.13-.3.2-.47.2Z"/>
            </g>
            <path d="M498.94,322.43c-.38,0-.73-.15-1-.41-.27-.27-.41-.62-.41-1s.15-.73.41-1c.53-.53,1.46-.53,1.99,0,.27.27.41.62.41,1s-.15.73-.41,1c-.27.27-.62.41-1,.41Z"/>
          </g>
        </g>
      </g>
      <g>
        <path d="M506.31,289.18s-.02,0-.03,0h-14.68c-.24,0-.46-.13-.58-.34-.12-.21-.12-.46,0-.67l7.34-12.72c.24-.41.92-.41,1.16,0l7.26,12.58c.12.12.2.29.2.48,0,.37-.3.67-.67.67ZM492.76,287.84h12.36l-6.18-10.7-6.18,10.7Z"/>
        <path d="M498.94,434.06c-.24,0-.46-.13-.58-.34l-7.34-12.72c-.12-.21-.12-.46,0-.67.12-.21.34-.34.58-.34h14.68c.24,0,.46.13.58.34.12.21.12.46,0,.67l-7.34,12.72c-.12.21-.34.34-.58.34ZM492.76,421.34l6.18,10.7,6.18-10.7h-12.36Z"/>
      </g>
    </g>
    <g>
      <g>
        <g>
          <path class="cls-2" d="M285.04,341.12c0-7.34-3.81-13.79-9.56-17.47-.74-.47-1.72.06-1.72.94v15.97c0,.36-.19.7-.51.88l-8.43,4.87c-.31.18-.7.18-1.01,0l-8.43-4.87c-.31-.18-.51-.51-.51-.88v-15.97c0-.88-.98-1.42-1.72-.94-5.75,3.68-9.57,10.13-9.57,17.47,0,6.57,3.06,10.6,7.83,14.38,1.8,1.43,2.87,3.59,2.87,5.89v47.36c0,4.55,3.69,8.23,8.23,8.23h2.99c4.55,0,8.23-3.69,8.23-8.23v-46.92c0-2.37,1.13-4.58,3.03-6.01,5.01-3.77,8.26-7.94,8.26-14.71Z"/>
          <path d="M265.52,417.65h-2.99c-4.91,0-8.91-3.99-8.91-8.9v-47.36c0-2.09-.95-4.04-2.62-5.36-4.2-3.33-8.09-7.44-8.09-14.91s3.69-14.07,9.87-18.03c.29-.19.62-.28.96-.28.99,0,1.79.8,1.79,1.79v15.97c0,.12.07.23.17.3l8.43,4.87c.1.06.24.06.34,0l8.43-4.87c.1-.06.17-.17.17-.3v-15.97c0-.99.8-1.79,1.79-1.79.34,0,.67.1.96.28,6.18,3.96,9.87,10.7,9.87,18.03,0,7.79-4.31,12.07-8.52,15.24-1.73,1.3-2.76,3.34-2.76,5.47v46.92c0,4.91-3.99,8.9-8.91,8.9ZM253.76,324.15c-.08,0-.16.02-.24.07-5.8,3.71-9.26,10.03-9.26,16.9,0,5.58,2.2,9.59,7.58,13.86,1.99,1.57,3.12,3.91,3.12,6.41v47.36c0,4.17,3.39,7.56,7.56,7.56h2.99c4.17,0,7.56-3.39,7.56-7.56v-46.92c0-2.55,1.23-4.99,3.3-6.54,5.67-4.26,7.99-8.37,7.99-14.17,0-6.87-3.46-13.19-9.25-16.9-.27-.17-.68,0-.68.38v15.97c0,.6-.32,1.16-.84,1.46l-8.43,4.87c-.51.3-1.17.3-1.68,0l-8.43-4.87c-.52-.3-.84-.86-.84-1.46v-15.97c0-.28-.23-.45-.45-.45Z"/>
        </g>
        <path d="M258.79,405.72c-.37,0-.67-.3-.67-.67v-40.87c0-.37.3-.67.67-.67s.67.3.67.67v40.87c0,.37-.3.67-.67.67Z"/>
        <path d="M248.11,346.2c-.28,0-.55-.18-.64-.46-.59-1.82-.86-3.71-.81-5.64.05-1.94.43-3.84,1.13-5.64.13-.35.52-.52.87-.38.35.13.52.52.38.87-.64,1.65-.99,3.4-1.04,5.19-.05,1.77.2,3.52.74,5.19.11.35-.08.73-.43.85-.07.02-.14.03-.21.03Z"/>
        <path d="M270.46,348.09c-.23,0-.45-.12-.58-.32-.19-.32-.09-.73.23-.92l3.76-2.28c.32-.19.73-.09.92.23.19.32.09.73-.23.92l-3.76,2.28c-.11.07-.23.1-.35.1Z"/>
      </g>
      <path d="M261.5,359.87s-.05,0-.08,0c-10.55-1.19-18.5-8.82-18.5-17.73,0-.37.3-.67.67-.67s.67.3.67.67c0,8.23,7.44,15.28,17.31,16.4.37.04.63.38.59.74-.04.34-.33.6-.67.6Z"/>
    </g>
    <g>
      <rect class="cls-2" x="338.23" y="304.56" width="114.25" height="27.89"/>
      <rect class="cls-2" x="338.23" y="304.56" width="114.25" height="3.05"/>
      <rect class="cls-2" x="338.23" y="304.56" width="3.57" height="27.68"/>
      <path d="M452.48,333.12h-114.25c-.37,0-.67-.3-.67-.67v-27.89c0-.37.3-.67.67-.67h114.25c.37,0,.67.3.67.67v27.89c0,.37-.3.67-.67.67ZM338.9,331.78h112.9v-26.55h-112.9v26.55Z"/>
    </g>
    <path d="M338.23,305.23c-.16,0-.32-.06-.44-.17-.28-.25-.3-.67-.06-.95l57.91-65.58c.25-.28.67-.3.95-.06.28.25.3.67.06.95l-57.91,65.58c-.13.15-.32.23-.5.23Z"/>
    <path d="M452.48,305.23c-.19,0-.37-.08-.51-.23l-53.69-61.88c-.24-.28-.21-.7.07-.95.28-.24.7-.21.95.07l53.69,61.88c.24.28.21.7-.07.95-.13.11-.28.16-.44.16Z"/>
  </g>
  <g>
    <path class="cls-1" d="M359.64,115.86s-.07-.05-.11-.06h0s.08.03.11.06Z"/>
    <path class="cls-1" d="M355.67,112.53c.51.25,1,.53,1.46.85-.46-.32-.95-.6-1.46-.85Z"/>
    <path class="cls-1" d="M307.02,109.74c-.12-.4-.22-.81-.31-1.23.09.41.19.82.31,1.23Z"/>
    <path class="cls-1" d="M358.95,115.04c-.55-.64-1.16-1.2-1.82-1.67.67.47,1.28,1.03,1.82,1.67Z"/>
    <path class="cls-1" d="M294.97,55.4s.07-.04.11-.08c.26-.05.52-.09.78-.15-.26.06-.52.1-.78.15-.04.03-.07.05-.11.08Z"/>
    <path class="cls-1" d="M391.77,61.86c-.19-.11-.4-.19-.62-.26-.7-.41-1.41-.79-2.13-1.15.72.36,1.43.74,2.13,1.15.22.07.42.15.62.26Z"/>
    <path class="cls-1" d="M353.56,87.23c.29-.13.6-.22.92-.29-.32.06-.63.16-.92.29Z"/>
    <path class="cls-1" d="M294.63,55.45c.11.03.21.02.31-.03-.1.05-.2.06-.31.03Z"/>
    <path class="cls-1" d="M310.96,95.85c.03.07.08.13.1.2-.03-.07-.07-.13-.1-.2Z"/>
    <path class="cls-1" d="M321.06,87.88c-.8.26-1.59.57-2.36.93h0c.77-.37,1.56-.67,2.36-.93Z"/>
    <path class="cls-1" d="M305.63,101.54c-.34.1-.67.2-1.01.29.34-.09.67-.19,1.01-.29Z"/>
    <path class="cls-1" d="M306.63,102.02c.03-.12.06-.24.1-.36-.04.12-.08.24-.1.36Z"/>
    <path class="cls-1" d="M360.6,95.23c.13-.3.2-.62.17-.97h0c.03.35-.04.67-.17.97Z"/>
    <path class="cls-1" d="M340.97,138.7c-.41-1.57-.7-3.19-.87-4.87-.08-.74-.11-1.47-.13-2.21.02.74.05,1.48.13,2.21.17,1.68.46,3.3.87,4.87Z"/>
    <path class="cls-1" d="M339.93,127.93c.01.49.02.98.02,1.48,0-.49,0-.98-.02-1.48-.02,0-.03,0-.05,0,.02,0,.03,0,.05,0Z"/>
    <path class="cls-1" d="M329.55,129.09c.05,1.81-.01,3.6-.21,5.39.2-1.79.26-3.58.21-5.39Z"/>
    <path class="cls-1" d="M330.19,127.64c.25-.02.49,0,.74,0,.55.02,1.09-.03,1.63-.13-.54.1-1.08.15-1.63.13-.25,0-.49-.02-.74,0Z"/>
    <path class="cls-1" d="M339.95,129.41c0,.49,0,.98,0,1.47,0-.49,0-.98,0-1.47Z"/>
    <path class="cls-1" d="M353.94,155.61c-.17-.06-.33-.13-.49-.2.16.07.32.14.49.2h0Z"/>
    <path class="cls-1" d="M337.81,131.7c-.06-.03-.12-.05-.18-.07h0c.06.02.12.04.18.07Z"/>
    <path class="cls-1" d="M300.24,115.53c-.16-.08-.33-.12-.5-.15-.22-.14-.45-.28-.67-.42.22.14.45.28.67.42.18.02.35.07.5.15Z"/>
    <path class="cls-1" d="M332.74,132.43c0-.1,0-.19,0-.29h0c0,.1,0,.19,0,.29Z"/>
    <path class="cls-1" d="M315.37,152.94h0c0-.09,0-.18-.01-.27h0c-.63.07-1.26.18-1.9.25.63-.06,1.26-.18,1.9-.25,0,.09,0,.18.01.27Z"/>
    <path class="cls-1" d="M323.86,147.48c-.59.62-1.22,1.2-1.91,1.76-.95.77-1.96,1.41-3.02,1.96,1.06-.55,2.07-1.2,3.02-1.96.69-.56,1.32-1.14,1.91-1.76Z"/>
    <path class="cls-1" d="M329.31,134.73c-.12,1.05-.29,2.09-.5,3.13-.18.86-.4,1.7-.67,2.5.27-.81.49-1.64.67-2.5.22-1.04.38-2.08.5-3.13Z"/>
    <path class="cls-1" d="M315.56,152.62c-.05.05-.11.07-.19.04h0s0,0,0,0c.08.03.14,0,.19-.04Z"/>
    <path class="cls-1" d="M351.87,90.77c-.23-.67-.17-1.43.16-2.31.44-.57.96-.97,1.54-1.22-.58.26-1.1.65-1.54,1.22-.33.88-.38,1.64-.16,2.31Z"/>
    <path class="cls-1" d="M289.99,68.42c-.11-.08-.22-.17-.32-.26.1.1.21.19.32.26Z"/>
    <path class="cls-1" d="M288.75,65.81c-.04-.66.16-1.22.58-1.69-.42.46-.63,1.03-.58,1.68-.08.95.36,1.8.93,2.35-.57-.54-1.01-1.39-.93-2.35Z"/>
    <path class="cls-1" d="M307.21,110.34c.27.8.62,1.56,1.08,2.29-.16.32-.33.63-.49.95.16-.32.33-.63.49-.95h0c-.46-.73-.81-1.5-1.08-2.29Z"/>
    <path class="cls-3" d="M394.76,145.72c-.65-2.63-1.65-5.14-2.97-7.52-.73-1.31-1.46-2.62-2.17-3.94-1.11-2.05-1.94-4.21-2.32-6.53-.18-1.13-.38-2.26-.58-3.39-.43-2.41-1.05-4.76-2.37-6.87-1.58-2.51-3.58-4.65-5.82-6.59-.17-.14-.44-.2-.46-.51,2.62-1.99,5.06-4.19,7.32-6.63.28.18.52.35.77.5.88.55,1.84.92,2.87,1.07,1.73.25,3.15-.72,3.55-2.43.04-.17.09-.34.1-.52.02-.26.14-.35.39-.35,1.26.03,2.19-1.1,2.15-2.5-.03-.96-.33-1.85-.71-2.71-.12-.26-.15-.45.11-.68,1.06-.93,1.15-2.12.83-3.4-.19-.75-.53-1.44-.96-2.07-.24-.36-.26-.66-.09-1.06.74-1.76,1.32-3.58,1.78-5.44.25-1.01.45-2.04.72-3.23.35,1.83.45,3.5.58,5.16.27,3.46.21,6.94.53,10.4.23,2.49.49,4.97,1.07,7.41.16.66.33,1.31.65,1.91.81,1.48,2.33,1.61,3.36.29.44-.57.7-1.22.92-1.89.46-1.43.68-2.92.89-4.4.18-1.31.36-2.61.54-3.96.76.19,1.3.67,1.93.97.67.32,1.35.45,1.99-.05.64-.51.68-1.19.49-1.92-.04-.17-.1-.34-.16-.5-.21-.58-.43-1.15-.65-1.73-.69-1.78-1.38-3.56-2.07-5.34-.09-.24-.28-.51-.04-.74.62-.59.93-1.34,1.18-2.17,1.18.81,2.34,1.55,3.56,2.19.55.29,1.12.53,1.75.53.91,0,1.56-.51,1.78-1.4.14-.57,0-1.11-.16-1.65-.33-1.07-.84-2.07-1.4-3.03-1.33-2.32-2.66-4.64-4.08-6.9-3.91-6.23-8.55-11.8-14.62-16.19.4-.27.76-.51,1.13-.75,1.8-1.18,3.58-2.38,5.29-3.66.54-.41,1.09-.81,1.55-1.31.38-.42.71-.88.75-1.46.03-.51.18-.98.3-1.46,1.11-4.16,1.3-8.35.41-12.57-.13-.63-.41-1.16-.89-1.59-.35-.31-.72-.6-1.1-.88-.91-.65-1.88-1.21-2.89-1.69-2.88-1.35-5.86-2.42-8.99-3.02-.89-.17-1.73-.13-2.58.27-.72.34-1.4.74-2.06,1.18-3.29,2.22-6.58,4.44-9.85,6.69-.43.3-.73.33-1.17.04-1.45-.95-2.97-1.79-4.51-2.59-6.44-3.36-13.32-5.36-20.41-6.73-2.28-.44-4.6-.63-6.91-.81-5.23-.39-10.46-.29-15.67.44-6.23.87-12.25,2.48-18.08,4.82-2.84,1.14-5.59,2.46-8.23,4.01-.34.2-.6.38-.99,0-1.79-1.71-3.84-3.11-5.67-4.77-1.25-1.13-2.73-1.62-4.34-1.68-2.47-.1-4.94.08-7.35.67-2.26.55-4.42,1.37-6.52,2.39-.96.47-1.58,1.2-1.86,2.22-.07.25-.14.51-.2.77-.7,3-.95,6.04-.82,9.11.06,1.32.17,2.64.46,3.94.11.5.24.99.63,1.33.95.83,1.79,1.77,2.82,2.52,1.05.76,2.04,1.59,3.06,2.39.52.41.52.42.21.97-.16.28-.32.56-.47.85-4.61,8.57-6.2,17.61-4.18,27.2.09.43-.01.72-.3,1.02-.57.59-1.07,1.25-1.51,1.95-.39.63-.71,1.29-.87,2.01-.36,1.57.45,2.81,2.02,3.15.3.07.63.02.91.21-.03.12-.04.21-.07.29-.71,1.74-.18,3.26,1.28,4.02.3.16.39.41.38.73-.01.47-.03.94,0,1.41.14,2.23,2.02,3.53,4.16,2.88.43-.13.82-.31,1.21-.52.66-.36.66-.36,1.11.21,2.09,2.67,4.46,5.08,7.04,7.28.19.16.38.33.67.58-.19.13-.32.19-.43.29-2.66,2.39-4.35,5.36-5.3,8.79-.63,2.3-1,4.65-1.41,7-.75,4.32-2.08,8.43-4.41,12.19-.65,1.05-1.26,2.12-1.84,3.21-1.08,2.01-1.83,4.13-2.11,6.41-.31,2.54-.57,5.08-.64,7.64,0,.04,0,.07,0,.1h2.81c.01-1.28.12-2.55.24-3.82.15-1.55.23-3.11.55-4.64.4-1.92,1.18-3.68,2.16-5.37.75-1.3,1.51-2.59,2.24-3.9,1.85-3.29,2.91-6.85,3.64-10.53.46-2.36.81-4.75,1.4-7.09.63-2.52,1.72-4.8,3.34-6.83.62-.78,1.23-1.57,1.87-2.39.71.63,1.37,1.27,2.14,1.75.39.24.13.49-.01.74-1.34,2.22-2.39,4.58-3.28,7.01-1.04,2.86-1.61,5.83-2.06,8.82-.44,2.91-.73,5.84-.72,8.78.01,5.11.68,10.14,1.98,15.08.13.51.26,1.02.42,1.53.09.29.2.58.31.86h2.35c.02-.53-.01-1.05-.07-1.56-.2-1.73-.73-3.39-1.06-5.09-.74-3.91-1.12-7.85-1.04-11.84,0-.2.02-.4.03-.65.41-.07.77.03,1.14.07,1.53.16,3.05.1,4.55-.24.35-.08.68-.2.98-.38,1.2-.68,1.32-2.03.25-2.91-.34-.28-.74-.48-1.14-.65-1.54-.66-3.11-1.23-4.72-1.67-.38-.11-.57-.2-.48-.62.14-.66.15-1.34.37-2.02,1.78.63,3.58,1,5.44,1.04.47,0,.94,0,1.41-.05.66-.08,1.16-.43,1.35-1.1.19-.65-.1-1.16-.57-1.56-.63-.54-1.37-.9-2.12-1.25-1.36-.63-2.71-1.25-3.96-2.09-.31-.21-.38-.37-.27-.7.83-2.49,1.84-4.89,3.13-7.17.29-.5.3-.5.77-.21.22.14.45.28.67.42.18.02.35.07.5.15.05.03.1.06.15.09,1.28.96,2.79,1.47,4.21,2.17.42.21.82.45,1.25.63.34.15.42.4.35.71-.16.63-.12,1.28-.19,1.92-.15,3.71.66,7.24,2.05,10.64.21.51.45,1.03.87,1.42.27.25.58.44.95.29.34-.13.45-.45.51-.77.12-.6-.05-1.17-.17-1.74-.08-.4-.2-.79-.32-1.22.96-.27,1.88-.53,2.8-.8.48-.14.95-.32,1.35-.62,1.05-.79.96-2.14-.22-2.73-.94-.47-1.97-.54-3.01-.46-.64.05-1.27.19-1.85.45-.18-.18-.17-.4-.23-.59-.12-.38.05-.51.42-.56.85-.11,1.63-.48,2.4-.84.26-.12.52-.28.74-.47.46-.38.71-.86.53-1.48-.17-.57-.64-.95-1.32-.99-.79-.05-1.58-.03-2.33.32-.18.08-.35.23-.61.18-.04-.67.07-1.33.22-1.98.11-.46.52-.8.93-1.01,2.41-1.21,4.89-2.13,7.64-2.14,2.35-.01,4.42.8,6.33,2.09.51.34.99.74,1.51,1.06.34.2.5.47.57.83,1.15,5.51,1.6,11.05.56,16.63-.19,1-.4,1.99-.79,3.02-1.4-1.43-3.07-2.24-4.88-2.82-.45-.15-.91-.25-1.38-.19-1.07.13-1.63,1.04-1.26,2.05.22.63.67,1.11,1.1,1.58,1.27,1.38,2.56,2.75,3.88,4.16-2.06,2.63-4.66,4.5-7.87,5.52-1.05.34-2.12.47-3.21.38-1.57-.13-2.86-.82-3.86-2.04-1.05-1.28-1.67-2.75-2.03-4.35-.16-.72-.36-1.42-.69-2.09-.23-.45-.5-.87-.85-1.23-.37-.38-.68-.33-.88.15-.31.74-.46,1.53-.37,2.33.3,2.5,1.09,4.81,2.7,6.79,1.77,2.18,4.09,3.16,6.88,3.11.21,0,.43-.02.64-.04.63-.06,1.26-.18,1.9-.25h0s0,0,0,0h0s.02-.05.04-.07c.03-.03.07-.04.12-.04.02,0,.05,0,.07.01,0,0,0,0,0,0,.87-.28,1.71-.6,2.53-.97.27-.12.54-.26.81-.39,1.06-.55,2.07-1.2,3.02-1.96.69-.56,1.32-1.14,1.91-1.76.78-.82,1.48-1.69,2.09-2.62.46-.69.87-1.42,1.23-2.17.12-.25.24-.5.35-.76.22-.51.42-1.04.6-1.58.27-.81.49-1.64.67-2.5.22-1.04.38-2.08.5-3.13,0-.08.02-.16.03-.25.2-1.79.26-3.58.21-5.39-.01-.44,0-.88-.01-1.32h0c-.1-1.08-.2-2.16-.31-3.24-.03-.3.06-.45.37-.44.65.02,1.29,0,1.94.06,2.14.17,4.28.17,6.42,0,.61-.05,1.23-.03,1.85-.06.38-.02.54.14.49.52-.08.7-.15,1.4-.22,2.1-.04.41-.09.81-.13,1.22.01.49.02.98.02,1.48,0,.49,0,.98,0,1.47,0,.25,0,.49.01.74.02.74.05,1.48.13,2.21.17,1.68.46,3.3.87,4.87.1.39.21.78.33,1.17,1.06,3.47,2.72,6.68,4.99,9.61.51.65,1.04,1.29,1.61,1.91,1.57,1.73,3.42,3.1,5.55,4.02.16.07.32.14.49.2h8.05c.16-.08.32-.16.47-.25.04-.03.06-.05.06-.05h.03c1.76-.94,3.18-2.3,4.33-4,1.53-2.25,2.4-4.76,2.87-7.42.57-3.2.79-6.42.54-9.66-.08-1.05-.36-2.03-1.19-2.76-.53-.46-.79-.39-1.04.25-.22.58-.28,1.2-.27,1.82.03,1.65.11,3.29.02,4.94-.15,2.59-.44,5.16-1.24,7.64-.72,2.25-1.86,4.25-3.68,5.81-2.2,1.88-4.68,2.33-7.41,1.39-1.03-.36-2-.84-2.91-1.45-2.29-1.54-3.99-3.62-5.46-5.97.88-.41,1.45-1.12,2.02-1.83.53-.67,1.09-1.31,1.63-1.97.45-.55.85-1.13,1.07-1.81.46-1.49-.54-2.65-2.07-2.32-1.92.42-3.71,1.12-4.98,2.76-.03.04-.1.05-.21.1-.59-1.47-1.01-2.98-1.3-4.53-.95-5.11-.68-10.18.55-15.22.14-.59.44-.95.98-1.25,3.92-2.2,8.06-2.77,12.43-1.73,1.53.36,2.88,1.16,4.24,1.91.2.11.29.27.35.48.16.59.35,1.18.41,1.79-.2.2-.4.06-.58,0-.85-.25-1.7-.45-2.59-.47-.33,0-.64.03-.95.16-.85.38-1.11,1.27-.59,2.04.22.32.52.56.86.74.6.31,1.19.65,1.83.87.91.32,1.63.93,2.42,1.43.43.27.23.66.23,1.09-1.33-.64-2.72-.66-4.09-.79-.39-.04-.77.02-1.14.12-1.04.29-1.33,1.45-.59,2.23.33.35.77.54,1.2.73,1.37.6,2.74,1.2,4.13,1.76.36.15.51.31.49.7-.02.47,0,.94.14,1.4.13.39.32.71.76.75.44.04.7-.24.89-.6.17-.31.27-.65.33-1,.44-2.47.56-4.96.41-7.47-.02-.37-.05-.73-.1-1.1-.12-1.09-.32-2.18-.48-3.27-.23-.87-.47-1.74-.71-2.62-.09-.34-.1-.62.31-.78,2.33-.94,4.53-2.14,6.76-3.29.13-.1.24-.32.42-.1.23.27.45.55.65.83,1.28,1.77,2.25,3.72,3.24,5.65.19.37.1.57-.2.81-.98.8-1.93,1.64-2.8,2.55-.41.42-.8.86-1.02,1.43-.41,1.09.22,2.1,1.39,2.07,1.41-.04,2.71-.47,3.84-1.35.23-.18.45-.38.73-.62.46.94.69,1.93,1,2.88.1.3-.14.36-.31.43-1.39.6-2.42,1.64-3.39,2.76-.35.4-.64.84-.79,1.36-.26.95.17,1.79,1.09,2.12.48.17.97.17,1.48.09,1.14-.19,2.22-.54,3.26-1.19.33,1,.41,1.99.54,2.96.61,4.77.74,9.55.36,14.35-.1,1.22-.29,2.43-.47,3.64h2.61c1.26-7.31,1.03-14.57-.37-21.78-1.44-7.42-4.03-14.41-8.58-20.62.47-.38.95-.8,1.46-1.18.34-.25.67-.28,1.01.09,1.66,1.83,3.39,3.59,4.88,5.57,1.62,2.15,2.38,4.63,2.82,7.24.2,1.19.41,2.37.61,3.56.44,2.58,1.41,4.97,2.65,7.25.63,1.16,1.27,2.32,1.93,3.47,1.3,2.29,2.29,4.7,2.93,7.25.87,3.47,2.5,6.51,4.9,9.15,0,0,0,0,0,0h3.59c-.33-.35-.62-.75-.96-1.09-2.41-2.51-4.12-5.39-4.95-8.8ZM412.03,83.58c-.28.27-.43.04-.59-.04-.98-.55-1.89-1.19-2.76-1.89-.28-.22-.55-.44-.86-.61-.95-.54-1.78-.27-2.26.7-.06.13-.12.26-.23.51-.87-3.03-1.58-5.98-2.54-8.86-.96-2.86-2.13-5.64-3.51-8.32,5.34,5.45,9.04,11.99,12.76,18.52ZM334.05,36.4c0-.75-.02-.72.7-.78,5.32-.41,10.56-.03,15.72,1.38,3.88,1.05,7.69,2.33,11.54,3.49,1.35.41,2.71.77,4.09,1.03,1.54.28,2.97.91,4.49,1.26.66.15,1.32.31,1.98.43.49.09,1.04.18,1.49.02.91-.32,1.58.09,2.29.53,1.21.75,2.29,1.64,3.2,2.74.69.84,1.37,1.69,2.16,2.45,1.02.98,2.19,1.63,3.59,1.94,2.52.55,5.97-1.12,6.17-5.06.04-.71-.08-1.41-.28-2.09-.11-.37-.24-.72-.35-1.09-.25-.85.06-1.21.96-1.13,1,.09,1.72.8,1.81,1.84.03.32,0,.65,0,.97.03.82.48,1.43,1.16,1.57.74.16,1.44-.21,1.8-.95.28-.58.26-1.2.22-1.82-.24-3.26-3.32-5.45-6.46-4.62-2.18.58-3.25,2.43-2.64,4.61.14.51.34,1,.51,1.5.2.6.29,1.2.12,1.82-.27,1.02-1.14,1.61-2.19,1.47-.83-.11-1.5-.52-2.06-1.1-.53-.55-1.04-1.12-1.51-1.72-1.33-1.71-2.89-3.17-4.76-4.29-.1-.06-.22-.1-.24-.25.03-.16.19-.2.3-.27,3.73-2.41,7.44-4.84,11.04-7.45.27-.19.51-.24.82-.16,3.7.88,7.29,2.03,10.63,3.9.62.35.92.77,1.03,1.48.63,3.9.36,7.73-.7,11.53-.13.48-.35.84-.76,1.13-2.29,1.59-4.58,3.2-6.86,4.82-.26.19-.45.27-.76.03-3.07-2.45-6.62-3.99-10.23-5.43-3.29-1.32-6.7-2.12-10.2-2.63-2.47-.36-4.89-1-7.33-1.48-3.57-.71-7.14-1.41-10.78-1.73-.29-.03-.58-.1-.87-.12-.23-.02-.35-.13-.48-.32-.68-1.08-1.72-1.76-2.81-2.34-2.04-1.1-4.24-1.7-6.5-2.12-2.76-.51-5.55-.61-8.34-.52-.71.02-.72.01-.72-.7,0-.59,0-1.18,0-1.76ZM337.07,45.48c2.11.15,4.22.3,6.34.4,2.41.11,4.82.18,7.22.4,4.45.41,8.87,1.03,13.23,1.99,3.7.82,7.4,1.59,11.14,2.21,2.45.41,4.73,1.35,7.04,2.22,2.95,1.12,5.72,2.59,8.46,4.13.61.35,1.24.67,1.86,1.01.18.1.48.16.24.5-.1.14.04.27.13.38,1.29,1.52,2.14,3.3,3.07,5.03,2.74,5.11,4.66,10.52,6.05,16.13,1.06,4.29,2.4,8.48,4.14,12.54.1.23.24.46.22.73-.26.13-.46-.05-.69-.08-.99-.13-1.8.27-2.28,1.16-.27.5-.38,1.04-.47,1.6-.32,2.03-.47,4.09-.86,6.11-.05.25-.02.54-.4.68-.32-.74-.37-1.52-.47-2.27-.43-3.3-.64-6.61-.76-9.93-.15-4.12-.45-8.22-1.39-12.25-.15-.63-.32-1.25-.52-1.87-.77-2.34-1.44-4.71-1.94-7.13-.28-1.36-.75-2.66-1.42-3.88-.1-.18-.24-.35-.19-.57.13-.56.04-1.05-.43-1.43-.13-.11-.12-.26-.05-.4.31-.65-.02-1.14-.4-1.6-.26-.32-.56-.6-.88-.87-1.11-.93-2.32-1.71-3.64-2.31-1.12-.52-2.26-.99-3.39-1.49-.64-.28-1.3-.37-1.98-.28-.73.09-.89.47-.48,1.09.28.42.68.73,1.1,1,.68.42,1.39.77,2.13,1.06.76.29,1.49.62,2.22.98s1.43.74,2.13,1.15c.22.07.42.15.62.26.19.11.37.24.53.41-.44-.03-.82-.18-1.16-.45-7.23-2.85-14.76-4.63-22.37-6.06-4.56-.86-9.14-1.55-13.74-2.12-4.11-.51-8.22-.96-12.35-1.24-6.04-.41-12.09-.58-18.15-.45-3.64.08-7.28.28-10.91.61-3.69.34-7.36.77-11.01,1.31-2.26.33-4.5.79-6.74,1.29-.26.06-.52.1-.78.15-.04.03-.07.05-.11.08-.01,0-.02.02-.03.02-.1.05-.2.06-.31.03-.05-.02-.11-.04-.16-.08.19-.17.39-.25.62-.26,1.62-.6,3.21-1.32,4.91-1.68,1.18-.25,2.36-.44,3.55-.65.76-.13,1.49-.35,2.13-.79.43-.29.41-.52-.04-.77-1.21-.68-2.49-.66-3.84-.49-3.25.4-6.21,1.7-9.22,2.85-2.33.89-4.71,1.65-7.11,2.32-.14.04-.28.09-.49.02.22-.26.51-.35.77-.48,4.58-2.38,9.4-4.11,14.42-5.31,5.05-1.21,10.12-2.34,15.23-3.27,2.86-.52,5.75-.88,8.64-1.16,2.23-.21,4.46-.33,6.69-.42,2.12-.09,4.23.06,6.34.21ZM393.8,62.95c-.41,0-.65-.15-.85-.38.32-.03.6.03.85.38ZM392.68,62.41s-.02.03-.03.05c-.03-.02-.06-.04-.08-.05.02-.02.04-.05.06-.04s.04.03.05.05ZM278.95,50.51c-.44-.35-.86-.74-1.36-.98-.57-.27-.71-.7-.78-1.25-.41-3.15-.29-6.28.18-9.41.1-.67.25-1.33.36-2,.06-.35.24-.56.56-.71,3.08-1.45,6.27-2.5,9.71-2.65,1-.05,1.99-.13,2.99.04.32.05.63.11.87.37,1.21,1.34,2.67,2.4,4.08,3.5,1.26.98,2.5,1.96,3.62,3.1.71.72,1.56,1.25,2.38,1.81.71.47,1.54.54,2.38.48,1.75-.12,3.39-.67,5.03-1.23,3.86-1.32,7.7-2.69,11.66-3.71,3.05-.79,6.13-1.38,9.24-1.81.09-.01.18-.02.26-.02.68-.05.68-.05.68.62,0,.65-.05,1.3,0,1.94.03.5-.19.65-.63.72-1.6.24-3.19.51-4.78.78-3.34.57-6.56,1.59-9.69,2.86-1,.41-1.98.91-2.67,1.82-.18.24-.45.24-.71.29-4.66.94-9.3,1.95-13.9,3.14-2.39.62-4.74,1.33-7.04,2.24-.43.17-.73.14-1.1-.17-.86-.72-1.63-1.51-2.41-2.33,2.27-1.13,3.39-3.73,2.71-6.2-.26-.95-.71-1.81-1.41-2.51-1.26-1.27-2.79-1.78-4.51-1.18-1.68.59-2.56,1.9-2.83,3.63-.19,1.26.11,2.46.63,3.6.87,1.89,2,3.6,3.48,5.06.54.53,1.09,1.06,1.66,1.61-1.34.68-2.59,1.3-3.83,1.97-.35.19-.54.02-.77-.17-1.35-1.09-2.71-2.17-4.07-3.25ZM287.61,43.87c-.19.78-.6,1.46-1.17,2.2-.69-1.03-1.22-2-1.49-3.09-.12-.48-.1-.93.11-1.37.36-.74,1.13-.92,1.75-.37.78.71,1.05,1.61.79,2.64ZM283.42,58.68c-.38.26-.8.45-1.33.53.26-.77.83-.54,1.33-.53ZM309.98,115.13c1.18-2.35,2.73-4.35,5.35-5.24,1.54-.52,3.07-.36,4.52.38,1.96,1.01,3.19,2.67,4.14,4.65-4.73-2.55-9.36-2.12-14.01.21ZM359.77,116.1c-.14.16-.3.06-.41-.1-2.05-.77-4.18-1.11-6.37-1.08-2.34.03-4.59.49-6.76,1.36-.2.08-.38.28-.64.19,1.14-3.62,4.9-5.66,8.47-4.57.56.17,1.1.38,1.61.63.51.25,1,.53,1.46.85.67.47,1.28,1.03,1.82,1.67.2.24.4.49.58.75.04.01.08.03.11.06.07.05.12.13.13.18,0,.03,0,.05,0,.07ZM363.55,115.78c-.65.28-.66.28-1.02-.32-.48-.82-1.07-1.56-1.68-2.28-.2-.24-.41-.48-.62-.71-.19-.15-.38-.3-.57-.45-.57-.45-1.13-.91-1.75-1.28-1.89-1.13-3.89-1.89-6.15-1.84-2.9.07-5.18,1.37-7.01,3.52-1.26,1.47-2.01,3.23-2.68,5.03-.4,1.07-.74,2.17-1.01,3.28-.09.39-.27.52-.66.54-2.76.11-5.52.3-8.28.08-.97-.08-1.94-.03-2.9-.16-.38-.05-.54-.17-.61-.57-.29-1.56-.66-3.1-1.2-4.6-.67-1.86-1.56-3.61-2.81-5.15-1.63-2.01-3.65-3.38-6.25-3.79-1.49-.23-2.92-.03-4.32.52-2.15.85-3.79,2.32-5.1,4.18-.2.29-.42.57-.62.85-.16.32-.33.63-.49.95-.28.54-.54,1.09-.71,1.69-.12.43-.33.36-.65.22-1.23-.56-2.45-1.14-3.64-1.78-6.14-3.26-11.58-7.41-16.01-12.81-.11-.14-.21-.29-.34-.41-.61-.57-.82-1.15-.14-1.83.12-.12.16-.31.21-.48.21-.68.01-1.32-.49-1.65-.48-.32-1.18-.24-1.7.25-.34.32-.62.7-.92,1.06-.55.66-1.13,1.28-1.91,1.67-.76.38-.92.29-.97-.54-.03-.41-.02-.82-.06-1.23-.08-1.02-.48-1.88-1.36-2.45-.43-.27-.53-.56-.29-1.02.19-.36.32-.76.45-1.15.56-1.73-.25-2.93-2.05-3.06-.26-.02-.53.05-.8-.07,0-.35.23-.59.41-.84,1.18-1.66,2.67-2.96,4.52-3.84.34-.16.7-.32,1.01-.54.57-.4.79-1.02.62-1.62-.18-.65-.7-1.06-1.42-1.13-.51-.04-1,.09-1.45.3-.5.24-.99.5-1.58.81-.54-3-.69-5.95-.41-8.97.13.04.23.04.28.08,2.28,1.83,4.93,2.95,7.64,3.93,1.21.44,2.43.89,3.74.98.57.04,1.12,0,1.66-.14,1.82-.48,2.68-2.08,2.1-3.9-.39-1.23-1.13-2.25-1.99-3.19-.76-.82-1.58-1.58-2.41-2.33-1.49-1.34-3.01-2.64-4.43-4.05-1.08-1.08-2.05-2.26-3.01-3.49,9.29-3.78,18.98-5.57,28.81-6.65.06.16,0,.22-.07.28-1.79,1.45-2.16,3.35-1.67,5.49.37,1.58,1.17,2.95,2.29,4.11,1.59,1.65,3.5,2.73,5.76,3.23,1.18.26,2.35.52,3.57.49.33,0,.65-.03.96-.14.61-.21,1-.62,1.08-1.27.09-.66-.22-1.13-.77-1.47-.15-.09-.31-.16-.46-.24-.7-.02-1.41-.03-2.11-.08-2.33-.16-4.31-1.08-5.9-2.8-.75-.81-1.26-1.77-1.44-2.87-.09-.54-.05-1.06.27-1.52.41-.61,1.01-.7,1.58-.24.42.34.7.79.99,1.23.66,1.01,1.23,2.07,1.96,3.04.57.75,1.18,1.46,1.95,2.02.82.59,1.65.73,2.53.14.61-1.11.53-1.73-.44-2.54-.92-.76-1.61-1.71-2.24-2.7-.39-.62-.77-1.25-1.17-1.87-.66-1.02-1.44-1.93-2.72-2.55.4-.09.66-.18.92-.2,2.87-.23,5.75-.44,8.63-.44.26,0,.53.02.78.09,1.13.32,2.27.27,3.41.05.87-.17,1.74-.26,2.63-.25,4.26.09,8.53.2,12.78.54,4.1.32,8.19.78,12.27,1.32,4.86.64,9.71,1.39,14.51,2.35,6.59,1.31,13.13,2.86,19.42,5.27,1.18.45,2.34.93,3.51,1.41.43.18.49.45.16.78-3.07,3-6.11,6.03-9.57,8.6-.83.61-1.61,1.28-2.4,1.94-.45.38-.86.8-1.16,1.32-.69,1.23-.34,2.56.89,3.25.6.34,1.25.5,1.93.55,1.46.11,2.87-.14,4.24-.61,2.38-.82,4.55-2.05,6.6-3.49.23-.16.43-.39.81-.45-.24,3.81-1.06,7.44-2.46,11.02-.28-.16-.49-.29-.71-.41-.37-.2-.76-.32-1.18-.3-.85.04-1.33.65-1.17,1.49.09.45.34.81.62,1.15.36.42.75.83,1.11,1.25.43.49.79,1.02,1.09,1.6.38.77.38.77-.38,1.24-.71.44-.98,1.15-.72,1.98.14.45.37.86.54,1.3.15.37.4.71.4,1.14-1.82.07-2.28.59-2.23,2.47,0,.21.01.41,0,.62-.04.71-.2.84-.87.56-1.31-.54-2.32-1.48-3.19-2.57-.16-.21-.29-.44-.47-.63-.46-.49-1.15-.63-1.69-.37-.56.26-.91.95-.81,1.62.07.44.23.87.52,1.2.3.34.23.57-.06.87-1.49,1.55-3.06,3.01-4.72,4.38-4.52,3.72-9.52,6.66-14.9,8.96Z"/>
    <path class="cls-1" d="M383.17,102.44c.3-.31.36-.53.06-.87-.29-.33-.45-.76-.52-1.2-.1-.67.25-1.37.81-1.62.55-.25,1.23-.11,1.69.37.18.19.31.43.47.63.87,1.1,1.88,2.03,3.19,2.57.68.28.84.15.87-.56.01-.21,0-.41,0-.62-.05-1.88.41-2.4,2.23-2.47,0-.43-.26-.77-.4-1.14-.17-.44-.4-.85-.54-1.3-.26-.83.02-1.55.72-1.98.76-.47.76-.47.38-1.24-.29-.58-.66-1.11-1.09-1.6-.37-.42-.75-.83-1.11-1.25-.29-.34-.54-.7-.62-1.15-.16-.84.32-1.45,1.17-1.49.42-.02.81.1,1.18.3.22.12.43.25.71.41,1.4-3.58,2.22-7.21,2.46-11.02-.38.06-.58.28-.81.45-2.05,1.44-4.21,2.67-6.6,3.49-1.38.47-2.78.73-4.24.61-.68-.05-1.34-.21-1.93-.55-1.23-.69-1.59-2.03-.89-3.25.29-.52.71-.94,1.16-1.32.79-.66,1.57-1.33,2.4-1.94,3.46-2.57,6.5-5.61,9.57-8.6.33-.33.27-.61-.16-.78-1.17-.48-2.33-.96-3.51-1.41-6.3-2.41-12.83-3.96-19.42-5.27-4.81-.96-9.65-1.71-14.51-2.35-4.08-.53-8.17-1-12.27-1.32-4.25-.33-8.52-.44-12.78-.54-.89-.02-1.76.08-2.63.25-1.14.22-2.27.27-3.41-.05-.25-.07-.52-.09-.78-.09-2.88,0-5.76.21-8.63.44-.26.02-.52.11-.92.2,1.28.62,2.06,1.53,2.72,2.55.4.62.78,1.25,1.17,1.87.63,1,1.32,1.94,2.24,2.7.97.8,1.06,1.42.44,2.54.25.33.17.72.18,1.09.16.08.32.15.46.24.55.33.86.81.77,1.47-.09.64-.47,1.06-1.08,1.27-.31.11-.63.13-.96.14-1.22.04-2.39-.23-3.57-.49-2.26-.5-4.17-1.58-5.76-3.23-1.12-1.16-1.93-2.53-2.29-4.11-.49-2.14-.12-4.03,1.67-5.49.07-.06.13-.12.07-.28-9.84,1.08-19.52,2.87-28.81,6.65.96,1.23,1.93,2.41,3.01,3.49,1.42,1.41,2.94,2.71,4.43,4.05.83.75,1.65,1.51,2.41,2.33.86.94,1.6,1.96,1.99,3.19.58,1.82-.28,3.42-2.1,3.9-.54.14-1.09.18-1.66.14-1.31-.09-2.52-.54-3.74-.98-2.71-.98-5.36-2.1-7.64-3.93-.06-.05-.15-.05-.28-.08-.28,3.02-.13,5.97.41,8.97.59-.31,1.08-.58,1.58-.81.46-.21.94-.35,1.45-.3.72.06,1.24.48,1.42,1.13.17.6-.05,1.21-.62,1.62-.31.22-.66.37-1.01.54-1.85.88-3.34,2.18-4.52,3.84-.18.25-.42.49-.41.84.27.12.54.05.8.07,1.79.12,2.61,1.33,2.05,3.06-.13.39-.26.78-.45,1.15-.24.46-.14.75.29,1.02.88.56,1.28,1.43,1.36,2.45.03.41.03.82.06,1.23.05.83.21.92.97.54.78-.39,1.37-1.01,1.91-1.67.3-.36.58-.74.92-1.06.52-.49,1.22-.57,1.7-.25.5.33.69.98.49,1.65-.05.17-.09.37-.21.48-.68.68-.47,1.26.14,1.83.13.12.23.27.34.41,4.43,5.4,9.87,9.55,16.01,12.81,1.19.63,2.41,1.22,3.64,1.78.32.14.53.21.65-.22.16-.59.43-1.14.71-1.69.16-.32.33-.63.49-.95-.46-.73-.81-1.5-1.08-2.29-.07-.2-.13-.4-.19-.6-.12-.4-.22-.81-.31-1.23-.04-.21-.09-.41-.12-.62-.34-1.85-.31-3.71-.02-5.57.02-.1.04-.2.06-.3.03-.12.06-.24.1-.36.06-.17.13-.34.21-.5-.44.12-.87.25-1.31.38-.34.1-.67.2-1.01.29-.31.08-.62.16-.94.21-.16.03-.32.06-.48.08-1.32.18-2.63.23-3.94-.09-.58-.14-1.11-.39-1.57-.76-1.37-1.11-1.39-2.98-.03-4.12.57-.48,1.25-.75,1.97-.95,1.81-.5,3.66-.84,5.49-1.24.2-.04.39-.11.59-.17-.4-.34-.9-.55-1.26-.95-.34-.37-.65-.75-.73-1.27-1.9.35-3.78.82-5.7,1.08-2.5.34-4.98.26-7.44-.29-.86-.2-1.68-.53-2.38-1.1-1.63-1.33-1.34-3.48.58-4.35.77-.35,1.59-.4,2.41-.47.32-.03.65-.03.97-.01,3.32.17,6.56-.32,9.79-1.01,1.55-.33,3.11-.62,4.72-.48.27.02.52.06.77.11.75.16,1.42.49,1.97,1.1,1.43-.34,2.87-.49,4.31-.37.48.04.97.11,1.45.21,1.36.28,2.57.82,3.55,1.82.77-.37,1.56-.67,2.36-.93s1.61-.48,2.44-.67c.55-.13,1.1-.24,1.65-.35,2.71-.53,5.46-.67,8.21-.51,2.77.16,5.5.63,8.18,1.4,1.66.48,3.25,1.17,4.86,1.77,1.29-.86,2.69-1.13,4.15-1.14.48,0,.97.03,1.47.07.44-.57.96-.97,1.54-1.22.29-.13.6-.22.92-.29s.66-.1,1-.11c.32,0,.65-.04.97-.01,3.52.27,7.05,0,10.58.03,1.48,0,2.93.18,4.32.72.61.23,1.18.53,1.67.96,1.65,1.44,1.35,3.68-.63,4.62-.83.4-1.74.52-2.65.59-2.81.21-5.63.35-8.45.44-.09,0-.17.01-.26.03-.09.01-.17.03-.26.04.03.35-.04.67-.17.97-.13.3-.31.58-.5.85,1.16.16,2.32.31,3.48.48,1.38.19,2.67.61,3.84,1.42,1.05.73,1.42,2.12.77,3.24-.35.6-.88,1.02-1.47,1.36-1.07.6-2.24.86-3.43,1.07-1.31.23-2.63.14-3.95.18.84.08.97.66,1.12,1.37.48,2.33.43,4.65-.09,6.96-.03.11-.09.22-.13.33h0c.21.24.42.47.62.71.61.72,1.2,1.46,1.68,2.28.35.6.37.59,1.02.32,5.38-2.31,10.38-5.24,14.9-8.96,1.66-1.37,3.23-2.83,4.72-4.38ZM293.26,68.13c-.79.78-1.74.93-2.76.56-.17-.06-.34-.15-.5-.27-.11-.08-.22-.17-.32-.26-.57-.54-1.01-1.39-.93-2.35-.04-.66.16-1.22.58-1.68.06-.07.12-.13.19-.19.33-.3.56-.27.78.12.23.41.48.81.57,1.28.05.26.14.51.22.76.04.12.13.21.25.22.17.02.24-.13.31-.26.13-.25.11-.52.09-.78-.04-.55.21-.89.7-1.09.47-.19.78.1,1.09.36.21.17.38.39.43.65.21,1.08.14,2.1-.7,2.93ZM296.44,66.49c-.41-.98-.51-2.1-.45-3.19.04-.7.46-1.12,1.09-1.16.66-.03,1.15.39,1.19,1.13.03.54.14,1.04.37,1.52.08.16.19.32.4.27.2-.04.27-.21.28-.4.03-.44.07-.87-.15-1.29-.19-.36-.34-.75-.36-1.17-.03-.83.65-1.29,1.41-.96.45.19.78.48,1.01.93.36.72.61,1.46.58,2.55-.12.8-.3,1.89-1.13,2.69-1.36,1.31-3.43,1-4.24-.93ZM302.47,75.87c-1.91,1.57-4.29.26-4.84-1.49-.07-.22-.05-.46-.08-.7-.07-.81.38-1.34.98-1.76.48-.34.82-.19.96.38.08.34.12.69.21,1.03.05.2.13.39.23.57.13.24.37.28.62.22.27-.06.38-.26.37-.52,0-.17-.04-.35-.09-.52-.16-.48-.02-.88.36-1.17.41-.31.87-.33,1.32-.06.66.39,1.02.96,1.05,1.72.04.95-.38,1.7-1.1,2.29ZM319.49,82.05c-.26.57-.59,1.08-1.04,1.52-1.35,1.33-3.23,1.41-4.69.19-.6-.5-1.05-1.11-1.37-1.81-.99-2.15-1.12-4.35-.36-6.59.23-.67.57-1.29,1.05-1.82,1.37-1.5,3.33-1.62,4.86-.29.91.8,1.47,1.82,1.83,2.95.27.84.41,1.71.39,2.33,0,1.4-.21,2.49-.68,3.52ZM332.22,63.54c-.79-.18-1.7-1.22-1.79-2.2-.06-.62-.17-1.21-.34-1.8-.12-.42.03-.82.21-1.19.23-.49.75-.71,1.25-.6.41.09.79.51.78,1.05-.01.7.21,1.32.41,1.96.04.14.12.26.21.43.59-.35.83-.93,1.13-1.45.18-.3.27-.66.75-.6.36.05.76.39.86.78.51,1.92-1.53,4.05-3.46,3.62ZM351.76,82.52c-.43.75-.99,1.39-1.73,1.84-1.44.89-3.07.69-4.26-.51-.48-.49-.84-1.06-1.06-1.71-.9-2.64-.58-5.14.87-7.51.32-.53.76-.97,1.27-1.33,1.51-1.06,3.29-.86,4.52.51.89,1,1.3,2.21,1.45,3.52.04.32.03.64.04.81,0,1.66-.35,3.07-1.1,4.37ZM355.53,70.2c-.82-.26-1.55-.71-2.23-1.22-1.45-1.09-3.06-1.73-4.87-1.86-.51-.04-.98-.17-1.43-.41-.36-.2-.6-.38-.73-.59-.22-.34-.13-.73.22-1.31-.1-.45-.19-.89-.13-1.33.02-.17.07-.34.15-.51.04-.08.09-.17.15-.25-.48-1.26-.14-2.15,1.11-2.45,2.68-.64,5.39-.91,8.09-.05,1.72.55,3.07,1.57,4.06,3.07.63.96.94,2.02.9,3.17-.09,2.81-2.62,4.59-5.3,3.73ZM370.65,72.51c.02.47-.05.92-.18,1.35-.13.43-.33.84-.57,1.23-.95,1.52-3.09,1.62-4.19.19-.58-.75-.82-1.63-.66-2.57.06-.36.1-.67-.01-1.03-.13-.44,0-.88.18-1.28.19-.43.77-.72,1.16-.64.38.09.75.51.73.98-.04.77.27,1.5.2,2.27-.01.11.01.24.06.34.06.16.1.36.3.4.27.06.34-.17.44-.34.39-.67.58-1.41.75-2.15.08-.37-.08-.69-.18-1.03-.07-.24-.16-.46.11-.61.27-.15.53-.08.72.14.62.72,1.2,1.46,1.15,2.48,0,.09,0,.18,0,.26ZM376.31,64.49c-.01,1.32-.5,2.28-1.3,3.06-.9.89-2.43.75-3.32-.23-.99-1.08-1.15-2.78-.39-4.02.22-.35.53-.38.76-.04.19.29.33.62.49.94.12.24.22.48.37.7.36.53.65.51.96-.04.31-.57.58-1.15.66-1.81.07-.54.31-.64.78-.33.68.46,1.1,1.06.99,1.77Z"/>
    <path class="cls-1" d="M307.81,113.58c-.28.54-.54,1.09-.71,1.69.16-.59.43-1.14.71-1.69Z"/>
    <path class="cls-1" d="M360.23,112.47h0c.21.24.42.47.62.71-.2-.24-.41-.48-.62-.71h0Z"/>
    <path class="cls-2" d="M360.36,112.14c.52-2.31.57-4.62.09-6.96-.14-.71-.28-1.29-1.12-1.37-1.18-.2-2.38-.31-3.53-.7-.61-.21-1.21-.45-1.75-.8-.36-.23-.66-.48-.92-.74-.25-.26-.45-.54-.6-.83-.05-.1-.09-.2-.13-.3-.34-.9-.19-1.92.43-3.03-.69-.21-1.4-.38-2.09-.6-.23-.08-.46-.16-.68-.25-1.28-.54-2.48-1.21-3.46-2.23-.45-.47-.83-.99-1.05-1.61-.46-1.26-.05-2.3.85-3.2,0,0,0,0,0,0-1.62-.6-3.2-1.29-4.86-1.77-2.68-.78-5.41-1.24-8.18-1.4-2.75-.16-5.5-.02-8.21.51-.55.11-1.11.22-1.65.35-.82.19-1.64.41-2.44.67-.8.26-1.59.57-2.36.93.33.68.5,1.29.49,1.86,0,.19-.03.38-.07.56-.04.18-.11.36-.19.53-.25.52-.68,1.02-1.29,1.51-1.41,1.12-3.05,1.72-4.8,2.06-.66.13-1.33.22-1.99.32.04.07.07.13.11.2.03.07.08.13.1.2.28.66.24,1.29-.02,1.91-.1.25-.24.49-.41.73-.48.69-1.15,1.17-1.88,1.57-.59.32-1.2.6-1.81.9-.08.16-.15.33-.21.5-.04.12-.08.24-.1.36-.02.1-.04.2-.06.3-.29,1.86-.31,3.72.02,5.57.04.21.08.42.12.62.09.41.19.82.31,1.23.06.2.12.4.19.6.27.8.62,1.56,1.08,2.29h0c.21-.28.42-.56.62-.85,1.32-1.87,2.96-3.33,5.1-4.18,1.39-.55,2.83-.76,4.32-.52,2.6.41,4.62,1.79,6.25,3.79,1.25,1.54,2.14,3.29,2.81,5.15.54,1.5.91,3.04,1.2,4.6.08.4.23.52.61.57.97.13,1.94.09,2.9.16,2.76.22,5.52.03,8.28-.08.39-.02.56-.15.66-.54.27-1.11.61-2.21,1.01-3.28.67-1.79,1.42-3.55,2.68-5.03,1.83-2.15,4.11-3.45,7.01-3.52,2.26-.05,4.26.7,6.15,1.84.62.37,1.19.83,1.75,1.28.19.15.38.3.57.45.04-.11.11-.21.13-.33ZM333.61,91.5c-.09,1.25-.66,2.31-1.49,3.22-.4.44-.6.88-.62,1.47-.04,1.38-.02,2.76-.02,4.14,0,.44.02.88-.16,1.3-.42,1.01-1.43,1.22-2.19.43-.43-.44-.59-1.01-.67-1.6-.05-.35-.09-.7-.11-1.05-.02-.41,0-.82,0-1.23-.02,0-.04,0-.06,0,.06-.82.09-1.64.19-2.46.05-.39-.05-.65-.35-.91-.68-.59-1.09-1.38-1.34-2.24-.38-1.34.22-2.57,1.53-3.06,1.3-.48,2.64-.54,3.96-.04.95.36,1.41,1.02,1.33,2.03Z"/>
    <path class="cls-2" d="M308.3,112.63c.21-.28.42-.56.62-.85-.2.29-.42.57-.62.85h0Z"/>
    <path class="cls-2" d="M359.66,112.02c.19.15.38.3.57.45h0c-.19-.15-.38-.3-.57-.45Z"/>
    <path class="cls-2" d="M359.66,112.02c-.57-.45-1.13-.91-1.75-1.28.62.37,1.19.83,1.75,1.28Z"/>
    <path class="cls-2" d="M321.06,87.88c.8-.26,1.61-.48,2.44-.67-.82.19-1.64.41-2.44.67Z"/>
    <path class="cls-2" d="M306.94,101.16c-.08.16-.15.33-.21.5.06-.17.13-.34.21-.5,0,0,0,0,0,0Z"/>
    <path class="cls-2" d="M346.41,89.53s0,0,0,0c-1.62-.6-3.2-1.29-4.86-1.77,1.66.48,3.25,1.17,4.86,1.77,0,0,0,0,0,0Z"/>
    <path class="cls-1" d="M362.47,155.37c-.16.08-.31.17-.47.25h.07c.21-.11.34-.19.41-.25Z"/>
    <path class="cls-1" d="M380.23,155.61c.18-1.21.38-2.42.47-3.64.38-4.8.25-9.58-.36-14.35-.12-.97-.21-1.97-.54-2.96-1.04.65-2.12,1-3.26,1.19-.5.08-.99.09-1.48-.09-.91-.33-1.34-1.17-1.09-2.12.14-.53.44-.97.79-1.36.97-1.12,2-2.16,3.39-2.76.17-.07.41-.14.31-.43-.31-.95-.53-1.94-1-2.88-.29.24-.5.44-.73.62-1.13.87-2.43,1.31-3.84,1.35-1.16.03-1.8-.98-1.39-2.07.21-.57.61-1,1.02-1.43.88-.91,1.82-1.75,2.8-2.55.29-.24.38-.44.2-.81-.99-1.94-1.96-3.88-3.24-5.65-.21-.29-.42-.56-.65-.83-.19-.22-.3,0-.42.1-.06.7-.43,1.27-.8,1.82-.75,1.09-1.62,2.06-2.7,2.85-.94.69-1.87,1.41-2.86,2.02.17,1.09.36,2.17.48,3.27.04.36.07.73.1,1.1.15,2.51.03,5-.41,7.47-.06.35-.16.69-.33,1-.19.35-.45.63-.89.6-.45-.04-.64-.36-.76-.75-.15-.46-.17-.93-.14-1.4.02-.39-.12-.55-.49-.7-1.39-.56-2.76-1.16-4.13-1.76-.43-.19-.86-.38-1.2-.73-.74-.78-.45-1.94.59-2.23.37-.1.75-.16,1.14-.12,1.37.13,2.76.16,4.09.79,0-.42.2-.81-.23-1.09-.79-.5-1.51-1.1-2.42-1.43-.63-.23-1.23-.56-1.83-.87-.34-.18-.64-.42-.86-.74-.52-.77-.26-1.67.59-2.04.3-.13.62-.17.95-.16.89.02,1.74.22,2.59.47.18.05.38.19.58,0-.06-.61-.25-1.2-.41-1.79-.06-.21-.15-.37-.35-.48-1.37-.75-2.71-1.54-4.24-1.91-4.36-1.04-8.5-.47-12.43,1.73-.53.3-.83.66-.98,1.25-1.23,5.04-1.49,10.11-.55,15.22.29,1.55.7,3.06,1.3,4.53.11-.05.18-.06.21-.1,1.26-1.64,3.06-2.34,4.98-2.76,1.52-.34,2.53.83,2.07,2.32-.21.69-.62,1.26-1.07,1.81-.54.66-1.1,1.3-1.63,1.97-.57.71-1.14,1.42-2.02,1.83,1.47,2.35,3.17,4.43,5.46,5.97.91.61,1.87,1.09,2.91,1.45,2.73.94,5.21.49,7.41-1.39,1.82-1.55,2.96-3.56,3.68-5.81.79-2.48,1.09-5.05,1.24-7.64.09-1.65,0-3.29-.02-4.94-.01-.62.04-1.24.27-1.82.25-.64.51-.7,1.04-.25.83.73,1.11,1.7,1.19,2.76.25,3.24.03,6.46-.54,9.66-.47,2.66-1.34,5.17-2.87,7.42-1.15,1.7-2.58,3.05-4.33,4l5.32.29h12.35Z"/>
    <path class="cls-1" d="M364.84,121.61c.17,1.09.36,2.17.48,3.27-.12-1.09-.32-2.18-.48-3.27,0,0,0,0,0,0Z"/>
    <path class="cls-1" d="M362.53,155.32s-.02.02-.06.05c.03-.02.06-.03.09-.05h-.03Z"/>
    <path class="cls-1" d="M367.88,155.61l-5.32-.29s-.06.03-.09.05c-.07.05-.2.14-.41.25h5.82Z"/>
    <path class="cls-1" d="M325.78,119.94c-.08-.36-.23-.63-.57-.83-.53-.32-1-.72-1.51-1.06-1.91-1.29-3.98-2.1-6.33-2.09-2.75.01-5.23.94-7.64,2.14-.42.21-.82.54-.93,1.01-.15.64-.26,1.31-.22,1.98.26.06.44-.09.61-.18.75-.35,1.54-.37,2.33-.32.67.04,1.15.42,1.32.99.18.62-.08,1.1-.53,1.48-.22.19-.48.34-.74.47-.77.36-1.54.73-2.4.84-.36.05-.54.17-.42.56.06.19.05.41.23.59.58-.26,1.21-.39,1.85-.45,1.04-.09,2.07-.01,3.01.46,1.18.59,1.27,1.94.22,2.73-.4.3-.87.48-1.35.62-.92.27-1.85.53-2.8.8.11.43.24.82.32,1.22.12.57.28,1.15.17,1.74-.06.33-.18.64-.51.77-.38.14-.68-.04-.95-.29-.42-.39-.65-.91-.87-1.42-1.4-3.41-2.2-6.94-2.05-10.64-1.07-.59-2.13-1.2-3.13-1.91-1.31-.93-2.35-2.09-3.09-3.51-.04-.07-.03-.17-.04-.25-.22-.14-.45-.28-.67-.42-.48-.29-.49-.3-.77.21-1.29,2.28-2.31,4.69-3.13,7.17-.11.33-.03.5.27.7,1.25.84,2.61,1.46,3.96,2.09.75.35,1.49.71,2.12,1.25.47.41.76.91.57,1.56-.2.66-.69,1.01-1.35,1.1-.46.06-.94.06-1.41.05-1.86-.03-3.65-.41-5.44-1.04-.21.68-.23,1.36-.37,2.02-.09.42.1.52.48.62,1.61.45,3.18,1.01,4.72,1.67.41.17.8.37,1.14.65,1.07.88.96,2.23-.25,2.91-.31.17-.64.3-.98.38-1.5.35-3.02.4-4.55.24-.37-.04-.73-.13-1.14-.07-.01.25-.03.45-.03.65-.08,3.98.29,7.92,1.04,11.84.32,1.7.86,3.36,1.06,5.09.06.51.09,1.03.07,1.56h20.43c-.04-.33-.07-.64-.1-.92-.1-1.05-.13-1.75-.13-1.75h.1c0-.1,0-.19-.01-.28-.63.07-1.26.18-1.9.25-.21.02-.42.04-.64.04-2.79.05-5.11-.93-6.88-3.11-1.61-1.98-2.4-4.29-2.7-6.79-.1-.8.05-1.59.37-2.33.2-.48.51-.53.88-.15.35.36.62.78.85,1.23.33.66.53,1.37.69,2.09.36,1.6.98,3.07,2.03,4.35,1,1.22,2.29,1.9,3.86,2.04,1.1.09,2.16-.04,3.21-.38,3.2-1.02,5.8-2.89,7.87-5.52-1.32-1.41-2.6-2.78-3.88-4.16-.44-.47-.88-.95-1.1-1.58-.36-1.01.19-1.92,1.26-2.05.48-.06.93.05,1.38.19,1.81.58,3.48,1.39,4.88,2.82.39-1.03.6-2.02.79-3.02,1.04-5.59.59-11.12-.56-16.63Z"/>
    <path class="cls-4" d="M324.04,45.69c-2.9.28-5.78.64-8.64,1.16-5.11.93-10.18,2.06-15.23,3.27-5.02,1.2-9.84,2.93-14.42,5.31-.26.13-.55.22-.77.48.21.08.35.02.49-.02,2.4-.68,4.78-1.43,7.11-2.32,3.01-1.15,5.97-2.46,9.22-2.85,1.35-.16,2.63-.19,3.84.49.46.26.47.48.04.77-.64.44-1.37.66-2.13.79-1.18.21-2.37.4-3.55.65-1.7.36-3.29,1.08-4.91,1.68,0,.07,0,.15,0,.22.26-.05.52-.09.78-.15,2.23-.5,4.47-.96,6.74-1.29,3.66-.54,7.33-.97,11.01-1.31,3.63-.33,7.27-.53,10.91-.61,6.06-.13,12.11.04,18.15.45,4.13.28,8.24.73,12.35,1.24,4.6.57,9.18,1.26,13.74,2.12,7.62,1.43,15.14,3.21,22.37,6.06,0-.07,0-.15.01-.22-.7-.41-1.41-.79-2.13-1.15-.72-.36-1.46-.69-2.22-.98-.74-.29-1.45-.64-2.13-1.06-.43-.27-.82-.57-1.1-1-.41-.62-.25-1,.48-1.09.68-.08,1.35,0,1.98.28,1.13.5,2.27.97,3.39,1.49,1.31.61,2.53,1.38,3.64,2.31.31.26.62.55.88.87.37.46.71.96.4,1.6-.07.14-.08.3.05.4.46.38.56.87.43,1.43-.05.22.09.39.19.57.68,1.22,1.15,2.52,1.42,3.88.49,2.42,1.17,4.79,1.94,7.13.2.61.38,1.24.52,1.87.94,4.03,1.24,8.13,1.39,12.25.12,3.32.33,6.64.76,9.93.1.76.15,1.54.47,2.27.39-.14.35-.43.4-.68.39-2.02.55-4.08.86-6.11.09-.56.2-1.1.47-1.6.48-.89,1.29-1.29,2.28-1.16.23.03.43.21.69.08.02-.27-.12-.49-.22-.73-1.74-4.06-3.08-8.26-4.14-12.54-1.39-5.61-3.31-11.03-6.05-16.13-.93-1.73-1.78-3.52-3.07-5.03-.09-.11-.23-.24-.13-.38.24-.34-.06-.39-.24-.5-.62-.34-1.24-.66-1.86-1.01-2.74-1.55-5.52-3.02-8.46-4.13-2.3-.87-4.59-1.82-7.04-2.22-3.74-.62-7.44-1.39-11.14-2.21-4.36-.96-8.78-1.58-13.23-1.99-2.4-.22-4.81-.29-7.22-.4-2.11-.1-4.23-.25-6.34-.4-2.11-.15-4.23-.3-6.34-.21-2.23.1-4.46.21-6.69.42Z"/>
    <path class="cls-1" d="M334.76,38.86c2.8-.09,5.58.01,8.34.52,2.26.42,4.46,1.03,6.5,2.12,1.09.59,2.13,1.26,2.81,2.34.12.19.25.3.48.32.29.03.58.1.87.12,3.63.32,7.21,1.02,10.78,1.73,2.45.49,4.86,1.12,7.33,1.48,3.5.51,6.91,1.31,10.2,2.63,3.61,1.44,7.16,2.98,10.23,5.43.31.25.5.16.76-.03,2.28-1.61,4.56-3.22,6.86-4.82.41-.29.63-.65.76-1.13,1.06-3.79,1.33-7.63.7-11.53-.12-.71-.42-1.14-1.03-1.48-3.34-1.87-6.93-3.02-10.63-3.9-.3-.07-.55-.03-.82.16-3.6,2.6-7.31,5.04-11.04,7.45-.11.07-.27.11-.3.27.02.15.14.19.24.25,1.86,1.12,3.42,2.58,4.76,4.29.47.6.98,1.17,1.51,1.72.56.58,1.23.99,2.06,1.1,1.05.14,1.92-.44,2.19-1.47.16-.62.08-1.22-.12-1.82-.17-.5-.37-.99-.51-1.5-.61-2.18.46-4.03,2.64-4.61,3.15-.84,6.22,1.36,6.46,4.62.05.62.07,1.24-.22,1.82-.36.74-1.06,1.11-1.8.95-.68-.14-1.14-.75-1.16-1.57-.01-.32.03-.65,0-.97-.1-1.04-.81-1.76-1.81-1.84-.9-.08-1.21.28-.96,1.13.11.37.24.73.35,1.09.21.68.32,1.37.28,2.09-.2,3.94-3.64,5.61-6.17,5.06-1.4-.31-2.57-.96-3.59-1.94-.79-.76-1.47-1.61-2.16-2.45-.91-1.1-1.99-1.99-3.2-2.74-.7-.44-1.37-.85-2.29-.53-.45.16-1,.07-1.49-.02-.66-.13-1.32-.28-1.98-.43-1.52-.35-2.95-.97-4.49-1.26-1.39-.26-2.75-.62-4.09-1.03-3.85-1.16-7.66-2.43-11.54-3.49-5.17-1.4-10.41-1.79-15.72-1.38-.72.06-.7.03-.7.78,0,.59-.01,1.18,0,1.76,0,.71.01.72.72.7Z"/>
    <path class="cls-1" d="M283.79,53.93c1.24-.66,2.49-1.28,3.83-1.97-.57-.56-1.12-1.08-1.66-1.61-1.48-1.47-2.61-3.18-3.48-5.06-.52-1.14-.82-2.34-.63-3.6.26-1.73,1.15-3.04,2.83-3.63,1.72-.6,3.24-.1,4.51,1.18.7.7,1.14,1.56,1.41,2.51.69,2.46-.43,5.07-2.71,6.2.78.82,1.55,1.61,2.41,2.33.37.31.66.34,1.1.17,2.29-.91,4.65-1.63,7.04-2.24,4.6-1.19,9.25-2.2,13.9-3.14.26-.05.53-.05.71-.29.69-.9,1.67-1.41,2.67-1.82,3.13-1.28,6.35-2.29,9.69-2.86,1.59-.27,3.18-.54,4.78-.78.44-.07.66-.22.63-.72-.04-.64,0-1.29,0-1.94,0-.67,0-.67-.68-.62-.09,0-.18.01-.26.02-3.11.44-6.2,1.03-9.24,1.81-3.96,1.02-7.8,2.4-11.66,3.71-1.64.56-3.28,1.11-5.03,1.23-.84.06-1.67,0-2.38-.48-.83-.55-1.68-1.08-2.38-1.81-1.11-1.14-2.36-2.12-3.62-3.1-1.42-1.1-2.87-2.16-4.08-3.5-.24-.26-.54-.32-.87-.37-1-.17-1.99-.08-2.99-.04-3.44.16-6.62,1.21-9.71,2.65-.33.15-.51.36-.56.71-.11.67-.26,1.33-.36,2-.47,3.13-.59,6.26-.18,9.41.07.55.22.98.78,1.25.49.24.92.63,1.36.98,1.36,1.08,2.71,2.16,4.07,3.25.23.19.42.35.77.17Z"/>
    <path class="cls-4" d="M292.41,154.76c-.16-.5-.29-1.02-.42-1.53-1.3-4.94-1.97-9.97-1.98-15.08,0-2.94.28-5.87.72-8.78.45-2.99,1.02-5.96,2.06-8.82.89-2.44,1.94-4.79,3.28-7.01.14-.24.4-.49.01-.74-.78-.48-1.43-1.12-2.14-1.75-.64.82-1.25,1.61-1.87,2.39-1.62,2.03-2.71,4.32-3.34,6.83-.59,2.34-.94,4.72-1.4,7.09-.72,3.68-1.79,7.24-3.64,10.53-.73,1.31-1.5,2.6-2.24,3.9-.97,1.69-1.76,3.46-2.16,5.37-.32,1.53-.4,3.09-.55,4.64-.12,1.27-.23,2.54-.24,3.82h14.22c-.11-.28-.22-.57-.31-.86Z"/>
    <path class="cls-4" d="M397.07,155.61c-2.4-2.64-4.04-5.68-4.9-9.15-.64-2.55-1.62-4.97-2.93-7.25-.66-1.15-1.3-2.3-1.93-3.47-1.24-2.29-2.21-4.67-2.65-7.25-.2-1.19-.41-2.37-.61-3.56-.44-2.61-1.2-5.08-2.82-7.24-1.49-1.98-3.23-3.74-4.88-5.57-.33-.37-.67-.34-1.01-.09-.51.38-.99.8-1.46,1.18,4.54,6.21,7.14,13.2,8.58,20.62,1.4,7.21,1.63,14.47.37,21.78h14.24s0,0,0,0Z"/>
    <path class="cls-4" d="M405.32,82.24c.11-.25.17-.38.23-.51.48-.97,1.31-1.23,2.26-.7.3.17.58.4.86.61.88.69,1.79,1.34,2.76,1.89.15.09.3.31.59.04-3.72-6.53-7.41-13.07-12.76-18.52,1.38,2.69,2.55,5.46,3.51,8.32.96,2.88,1.67,5.83,2.54,8.86Z"/>
    <path class="cls-2" d="M319.85,110.27c-1.45-.75-2.98-.91-4.52-.38-2.61.89-4.17,2.89-5.35,5.24,4.65-2.33,9.28-2.76,14.01-.21-.96-1.98-2.18-3.64-4.14-4.65Z"/>
    <path class="cls-6" d="M329.54,127.77c.21-.08.43-.12.65-.13.25-.02.49,0,.74,0,.55.02,1.09-.03,1.63-.13.12-.02.24-.04.36-.07,1.53-.34,3.09-.36,4.61.04.78.2,1.54.4,2.34.45.02,0,.03,0,.05,0,.04-.41.09-.81.13-1.22.07-.7.14-1.4.22-2.1.04-.38-.11-.54-.49-.52-.62.03-1.24,0-1.85.06-2.14.17-4.28.17-6.42,0-.64-.05-1.29-.04-1.94-.06-.31,0-.4.14-.37.44.11,1.08.21,2.16.31,3.24h0Z"/>
    <path class="cls-6" d="M329.54,127.77h0c-.1-1.08-.2-2.16-.31-3.24.11,1.08.21,2.16.31,3.24h0s0,0,0,0Z"/>
    <path class="cls-2" d="M359.53,115.79h0c-.19-.26-.38-.51-.58-.75-.55-.64-1.16-1.2-1.82-1.67-.46-.32-.95-.6-1.46-.85-.51-.25-1.05-.45-1.61-.63-3.57-1.09-7.34.95-8.47,4.57.26.1.44-.11.64-.19,2.17-.86,4.42-1.33,6.76-1.36,2.19-.03,4.32.31,6.37,1.08.06-.07.12-.14.17-.21h0Z"/>
    <path class="cls-2" d="M359.53,115.79c-.19-.26-.38-.51-.58-.75.2.24.4.49.58.75h0Z"/>
    <path class="cls-2" d="M321.03,64.82c-.88.6-1.71.46-2.53-.14-.77-.56-1.38-1.27-1.95-2.02-.73-.97-1.3-2.03-1.96-3.04-.29-.44-.58-.89-.99-1.23-.57-.46-1.17-.37-1.58.24-.31.47-.36.99-.27,1.52.18,1.11.69,2.06,1.44,2.87,1.59,1.72,3.56,2.65,5.9,2.8.7.05,1.41.05,2.11.08,0-.37.08-.76-.18-1.09Z"/>
    <path class="cls-6" d="M364.84,121.61c1-.61,1.92-1.33,2.86-2.02,1.08-.79,1.95-1.76,2.7-2.85.37-.55.74-1.12.8-1.82-2.23,1.15-4.43,2.35-6.76,3.29-.41.16-.4.44-.31.78.24.87.47,1.74.71,2.62,0,0,0,0,0,0Z"/>
    <path class="cls-6" d="M364.84,121.61c-.23-.87-.47-1.74-.71-2.62.24.87.47,1.74.71,2.62,0,0,0,0,0,0,0,0,0,0,0,0Z"/>
    <path class="cls-6" d="M299.78,115.64c.75,1.42,1.78,2.57,3.09,3.51,1,.71,2.05,1.32,3.13,1.91.07-.64.03-1.29.19-1.92.08-.31,0-.56-.35-.71-.43-.19-.83-.43-1.25-.63-1.42-.69-2.93-1.21-4.21-2.17-.05-.04-.1-.07-.15-.09-.16-.08-.33-.12-.5-.15.01.08,0,.18.04.25Z"/>
    <path class="cls-1" d="M285.07,41.6c-.21.44-.23.9-.11,1.37.27,1.1.8,2.06,1.49,3.09.57-.74.97-1.42,1.17-2.2.26-1.03,0-1.93-.79-2.64-.61-.55-1.39-.37-1.75.37Z"/>
    <path class="cls-5" d="M282.09,59.2c.53-.07.94-.26,1.33-.53-.49-.01-1.07-.24-1.33.53Z"/>
    <path class="cls-6" d="M391.14,61.83c.34.27.73.42,1.16.45-.16-.17-.34-.3-.53-.41-.19-.11-.4-.19-.62-.26,0,.07,0,.15-.01.22Z"/>
    <path class="cls-6" d="M392.95,62.56c.21.23.45.39.85.38-.25-.35-.53-.41-.85-.38Z"/>
    <path class="cls-6" d="M295.09,55.1c-.23.02-.44.1-.62.26.06.04.11.07.16.08.11.03.21.02.31-.03.01,0,.02-.02.03-.02.04-.02.07-.04.11-.08,0-.07,0-.15,0-.22Z"/>
    <path class="cls-6" d="M294.97,55.4s-.02.02-.03.02c.01,0,.02-.02.03-.02Z"/>
    <path class="cls-1" d="M359.53,115.79c-.06.07-.12.14-.17.21.11.16.27.25.41.1.01-.01.01-.04,0-.07-.02-.06-.07-.13-.13-.18-.03-.03-.07-.05-.11-.06Z"/>
    <path class="cls-1" d="M359.78,116.04c-.02-.06-.07-.13-.13-.18.07.05.12.13.13.18Z"/>
    <path class="cls-6" d="M392.57,62.4s.06.04.08.05c.01-.02.02-.03.03-.05-.02-.02-.03-.05-.05-.05s-.04.03-.06.04Z"/>
    <path class="cls-1" d="M315.41,152.59s-.03.04-.04.07h0s.02-.05.04-.07Z"/>
    <path class="cls-1" d="M315.41,152.59s.07-.04.12-.04c-.05,0-.09,0-.12.04Z"/>
    <path class="cls-3" d="M352.02,88.46c-.33.88-.38,1.64-.16,2.31.23.67.73,1.24,1.53,1.75,1.29.82,2.75,1.13,4.22,1.41.91.18,1.84.15,2.76.26.13.02.26.04.39.06h0s0,0,0,0h0c.09-.01.17-.03.26-.04.09-.01.17-.02.26-.03,2.82-.09,5.64-.23,8.45-.44.91-.07,1.82-.19,2.65-.59,1.98-.94,2.28-3.18.63-4.62-.49-.43-1.06-.73-1.67-.96-1.39-.54-2.84-.71-4.32-.72-3.53-.02-7.05.24-10.58-.03-.32-.02-.65,0-.97.01-.35,0-.68.04-1,.11s-.63.16-.92.29c-.58.26-1.1.65-1.54,1.22Z"/>
    <path class="cls-3" d="M360.77,94.26c.09-.01.17-.03.26-.04-.09.01-.17.03-.26.04h0Z"/>
    <path class="cls-3" d="M309.18,90.43c.75-.64.93-1.36.59-2.29-.12-.33-.25-.66-.37-.98-.55-.61-1.22-.94-1.97-1.1-.25-.05-.51-.09-.77-.11-1.61-.13-3.16.15-4.72.48-3.23.68-6.47,1.17-9.79,1.01-.32-.02-.65-.01-.97.01-.82.07-1.64.12-2.41.47-1.92.87-2.21,3.02-.58,4.35.7.57,1.52.9,2.38,1.1,2.46.56,4.94.63,7.44.29,1.92-.26,3.8-.73,5.7-1.08,1.35-.4,2.72-.75,4.01-1.32.51-.23,1.02-.45,1.45-.82Z"/>
    <path class="cls-3" d="M309.39,87.16c-.55-.61-1.22-.94-1.97-1.1.75.16,1.42.49,1.97,1.1,0,0,0,0,0,0Z"/>
    <path class="cls-3" d="M356.32,96c-1.34.06-2.52.46-3.48,1.42-.63,1.1-.77,2.12-.43,3.03.04.1.08.2.13.3.15.29.35.57.6.83.25.26.56.51.92.74.54.35,1.14.59,1.75.8,1.15.39,2.35.5,3.53.7,1.32-.04,2.64.05,3.95-.18,1.19-.21,2.36-.47,3.43-1.07.6-.34,1.12-.75,1.47-1.36.65-1.11.28-2.5-.77-3.24-1.17-.81-2.45-1.23-3.84-1.42-1.16-.16-2.32-.32-3.48-.48-1.26,0-2.51-.14-3.77-.08Z"/>
    <path class="cls-3" d="M352.85,97.42s0,0,0,0c-.63,1.1-.77,2.12-.43,3.03-.34-.9-.19-1.92.43-3.03Z"/>
    <path class="cls-3" d="M353.14,101.57c-.25-.26-.45-.54-.6-.83.15.29.35.57.6.83Z"/>
    <path class="cls-3" d="M355.86,60.23c-2.7-.86-5.41-.59-8.09.05-1.25.3-1.6,1.18-1.11,2.45.63.56,1.36.57,2.14.41,1.76-.35,3.53-.61,5.33-.29,1.31.23,2.47.73,3.27,1.86.37.52.59,1.08.54,1.73-.07.83-.64,1.19-1.41.88-.61-.24-1.11-.66-1.62-1.05-1.4-1.07-2.97-1.74-4.71-2.06-1.31-.24-2.57-.16-3.71.61-.35.58-.44.97-.22,1.31.13.2.37.39.73.59.44.24.92.38,1.43.41,1.81.13,3.42.77,4.87,1.86.68.51,1.41.95,2.23,1.22,2.68.86,5.21-.92,5.3-3.73.04-1.15-.27-2.21-.9-3.17-.99-1.5-2.35-2.52-4.06-3.07Z"/>
    <path class="cls-3" d="M346.48,64.81s0,0,0,0c-.35.58-.44.97-.22,1.31-.22-.34-.13-.73.22-1.31Z"/>
    <path class="cls-7" d="M306.66,94.7c1.52-.21,2.95-.05,4.19.96,0,0,0,0,0,0,.66-.11,1.33-.19,1.99-.32,1.75-.34,3.39-.94,4.8-2.06.62-.49,1.04-.98,1.29-1.51.08-.17.15-.35.19-.53.04-.18.07-.37.07-.56.01-.57-.15-1.18-.49-1.86,0,0,0,0,0,0h0c-.98-1.01-2.19-1.54-3.55-1.82-.48-.1-.97-.17-1.45-.21-1.45-.12-2.88.03-4.31.37h0c.12.33.25.66.37.98.34.93.16,1.65-.59,2.29-.43.37-.94.6-1.45.82-1.29.57-2.66.92-4.01,1.32.08.52.39.9.73,1.27.36.4.85.61,1.26.95.32.03.63-.06.95-.1Z"/>
    <path class="cls-7" d="M309.39,87.16c1.43-.34,2.87-.49,4.31-.37-1.45-.12-2.88.03-4.31.37,0,0,0,0,0,0h0Z"/>
    <path class="cls-7" d="M319.12,91.24c-.04.18-.11.36-.19.53.08-.17.15-.35.19-.53Z"/>
    <path class="cls-7" d="M310.85,95.66h0c.66-.11,1.33-.19,1.99-.32-.66.13-1.33.22-1.99.32,0,0,0,0,0,0Z"/>
    <path class="cls-7" d="M319.19,90.68c.01-.57-.15-1.18-.49-1.86,0,0,0,0,0,0,.33.68.5,1.29.49,1.86Z"/>
    <path class="cls-3" d="M306.94,101.16c.6-.3,1.22-.57,1.81-.9.72-.4,1.4-.88,1.88-1.57.17-.24.31-.49.41-.73.26-.62.3-1.25.02-1.91-.03-.07-.07-.13-.1-.2-.04-.07-.06-.13-.11-.2-1.24-1.01-2.68-1.17-4.19-.96-.32.04-.63.13-.95.1-.2.06-.39.13-.59.17-1.83.4-3.68.74-5.49,1.24-.71.2-1.39.47-1.97.95-1.36,1.13-1.35,3.01.03,4.12.46.37,1,.62,1.57.76,1.3.32,2.62.26,3.94.09.16-.02.32-.05.48-.08.32-.06.63-.13.94-.21.34-.09.67-.19,1.01-.29.44-.13.87-.26,1.31-.38h0Z"/>
    <path class="cls-3" d="M306.94,101.16c-.44.12-.87.25-1.31.38.44-.13.87-.26,1.31-.38,0,0,0,0,0,0h0Z"/>
    <path class="cls-3" d="M304.62,101.83c-.31.08-.62.16-.94.21.32-.06.63-.13.94-.21Z"/>
    <path class="cls-3" d="M311.04,97.96c.26-.62.3-1.25.02-1.91.28.66.24,1.29-.02,1.91Z"/>
    <path class="cls-3" d="M310.96,95.85c-.04-.07-.06-.13-.11-.2h0c.04.07.07.13.11.2Z"/>
    <path class="cls-3" d="M351.37,73.83c-1.23-1.38-3.01-1.57-4.52-.51-.51.36-.95.8-1.27,1.33-1.45,2.36-1.77,4.87-.87,7.51.22.64.58,1.22,1.06,1.71,1.19,1.21,2.82,1.41,4.26.51.74-.46,1.3-1.1,1.73-1.84.75-1.3,1.1-2.71,1.1-4.37,0-.16,0-.49-.04-.81-.15-1.31-.55-2.52-1.45-3.52ZM347.94,82c-1.06,0-1.89-.84-1.88-1.92,0-1.07.86-1.9,1.92-1.88,1.05.02,1.87.9,1.84,1.96-.03,1.02-.86,1.83-1.88,1.83Z"/>
    <path class="cls-3" d="M317.95,73.25c-1.53-1.33-3.5-1.22-4.86.29-.48.53-.82,1.14-1.05,1.82-.76,2.24-.62,4.45.36,6.59.32.7.78,1.31,1.37,1.81,1.46,1.22,3.34,1.14,4.69-.19.44-.44.78-.95,1.04-1.52.47-1.03.67-2.12.68-3.52.02-.62-.12-1.49-.39-2.33-.36-1.14-.92-2.16-1.83-2.95ZM316.35,81.77c-1.14.02-2.04-.9-2.03-2.07,0-1.1.86-1.97,1.94-1.96,1.09,0,1.98.92,1.99,2.04.01,1.11-.81,1.98-1.89,1.99Z"/>
    <path class="cls-7" d="M345.56,92.72c.23.62.6,1.14,1.05,1.61.98,1.01,2.18,1.69,3.46,2.23.22.09.45.18.68.25.69.23,1.4.39,2.09.6,0,0,0,0,0,0,.96-.97,2.14-1.36,3.48-1.42,1.26-.06,2.52.07,3.77.08.19-.27.38-.55.5-.85.13-.3.2-.62.17-.97h0c-.13-.02-.26-.04-.39-.06-.91-.12-1.84-.09-2.76-.26-1.47-.28-2.93-.59-4.22-1.41-.8-.51-1.31-1.08-1.53-1.75-.23-.67-.17-1.43.16-2.31-.49-.05-.98-.07-1.47-.07-1.45,0-2.86.28-4.15,1.14-.9.9-1.31,1.93-.85,3.2Z"/>
    <path class="cls-7" d="M350.56,88.38c-1.45,0-2.86.28-4.15,1.14,0,0,0,0,0,0,1.29-.86,2.69-1.13,4.15-1.14Z"/>
    <path class="cls-7" d="M352.85,97.42c-.69-.21-1.4-.38-2.09-.6.69.23,1.4.39,2.09.6,0,0,0,0,0,0,0,0,0,0,0,0Z"/>
    <path class="cls-7" d="M360.38,94.2c.13.02.26.04.39.06h0c-.13-.02-.26-.04-.39-.06Z"/>
    <path class="cls-2" d="M300.68,67.42c.83-.8,1-1.88,1.13-2.69.02-1.09-.22-1.83-.58-2.55-.22-.45-.56-.74-1.01-.93-.76-.32-1.44.14-1.41.96.02.42.17.8.36,1.17.22.42.18.85.15,1.29-.01.18-.09.35-.28.4-.21.05-.32-.11-.4-.27-.24-.48-.34-.98-.37-1.52-.04-.74-.53-1.17-1.19-1.13-.63.03-1.05.46-1.09,1.16-.06,1.09.04,2.21.45,3.19.81,1.93,2.88,2.24,4.24.93Z"/>
    <path class="cls-2" d="M368.78,69.62c-.27.15-.18.38-.11.61.1.33.27.66.18,1.03-.17.74-.36,1.48-.75,2.15-.1.17-.17.41-.44.34-.2-.05-.24-.24-.3-.4-.04-.11-.07-.23-.06-.34.07-.77-.23-1.5-.2-2.27.02-.47-.35-.89-.73-.98-.39-.09-.97.21-1.16.64-.18.4-.31.84-.18,1.28.11.35.07.67.01,1.03-.16.94.08,1.82.66,2.57,1.1,1.43,3.23,1.33,4.19-.19.24-.39.44-.8.57-1.23.13-.43.2-.88.18-1.35,0-.09,0-.18,0-.26.05-1.03-.53-1.77-1.15-2.48-.19-.22-.45-.29-.72-.14Z"/>
    <path class="cls-2" d="M370.48,73.87c.13-.43.2-.88.18-1.35,0-.09,0-.18,0-.26,0,.09,0,.18,0,.26.02.47-.05.92-.18,1.35Z"/>
    <path class="cls-2" d="M346.48,64.81s0,0,0,0c1.14-.77,2.4-.85,3.71-.61,1.73.32,3.31.99,4.71,2.06.51.39,1.01.81,1.62,1.05.77.31,1.35-.05,1.41-.88.05-.64-.17-1.21-.54-1.73-.8-1.13-1.96-1.63-3.27-1.86-1.8-.32-3.57-.07-5.33.29-.79.16-1.51.15-2.14-.41-.06.08-.11.17-.15.25-.08.17-.13.34-.15.51-.06.43.03.88.13,1.33Z"/>
    <path class="cls-2" d="M346.48,64.81c-.1-.45-.19-.89-.13-1.33-.06.43.03.88.13,1.33,0,0,0,0,0,0s0,0,0,0Z"/>
    <path class="cls-2" d="M346.35,63.49c.02-.17.07-.34.15-.51-.08.17-.13.34-.15.51Z"/>
    <path class="cls-2" d="M302.52,71.85c-.45-.26-.91-.25-1.32.06-.38.29-.53.69-.36,1.17.05.16.08.34.09.52,0,.26-.1.46-.37.52-.25.05-.48.01-.62-.22-.1-.18-.18-.37-.23-.57-.08-.34-.13-.69-.21-1.03-.14-.58-.48-.72-.96-.38-.6.42-1.06.94-.98,1.76.02.23,0,.48.08.7.55,1.76,2.93,3.06,4.84,1.49.72-.59,1.13-1.34,1.1-2.29-.03-.76-.39-1.34-1.05-1.72Z"/>
    <path class="cls-2" d="M334.82,59.14c-.47-.06-.57.3-.75.6-.31.52-.54,1.1-1.13,1.45-.08-.17-.16-.29-.21-.43-.2-.64-.42-1.27-.41-1.96.01-.54-.37-.96-.78-1.05-.5-.11-1.01.11-1.25.6-.17.37-.32.77-.21,1.19.16.59.28,1.19.34,1.8.1.98,1,2.02,1.79,2.2,1.93.43,3.96-1.71,3.46-3.62-.1-.38-.5-.73-.86-.78Z"/>
    <path class="cls-2" d="M375.32,62.72c-.46-.31-.71-.21-.78.33-.08.66-.35,1.24-.66,1.81-.3.56-.6.57-.96.04-.15-.22-.25-.47-.37-.7-.16-.31-.3-.64-.49-.94-.22-.34-.54-.31-.76.04-.76,1.24-.6,2.93.39,4.02.89.98,2.41,1.11,3.32.23.8-.78,1.29-1.74,1.3-3.06.1-.71-.32-1.31-.99-1.77Z"/>
    <path class="cls-2" d="M293.53,64.55c-.31-.27-.62-.55-1.09-.36-.49.2-.74.54-.7,1.09.02.26.03.53-.09.78-.07.13-.13.28-.31.26-.12-.01-.21-.11-.25-.22-.08-.25-.17-.5-.22-.76-.09-.47-.34-.87-.57-1.28-.22-.38-.45-.41-.78-.12-.07.06-.13.13-.19.19-.42.46-.63,1.03-.58,1.69-.08.95.35,1.8.93,2.35.1.1.21.19.32.26.17.12.34.21.5.27,1.02.37,1.96.22,2.76-.56.84-.83.92-1.85.7-2.93-.05-.26-.23-.48-.43-.65Z"/>
    <path class="cls-3" d="M332.28,89.47c-1.33-.5-2.66-.44-3.96.04-1.31.49-1.91,1.72-1.53,3.06.25.86.65,1.64,1.34,2.24.3.26.4.52.35.91-.09.82-.13,1.64-.19,2.46.02,0,.04,0,.06,0,0,.41-.01.82,0,1.23.02.35.06.7.11,1.05.08.59.25,1.15.67,1.6.76.79,1.77.58,2.19-.43.18-.42.16-.86.16-1.3,0-1.38-.02-2.76.02-4.14.02-.6.22-1.03.62-1.47.83-.91,1.39-1.97,1.49-3.22.08-1.02-.38-1.67-1.33-2.03Z"/>
    <path class="cls-2" d="M347.98,78.2c-1.06-.02-1.91.81-1.92,1.88,0,1.07.82,1.92,1.88,1.92,1.02,0,1.85-.81,1.88-1.83.03-1.06-.79-1.93-1.84-1.96Z"/>
    <path class="cls-2" d="M316.25,77.74c-1.07,0-1.93.86-1.94,1.96,0,1.17.9,2.09,2.03,2.07,1.08-.02,1.91-.88,1.89-1.99-.01-1.12-.91-2.03-1.99-2.04Z"/>
    <path class="cls-2" d="M335.91,132.19s0,0,0,0c.01-.06.02-.11.03-.14,0-.04,0-.06,0-.06v-.52h0v-.27c-.24-.04-.5-.07-.8-.07-.21,0-.41.01-.59.04v.26h0v.72h0v.43h.95c.26,0,.37-.21.41-.38Z"/>
    <path class="cls-2" d="M329.54,127.77c0,.44,0,.88.01,1.32-.01-.44,0-.88-.01-1.32,0,0,0,0,0,0Z"/>
    <path class="cls-2" d="M339.96,130.88c0,.25,0,.49.01.74,0-.25,0-.49-.01-.74Z"/>
    <path class="cls-2" d="M329.31,134.73c0-.08.02-.16.03-.25,0,.08-.02.16-.03.25Z"/>
    <path class="cls-2" d="M341.3,139.87c1.06,3.47,2.72,6.68,4.99,9.61-2.27-2.93-3.94-6.13-4.99-9.61Z"/>
    <path class="cls-2" d="M318.13,151.59c-.82.37-1.66.7-2.53.97,0,0,0,0,0,0h0c.87-.28,1.71-.6,2.53-.97Z"/>
    <polygon class="cls-2" points="315.36 152.66 315.36 152.66 315.36 152.66 315.36 152.66"/>
    <path class="cls-2" d="M325.95,144.86c.46-.69.87-1.42,1.23-2.17-.36.75-.77,1.47-1.23,2.17Z"/>
    <path class="cls-2" d="M353.45,155.41c-2.13-.92-3.98-2.29-5.55-4.02-.57-.62-1.1-1.26-1.61-1.91.51.65,1.04,1.29,1.61,1.91,1.57,1.73,3.42,3.1,5.55,4.02Z"/>
    <path class="cls-2" d="M327.54,141.93c.22-.51.42-1.04.6-1.58-.18.54-.38,1.06-.6,1.58Z"/>
    <path class="cls-2" d="M332.92,127.44c-.12.03-.24.05-.36.07.12-.02.24-.04.36-.07,1.53-.34,3.09-.36,4.61.04.78.2,1.54.4,2.34.45-.8-.04-1.57-.24-2.34-.45-1.52-.4-3.08-.38-4.61-.04Z"/>
    <path class="cls-2" d="M329.54,127.77c.21-.08.43-.12.65-.13-.22.01-.44.05-.65.13h0Z"/>
    <polygon class="cls-2" points="329.54 127.77 329.54 127.77 329.54 127.77 329.54 127.77 329.54 127.77"/>
    <path class="cls-2" d="M315.6,152.56h0s-.03.04-.04.06c.02-.02.03-.04.04-.06Z"/>
    <path class="cls-8" d="M337.53,132.06v.39s0,.06,0,.09c0,.05-.02.1-.03.14,0,0,0,0,0,0,.07.04.13.07.19.11.37.23.6.46.71.58v.9c-1.25,1.38-2.8,1.95-3.2,2.08-.4-.13-1.95-.69-3.2-2.08v-1.58h-.73v1.85l.09.1c1.59,1.85,3.66,2.41,3.74,2.44l.09.03.09-.03c.09-.02,2.15-.59,3.74-2.44l.09-.1v-1.42l-.07-.09s-.5-.68-1.52-1.15h0s0,.16,0,.16Z"/>
    <path class="cls-8" d="M332.66,131.8c.04.11.06.23.07.34h0c-.01-.12-.03-.23-.07-.34h0Z"/>
    <path class="cls-8" d="M332.66,131.8h0c.04.11.06.23.07.34h.12v-.73h0s-.91,0-.91,0v-1.51c.34-.21,1.35-.72,3.22-.72s2.88.51,3.22.72v1.51s.15.05.35.19c.22.15.38.3.38.3v-2.37l-.13-.11s-1.19-.98-3.82-.98-3.77.94-3.82.98l-.13.11v2.6h1.52c-.01-.12-.03-.23-.07-.34Z"/>
    <path class="cls-4" d="M332.86,131.43v.71h0v1.69c.62.58,1.28,1.12,1.74,1.34v-1.7s0,0,0,0h.73s.24,0,.56-.03c.57-.05,1.39-.22,1.59-.74,0,0,0,0,0,0,.02-.05.03-.09.03-.14,0-.03,0-.06,0-.09v-.39s0-.16,0-.16h0s0-1.19,0-1.19l-.08-.06h0s-.1-.08-.29-.18c-.36-.18-.99-.39-1.97-.39s-1.62.21-1.97.39c-.19.09-.28.17-.29.18l-.08.06v.7h0v.02ZM334.55,132.14h0v-.73h0v-.26c.18-.02.38-.04.59-.04.3,0,.57.03.8.07v.27h0v.52s0,.02,0,.06c0,.04-.01.09-.03.14,0,0,0,0,0,0-.04.17-.15.38-.41.38h-.95v-.42Z"/>
    <path class="cls-2" d="M315.46,154.69c-.06-.58-.07-1.17-.09-1.75h0c.02.59.03,1.17.09,1.75h0Z"/>
    <path class="cls-2" d="M315.46,154.69c.03.28.07.55.13.82-.06-.27-.1-.55-.13-.82h0Z"/>
    <g>
      <path class="cls-2" d="M315.53,152.55s-.09,0-.12.04c-.02.02-.03.04-.04.07h0c.08.03.14,0,.19-.04.02-.02.03-.04.04-.06-.03,0-.05,0-.07-.01Z"/>
      <path class="cls-2" d="M353.45,155.41c-2.13-.92-3.98-2.29-5.55-4.02-.57-.62-1.1-1.26-1.61-1.91-2.27-2.93-3.94-6.13-4.99-9.61-.12-.39-.23-.78-.33-1.17-.41-1.57-.7-3.19-.87-4.87-.08-.74-.11-1.48-.13-2.21,0-.25,0-.49-.01-.74,0-.49,0-.98,0-1.47,0-.49,0-.98-.02-1.48-.02,0-.03,0-.05,0-.8-.04-1.57-.24-2.34-.45-1.52-.4-3.08-.38-4.61-.04-.12.03-.24.05-.36.07-.54.1-1.08.15-1.63.13-.25,0-.49-.02-.74,0-.22.01-.44.05-.65.13,0,.44,0,.88.01,1.32.05,1.81-.01,3.6-.21,5.39,0,.08-.02.16-.03.25-.12,1.05-.29,2.09-.5,3.13-.18.86-.4,1.7-.67,2.5-.18.54-.38,1.06-.6,1.58-.11.26-.23.51-.35.76-.36.75-.77,1.47-1.23,2.17-.61.92-1.31,1.8-2.09,2.62-.59.62-1.22,1.2-1.91,1.76-.95.77-1.96,1.41-3.02,1.96-.27.14-.53.27-.81.39-.82.37-1.66.7-2.53.97-.01.02-.03.04-.04.06-.05.05-.11.07-.19.04,0,0,0,0,0,0h0c0,.09,0,.18.01.27,0,.28.02.57.03.85-.01-.28-.02-.57-.03-.85h-.1s.03.71.13,1.76c.03.28.06.59.1.92h38.44c-.17-.06-.33-.13-.49-.2ZM315.46,154.69c.03.28.07.55.13.82-.06-.27-.1-.55-.13-.82ZM339.12,131.91s-.16-.15-.38-.3c-.21-.14-.35-.19-.35-.19v-1.51c-.34-.21-1.35-.72-3.22-.72s-2.88.51-3.22.72v1.51h.91v-.7l.08-.06s.1-.08.29-.18c.36-.18.99-.39,1.97-.39s1.62.21,1.97.39c.19.09.28.17.29.18h0l.08.06v1.18c1.02.47,1.49,1.11,1.52,1.15l.07.09v1.42l-.09.1c-1.59,1.85-3.66,2.41-3.74,2.44l-.09.03-.09-.03c-.09-.02-2.15-.59-3.74-2.44l-.09-.1v-1.85h.73v1.58c1.24,1.38,2.8,1.95,3.2,2.08.39-.13,1.95-.69,3.2-2.08v-.9c-.11-.12-.34-.35-.71-.58-.06-.04-.13-.08-.19-.11-.2.51-1.02.68-1.59.74-.32.03-.56.03-.56.03h-.75v.03s.01,1.67.01,1.67c-.47-.22-1.12-.76-1.74-1.34v-1.68h-.12c0,.1,0,.19,0,.29,0-.1,0-.19,0-.29h-1.52v-2.6l.13-.11s1.19-.98,3.82-.98,3.77.94,3.82.98l.13.11v2.37ZM337.81,131.7c-.06-.03-.12-.05-.18-.07h0c.06.02.12.04.18.07Z"/>
    </g>
    <path class="cls-2" d="M315.59,155.51s.01.07.02.1h0s-.01-.07-.02-.1Z"/>
  </g>
  <g>
    <path class="cls-2" d="M97.48,165.36c0-5.52-4.5-10.01-10.01-10.01,5.52,0,10.01-4.5,10.01-10.01,0,5.52,4.5,10.01,10.01,10.01-5.52,0-10.01,4.5-10.01,10.01Z"/>
    <path d="M97.48,166.03c-.37,0-.67-.3-.67-.67,0-5.15-4.19-9.34-9.34-9.34-.37,0-.67-.3-.67-.67s.3-.67.67-.67c5.15,0,9.34-4.19,9.34-9.34,0-.37.3-.67.67-.67s.67.3.67.67c0,5.15,4.19,9.34,9.34,9.34.37,0,.67.3.67.67s-.3.67-.67.67c-5.15,0-9.34,4.19-9.34,9.34,0,.37-.3.67-.67.67ZM91.2,155.34c2.9,1.08,5.2,3.39,6.28,6.28,1.08-2.9,3.39-5.2,6.28-6.28-2.9-1.08-5.2-3.39-6.28-6.28-1.08,2.9-3.39,5.2-6.28,6.28Z"/>
  </g>
  <g>
    <rect x="32.03" y="201.11" width="9.78" height="9.78"/>
    <path d="M41.81,211.69h-9.78c-.44,0-.8-.36-.8-.8v-9.78c0-.44.36-.8.8-.8h9.78c.44,0,.8.36.8.8v9.78c0,.44-.36.8-.8.8ZM32.83,210.09h8.18v-8.18h-8.18v8.18Z"/>
  </g>
  <g>
    <path class="cls-2" d="M453.61,107.32c-4.24-3.49-9.47-4.33-13.46-.48-4,3.85-4.53,11.99-.53,15.85,4.35,4.19,14.67,4.13,20.32,4.04,10.86-.19,21.92.33,32.78.33,20.36,0,18.15-17.49,12.72-21.22-2.64-1.81-6.23-1.52-8.62.7,1.02-7.36-3.5-15.19-9.76-16.88-6.25-1.69-13.28,3.01-15.17,10.14-2.82-3.4-7.48-4.5-11.22-2.67-3.74,1.84-6.14,5.76-7.05,10.18Z"/>
    <path d="M492.71,127.55c-4.61,0-9.32-.1-13.88-.19-6.21-.13-12.63-.26-18.89-.15-5.21.09-16.05.28-20.66-4.17-1.84-1.77-2.89-4.57-2.89-7.67,0-3.49,1.28-6.8,3.43-8.87,3.69-3.56,8.8-3.55,13.49-.03,1.12-4.53,3.7-8.06,7.14-9.76,3.72-1.83,8.21-.94,11.22,2.13,1.15-3.49,3.54-6.48,6.67-8.29,2.84-1.64,5.98-2.12,8.85-1.35,6.21,1.68,10.7,8.96,10.23,16.26,2.49-1.67,5.82-1.72,8.3-.01,2.95,2.02,5.01,7.71,3.39,12.94-1.06,3.42-4.6,9.16-16.38,9.16ZM464.89,126.2c4.67,0,9.37.1,13.96.19,4.56.09,9.27.19,13.86.19,11.16,0,14.48-5.31,15.46-8.48,1.48-4.76-.4-10.07-3.01-11.86-2.43-1.67-5.81-1.39-8.02.66-.15.14-.37.17-.55.07-.18-.09-.28-.29-.26-.5.98-7.09-3.41-14.72-9.4-16.34-2.61-.71-5.49-.26-8.11,1.25-3.16,1.82-5.51,4.94-6.47,8.55-.05.18-.19.31-.36.35-.18.04-.36-.02-.48-.16-2.65-3.2-7.12-4.27-10.64-2.54-3.37,1.66-5.84,5.24-6.79,9.84-.03.17-.15.3-.31.36-.16.06-.34.03-.47-.08-4.51-3.71-9.3-3.9-12.82-.5-1.96,1.89-3.13,4.95-3.13,8.18,0,2.84.95,5.39,2.59,6.98,4.33,4.17,15.29,3.98,19.97,3.9,1.65-.03,3.3-.04,4.96-.04Z"/>
  </g>
  <path d="M599.26,289.89c-.14,0-.28-.04-.41-.11-4.62-2.77-7.89-7.71-8.99-13.55-.48-2.59-.51-5.16-.09-7.6-3.98-.06-7.95-1.4-10.96-4-3.82-3.31-5.84-8.41-5.78-13.45,0,0,0,0,0,0-11.87-2.65-20.79-14.68-19.89-26.81.03-.44.42-.77.86-.74.44.03.77.42.74.86-.84,11.28,7.4,22.47,18.4,25.07.25-2.46,1.02-4.86,2.33-6.97,1.02-1.64,2.75-3.62,5.21-3.78,1.8-.11,3.43.91,4.35,2.74,1.17,2.33.93,5.22-.6,7.02-2.04,2.41-5.64,3.45-9.8,2.89,0,4.49,1.83,9.01,5.24,11.96,2.8,2.42,6.5,3.63,10.19,3.63.02,0,.04,0,.06,0,.62-2.46,1.71-4.74,3.23-6.7,1.57-2.03,3.2-3.17,4.97-3.48,1.26-.22,2.64.12,3.67.9.85.65,1.38,1.54,1.48,2.5.16,1.5-.66,3.05-2.36,4.49-2.71,2.29-6.16,3.56-9.69,3.82-.44,2.35-.44,4.84.03,7.35,1.01,5.39,4.01,9.93,8.24,12.47.38.23.5.72.27,1.1-.15.25-.41.39-.69.39ZM599.07,258.4c-.17,0-.33.01-.49.04-1.36.24-2.66,1.18-3.98,2.88-1.28,1.66-2.23,3.57-2.81,5.63,3.03-.31,5.95-1.45,8.28-3.42.89-.75,1.93-1.9,1.8-3.1-.07-.67-.5-1.13-.85-1.4-.55-.41-1.26-.64-1.94-.64ZM574.69,249.85c2.28.31,6.23.37,8.51-2.31,1.25-1.48,1.15-3.77.39-5.27-.3-.59-1.15-1.96-2.82-1.86-1.88.12-3.29,1.95-3.96,3.03-1.21,1.94-1.9,4.15-2.12,6.42Z"/>
  <g>
    <path d="M87.52,368.71H14.08c-.19,0-.35-.36-.35-.8s.16-.8.35-.8h73.44c.19,0,.35.36.35.8s-.16.8-.35.8Z"/>
    <path d="M33.2,368.89c-.44,0-.8-.36-.8-.8v-85.92c0-.44.36-.8.8-.8s.8.36.8.8v85.92c0,.44-.36.8-.8.8Z"/>
    <g>
      <rect class="cls-2" x="25.65" y="360.36" width="15.1" height="15.1" transform="translate(401.1 334.71) rotate(90)"/>
      <path d="M40.75,376.26h-15.1c-.44,0-.8-.36-.8-.8v-15.1c0-.44.36-.8.8-.8h15.1c.44,0,.8.36.8.8v15.1c0,.44-.36.8-.8.8ZM26.45,374.66h13.5v-13.5h-13.5v13.5Z"/>
    </g>
  </g>
  <path d="M55.64,119.13c-4.11,0-7.45-3.34-7.45-7.45s3.34-7.45,7.45-7.45,7.45,3.34,7.45,7.45-3.34,7.45-7.45,7.45ZM55.64,105.83c-3.23,0-5.85,2.62-5.85,5.85s2.62,5.85,5.85,5.85,5.85-2.63,5.85-5.85-2.63-5.85-5.85-5.85Z"/>
</svg>