<?xml version="1.0" encoding="UTF-8"?>
<svg id="Layer_1" data-name="Layer 1" xmlns="http://www.w3.org/2000/svg" viewBox="0 0 53.68 52.4">
  <defs>
    <style>
      .cls-1 {
        fill: #fff;
      }
    </style>
  </defs>
  <path class="cls-1" d="M52.42,22.06c-2.81-.89-4.49-.38-6.79-1.02-.95-2.08-2.85-5.54-3.88-7.6,1.38-2.56,2.29-3.39,3.51-5.57-.1-.29-.39-.51-.68-.73-.69-.52-1.38-1.04-2.09-1.54-2.6-1.84-5.41-3.39-8.34-4.62-1.35,2.57-2.36,4.98-3.37,7.39-2.83-.06-5.66.28-8.39,1-1.19-2.35-2.54-4.63-4.02-6.81-3.32,1.79-6.51,4.02-9.13,6.82,1.4,2.11,2.51,3.32,4.06,5.05-1.37,2.64-2.75,5.13-3.66,7.75-2.87-.45-5.08-.37-7.79-.82-1.1,4.4-1.28,8.95.21,13.05,2.67-.6,4.13-1.24,6.53-1.92,1.31,2.54,3.13,4.92,5.15,7.03-1.25,2.45-1.73,4.4-2.9,6.35,2.49,2.64,5.67,4.53,9.11,5.56,1.02-2.35,1.68-3.82,2.64-5.89,2.55.06,5.82.21,8.32-.36,1.59,2.05,2.19,3.3,3.23,5.4,3.91-.74,7.58-2.35,10.91-4.52-1.25-2.42-1.54-3.96-2.9-5.94,1.58-2.26,2.93-5.11,3.61-7.51,2.56-.46,3.72-.31,6.05-.41.98-3.45,1.08-6.83.6-10.12ZM32.65,32.81c-1.41,1.16-2.85,2.25-8.05,1.09-2.04-.46-7.25-3.61-4.88-10.73.76-2.27,2.74-4.17,5.1-4.63,2.36-.46,4.26-.53,6,.12,2.71,1.02,4.68,3.66,5.01,6.51s-.96,5.8-3.18,7.63Z"/>
  <path d="M19.95,52.4c-.09,0-.19-.01-.28-.04-3.69-1.1-6.98-3.12-9.54-5.83-.3-.32-.35-.8-.13-1.17.6-1,1.02-2.04,1.47-3.14.33-.8.66-1.63,1.09-2.53-1.82-1.98-3.31-4-4.45-6.04-.59.18-1.13.35-1.66.53-1.27.41-2.47.8-4.17,1.18-.48.11-.96-.16-1.13-.62-1.43-3.95-1.52-8.53-.24-13.62.12-.49.6-.81,1.11-.73,1.32.22,2.52.31,3.78.4,1.01.07,2.06.15,3.2.3.79-2.07,1.82-4.04,2.91-6.11l.21-.4c-1.32-1.47-2.39-2.7-3.69-4.65-.25-.38-.21-.88.1-1.21,2.44-2.61,5.6-4.97,9.38-7.01.44-.24.99-.1,1.27.31,1.36,1.99,2.61,4.08,3.73,6.22,2.37-.56,4.79-.84,7.23-.85.92-2.19,1.9-4.46,3.15-6.86.23-.45.77-.65,1.24-.45,3,1.25,5.87,2.84,8.53,4.72.71.51,1.41,1.03,2.11,1.56.36.27.82.61,1.02,1.19.09.26.07.55-.07.8-.59,1.05-1.11,1.81-1.62,2.54-.51.73-1.03,1.49-1.64,2.57.32.63.71,1.36,1.11,2.12.82,1.55,1.73,3.29,2.36,4.62.78.17,1.52.22,2.29.26,1.15.07,2.46.14,4.1.66.36.11.62.42.67.79.54,3.71.33,7.16-.63,10.53-.12.41-.48.69-.9.71-.67.03-1.24.04-1.78.05-1.18.02-2.13.04-3.55.25-.71,2.23-1.87,4.64-3.2,6.65.64,1.04,1.03,1.98,1.45,2.97.32.77.66,1.57,1.14,2.51.23.45.09,1-.33,1.27-3.61,2.36-7.4,3.93-11.26,4.66-.43.08-.86-.13-1.06-.52l-.15-.3c-.87-1.74-1.42-2.85-2.61-4.45-2.24.4-4.93.33-7.12.28h-.17c-.86,1.87-1.49,3.28-2.36,5.28-.16.37-.52.59-.9.59ZM12.05,45.7c2.04,2.01,4.56,3.56,7.35,4.52.78-1.8,1.4-3.18,2.29-5.1.16-.35.52-.58.91-.57l.82.02c2.29.06,5.14.13,7.26-.36.37-.08.76.05.99.35,1.47,1.9,2.13,3.14,3,4.89,3.1-.68,6.15-1.94,9.1-3.76-.32-.68-.58-1.29-.81-1.85-.47-1.12-.87-2.08-1.62-3.18-.23-.34-.23-.78,0-1.11,1.47-2.09,2.8-4.86,3.48-7.22.1-.36.4-.63.77-.69,1.91-.34,3.09-.36,4.45-.38.32,0,.65-.01,1.01-.02.68-2.7.83-5.46.47-8.41-1.14-.3-2.1-.35-3.03-.41-.97-.06-1.98-.11-3.13-.44-.28-.08-.51-.27-.62-.54-.6-1.32-1.61-3.25-2.51-4.95-.51-.96-.99-1.88-1.36-2.61-.14-.29-.14-.62.01-.91.77-1.43,1.39-2.33,2-3.2.4-.57.77-1.12,1.18-1.8-.03-.02-.05-.04-.07-.06-.69-.52-1.37-1.03-2.07-1.52-2.3-1.62-4.76-3.02-7.32-4.16-1.13,2.25-2.04,4.41-2.92,6.51-.16.37-.52.59-.92.6-2.74-.05-5.47.27-8.12.97-.45.12-.91-.09-1.12-.5-1.04-2.05-2.2-4.05-3.46-5.96-2.98,1.68-5.52,3.57-7.56,5.63,1.1,1.58,2.05,2.64,3.31,4.04l.22.24c.27.3.33.74.14,1.1l-.53,1.01c-1.18,2.26-2.3,4.4-3.07,6.61-.16.45-.61.72-1.08.64-1.38-.22-2.63-.31-3.83-.4-.98-.07-1.99-.15-3.05-.29-.89,4.01-.85,7.63.11,10.79,1.19-.3,2.14-.61,3.14-.93.76-.25,1.56-.51,2.49-.77.45-.13.92.08,1.14.49,1.18,2.29,2.86,4.58,4.98,6.81.29.3.35.75.16,1.12-.55,1.07-.94,2.05-1.33,2.99-.38.94-.75,1.84-1.23,2.75ZM28.4,35.38c-1.07,0-2.37-.16-4.01-.52-1.23-.28-3.71-1.43-5.18-4.03-1.26-2.23-1.4-4.98-.41-7.96.9-2.69,3.19-4.76,5.84-5.28,2.81-.55,4.76-.5,6.54.17,3,1.13,5.27,4.07,5.64,7.32.36,3.15-1,6.41-3.53,8.5-1.23,1.01-2.46,1.81-4.87,1.81ZM27.99,19.17c-.86,0-1.83.11-2.98.34-1.94.38-3.69,1.98-4.36,3.98-.82,2.47-.74,4.62.26,6.38,1.05,1.86,2.91,2.86,3.91,3.09,4.83,1.08,5.99.12,7.22-.89,0,0,0,0,0,0,2-1.65,3.11-4.3,2.83-6.77-.29-2.54-2.05-4.83-4.38-5.71-.74-.28-1.55-.42-2.49-.42Z"/>
</svg>