<?xml version="1.0" encoding="UTF-8"?>
<svg id="Layer_1" data-name="Layer 1" xmlns="http://www.w3.org/2000/svg" viewBox="0 0 30.59 29.86">
  <defs>
    <style>
      .cls-1 {
        fill: #fff;
      }
    </style>
  </defs>
  <path class="cls-1" d="M29.87,12.57c-1.6-.51-2.56-.21-3.87-.58-.54-1.18-1.62-3.16-2.21-4.33.79-1.46,1.31-1.93,2-3.18-.06-.17-.22-.29-.39-.41-.39-.3-.79-.59-1.19-.88-1.48-1.05-3.08-1.93-4.75-2.63-.77,1.47-1.34,2.84-1.92,4.21-1.61-.03-3.22.16-4.78.57-.68-1.34-1.45-2.64-2.29-3.88-1.89,1.02-3.71,2.29-5.2,3.88.8,1.2,1.43,1.89,2.31,2.88-.78,1.51-1.57,2.93-2.08,4.41-1.64-.26-2.9-.21-4.44-.47-.63,2.51-.73,5.1.12,7.44,1.52-.34,2.36-.71,3.72-1.09.75,1.44,1.78,2.8,2.93,4.01-.71,1.4-.99,2.51-1.65,3.62,1.42,1.5,3.23,2.58,5.19,3.17.58-1.34.96-2.18,1.5-3.36,1.45.03,3.32.12,4.74-.21.91,1.17,1.25,1.88,1.84,3.07,2.23-.42,4.32-1.34,6.21-2.57-.71-1.38-.88-2.26-1.65-3.39.9-1.29,1.67-2.91,2.06-4.28,1.46-.26,2.12-.18,3.45-.24.56-1.97.62-3.89.34-5.77ZM18.61,18.7c-.8.66-1.62,1.28-4.59.62-1.17-.26-4.13-2.05-2.78-6.11.43-1.29,1.56-2.37,2.91-2.64,1.34-.26,2.43-.3,3.42.07,1.54.58,2.67,2.09,2.85,3.71s-.55,3.3-1.81,4.35Z"/>
  <path d="M11.37,29.86c-.05,0-.11,0-.16-.02-2.1-.63-3.98-1.78-5.44-3.32-.17-.18-.2-.45-.07-.67.34-.57.58-1.16.84-1.79.19-.46.38-.93.62-1.44-1.04-1.13-1.89-2.28-2.54-3.44-.34.1-.64.2-.95.3-.72.24-1.41.46-2.38.68-.27.06-.55-.09-.65-.35-.82-2.25-.86-4.86-.14-7.76.07-.28.34-.46.63-.41.75.13,1.43.17,2.16.23.58.04,1.17.09,1.82.17.45-1.18,1.04-2.3,1.66-3.48l.12-.23c-.75-.84-1.36-1.54-2.1-2.65-.14-.22-.12-.5.06-.69,1.39-1.49,3.19-2.83,5.34-3.99.25-.14.56-.06.73.18.77,1.13,1.49,2.33,2.13,3.55,1.35-.32,2.73-.48,4.12-.48.53-1.25,1.08-2.54,1.79-3.91.13-.26.44-.37.71-.26,1.71.71,3.34,1.62,4.86,2.69.41.29.81.59,1.2.89.21.16.46.35.58.68.05.15.04.32-.04.45-.33.6-.63,1.03-.92,1.45-.29.42-.59.85-.93,1.46.19.36.4.78.63,1.21.47.88.99,1.88,1.34,2.63.45.1.86.12,1.3.15.66.04,1.4.08,2.34.38.2.06.35.24.38.45.31,2.11.19,4.08-.36,6-.07.23-.27.39-.51.4-.38.02-.71.02-1.02.03-.67.01-1.22.02-2.03.15-.41,1.27-1.07,2.64-1.82,3.79.37.59.59,1.13.83,1.69.18.44.37.9.65,1.43.13.25.05.57-.19.72-2.06,1.34-4.22,2.24-6.42,2.65-.25.05-.49-.08-.6-.3l-.09-.17c-.49-.99-.81-1.62-1.49-2.54-1.28.23-2.81.19-4.06.16h-.1c-.49,1.07-.85,1.87-1.34,3.01-.09.21-.29.34-.51.34ZM6.87,26.04c1.16,1.14,2.6,2.03,4.19,2.58.45-1.02.8-1.81,1.31-2.91.09-.2.3-.33.52-.32h.47c1.31.05,2.93.09,4.14-.19.21-.05.43.03.57.2.84,1.08,1.21,1.79,1.71,2.78,1.77-.39,3.51-1.11,5.18-2.14-.18-.39-.33-.74-.46-1.06-.27-.64-.5-1.19-.93-1.81-.13-.19-.13-.44,0-.64.83-1.19,1.59-2.77,1.98-4.11.06-.2.23-.36.44-.39,1.09-.19,1.76-.2,2.54-.22.18,0,.37,0,.58-.01.39-1.54.47-3.11.27-4.79-.65-.17-1.2-.2-1.73-.23-.56-.03-1.13-.07-1.78-.25-.16-.04-.29-.16-.36-.31-.34-.75-.92-1.85-1.43-2.82-.29-.55-.56-1.07-.77-1.49-.08-.16-.08-.36,0-.52.44-.81.79-1.33,1.14-1.82.23-.33.44-.64.67-1.02-.01-.01-.03-.02-.04-.03-.39-.29-.78-.59-1.18-.87-1.31-.93-2.71-1.72-4.17-2.37-.64,1.28-1.16,2.51-1.66,3.71-.09.21-.3.34-.52.34-1.56-.03-3.12.15-4.63.55-.25.07-.52-.05-.64-.29-.59-1.17-1.25-2.31-1.97-3.4-1.7.96-3.14,2.04-4.31,3.21.63.9,1.17,1.5,1.89,2.3l.12.14c.15.17.19.42.08.63l-.3.58c-.67,1.29-1.31,2.51-1.75,3.76-.09.25-.35.41-.61.37-.79-.12-1.5-.18-2.18-.23-.56-.04-1.13-.08-1.74-.16-.5,2.28-.48,4.35.06,6.15.68-.17,1.22-.35,1.79-.53.44-.14.89-.29,1.42-.44.25-.07.52.04.65.28.67,1.3,1.63,2.61,2.84,3.88.16.17.2.43.09.64-.31.61-.54,1.17-.76,1.71-.22.54-.43,1.05-.7,1.56ZM16.18,20.16c-.61,0-1.35-.09-2.29-.3-.7-.16-2.12-.82-2.95-2.3-.72-1.27-.8-2.84-.23-4.54.51-1.53,1.82-2.71,3.33-3.01,1.6-.31,2.71-.28,3.72.1,1.71.64,3,2.32,3.21,4.17.2,1.8-.57,3.65-2.01,4.84-.7.58-1.4,1.03-2.78,1.03ZM15.95,10.92c-.49,0-1.04.06-1.7.19-1.11.22-2.11,1.13-2.49,2.27-.47,1.41-.42,2.63.15,3.63.6,1.06,1.66,1.63,2.23,1.76,2.75.61,3.41.07,4.11-.51,0,0,0,0,0,0,1.14-.94,1.77-2.45,1.61-3.85-.16-1.45-1.17-2.75-2.5-3.25-.42-.16-.88-.24-1.42-.24Z"/>
</svg>