<svg width="394" height="633" viewBox="0 0 394 633" fill="none" xmlns="http://www.w3.org/2000/svg">
  <path d="M388.869 334.911C386.682 331.825 352.492 284.966 278.15 250.898V291.317C278.138 293.462 277.991 295.605 277.712 297.732C277.279 301.338 276.439 304.884 275.209 308.302C275.12 308.537 275.015 308.764 274.926 308.999C279.713 311.631 284.443 314.345 289.06 317.245C315.952 334.077 332.8 351.111 340.528 359.818V425.517C249.743 526.419 136.294 567.761 107.507 576.987C78.6709 567.705 -34.7454 526.362 -125.514 425.517V310.651H-178.804V445.492L-172.324 452.993C-56.0727 587.566 94.2715 628.9 100.646 630.593L107.515 632.432L114.384 630.593C120.726 628.9 271.078 587.566 387.354 452.993L393.834 445.492V341.812L388.869 334.911Z" fill="#214C77"/>
  <path d="M366.213 229.951C375.873 236.709 385.074 244.101 393.753 252.08V79.2584L384.325 71.2799C380.882 68.372 297.898 0 105.822 0C-86.2533 0 -169.214 68.372 -172.64 71.2799L-182.076 79.2584V268.798H-62.6823V215.557H-128.811V105.567C-104.009 90.2582 -29.9906 53.2899 105.855 53.2899C241.886 53.2899 315.88 90.3392 340.512 105.551V215.873C340.512 215.873 351.115 219.388 366.213 229.951Z" fill="#214C77"/>
  <path d="M272.674 159.943C271.953 159.335 265.189 153.811 251.614 146.983C225.572 133.877 179.475 118.252 107.766 118.252C36.0565 118.252 -10.0326 133.877 -36.0741 146.983C-49.674 153.835 -56.4375 159.359 -57.1341 159.943L-62.6421 164.552V391.125C-17.4846 433.577 30.3702 472.805 64.528 488.746V366.898L63.718 364.597H118.101C131.805 364.709 145.506 364.092 159.144 362.75C200.64 358.798 260.597 346.55 274.974 308.999C275.063 308.764 275.169 308.537 275.258 308.302C276.474 304.883 277.3 301.337 277.72 297.732C277.999 295.605 278.145 293.462 278.157 291.317V250.898V164.552L272.674 159.943ZM162.7 218.943V257.216C162.7 257.216 162.66 258.836 162.384 261.46C161.992 264.987 161.348 268.482 160.456 271.917L160.335 272.346C157.03 284.602 149.173 299.797 130.211 299.797H60.8749V196.927C75.2417 195.168 89.7033 194.294 104.177 194.311C123.775 194.246 143.342 195.872 162.66 199.171L162.7 218.943Z" fill="#0091FF"/>
</svg>
