<svg width="9" height="16" viewBox="0 0 9 16" fill="none" xmlns="http://www.w3.org/2000/svg">
<path d="M6.65039 8.0051L0.31291 1.81168C0.0973499 1.60102 -0.00683767 1.35174 0.000347678 1.06384C0.00753303 0.775933 0.118906 0.526651 0.334467 0.315991C0.550027 0.10533 0.805107 0 1.09971 0C1.39431 0 1.64939 0.10533 1.86495 0.315991L8.48265 6.80433C8.6551 6.97286 8.78444 7.16245 8.87066 7.37312C8.95689 7.58378 9 7.79444 9 8.0051C9 8.21576 8.95689 8.42642 8.87066 8.63708C8.78444 8.84774 8.6551 9.03733 8.48265 9.20586L1.84339 15.6942C1.62783 15.9049 1.37634 16.0067 1.08893 15.9997C0.801514 15.9926 0.550027 15.8838 0.334467 15.6731C0.118906 15.4625 0.0111257 15.2132 0.0111257 14.9253C0.0111257 14.6374 0.118906 14.3881 0.334467 14.1774L6.65039 8.0051Z" fill="#141414"/>
</svg>
