<svg width="30" height="30" viewBox="0 0 30 30" fill="none" xmlns="http://www.w3.org/2000/svg">
<mask id="mask0_1333_2400" style="mask-type:alpha" maskUnits="userSpaceOnUse" x="0" y="0" width="30" height="30">
<rect width="30" height="30" fill="#D9D9D9"/>
</mask>
<g mask="url(#mask0_1333_2400)">
<path d="M8.33325 20.9332V21.8332C8.33325 22.1574 8.2195 22.4329 7.992 22.6597C7.76433 22.8866 7.48792 23 7.16275 23C6.83758 23 6.5625 22.8866 6.3375 22.6597C6.1125 22.4329 6 22.1574 6 21.8332V14.3832C6 14.2926 6.00558 14.2018 6.01675 14.111C6.02775 14.0203 6.04992 13.9306 6.08325 13.8418L8.00825 8.13325C8.11942 7.78892 8.32083 7.51392 8.6125 7.30825C8.90417 7.10275 9.23058 7 9.59175 7H20.4083C20.7694 7 21.0958 7.10275 21.3875 7.30825C21.6792 7.51392 21.8806 7.78892 21.9917 8.13325L23.9167 13.8418C23.9501 13.9306 23.9723 14.0203 23.9833 14.111C23.9944 14.2018 24 14.2926 24 14.3832V21.8332C24 22.1574 23.8862 22.4329 23.6585 22.6597C23.431 22.8866 23.1547 23 22.8295 23C22.5043 23 22.2292 22.8866 22.0043 22.6597C21.7793 22.4329 21.6668 22.1574 21.6668 21.8332V20.9332H8.33325ZM8.31675 12.4333H21.6833L20.4167 8.66675H9.58325L8.31675 12.4333ZM10.2628 18.1C10.6598 18.1 10.993 17.9639 11.2625 17.6917C11.532 17.4194 11.6668 17.0888 11.6668 16.7C11.6668 16.3018 11.5306 15.9634 11.2583 15.6848C10.9861 15.4061 10.6556 15.2668 10.2668 15.2668C9.86858 15.2668 9.53017 15.4057 9.2515 15.6835C8.97267 15.9615 8.83325 16.299 8.83325 16.696C8.83325 17.0932 8.97225 17.4264 9.25025 17.6957C9.52825 17.9652 9.86575 18.1 10.2628 18.1ZM19.75 18.1C20.1482 18.1 20.4866 17.9639 20.7653 17.6917C21.0439 17.4194 21.1833 17.0888 21.1833 16.7C21.1833 16.3018 21.0443 15.9634 20.7665 15.6848C20.4885 15.4061 20.151 15.2668 19.754 15.2668C19.3568 15.2668 19.0236 15.4057 18.7543 15.6835C18.4848 15.9615 18.35 16.299 18.35 16.696C18.35 17.0932 18.4861 17.4264 18.7583 17.6957C19.0306 17.9652 19.3612 18.1 19.75 18.1ZM7.66675 19.2667H22.3333V14.1H7.66675V19.2667Z" fill="#0091FF"/>
</g>
</svg>
