<svg width="24" height="21" viewBox="0 0 24 21" fill="none" xmlns="http://www.w3.org/2000/svg">
<path d="M2.66667 18.2438V19.6875C2.66667 20.0522 2.53622 20.362 2.27533 20.6171C2.01467 20.8724 1.698 21 1.32533 21C0.952889 21 0.638889 20.8724 0.383333 20.6171C0.127778 20.362 0 20.0522 0 19.6875V9.7125C0 9.61034 0.00555556 9.5083 0.0166667 9.40636C0.0277778 9.3042 0.0555556 9.19844 0.1 9.08906L2.7 1.34531C2.83333 0.929687 3.075 0.601562 3.425 0.360938C3.775 0.120313 4.16667 0 4.6 0H19.4C19.8333 0 20.225 0.120313 20.575 0.360938C20.925 0.601562 21.1667 0.929687 21.3 1.34531L23.9 9.08906C23.9444 9.19844 23.9722 9.3042 23.9833 9.40636C23.9944 9.5083 24 9.61034 24 9.7125V19.6875C24 20.0522 23.8696 20.362 23.6087 20.6171C23.348 20.8724 23.0313 21 22.6587 21C22.2862 21 21.9722 20.8724 21.7167 20.6171C21.4611 20.362 21.3333 20.0522 21.3333 19.6875V18.2438H2.66667ZM2.76667 7.41563H21.2333L19.4 1.96875H4.6L2.76667 7.41563ZM5.52533 14.6344C6.04178 14.6344 6.47222 14.4621 6.81667 14.1176C7.16111 13.773 7.33333 13.3547 7.33333 12.8625C7.33333 12.3522 7.15833 11.9183 6.80833 11.5608C6.45833 11.2036 6.03333 11.025 5.53333 11.025C5.01489 11.025 4.57411 11.2028 4.211 11.5585C3.84811 11.9144 3.66667 12.3465 3.66667 12.8546C3.66667 13.363 3.84733 13.7867 4.20867 14.1258C4.57022 14.4648 5.00911 14.6344 5.52533 14.6344ZM18.5 14.6344C19.0184 14.6344 19.4592 14.4621 19.8223 14.1176C20.1852 13.773 20.3667 13.3547 20.3667 12.8625C20.3667 12.3522 20.186 11.9183 19.8247 11.5608C19.4631 11.2036 19.0242 11.025 18.508 11.025C17.9916 11.025 17.5611 11.2028 17.2167 11.5585C16.8722 11.9144 16.7 12.3465 16.7 12.8546C16.7 13.363 16.875 13.7867 17.225 14.1258C17.575 14.4648 18 14.6344 18.5 14.6344ZM2 16.275H22V9.38438H2V16.275Z" fill="#203570"/>
</svg>
