<svg width="24" height="24" viewBox="0 0 24 24" fill="none" xmlns="http://www.w3.org/2000/svg">
<mask id="mask0_1333_3080" style="mask-type:alpha" maskUnits="userSpaceOnUse" x="0" y="0" width="24" height="24">
<rect width="24" height="24" fill="#D9D9D9"/>
</mask>
<g mask="url(#mask0_1333_3080)">
<path d="M5 3.99902V10.024V9.99902V19.999V3.99902ZM5 21.999C4.45 21.999 3.97917 21.8032 3.5875 21.4115C3.19583 21.0199 3 20.549 3 19.999V3.99902C3 3.44902 3.19583 2.97819 3.5875 2.58652C3.97917 2.19486 4.45 1.99902 5 1.99902H12.175C12.4417 1.99902 12.6958 2.04902 12.9375 2.14902C13.1792 2.24902 13.3917 2.39069 13.575 2.57402L18.425 7.42402C18.6083 7.60736 18.75 7.81986 18.85 8.06152C18.95 8.30319 19 8.55736 19 8.82402V9.52402C19 9.80736 18.9042 10.0407 18.7125 10.224C18.5208 10.4074 18.2833 10.499 18 10.499C17.7167 10.499 17.4792 10.4032 17.2875 10.2115C17.0958 10.0199 17 9.78236 17 9.49902V8.99902H13C12.7167 8.99902 12.4792 8.90319 12.2875 8.71152C12.0958 8.51986 12 8.28236 12 7.99902V3.99902H5V19.999H10.5C10.7833 19.999 11.0208 20.0949 11.2125 20.2865C11.4042 20.4782 11.5 20.7157 11.5 20.999C11.5 21.2824 11.4042 21.5199 11.2125 21.7115C11.0208 21.9032 10.7833 21.999 10.5 21.999H5ZM18.275 18.274C18.7583 17.7907 19 17.199 19 16.499C19 15.799 18.7583 15.2074 18.275 14.724C17.7917 14.2407 17.2 13.999 16.5 13.999C15.8 13.999 15.2083 14.2407 14.725 14.724C14.2417 15.2074 14 15.799 14 16.499C14 17.199 14.2417 17.7907 14.725 18.274C15.2083 18.7574 15.8 18.999 16.5 18.999C17.2 18.999 17.7917 18.7574 18.275 18.274ZM21.6 22.574C21.3167 22.574 21.0833 22.4824 20.9 22.299L18.9 20.299C18.55 20.5324 18.1708 20.7074 17.7625 20.824C17.3542 20.9407 16.9333 20.999 16.5 20.999C15.25 20.999 14.1875 20.5615 13.3125 19.6865C12.4375 18.8115 12 17.749 12 16.499C12 15.249 12.4375 14.1865 13.3125 13.3115C14.1875 12.4365 15.25 11.999 16.5 11.999C17.75 11.999 18.8125 12.4365 19.6875 13.3115C20.5625 14.1865 21 15.249 21 16.499C21 16.9324 20.9417 17.3532 20.825 17.7615C20.7083 18.1699 20.5333 18.549 20.3 18.899L22.3 20.899C22.4833 21.0824 22.575 21.3157 22.575 21.599C22.575 21.8824 22.4833 22.1157 22.3 22.299C22.1167 22.4824 21.8833 22.574 21.6 22.574Z" fill="#0091FF"/>
</g>
</svg>
