<svg width="20" height="20" viewBox="0 0 20 20" fill="none" xmlns="http://www.w3.org/2000/svg">
<g clip-path="url(#clip0_2275_4638)">
<path d="M13.821 2.16221C16.5106 4.61772 17.2499 8.45217 15.735 11.7803C15.5726 12.1363 15.3411 12.4577 15.1753 12.8119C15.2997 12.9122 15.4672 13.0452 15.5778 13.1575C16.9701 14.578 18.4004 15.9638 19.7478 17.4188C20.7237 19.0881 18.6491 20.8334 17.1756 19.5685C15.735 18.0893 14.2339 16.6689 12.8156 15.1724C12.7552 15.162 11.9174 15.6787 11.7533 15.753C5.35667 18.6613 -1.46488 12.9295 0.274621 6.12627C1.80511 0.147353 9.25026 -2.0092 13.821 2.16221ZM7.58676 2.57002C3.1784 3.01931 1.03641 8.33294 3.783 11.8062C6.55032 15.3055 12.2318 14.343 13.6431 10.1128C14.987 6.0848 11.7947 2.14148 7.58676 2.57002Z" fill="#A3A3A3"/>
</g>
<defs>
<clipPath id="clip0_2275_4638">
<rect width="20" height="20" fill="white"/>
</clipPath>
</defs>
</svg>
