<?xml version="1.0" encoding="utf-8"?>
<!-- Generator: Adobe Illustrator 26.0.0, SVG Export Plug-In . SVG Version: 6.00 Build 0)  -->
<svg version="1.1" id="Layer_1" xmlns="http://www.w3.org/2000/svg" xmlns:xlink="http://www.w3.org/1999/xlink" x="0px" y="0px"
	 viewBox="0 0 454.93 86.55" style="enable-background:new 0 0 454.93 86.55;" xml:space="preserve">
<style type="text/css">
	.st0{clip-path:url(#SVGID_00000153670969871857417160000005146075521909951112_);}
	.st1{fill:#FFFFFF;}
	.st2{fill:#0091FF;}
	.st3{fill:#214C77;}
</style>
<g>
	<g>
		<g>
			<path class="st1" d="M449.07,54.07c-1.87,0.06-2.94-0.95-2.94-3.49V38.05h8.24v-6.03h-8.24v-8.36h-8.63v8.36h-4.23V38h4.23v14.05
				c0,6.25,4.12,9.36,9.54,9.36c2.82,0,5.65-0.79,7.9-2.09l-1.8-6.37C451.55,53.69,450.2,54.07,449.07,54.07"/>
			<path class="st1" d="M204.64,26.3c2.84,0,4.83-2.09,4.83-4.98c0-2.9-1.98-4.99-4.83-4.99c-2.84,0-4.81,2.09-4.81,4.99
				C199.83,24.21,201.8,26.3,204.64,26.3"/>
			<rect x="182.31" y="18.35" class="st1" width="8.94" height="43.05"/>
			<path class="st1" d="M230.93,61.75c6.37,0,11.24-2.55,13.86-6.9l-6.16-4.19c-1.56,2.44-4.05,3.66-7.25,3.66
				c-4.35,0-7.42-3.42-7.42-8.46c0-4.99,3.08-8.35,7.42-8.35c3.08-0.06,5.46,1.21,7.14,3.3l6.03-4.35
				c-2.79-4.18-7.54-6.56-13.51-6.56c-9.58,0-16,6.44-16,16.02C215.04,55.37,221.46,61.75,230.93,61.75"/>
			<rect x="200.19" y="30.19" class="st1" width="8.93" height="31.21"/>
			<path class="st1" d="M159.4,61.75c9.97,0,16.7-6.43,16.7-15.95c0-9.56-6.73-15.9-16.7-15.9c-10.04,0-16.77,6.33-16.77,15.9
				C142.63,55.31,149.36,61.75,159.4,61.75 M159.4,37.32c4.58,0,7.76,3.48,7.76,8.59c0,5.1-3.18,8.59-7.76,8.59
				c-4.65,0-7.78-3.49-7.78-8.59C151.62,40.81,154.75,37.32,159.4,37.32"/>
			<path class="st1" d="M270.25,30.19l-7.35,21.47l-8.19-21.47h-9.21l12.93,30.58l-0.88,1.73c-0.87,1.86-2.26,2.79-4.11,2.79
				c-1.45,0-2.68-0.52-4.06-1.68l-3.77,6.44c2.55,2.08,5.15,3.01,8.47,3.01c5.39,0,9.22-2.67,11.43-8.18l13.69-34.68H270.25z"/>
			<path class="st1" d="M415.49,30.39c-9.26,0-15.63,6.2-15.63,15.57c0,9.18,6.15,15.39,15.85,15.39c5.48,0,9.93-1.97,12.98-5.36
				l-4.57-4.62c-2.1,2.08-4.8,3.2-7.67,3.2c-3.91,0-6.84-2.25-7.85-6.08h21.77C431.12,37.44,426.15,30.39,415.49,30.39
				 M408.44,43.36c0.68-4.01,3.27-6.61,7.11-6.61c4.01,0,6.61,2.6,6.71,6.61H408.44z"/>
			<path class="st1" d="M381.81,30.39c-9.25,0-15.63,6.2-15.63,15.57c0,9.18,6.15,15.39,15.85,15.39c5.48,0,9.94-1.97,12.98-5.36
				l-4.57-4.62c-2.09,2.08-4.8,3.2-7.68,3.2c-3.89,0-6.84-2.25-7.85-6.08h21.79C397.44,37.44,392.47,30.39,381.81,30.39
				 M374.74,43.36c0.69-4.01,3.29-6.61,7.12-6.61c3.99,0,6.6,2.6,6.71,6.61H374.74z"/>
			<path class="st1" d="M334.18,54.07c-1.86,0.06-2.93-0.95-2.93-3.49V38.05h8.23v-6.03h-8.23v-8.36h-8.64v8.36h-4.22V38h4.22v14.05
				c0,6.25,4.13,9.36,9.55,9.36c2.81,0,5.64-0.79,7.9-2.09l-1.81-6.37C336.67,53.69,335.31,54.07,334.18,54.07"/>
			<path class="st1" d="M123.37,20.79h-17.22V61.4h9.15V49.8h8.06c10.32,0,16.24-5.45,16.24-14.91
				C139.61,25.91,133.69,20.79,123.37,20.79 M122.9,42.13h-7.59V28.39h7.59c5.12,0,8.01,2.26,8.01,6.79
				C130.91,39.82,128.02,42.13,122.9,42.13"/>
			<path class="st1" d="M353.99,36.15v-5.48h-8.69v30.35h8.69V46.4c0-5.12,3.84-8.45,10.05-7.89v-8.18
				C359.52,30.39,356.07,32.42,353.99,36.15"/>
			<path class="st1" d="M294.18,31.96c0-2.14,2.03-3.21,5.02-3.21c3.16,0,8.13,1.58,12.3,4.07l3.43-7.4c-3.94-2.6-9.46-4.29-15-4.29
				c-9.14,0-15.28,4.51-15.28,11.69c0,13.98,21.05,9.64,21.05,17.08c0,2.43-2.21,3.79-5.88,3.79c-4.17,0-9.93-2.31-13.99-5.93
				l-3.55,7.28c4.46,3.78,10.94,6.26,17.44,6.26c8.74,0,15.44-4.18,15.44-11.91C315.22,35.18,294.18,39.25,294.18,31.96"/>
		</g>
	</g>
	<g>
		<path class="st1" d="M78.14,45.83c-0.3-0.42-4.98-6.84-15.15-11.5v0.02l0,1.58l0,3.93c0,0.3-0.02,0.59-0.06,0.88
			c-0.06,0.51-0.18,0.99-0.34,1.45h0c-0.01,0.03-0.03,0.06-0.04,0.09c0.66,0.36,1.3,0.73,1.94,1.13c3.68,2.3,5.99,4.64,7.04,5.83
			v8.99C59.1,72.05,43.57,77.7,39.63,78.97c-3.95-1.27-19.47-6.93-31.89-20.74V42.51H0.45v18.46L1.34,62
			C17.25,80.41,37.82,86.07,38.69,86.3l0.94,0.25l0.94-0.25c0.87-0.23,21.45-5.89,37.36-24.31l0.89-1.03V46.78L78.14,45.83z"/>
		<path class="st1" d="M75.04,31.47c2.2,1.54,3.77,3.03,3.77,3.03V10.84l-1.29-1.09C77.05,9.35,65.7,0,39.41,0
			C13.12,0,1.76,9.35,1.29,9.75L0,10.84v25.95h16.34v-0.08v-1.44v-4.32v-1.29v-0.15V29.5H7.29V14.45c3.39-2.1,13.52-7.15,32.12-7.15
			c18.62,0,28.74,5.07,32.12,7.15v15.1C71.52,29.54,72.98,30.02,75.04,31.47z"/>
		<path class="st1" d="M62.24,21.89L62.24,21.89c-0.1-0.08-1.02-0.84-2.89-1.78c-3.56-1.79-9.87-3.93-19.69-3.93
			c-9.81,0-16.12,2.14-19.69,3.93c-1.86,0.94-2.79,1.69-2.89,1.78l-0.75,0.63v6.98v0.02v0.15v1.29v4.32v1.44v0.08v16.74
			c6.18,5.81,12.73,11.18,17.4,13.36V50.21l-0.11-0.31h0.11h7.33c0,0,2.41,0.05,5.62-0.25c5.68-0.54,13.89-2.22,15.85-7.36
			c0.01-0.03,0.03-0.06,0.04-0.09h0c0.17-0.45,0.28-0.94,0.34-1.45c0.04-0.28,0.06-0.58,0.06-0.88l0-3.93l0-1.58v-0.02l0-11.82
			L62.24,21.89z M47.18,29.96v0.03v1.45v3.76c0,0-0.01,0.23-0.04,0.58c-0.04,0.37-0.12,0.87-0.26,1.43
			c-0.01,0.02-0.01,0.04-0.02,0.06c-0.45,1.68-1.52,3.76-4.12,3.76c-4.34,0-9.49,0-9.49,0v-4.24v-0.08v-1.44v-4.32v-1.44V29.5v-2.55
			c1.82-0.22,3.78-0.36,5.93-0.36c2.99,0,5.65,0.25,8,0.66V29.96z"/>
	</g>
</g>
</svg>
