<svg width="40" height="40" viewBox="0 0 40 40" fill="none" xmlns="http://www.w3.org/2000/svg">
<mask id="mask0_1333_2507" style="mask-type:alpha" maskUnits="userSpaceOnUse" x="0" y="0" width="40" height="40">
<rect width="40" height="40" fill="#D9D9D9"/>
</mask>
<g mask="url(#mask0_1333_2507)">
<path d="M19.2417 29.3582V30.3999C19.2417 30.5666 19.3036 30.7124 19.4275 30.8374C19.5514 30.9624 19.6961 31.0249 19.8617 31.0249H20.6846C20.8585 31.0249 21.0104 30.9592 21.1404 30.8278C21.2704 30.6964 21.3354 30.5431 21.3354 30.3678V29.3582H23.825C24.1214 29.3582 24.37 29.2578 24.5708 29.057C24.7714 28.8564 24.8717 28.6078 24.8717 28.3112V23.1082C24.8717 22.8116 24.7714 22.563 24.5708 22.3624C24.37 22.1616 24.1214 22.0612 23.825 22.0612H17.7992V18.9524H23.825C24.1214 18.9524 24.37 18.8514 24.5708 18.6495C24.7714 18.4478 24.8717 18.1978 24.8717 17.8995C24.8717 17.6014 24.7714 17.3534 24.5708 17.1553C24.37 16.9573 24.1214 16.8582 23.825 16.8582H21.3354V15.8057C21.3354 15.6421 21.2736 15.4988 21.15 15.3757C21.0264 15.253 20.8822 15.1916 20.7175 15.1916H19.8988C19.7235 15.1916 19.5701 15.2562 19.4388 15.3853C19.3074 15.5148 19.2417 15.6656 19.2417 15.8378V16.8582H16.7521C16.4554 16.8582 16.2068 16.9585 16.0063 17.1591C15.8054 17.3599 15.705 17.6087 15.705 17.9053V23.1082C15.705 23.4049 15.8054 23.6535 16.0063 23.8541C16.2068 24.0549 16.4554 24.1553 16.7521 24.1553H22.7779V27.2641H16.7521C16.4554 27.2641 16.2068 27.365 16.0063 27.567C15.8054 27.7687 15.705 28.0187 15.705 28.317C15.705 28.615 15.8054 28.8631 16.0063 29.0612C16.2068 29.2592 16.4554 29.3582 16.7521 29.3582H19.2417ZM10.1071 35.8337C9.39069 35.8337 8.77708 35.5782 8.26625 35.0674C7.75542 34.5566 7.5 33.943 7.5 33.2266V6.77408C7.5 6.05769 7.75542 5.44408 8.26625 4.93324C8.77708 4.42241 9.39069 4.16699 10.1071 4.16699H24.3867L32.5 12.2803V33.2266C32.5 33.943 32.2446 34.5566 31.7337 35.0674C31.2229 35.5782 30.6093 35.8337 29.8929 35.8337H10.1071ZM10.1071 33.7395H29.8929C30.0213 33.7395 30.1389 33.6862 30.2458 33.5795C30.3525 33.4725 30.4058 33.3549 30.4058 33.2266V13.2653H24.705C24.3428 13.2653 24.035 13.1387 23.7817 12.8853C23.5283 12.632 23.4017 12.3242 23.4017 11.962V6.26116H10.1071C9.97875 6.26116 9.86111 6.31449 9.75417 6.42116C9.6475 6.5281 9.59417 6.64574 9.59417 6.77408V33.2266C9.59417 33.3549 9.6475 33.4725 9.75417 33.5795C9.86111 33.6862 9.97875 33.7395 10.1071 33.7395Z" fill="#1C1B1F"/>
</g>
</svg>
