<svg width="40" height="40" viewBox="0 0 40 40" fill="none" xmlns="http://www.w3.org/2000/svg">
<mask id="mask0_1339_438" style="mask-type:alpha" maskUnits="userSpaceOnUse" x="0" y="0" width="40" height="40">
<rect width="40" height="40" fill="#D9D9D9"/>
</mask>
<g mask="url(#mask0_1339_438)">
<path d="M19.545 35.5937C19.4025 35.5659 19.2589 35.5243 19.1142 35.4687C15.5581 34.1959 12.7333 31.9665 10.64 28.7804C8.54667 25.5943 7.5 22.1262 7.5 18.3762V10.7287C7.5 10.1809 7.65917 9.68247 7.9775 9.2333C8.29583 8.78441 8.70111 8.46052 9.19333 8.26163L19.0867 4.57913C19.4022 4.46941 19.7067 4.41455 20 4.41455C20.2933 4.41455 20.5978 4.46941 20.9133 4.57913L30.8067 8.26163C31.2989 8.46052 31.7042 8.78441 32.0225 9.2333C32.3408 9.68247 32.5 10.1809 32.5 10.7287V18.3762C32.5 20.1018 32.2578 21.773 31.7733 23.39C31.2892 25.0066 30.6211 26.564 29.7692 28.062L24.6667 23.0491C24.9736 22.5975 25.2081 22.1072 25.37 21.5783C25.5322 21.0497 25.6133 20.5086 25.6133 19.955C25.6133 18.3875 25.0668 17.0572 23.9738 15.9641C22.881 14.8714 21.5564 14.325 20 14.325C18.4436 14.325 17.119 14.8714 16.0263 15.9641C14.9332 17.0572 14.3867 18.3875 14.3867 19.955C14.3867 21.5114 14.9332 22.8332 16.0263 23.9204C17.119 25.0076 18.4436 25.5512 20 25.5512C20.5733 25.5512 21.1315 25.4618 21.6746 25.2829C22.2176 25.1043 22.7271 24.8568 23.2029 24.5404L28.5458 29.7958C27.4589 31.115 26.3099 32.2414 25.0988 33.175C23.8876 34.1089 22.4779 34.8734 20.8696 35.4687C20.7251 35.5243 20.5843 35.5659 20.4471 35.5937C20.3099 35.6215 20.1608 35.6354 20 35.6354C19.8392 35.6354 19.6875 35.6215 19.545 35.5937ZM17.5133 22.4387C16.825 21.7596 16.4808 20.9316 16.4808 19.955C16.4808 18.9744 16.825 18.1398 17.5133 17.4512C18.2017 16.7629 19.0306 16.4187 20 16.4187C20.9694 16.4187 21.7983 16.7629 22.4867 17.4512C23.175 18.1398 23.5192 18.9744 23.5192 19.955C23.5192 20.9316 23.175 21.7596 22.4867 22.4387C21.7983 23.1176 20.9694 23.4571 20 23.4571C19.0306 23.4571 18.2017 23.1176 17.5133 22.4387Z" fill="#0091FF"/>
</g>
</svg>
