<svg width="40" height="40" viewBox="0 0 40 40" fill="none" xmlns="http://www.w3.org/2000/svg">
<mask id="mask0_1339_430" style="mask-type:alpha" maskUnits="userSpaceOnUse" x="0" y="0" width="40" height="40">
<rect width="40" height="40" fill="#D9D9D9"/>
</mask>
<g mask="url(#mask0_1339_430)">
<path d="M15.9783 17.8616C14.9058 16.7893 14.3696 15.447 14.3696 13.8345C14.3696 12.222 14.9058 10.8813 15.9783 9.81239C17.0506 8.74378 18.3911 8.20947 20 8.20947C21.6089 8.20947 22.9494 8.74378 24.0217 9.81239C25.0942 10.8813 25.6304 12.222 25.6304 13.8345C25.6304 15.447 25.0942 16.7893 24.0217 17.8616C22.9494 18.9338 21.6089 19.4699 20 19.4699C18.3911 19.4699 17.0506 18.9338 15.9783 17.8616ZM7.5 30.0532V28.8353C7.5 27.9664 7.73208 27.1945 8.19625 26.5195C8.66014 25.8447 9.26847 25.3261 10.0212 24.9636C11.7401 24.1745 13.4217 23.5809 15.0658 23.1828C16.71 22.7845 18.3547 22.5853 20 22.5853C21.6453 22.5853 23.2872 22.7872 24.9258 23.1911C26.5642 23.595 28.2428 24.1859 29.9617 24.9636C30.7258 25.3261 31.3399 25.8447 31.8037 26.5195C32.2679 27.1945 32.5 27.9664 32.5 28.8353V30.0532C32.5 30.6438 32.2932 31.1457 31.8796 31.5591C31.4662 31.9727 30.9643 32.1795 30.3737 32.1795H9.62625C9.03569 32.1795 8.53375 31.9727 8.12042 31.5591C7.70681 31.1457 7.5 30.6438 7.5 30.0532Z" fill="#0091FF"/>
</g>
</svg>
