<svg width="40" height="40" viewBox="0 0 40 40" fill="none" xmlns="http://www.w3.org/2000/svg">
<mask id="mask0_1339_63" style="mask-type:alpha" maskUnits="userSpaceOnUse" x="0" y="0" width="40" height="40">
<rect width="40" height="40" fill="#D9D9D9"/>
</mask>
<g mask="url(#mask0_1339_63)">
<path d="M19.2417 29.3578V30.3994C19.2417 30.5661 19.3036 30.7119 19.4275 30.8369C19.5514 30.9619 19.6961 31.0244 19.8617 31.0244H20.6846C20.8585 31.0244 21.0104 30.9587 21.1404 30.8273C21.2704 30.6959 21.3354 30.5426 21.3354 30.3673V29.3578H23.825C24.1214 29.3578 24.37 29.2573 24.5708 29.0565C24.7714 28.8559 24.8717 28.6073 24.8717 28.3107V23.1078C24.8717 22.8111 24.7714 22.5625 24.5708 22.3619C24.37 22.1611 24.1214 22.0607 23.825 22.0607H17.7992V18.9519H23.825C24.1214 18.9519 24.37 18.8509 24.5708 18.649C24.7714 18.4473 24.8717 18.1973 24.8717 17.899C24.8717 17.6009 24.7714 17.3529 24.5708 17.1548C24.37 16.9568 24.1214 16.8578 23.825 16.8578H21.3354V15.8053C21.3354 15.6416 21.2736 15.4983 21.15 15.3753C21.0264 15.2525 20.8822 15.1911 20.7175 15.1911H19.8988C19.7235 15.1911 19.5701 15.2557 19.4388 15.3848C19.3074 15.5143 19.2417 15.6651 19.2417 15.8373V16.8578H16.7521C16.4554 16.8578 16.2068 16.958 16.0063 17.1586C15.8054 17.3594 15.705 17.6082 15.705 17.9048V23.1078C15.705 23.4044 15.8054 23.653 16.0063 23.8536C16.2068 24.0544 16.4554 24.1548 16.7521 24.1548H22.7779V27.2636H16.7521C16.4554 27.2636 16.2068 27.3646 16.0063 27.5665C15.8054 27.7682 15.705 28.0182 15.705 28.3165C15.705 28.6146 15.8054 28.8626 16.0063 29.0607C16.2068 29.2587 16.4554 29.3578 16.7521 29.3578H19.2417ZM10.1071 35.8332C9.39069 35.8332 8.77708 35.5778 8.26625 35.0669C7.75542 34.5561 7.5 33.9425 7.5 33.2261V6.77359C7.5 6.0572 7.75542 5.44359 8.26625 4.93275C8.77708 4.42192 9.39069 4.1665 10.1071 4.1665H24.3867L32.5 12.2798V33.2261C32.5 33.9425 32.2446 34.5561 31.7337 35.0669C31.2229 35.5778 30.6093 35.8332 29.8929 35.8332H10.1071ZM23.4017 6.26067V11.9615C23.4017 12.3237 23.5283 12.6315 23.7817 12.8848C24.035 13.1382 24.3428 13.2648 24.705 13.2648H30.4058L23.4017 6.26067Z" fill="#0091FF"/>
</g>
</svg>
