<svg width="40" height="42" viewBox="0 0 40 42" fill="none" xmlns="http://www.w3.org/2000/svg">
<g filter="url(#filter0_d_1333_2503)">
<mask id="mask0_1333_2503" style="mask-type:alpha" maskUnits="userSpaceOnUse" x="0" y="0" width="40" height="40">
<rect width="40" height="40" fill="#D9D9D9"/>
</mask>
<g mask="url(#mask0_1333_2503)">
<path d="M3.33325 7.91699V4.44491C3.33325 3.68102 3.6052 3.02699 4.14909 2.48283C4.69325 1.93894 5.34728 1.66699 6.11117 1.66699H9.58325C9.97686 1.66699 10.3067 1.8006 10.5728 2.06783C10.8389 2.33477 10.972 2.66574 10.972 3.06074C10.972 3.45574 10.8389 3.78519 10.5728 4.04907C10.3067 4.31296 9.97686 4.44491 9.58325 4.44491H6.11117V7.91699C6.11117 8.3106 5.97756 8.64046 5.71034 8.90658C5.44311 9.17269 5.11214 9.30574 4.71742 9.30574C4.32242 9.30574 3.99297 9.17269 3.72909 8.90658C3.4652 8.64046 3.33325 8.3106 3.33325 7.91699ZM33.8887 7.91699V4.44491H30.4166C30.023 4.44491 29.6931 4.3113 29.427 4.04408C29.1609 3.77685 29.0278 3.44588 29.0278 3.05116C29.0278 2.65616 29.1609 2.32671 29.427 2.06283C29.6931 1.79894 30.023 1.66699 30.4166 1.66699H33.8887C34.6526 1.66699 35.3066 1.93894 35.8508 2.48283C36.3946 3.02699 36.6666 3.68102 36.6666 4.44491V7.91699C36.6666 8.3106 36.533 8.64046 36.2658 8.90658C35.9988 9.17269 35.6678 9.30574 35.2728 9.30574C34.8778 9.30574 34.5484 9.17269 34.2845 8.90658C34.0206 8.64046 33.8887 8.3106 33.8887 7.91699ZM3.33325 35.5557V32.0837C3.33325 31.69 3.46686 31.3602 3.73409 31.0941C4.00103 30.828 4.332 30.6949 4.727 30.6949C5.122 30.6949 5.45145 30.828 5.71534 31.0941C5.97922 31.3602 6.11117 31.69 6.11117 32.0837V35.5557H9.58325C9.97686 35.5557 10.3067 35.6894 10.5728 35.9566C10.8389 36.2238 10.972 36.5548 10.972 36.9495C10.972 37.3445 10.8389 37.6739 10.5728 37.9378C10.3067 38.2017 9.97686 38.3337 9.58325 38.3337H6.11117C5.34728 38.3337 4.69325 38.0617 4.14909 37.5178C3.6052 36.9737 3.33325 36.3196 3.33325 35.5557ZM33.8887 38.3337H30.4166C30.023 38.3337 29.6931 38.2001 29.427 37.9328C29.1609 37.6659 29.0278 37.3349 29.0278 36.9399C29.0278 36.5449 29.1609 36.2155 29.427 35.9516C29.6931 35.6877 30.023 35.5557 30.4166 35.5557H33.8887V32.0837C33.8887 31.69 34.0223 31.3602 34.2895 31.0941C34.5567 30.828 34.8877 30.6949 35.2824 30.6949C35.6774 30.6949 36.0069 30.828 36.2708 31.0941C36.5346 31.3602 36.6666 31.69 36.6666 32.0837V35.5557C36.6666 36.3196 36.3946 36.9737 35.8508 37.5178C35.3066 38.0617 34.6526 38.3337 33.8887 38.3337ZM11.1112 30.5557H28.8887V9.44491H11.1112V30.5557ZM11.1112 33.3337C10.3612 33.3337 9.71061 33.0582 9.1595 32.5074C8.60867 31.9563 8.33325 31.3057 8.33325 30.5557V9.44491C8.33325 8.69491 8.60867 8.04435 9.1595 7.49324C9.71061 6.94241 10.3612 6.66699 11.1112 6.66699H28.8887C29.6387 6.66699 30.2892 6.94241 30.8403 7.49324C31.3912 8.04435 31.6666 8.69491 31.6666 9.44491V30.5557C31.6666 31.3057 31.3912 31.9563 30.8403 32.5074C30.2892 33.0582 29.6387 33.3337 28.8887 33.3337H11.1112ZM16.6666 16.3891H23.3333C23.7269 16.3891 24.0567 16.2556 24.3228 15.9887C24.5889 15.7214 24.722 15.3903 24.722 14.9953C24.722 14.6006 24.5889 14.2713 24.3228 14.0074C24.0567 13.7435 23.7269 13.6116 23.3333 13.6116H16.6666C16.273 13.6116 15.9431 13.745 15.677 14.012C15.4109 14.2792 15.2778 14.6103 15.2778 15.0053C15.2778 15.4 15.4109 15.7294 15.677 15.9932C15.9431 16.2571 16.273 16.3891 16.6666 16.3891ZM16.6666 21.3891H23.3333C23.7269 21.3891 24.0567 21.2556 24.3228 20.9887C24.5889 20.7214 24.722 20.3903 24.722 19.9953C24.722 19.6006 24.5889 19.2713 24.3228 19.0074C24.0567 18.7435 23.7269 18.6116 23.3333 18.6116H16.6666C16.273 18.6116 15.9431 18.745 15.677 19.012C15.4109 19.2792 15.2778 19.6103 15.2778 20.0053C15.2778 20.4 15.4109 20.7294 15.677 20.9932C15.9431 21.2571 16.273 21.3891 16.6666 21.3891ZM16.6666 26.3891H23.3333C23.7269 26.3891 24.0567 26.2556 24.3228 25.9887C24.5889 25.7214 24.722 25.3903 24.722 24.9953C24.722 24.6006 24.5889 24.2713 24.3228 24.0074C24.0567 23.7435 23.7269 23.6116 23.3333 23.6116H16.6666C16.273 23.6116 15.9431 23.745 15.677 24.012C15.4109 24.2792 15.2778 24.6103 15.2778 25.0053C15.2778 25.4 15.4109 25.7294 15.677 25.9932C15.9431 26.2571 16.273 26.3891 16.6666 26.3891Z" fill="white"/>
</g>
</g>
<defs>
<filter id="filter0_d_1333_2503" x="1.33325" y="0.666992" width="37.3333" height="40.667" filterUnits="userSpaceOnUse" color-interpolation-filters="sRGB">
<feFlood flood-opacity="0" result="BackgroundImageFix"/>
<feColorMatrix in="SourceAlpha" type="matrix" values="0 0 0 0 0 0 0 0 0 0 0 0 0 0 0 0 0 0 127 0" result="hardAlpha"/>
<feOffset dy="1"/>
<feGaussianBlur stdDeviation="1"/>
<feComposite in2="hardAlpha" operator="out"/>
<feColorMatrix type="matrix" values="0 0 0 0 0.129412 0 0 0 0 0.298039 0 0 0 0 0.466667 0 0 0 0.6 0"/>
<feBlend mode="normal" in2="BackgroundImageFix" result="effect1_dropShadow_1333_2503"/>
<feBlend mode="normal" in="SourceGraphic" in2="effect1_dropShadow_1333_2503" result="shape"/>
</filter>
</defs>
</svg>
