<svg width="40" height="40" viewBox="0 0 40 40" fill="none" xmlns="http://www.w3.org/2000/svg">
<mask id="mask0_1333_2512" style="mask-type:alpha" maskUnits="userSpaceOnUse" x="0" y="0" width="40" height="40">
<rect width="40" height="40" fill="#D9D9D9"/>
</mask>
<g mask="url(#mask0_1333_2512)">
<path d="M15.9783 17.862C14.9058 16.7898 14.3696 15.4475 14.3696 13.835C14.3696 12.2225 14.9058 10.8818 15.9783 9.81288C17.0506 8.74427 18.3911 8.20996 20 8.20996C21.6089 8.20996 22.9494 8.74427 24.0217 9.81288C25.0942 10.8818 25.6304 12.2225 25.6304 13.835C25.6304 15.4475 25.0942 16.7898 24.0217 17.862C22.9494 18.9343 21.6089 19.4704 20 19.4704C18.3911 19.4704 17.0506 18.9343 15.9783 17.862ZM7.5 30.0537V28.8358C7.5 27.9669 7.73208 27.195 8.19625 26.52C8.66014 25.8452 9.26847 25.3266 10.0212 24.9641C11.7401 24.175 13.4217 23.5814 15.0658 23.1833C16.71 22.785 18.3547 22.5858 20 22.5858C21.6453 22.5858 23.2872 22.7877 24.9258 23.1916C26.5642 23.5955 28.2428 24.1863 29.9617 24.9641C30.7258 25.3266 31.3399 25.8452 31.8037 26.52C32.2679 27.195 32.5 27.9669 32.5 28.8358V30.0537C32.5 30.6443 32.2932 31.1462 31.8796 31.5595C31.4662 31.9732 30.9643 32.18 30.3737 32.18H9.62625C9.03569 32.18 8.53375 31.9732 8.12042 31.5595C7.70681 31.1462 7.5 30.6443 7.5 30.0537ZM9.59417 30.0858H30.4058V28.8358C30.4058 28.4341 30.2818 28.0529 30.0338 27.692C29.7854 27.3312 29.4579 27.0451 29.0513 26.8337C27.4801 26.0665 25.9625 25.5158 24.4983 25.1816C23.0344 24.8472 21.535 24.68 20 24.68C18.465 24.68 16.9581 24.8472 15.4792 25.1816C14.0003 25.5158 12.4844 26.0665 10.9317 26.8337C10.525 27.0451 10.2004 27.3312 9.95792 27.692C9.71542 28.0529 9.59417 28.4341 9.59417 28.8358V30.0858ZM22.5175 16.3579C23.1967 15.6787 23.5363 14.8394 23.5363 13.84C23.5363 12.8408 23.1967 12.0016 22.5175 11.3225C21.8383 10.6433 20.9992 10.3037 20 10.3037C19.0008 10.3037 18.1617 10.6433 17.4825 11.3225C16.8033 12.0016 16.4638 12.8408 16.4638 13.84C16.4638 14.8394 16.8033 15.6787 17.4825 16.3579C18.1617 17.037 19.0008 17.3766 20 17.3766C20.9992 17.3766 21.8383 17.037 22.5175 16.3579Z" fill="#1C1B1F"/>
</g>
</svg>
