<svg width="40" height="40" viewBox="0 0 40 40" fill="none" xmlns="http://www.w3.org/2000/svg">
<mask id="mask0_1333_2492" style="mask-type:alpha" maskUnits="userSpaceOnUse" x="0" y="0" width="40" height="40">
<rect width="40" height="40" fill="#D9D9D9"/>
</mask>
<g mask="url(#mask0_1333_2492)">
<path d="M7.5 32.0725V16.72C7.5 16.3025 7.59056 15.9108 7.77167 15.545C7.95306 15.1789 8.21153 14.8761 8.54708 14.6367L18.44 7.17958C18.8894 6.83069 19.4071 6.65625 19.9929 6.65625C20.5787 6.65625 21.1011 6.83069 21.56 7.17958L31.4529 14.6367C31.7885 14.8761 32.0469 15.1789 32.2283 15.545C32.4094 15.9108 32.5 16.3025 32.5 16.72V32.0725C32.5 32.6442 32.2939 33.1361 31.8817 33.5483C31.4694 33.9606 30.9775 34.1667 30.4058 34.1667H24.4767C24.1069 34.1667 23.7972 34.0418 23.5475 33.7921C23.2978 33.5424 23.1729 33.2328 23.1729 32.8633V24.3162C23.1729 23.9468 23.0481 23.6372 22.7983 23.3875C22.5486 23.1378 22.239 23.0129 21.8696 23.0129H18.1304C17.761 23.0129 17.4514 23.1378 17.2017 23.3875C16.9519 23.6372 16.8271 23.9468 16.8271 24.3162V32.8633C16.8271 33.2328 16.7022 33.5424 16.4525 33.7921C16.2028 34.0418 15.8931 34.1667 15.5233 34.1667H9.59417C9.0225 34.1667 8.53056 33.9606 8.11833 33.5483C7.70611 33.1361 7.5 32.6442 7.5 32.0725Z" fill="#0091FF"/>
</g>
</svg>
