<svg width="40" height="40" viewBox="0 0 40 40" fill="none" xmlns="http://www.w3.org/2000/svg">
<mask id="mask0_1339_411" style="mask-type:alpha" maskUnits="userSpaceOnUse" x="0" y="0" width="40" height="40">
<rect width="40" height="40" fill="#D9D9D9"/>
</mask>
<g mask="url(#mask0_1339_411)">
<path d="M9.59417 32.0725H15.78V23.2692C15.78 22.9 15.9049 22.5904 16.1546 22.3404C16.4046 22.0907 16.7142 21.9658 17.0833 21.9658H22.9167C23.2858 21.9658 23.5954 22.0907 23.8454 22.3404C24.0951 22.5904 24.22 22.9 24.22 23.2692V32.0725H30.4058V16.7167C30.4058 16.6311 30.3872 16.5536 30.35 16.4842C30.3125 16.4147 30.2617 16.3533 30.1975 16.3L20.3046 8.86208C20.219 8.79458 20.1175 8.76083 20 8.76083C19.8825 8.76083 19.781 8.79458 19.6954 8.86208L9.8025 16.3C9.73833 16.3533 9.6875 16.4147 9.65 16.4842C9.61278 16.5536 9.59417 16.6311 9.59417 16.7167V32.0725ZM7.5 32.0725V16.72C7.5 16.3025 7.59056 15.9108 7.77167 15.545C7.95306 15.1789 8.21153 14.8761 8.54708 14.6367L18.44 7.17958C18.8894 6.83069 19.4071 6.65625 19.9929 6.65625C20.5787 6.65625 21.1011 6.83069 21.56 7.17958L31.4529 14.6367C31.7885 14.8761 32.0469 15.1789 32.2283 15.545C32.4094 15.9108 32.5 16.3025 32.5 16.72V32.0725C32.5 32.6425 32.2935 33.134 31.8804 33.5471C31.4674 33.9601 30.9758 34.1667 30.4058 34.1667H23.4296C23.0601 34.1667 22.7506 34.0418 22.5008 33.7921C22.2511 33.5421 22.1263 33.2325 22.1263 32.8633V24.0596H17.8738V32.8633C17.8738 33.2325 17.7489 33.5421 17.4992 33.7921C17.2494 34.0418 16.9399 34.1667 16.5704 34.1667H9.59417C9.02417 34.1667 8.53264 33.9601 8.11958 33.5471C7.70653 33.134 7.5 32.6425 7.5 32.0725Z" fill="#3D3D3D"/>
</g>
</svg>
