<svg width="40" height="40" viewBox="0 0 40 40" fill="none" xmlns="http://www.w3.org/2000/svg">
<mask id="mask0_1333_2497" style="mask-type:alpha" maskUnits="userSpaceOnUse" x="0" y="0" width="40" height="40">
<rect width="40" height="40" fill="#D9D9D9"/>
</mask>
<g mask="url(#mask0_1333_2497)">
<path d="M19.5471 35.5871C19.3954 35.5549 19.2508 35.516 19.1133 35.4705C15.5464 34.1968 12.719 31.9688 10.6312 28.7863C8.54375 25.6035 7.5 22.1341 7.5 18.378V10.7292C7.5 10.1736 7.65736 9.67351 7.97208 9.22879C8.28708 8.78434 8.69417 8.46212 9.19333 8.26212L19.0867 4.57962C19.4056 4.4699 19.71 4.41504 20 4.41504C20.29 4.41504 20.5944 4.4699 20.9133 4.57962L30.8067 8.26212C31.3058 8.46212 31.7129 8.78434 32.0279 9.22879C32.3426 9.67351 32.5 10.1736 32.5 10.7292V18.3767C32.5 20.1823 32.2632 21.9711 31.7896 23.7434C31.316 25.5159 30.5463 27.2023 29.4804 28.8025C29.274 29.0998 28.9968 29.2628 28.6488 29.2917C28.3007 29.3203 27.9965 29.2121 27.7362 28.9671L23.2029 24.5409C22.7271 24.8573 22.2168 25.1048 21.6721 25.2834C21.1271 25.4623 20.5697 25.5517 20 25.5517C18.4464 25.5517 17.1225 25.0068 16.0283 23.9171C14.9339 22.8277 14.3867 21.5043 14.3867 19.9471C14.3867 18.3899 14.9324 17.0636 16.0238 15.9684C17.1154 14.8731 18.4401 14.3255 19.9979 14.3255C21.5557 14.3255 22.881 14.8731 23.9738 15.9684C25.0668 17.0636 25.6133 18.3927 25.6133 19.9555C25.6133 20.5138 25.5322 21.0562 25.37 21.5825C25.2081 22.1089 24.9736 22.598 24.6667 23.0496L28.3396 26.6438C28.9979 25.4499 29.5068 24.152 29.8662 22.75C30.226 21.3478 30.4058 19.89 30.4058 18.3767V10.6546C30.4058 10.5549 30.3765 10.4606 30.3179 10.3717C30.259 10.2825 30.1763 10.2166 30.0696 10.1738L20.1763 6.54962C20.1229 6.52823 20.0642 6.51754 20 6.51754C19.9358 6.51754 19.8771 6.52823 19.8237 6.54962L9.93042 10.1738C9.82375 10.2166 9.74097 10.2825 9.68208 10.3717C9.62347 10.4606 9.59417 10.5549 9.59417 10.6546V18.3767C9.59417 21.8731 10.5696 25.0405 12.5204 27.8788C14.4712 30.7171 16.9644 32.6302 20 33.618C20.6025 33.4391 21.2547 33.1642 21.9567 32.7934C22.6586 32.4223 23.3181 32.0152 23.935 31.5721C24.175 31.3927 24.4378 31.3178 24.7233 31.3475C25.0092 31.3775 25.2442 31.5118 25.4283 31.7505C25.605 31.9927 25.6675 32.2591 25.6158 32.5496C25.5642 32.8402 25.4144 33.0731 25.1667 33.2484C24.4978 33.717 23.8129 34.1337 23.1121 34.4984C22.4113 34.8631 21.675 35.1921 20.9033 35.4855C20.7547 35.5318 20.6046 35.5684 20.4529 35.595C20.3013 35.6217 20.1503 35.635 20 35.635C19.8497 35.635 19.6988 35.6191 19.5471 35.5871ZM22.4867 22.4388C23.175 21.7593 23.5192 20.927 23.5192 19.9417C23.5192 18.9703 23.1731 18.1403 22.4808 17.4517C21.7889 16.7634 20.96 16.4192 19.9942 16.4192C19.0286 16.4192 18.2017 16.7634 17.5133 17.4517C16.825 18.1403 16.4808 18.9703 16.4808 19.9417C16.4808 20.927 16.8269 21.7593 17.5192 22.4388C18.2111 23.118 19.04 23.4575 20.0058 23.4575C20.9714 23.4575 21.7983 23.118 22.4867 22.4388Z" fill="#1C1B1F"/>
</g>
</svg>
