<svg width="24" height="24" viewBox="0 0 24 24" fill="none" xmlns="http://www.w3.org/2000/svg">
  <mask id="mask_notifications_bell" style="mask-type:alpha" maskUnits="userSpaceOnUse" x="0" y="0" width="24" height="24">
    <rect width="24" height="24" fill="#D9D9D9"/>
  </mask>
  <g mask="url(#mask_notifications_bell)">
    <path d="M5.00024 19.0005C4.71691 19.0005 4.47941 18.9047 4.28774 18.713C4.09608 18.5213 4.00024 18.2838 4.00024 18.0005C4.00024 17.7172 4.09608 17.4797 4.28774 17.288C4.47941 17.0963 4.71691 17.0005 5.00024 17.0005H6.00024V10.0005C6.00024 8.61716 6.41691 7.38799 7.25024 6.31299C8.08358 5.23799 9.16691 4.53382 10.5002 4.20049V3.50049C10.5002 3.08382 10.6461 2.72965 10.9377 2.43799C11.2294 2.14632 11.5836 2.00049 12.0002 2.00049C12.4169 2.00049 12.7711 2.14632 13.0627 2.43799C13.3544 2.72965 13.5002 3.08382 13.5002 3.50049V4.20049C14.8336 4.53382 15.9169 5.23799 16.7502 6.31299C17.5836 7.38799 18.0002 8.61716 18.0002 10.0005V17.0005H19.0002C19.2836 17.0005 19.5211 17.0963 19.7127 17.288C19.9044 17.4797 20.0002 17.7172 20.0002 18.0005C20.0002 18.2838 19.9044 18.5213 19.7127 18.713C19.5211 18.9047 19.2836 19.0005 19.0002 19.0005H5.00024ZM12.0002 22.0005C11.4502 22.0005 10.9794 21.8047 10.5877 21.413C10.1961 21.0213 10.0002 20.5505 10.0002 20.0005H14.0002C14.0002 20.5505 13.8044 21.0213 13.4127 21.413C13.0211 21.8047 12.5502 22.0005 12.0002 22.0005ZM8.00024 17.0005H16.0002V10.0005C16.0002 8.90049 15.6086 7.95882 14.8252 7.17549C14.0419 6.39216 13.1002 6.00049 12.0002 6.00049C10.9002 6.00049 9.95858 6.39216 9.17524 7.17549C8.39191 7.95882 8.00024 8.90049 8.00024 10.0005V17.0005Z" fill="white"/>
  </g>
</svg>
