<svg width="24" height="24" viewBox="0 0 24 24" fill="none" xmlns="http://www.w3.org/2000/svg">
<mask id="mask0_1333_3108" style="mask-type:alpha" maskUnits="userSpaceOnUse" x="0" y="0" width="24" height="24">
<rect width="24" height="24" fill="#D9D9D9"/>
</mask>
<g mask="url(#mask0_1333_3108)">
<path d="M17 7H15C14.7167 7 14.4792 6.90417 14.2875 6.7125C14.0958 6.52083 14 6.28333 14 6C14 5.71667 14.0958 5.47917 14.2875 5.2875C14.4792 5.09583 14.7167 5 15 5H17V3C17 2.71667 17.0958 2.47917 17.2875 2.2875C17.4792 2.09583 17.7167 2 18 2C18.2833 2 18.5208 2.09583 18.7125 2.2875C18.9042 2.47917 19 2.71667 19 3V5H21C21.2833 5 21.5208 5.09583 21.7125 5.2875C21.9042 5.47917 22 5.71667 22 6C22 6.28333 21.9042 6.52083 21.7125 6.7125C21.5208 6.90417 21.2833 7 21 7H19V9C19 9.28333 18.9042 9.52083 18.7125 9.7125C18.5208 9.90417 18.2833 10 18 10C17.7167 10 17.4792 9.90417 17.2875 9.7125C17.0958 9.52083 17 9.28333 17 9V7Z" fill="#0091FF"/>
<path d="M3.9082 20.9619C3.62487 20.9619 3.38737 20.8661 3.1957 20.6744C3.00404 20.4827 2.9082 20.2452 2.9082 19.9619V12.3119C2.9082 12.1952 2.91654 12.0786 2.9332 11.9619C2.94987 11.8452 2.97487 11.7369 3.0082 11.6369L5.0082 5.96191C5.1082 5.66191 5.28737 5.42025 5.5457 5.23691C5.80404 5.05358 6.09154 4.96191 6.4082 4.96191H10.9832C11.2665 4.96191 11.504 5.05775 11.6957 5.24941C11.8874 5.44108 11.9832 5.67858 11.9832 5.96191C11.9832 6.24525 11.8874 6.48275 11.6957 6.67441C11.504 6.86608 11.2665 6.96191 10.9832 6.96191H6.7582L5.7082 9.96191H14.6832C14.9665 9.96191 15.204 10.0577 15.3957 10.2494C15.5874 10.4411 15.6832 10.6786 15.6832 10.9619C15.6832 11.2452 15.5874 11.4827 15.3957 11.6744C15.204 11.8661 14.9665 11.9619 14.6832 11.9619H4.9082V16.9619H18.9082V12.1369C18.9082 11.8536 19.004 11.6161 19.1957 11.4244C19.3874 11.2327 19.6249 11.1369 19.9082 11.1369C20.1915 11.1369 20.429 11.2327 20.6207 11.4244C20.8124 11.6161 20.9082 11.8536 20.9082 12.1369V19.9619C20.9082 20.2452 20.8124 20.4827 20.6207 20.6744C20.429 20.8661 20.1915 20.9619 19.9082 20.9619H18.9082C18.6249 20.9619 18.3874 20.8661 18.1957 20.6744C18.004 20.4827 17.9082 20.2452 17.9082 19.9619V18.9619H5.9082V19.9619C5.9082 20.2452 5.81237 20.4827 5.6207 20.6744C5.42904 20.8661 5.19154 20.9619 4.9082 20.9619H3.9082ZM7.4082 15.9619C7.82487 15.9619 8.17904 15.8161 8.4707 15.5244C8.76237 15.2327 8.9082 14.8786 8.9082 14.4619C8.9082 14.0452 8.76237 13.6911 8.4707 13.3994C8.17904 13.1077 7.82487 12.9619 7.4082 12.9619C6.99154 12.9619 6.63737 13.1077 6.3457 13.3994C6.05404 13.6911 5.9082 14.0452 5.9082 14.4619C5.9082 14.8786 6.05404 15.2327 6.3457 15.5244C6.63737 15.8161 6.99154 15.9619 7.4082 15.9619ZM16.4082 15.9619C16.8249 15.9619 17.179 15.8161 17.4707 15.5244C17.7624 15.2327 17.9082 14.8786 17.9082 14.4619C17.9082 14.0452 17.7624 13.6911 17.4707 13.3994C17.179 13.1077 16.8249 12.9619 16.4082 12.9619C15.9915 12.9619 15.6374 13.1077 15.3457 13.3994C15.054 13.6911 14.9082 14.0452 14.9082 14.4619C14.9082 14.8786 15.054 15.2327 15.3457 15.5244C15.6374 15.8161 15.9915 15.9619 16.4082 15.9619Z" fill="#0091FF"/>
</g>
</svg>
