<svg width="153" height="40" viewBox="0 0 153 40" fill="none" xmlns="http://www.w3.org/2000/svg">
<g clip-path="url(#clip0_1981_2625)">
<path d="M77.4487 29.4233C76.957 29.4233 76.5141 29.5077 76.1199 29.6767C75.7299 29.8417 75.3967 30.083 75.1204 30.4009C74.8481 30.7147 74.6388 31.0948 74.4926 31.5414C74.3463 31.9879 74.2731 32.4908 74.2731 33.05C74.2731 33.7903 74.3889 34.434 74.6206 34.9811C74.8562 35.5242 75.2057 35.9446 75.6689 36.2423C76.1362 36.54 76.7193 36.6889 77.4182 36.6889C77.8164 36.6889 78.1902 36.6567 78.5397 36.5923C78.8932 36.5239 79.2365 36.4395 79.5697 36.3389V37.232C79.2447 37.3527 78.9034 37.4412 78.5458 37.4975C78.1882 37.5579 77.7636 37.588 77.2719 37.588C76.3658 37.588 75.608 37.403 74.9985 37.0329C74.393 36.6587 73.9379 36.1317 73.6332 35.4518C73.3325 34.7719 73.1821 33.9693 73.1821 33.044C73.1821 32.3762 73.2756 31.7667 73.4625 31.2155C73.6535 30.6603 73.9298 30.1816 74.2914 29.7793C74.6571 29.377 75.1041 29.0672 75.6323 28.85C76.1646 28.6287 76.7741 28.5181 77.4609 28.5181C77.9119 28.5181 78.3467 28.5623 78.7652 28.6508C79.1837 28.7393 79.5616 28.8661 79.8989 29.031L79.4844 29.9C79.2 29.7712 78.8871 29.6606 78.5458 29.5681C78.2085 29.4715 77.8428 29.4233 77.4487 29.4233Z" fill="#214C77"/>
<path d="M83.8485 30.7448C84.6449 30.7448 85.2361 30.9218 85.6221 31.2759C86.0082 31.6299 86.2012 32.1951 86.2012 32.9716V37.4673H85.4637L85.2686 36.4897H85.2199C85.0329 36.7311 84.8379 36.9343 84.6347 37.0992C84.4316 37.2602 84.1959 37.3829 83.9277 37.4673C83.6636 37.5478 83.3385 37.588 82.9525 37.588C82.5462 37.588 82.1845 37.5176 81.8676 37.3768C81.5547 37.236 81.3068 37.0228 81.124 36.7372C80.9452 36.4515 80.8558 36.0895 80.8558 35.6509C80.8558 34.9912 81.1199 34.4843 81.6482 34.1302C82.1764 33.7762 82.9809 33.5831 84.0618 33.5509L85.2138 33.5026V33.0983C85.2138 32.527 85.0898 32.1267 84.842 31.8974C84.5941 31.6681 84.2446 31.5535 83.7936 31.5535C83.4442 31.5535 83.111 31.6037 82.794 31.7043C82.4771 31.8049 82.1764 31.9236 81.892 32.0604L81.5811 31.3C81.8818 31.1471 82.2272 31.0164 82.6173 30.9078C83.0074 30.7991 83.4178 30.7448 83.8485 30.7448ZM85.2016 34.2087L84.1837 34.2509C83.3507 34.2831 82.7636 34.4179 82.4222 34.6552C82.0809 34.8926 81.9102 35.2285 81.9102 35.663C81.9102 36.0412 82.026 36.3208 82.2577 36.5018C82.4893 36.6829 82.7961 36.7734 83.178 36.7734C83.7713 36.7734 84.2568 36.6104 84.6347 36.2846C85.0126 35.9587 85.2016 35.4699 85.2016 34.8182V34.2087Z" fill="#214C77"/>
<path d="M91.321 30.7328C91.4551 30.7328 91.5953 30.7408 91.7416 30.7569C91.8878 30.769 92.0179 30.7871 92.1316 30.8112L92.0037 31.7405C91.8939 31.7124 91.772 31.6902 91.6379 31.6742C91.5039 31.6581 91.3779 31.65 91.2601 31.65C90.9919 31.65 90.7379 31.7043 90.4982 31.8129C90.2625 31.9175 90.0553 32.0704 89.8765 32.2716C89.6977 32.4687 89.5575 32.7081 89.4559 32.9897C89.3543 33.2673 89.3035 33.5771 89.3035 33.919V37.4673H88.2857V30.8534H89.1268L89.2365 32.0724H89.2792C89.4173 31.827 89.5839 31.6037 89.779 31.4026C89.974 31.1974 90.1995 31.0345 90.4555 30.9138C90.7156 30.7931 91.0041 30.7328 91.321 30.7328Z" fill="#214C77"/>
<path d="M96.7883 37.4673V28.6448H97.8244V37.4673H96.7883Z" fill="#214C77"/>
<path d="M103.286 30.7328C104.078 30.7328 104.677 30.9259 105.084 31.3121C105.49 31.6943 105.693 32.3098 105.693 33.1587V37.4673H104.694V33.225C104.694 32.6739 104.566 32.2615 104.31 31.9879C104.058 31.7144 103.67 31.5776 103.145 31.5776C102.406 31.5776 101.886 31.7848 101.585 32.1992C101.284 32.6135 101.134 33.215 101.134 34.0035V37.4673H100.122V30.8534H100.939L101.091 31.8069H101.146C101.288 31.5736 101.469 31.3785 101.689 31.2216C101.908 31.0606 102.154 30.9399 102.426 30.8595C102.698 30.775 102.985 30.7328 103.286 30.7328Z" fill="#214C77"/>
<path d="M112.099 35.657C112.099 36.0794 111.991 36.4354 111.776 36.7251C111.565 37.0107 111.26 37.226 110.862 37.3708C110.468 37.5156 109.996 37.588 109.448 37.588C108.98 37.588 108.576 37.5518 108.235 37.4794C107.893 37.407 107.595 37.3044 107.339 37.1717V36.2484C107.611 36.3811 107.936 36.5018 108.314 36.6104C108.692 36.7191 109.078 36.7734 109.472 36.7734C110.049 36.7734 110.468 36.6808 110.728 36.4958C110.988 36.3107 111.118 36.0593 111.118 35.7415C111.118 35.5604 111.065 35.4015 110.959 35.2647C110.858 35.1239 110.685 34.9891 110.441 34.8604C110.197 34.7276 109.86 34.5828 109.429 34.4259C109.003 34.265 108.633 34.1061 108.32 33.9492C108.011 33.7883 107.772 33.5931 107.601 33.3638C107.434 33.1345 107.351 32.8368 107.351 32.4707C107.351 31.9115 107.579 31.4831 108.034 31.1854C108.493 30.8836 109.094 30.7328 109.838 30.7328C110.24 30.7328 110.616 30.773 110.965 30.8534C111.319 30.9299 111.648 31.0345 111.953 31.1672L111.611 31.9698C111.335 31.8532 111.041 31.7546 110.728 31.6742C110.415 31.5937 110.096 31.5535 109.771 31.5535C109.303 31.5535 108.944 31.6299 108.692 31.7828C108.444 31.9357 108.32 32.1448 108.32 32.4104C108.32 32.6155 108.377 32.7845 108.491 32.9173C108.609 33.05 108.796 33.1748 109.052 33.2914C109.308 33.4081 109.645 33.5449 110.063 33.7018C110.482 33.8546 110.843 34.0136 111.148 34.1785C111.453 34.3394 111.687 34.5366 111.849 34.7699C112.016 34.9992 112.099 35.2949 112.099 35.657Z" fill="#214C77"/>
<path d="M119.242 30.8534V37.4673H118.414L118.267 36.538H118.212C118.074 36.7673 117.895 36.9604 117.676 37.1173C117.457 37.2742 117.209 37.3909 116.932 37.4673C116.66 37.5478 116.37 37.588 116.061 37.588C115.533 37.588 115.09 37.5036 114.732 37.3346C114.375 37.1656 114.104 36.9041 113.921 36.5501C113.743 36.1961 113.653 35.7415 113.653 35.1863V30.8534H114.677V35.1139C114.677 35.665 114.803 36.0774 115.055 36.351C115.307 36.6205 115.691 36.7553 116.207 36.7553C116.703 36.7553 117.097 36.6627 117.39 36.4777C117.686 36.2926 117.899 36.0211 118.03 35.663C118.16 35.3009 118.225 34.8584 118.225 34.3354V30.8534H119.242Z" fill="#214C77"/>
<path d="M124.417 30.7328C124.551 30.7328 124.691 30.7408 124.838 30.7569C124.984 30.769 125.114 30.7871 125.228 30.8112L125.1 31.7405C124.99 31.7124 124.868 31.6902 124.734 31.6742C124.6 31.6581 124.474 31.65 124.356 31.65C124.088 31.65 123.834 31.7043 123.594 31.8129C123.359 31.9175 123.151 32.0704 122.973 32.2716C122.794 32.4687 122.654 32.7081 122.552 32.9897C122.45 33.2673 122.4 33.5771 122.4 33.919V37.4673H121.382V30.8534H122.223L122.333 32.0724H122.375C122.513 31.827 122.68 31.6037 122.875 31.4026C123.07 31.1974 123.296 31.0345 123.552 30.9138C123.812 30.7931 124.1 30.7328 124.417 30.7328Z" fill="#214C77"/>
<path d="M128.988 30.7448C129.785 30.7448 130.376 30.9218 130.762 31.2759C131.148 31.6299 131.341 32.1951 131.341 32.9716V37.4673H130.604L130.409 36.4897H130.36C130.173 36.7311 129.978 36.9343 129.775 37.0992C129.572 37.2602 129.336 37.3829 129.068 37.4673C128.804 37.5478 128.478 37.588 128.092 37.588C127.686 37.588 127.324 37.5176 127.008 37.3768C126.695 37.236 126.447 37.0228 126.264 36.7372C126.085 36.4515 125.996 36.0895 125.996 35.6509C125.996 34.9912 126.26 34.4843 126.788 34.1302C127.316 33.7762 128.121 33.5831 129.202 33.5509L130.354 33.5026V33.0983C130.354 32.527 130.23 32.1267 129.982 31.8974C129.734 31.6681 129.385 31.5535 128.934 31.5535C128.584 31.5535 128.251 31.6037 127.934 31.7043C127.617 31.8049 127.316 31.9236 127.032 32.0604L126.721 31.3C127.022 31.1471 127.367 31.0164 127.757 30.9078C128.147 30.7991 128.558 30.7448 128.988 30.7448ZM130.342 34.2087L129.324 34.2509C128.491 34.2831 127.904 34.4179 127.562 34.6552C127.221 34.8926 127.05 35.2285 127.05 35.663C127.05 36.0412 127.166 36.3208 127.398 36.5018C127.629 36.6829 127.936 36.7734 128.318 36.7734C128.911 36.7734 129.397 36.6104 129.775 36.2846C130.153 35.9587 130.342 35.4699 130.342 34.8182V34.2087Z" fill="#214C77"/>
<path d="M136.589 30.7328C137.381 30.7328 137.981 30.9259 138.387 31.3121C138.793 31.6943 138.997 32.3098 138.997 33.1587V37.4673H137.997V33.225C137.997 32.6739 137.869 32.2615 137.613 31.9879C137.361 31.7144 136.973 31.5776 136.449 31.5776C135.709 31.5776 135.189 31.7848 134.888 32.1992C134.588 32.6135 134.437 33.215 134.437 34.0035V37.4673H133.426V30.8534H134.242L134.395 31.8069H134.45C134.592 31.5736 134.773 31.3785 134.992 31.2216C135.211 31.0606 135.457 30.9399 135.73 30.8595C136.002 30.775 136.288 30.7328 136.589 30.7328Z" fill="#214C77"/>
<path d="M143.757 37.588C143.155 37.588 142.625 37.4653 142.166 37.2199C141.707 36.9745 141.349 36.6004 141.093 36.0975C140.837 35.5946 140.709 34.961 140.709 34.1966C140.709 33.396 140.843 32.7423 141.111 32.2354C141.384 31.7244 141.758 31.3463 142.233 31.1009C142.708 30.8555 143.249 30.7328 143.854 30.7328C144.187 30.7328 144.508 30.767 144.817 30.8353C145.13 30.8997 145.386 30.9822 145.585 31.0828L145.281 31.9216C145.077 31.8411 144.842 31.7687 144.573 31.7043C144.309 31.64 144.061 31.6078 143.83 31.6078C143.367 31.6078 142.981 31.7063 142.672 31.9035C142.367 32.1006 142.137 32.3903 141.983 32.7724C141.833 33.1546 141.758 33.6253 141.758 34.1845C141.758 34.7196 141.831 35.1762 141.977 35.5544C142.127 35.9326 142.349 36.2222 142.641 36.4234C142.938 36.6205 143.308 36.7191 143.751 36.7191C144.104 36.7191 144.423 36.6829 144.708 36.6104C144.992 36.534 145.25 36.4455 145.482 36.3449V37.238C145.258 37.3507 145.008 37.4372 144.732 37.4975C144.46 37.5579 144.135 37.588 143.757 37.588Z" fill="#214C77"/>
<path d="M149.638 30.7328C150.207 30.7328 150.695 30.8575 151.101 31.1069C151.508 31.3563 151.818 31.7063 152.034 32.1569C152.249 32.6035 152.357 33.1265 152.357 33.7259V34.3475H147.743C147.755 35.1239 147.95 35.7153 148.328 36.1216C148.706 36.528 149.238 36.7311 149.925 36.7311C150.348 36.7311 150.721 36.6929 151.046 36.6165C151.371 36.54 151.709 36.4274 152.058 36.2785V37.1596C151.721 37.3084 151.386 37.4171 151.053 37.4855C150.723 37.5538 150.333 37.588 149.882 37.588C149.24 37.588 148.68 37.4593 148.2 37.2018C147.725 36.9403 147.355 36.5581 147.091 36.0553C146.827 35.5524 146.695 34.9368 146.695 34.2087C146.695 33.4966 146.814 32.8811 147.054 32.3621C147.298 31.8391 147.639 31.4368 148.078 31.1552C148.521 30.8736 149.041 30.7328 149.638 30.7328ZM149.626 31.5535C149.086 31.5535 148.655 31.7285 148.334 32.0785C148.013 32.4285 147.822 32.9173 147.761 33.5449H151.296C151.292 33.1506 151.229 32.8046 151.107 32.5069C150.99 32.2052 150.809 31.9719 150.565 31.8069C150.321 31.6379 150.008 31.5535 149.626 31.5535Z" fill="#214C77"/>
<path d="M151.029 18.0049C150.401 18.0248 150.04 17.6872 150.04 16.842V12.6701H152.811V10.6614H150.04V7.87915H147.137V10.6614H145.715V12.6548H147.137V17.3326C147.137 19.4151 148.522 20.4478 150.344 20.4478C151.293 20.4478 152.245 20.1852 153 19.7527L152.393 17.6321C151.863 17.8771 151.408 18.0049 151.029 18.0049Z" fill="#0091FF"/>
<path d="M68.8241 8.75838C69.7801 8.75838 70.4467 8.06207 70.4467 7.09909C70.4467 6.1361 69.7795 5.43628 68.8241 5.43628C67.8686 5.43628 67.2056 6.13258 67.2056 7.09909C67.2056 8.06559 67.8686 8.75838 68.8241 8.75838Z" fill="#0091FF"/>
<path d="M64.319 6.11206H61.3123V20.4461H64.319V6.11206Z" fill="#0091FF"/>
<path d="M77.6654 20.5605C79.8078 20.5605 81.4453 19.7118 82.3255 18.2641L80.2548 16.8703C79.7315 17.6827 78.892 18.0877 77.8181 18.0877C76.3565 18.0877 75.3223 16.9483 75.3223 15.2702C75.3223 13.5922 76.3565 12.4891 77.8181 12.4891C78.8523 12.4686 79.6533 12.8929 80.2192 13.5881L82.2474 12.1409C81.3103 10.7507 79.7125 9.95532 77.7027 9.95532C74.4817 9.95532 72.3215 12.1005 72.3215 15.2884C72.3215 18.4763 74.4817 20.5611 77.666 20.5611" fill="#0091FF"/>
<path d="M70.3294 10.0542H67.3257V20.446H70.3294V10.0542Z" fill="#0091FF"/>
<path d="M53.6098 20.5598C56.9635 20.5598 59.2278 18.4169 59.2278 15.2478C59.2278 12.0787 56.9635 9.95459 53.6098 9.95459C50.2562 9.95459 47.97 12.0634 47.97 15.2478C47.97 18.4322 50.2326 20.5598 53.6098 20.5598ZM53.6098 12.4274C55.149 12.4274 56.2205 13.5873 56.2205 15.2871C56.2205 16.9868 55.1496 18.1467 53.6098 18.1467C52.0701 18.1467 50.9938 16.9856 50.9938 15.2871C50.9938 13.5885 52.047 12.4274 53.6098 12.4274Z" fill="#0091FF"/>
<path d="M90.8892 10.0542L88.4158 17.2019L85.6613 10.0542H82.5623L86.9122 20.2356L86.6156 20.8118C86.3243 21.4319 85.8561 21.7407 85.2333 21.7407C84.7443 21.7407 84.3329 21.5673 83.8676 21.1804L82.599 23.3256C83.4579 24.019 84.3323 24.3273 85.447 24.3273C87.2603 24.3273 88.5484 23.4387 89.2896 21.603L93.8929 10.0548H90.8886L90.8892 10.0542Z" fill="#0091FF"/>
<path d="M139.736 10.1182C136.622 10.1182 134.481 12.1842 134.481 15.3035C134.481 18.4228 136.549 20.4297 139.812 20.4297C141.656 20.4297 143.151 19.7744 144.177 18.6444L142.641 17.1076C141.935 17.801 141.028 18.1743 140.063 18.1743C138.747 18.1743 137.762 17.4258 137.423 16.1487H144.745C144.992 12.4673 143.322 10.1182 139.737 10.1182M137.363 14.439C137.591 13.1032 138.463 12.2376 139.755 12.2376C141.047 12.2376 141.978 13.1032 142.012 14.439H137.363Z" fill="#214C77"/>
<path d="M128.409 10.1182C125.297 10.1182 123.151 12.1842 123.151 15.3035C123.151 18.4228 125.218 20.4297 128.482 20.4297C130.325 20.4297 131.824 19.7744 132.847 18.6444L131.311 17.1076C130.609 17.801 129.698 18.1743 128.729 18.1743C127.42 18.1743 126.429 17.4258 126.089 16.1487H133.417C133.663 12.4673 131.993 10.1182 128.408 10.1182M126.032 14.439C126.265 13.1032 127.14 12.2376 128.428 12.2376C129.716 12.2376 130.647 13.1032 130.683 14.439H126.032Z" fill="#214C77"/>
<path d="M112.389 18.0049C111.764 18.0248 111.404 17.6872 111.404 16.842V12.6701H114.173V10.6614H111.404V7.87915H108.5V10.6614H107.08V12.6548H108.5V17.3326C108.5 19.4151 109.889 20.4478 111.71 20.4478C112.656 20.4478 113.606 20.1852 114.366 19.7527L113.758 17.6321C113.228 17.8771 112.771 18.0049 112.39 18.0049" fill="#214C77"/>
<path d="M41.4913 6.92334H35.7017V20.4456H38.7806V16.5825H41.4913C44.9633 16.5825 46.9542 14.7667 46.9542 11.6164C46.9542 8.46599 44.9633 6.92334 41.4913 6.92334ZM41.3315 14.03H38.78V9.45477H41.3315C43.0536 9.45477 44.0262 10.2079 44.0262 11.7142C44.0262 13.2206 43.053 14.03 41.3315 14.03Z" fill="#0091FF"/>
<path d="M119.052 12.0359V10.2113H116.129V20.3183H119.052V15.4488C119.052 13.7427 120.344 12.6355 122.431 12.8225V10.0994C120.912 10.1181 119.751 10.7945 119.052 12.0359Z" fill="#214C77"/>
<path d="M98.9374 10.6433C98.9374 9.93178 99.6193 9.57425 100.627 9.57425C101.688 9.57425 103.361 10.0994 104.765 10.9288L105.917 8.46415C104.592 7.60022 102.735 7.03638 100.872 7.03638C97.7978 7.03638 95.7317 8.53918 95.7317 10.9288C95.7317 15.5831 102.811 14.1377 102.811 16.6158C102.811 17.4264 102.069 17.8777 100.834 17.8777C99.4305 17.8777 97.4941 17.1082 96.1278 15.9043L94.9343 18.3285C96.4332 19.5863 98.6141 20.4133 100.801 20.4133C103.739 20.4133 105.994 19.0218 105.994 16.4488C106.014 11.7147 98.9374 13.0693 98.9374 10.6445" fill="#0091FF"/>
<path d="M26.2807 15.2619C26.18 15.1218 24.6065 12.986 21.1842 11.4333V11.9673L21.1836 13.2755C21.1836 13.3763 21.1753 13.473 21.1635 13.568C21.1422 13.738 21.1037 13.8985 21.0481 14.0498C21.0439 14.0603 21.0392 14.0703 21.035 14.0814C21.2553 14.2016 21.4731 14.3252 21.6856 14.4571C22.9235 15.2243 23.7002 16.0009 24.0548 16.3972V19.3916C19.8759 23.9903 14.654 25.874 13.3291 26.2966C12.0013 25.8735 6.78115 23.9891 2.6029 19.3916V14.157H0.150879V20.3024L0.449241 20.6441C5.80022 26.7767 12.7206 28.6604 13.013 28.7378L13.3291 28.8216L13.6453 28.7378C13.9371 28.6604 20.858 26.7767 26.209 20.6441L26.5074 20.3024V15.5784L26.2812 15.2624L26.2807 15.2619Z" fill="#214C77"/>
<path d="M25.2376 10.4784C25.977 10.9901 26.5069 11.4871 26.5069 11.4871V3.61091L26.0729 3.24693C25.9149 3.11447 22.0948 -0.000732422 13.2534 -0.000732422C4.41209 -0.000732422 0.59258 3.11447 0.433928 3.24752L0 3.61091V12.2502H5.49543V9.82255H2.45202V4.8101C3.59396 4.11262 6.99849 2.42813 13.2534 2.42813C19.5084 2.42813 22.9206 4.11672 24.0549 4.80951V9.83721C24.0549 9.83721 24.5432 9.9978 25.2376 10.4784Z" fill="#214C77"/>
<path d="M20.9321 7.28773C20.8989 7.26019 20.5875 7.00816 19.9618 6.69634C18.763 6.09909 16.6413 5.38696 13.3404 5.38696C10.0395 5.38696 7.91778 6.09909 6.719 6.69634C6.09327 7.00816 5.78188 7.26019 5.74873 7.28773L5.49536 7.49756V17.8231C7.57383 19.7579 9.77662 21.5456 11.3478 22.2718V16.7189L11.3111 16.614H13.8146C13.8146 16.614 14.6238 16.6322 15.7036 16.5302C17.614 16.3497 20.3732 15.7905 21.0351 14.0802C21.0392 14.0697 21.0439 14.0597 21.0481 14.0486C21.1037 13.8974 21.1422 13.7368 21.1635 13.5668C21.1754 13.4718 21.1836 13.3751 21.1836 13.2743V11.9661L21.1842 11.4392V11.4316L21.186 7.49639L20.9326 7.28656L20.9321 7.28773ZM15.8682 9.97683V11.7211C15.8682 11.7211 15.8664 11.7961 15.8534 11.9145C15.8404 12.0364 15.8137 12.2052 15.7646 12.391C15.7628 12.3975 15.761 12.4045 15.7593 12.411C15.6083 12.9689 15.2472 13.6629 14.3746 13.6629H11.1832V8.97223C11.7941 8.89779 12.4554 8.85266 13.1758 8.85266C14.1804 8.85266 15.0743 8.93647 15.8676 9.07304V9.97683H15.8682Z" fill="#0091FF"/>
</g>
<defs>
<clipPath id="clip0_1981_2625">
<rect width="153" height="40" fill="white"/>
</clipPath>
</defs>
</svg>
