<?xml version="1.0" encoding="UTF-8"?>
<svg id="Layer_1" data-name="Layer 1" xmlns="http://www.w3.org/2000/svg" viewBox="0 0 2584.51 682.46">
  <defs>
    <style>
      .cls-1, .cls-2 {
        fill: #214c77;
      }

      .cls-3 {
        fill: #0091ff;
      }

      .cls-2 {
        font-family: OpenSans-Regular, 'Open Sans';
        font-size: 210.86px;
      }
    </style>
  </defs>
  <text class="cls-2" transform="translate(1223.34 625.11)"><tspan x="0" y="0">Car Insurance</tspan></text>
  <g>
    <g>
      <path class="cls-3" d="M2551.22,307.19c-10.62.34-16.72-5.42-16.72-19.84v-71.18h46.82v-34.27h-46.82v-47.47h-49.03v47.47h-24.02v34.01h24.02v79.81c0,35.53,23.4,53.15,54.18,53.15,16.02,0,32.1-4.48,44.86-11.86l-10.25-36.18c-8.95,4.18-16.64,6.36-23.04,6.36"/>
      <path class="cls-3" d="M1162.59,149.43c16.15,0,27.41-11.88,27.41-28.31s-11.27-28.37-27.41-28.37-27.34,11.88-27.34,28.37,11.2,28.31,27.34,28.31"/>
      <rect class="cls-3" x="1035.7" y="104.28" width="50.79" height="244.56"/>
      <path class="cls-3" d="M1311.94,350.79c36.19,0,63.85-14.48,78.72-39.18l-34.98-23.78c-8.84,13.86-23.02,20.77-41.16,20.77-24.69,0-42.16-19.44-42.16-48.07s17.47-47.45,42.16-47.45c17.47-.35,31,6.89,40.56,18.75l34.26-24.69c-15.83-23.72-42.82-37.29-76.77-37.29-54.41,0-90.9,36.6-90.9,90.99s36.49,89.96,90.28,89.96"/>
      <rect class="cls-3" x="1137.28" y="171.54" width="50.74" height="177.3"/>
      <path class="cls-3" d="M905.59,350.78c56.65,0,94.9-36.56,94.9-90.63s-38.25-90.31-94.9-90.31-95.27,35.98-95.27,90.31,38.22,90.63,95.27,90.63M905.59,212.03c26,0,44.1,19.79,44.1,48.79s-18.09,48.79-44.1,48.79-44.19-19.81-44.19-48.79,17.79-48.79,44.19-48.79"/>
      <path class="cls-3" d="M1535.32,171.54l-41.78,121.95-46.53-121.95h-52.35l73.48,173.71-5.01,9.83c-4.92,10.58-12.83,15.85-23.35,15.85-8.26,0-15.21-2.96-23.07-9.56l-21.43,36.6c14.51,11.83,29.28,17.09,48.11,17.09,30.63,0,52.39-15.16,64.91-46.48l77.76-197.03h-50.75Z"/>
      <path class="cls-3" d="M2360.45,172.63c-52.6,0-88.77,35.25-88.77,88.47s34.93,87.46,90.06,87.46c31.14,0,56.39-11.18,73.72-30.46l-25.94-26.22c-11.93,11.83-27.25,18.2-43.55,18.2-22.23,0-38.87-12.77-44.59-34.56h123.69c4.17-62.81-24.05-102.89-84.61-102.89M2320.37,246.35c3.84-22.79,18.57-37.56,40.4-37.56s37.56,14.77,38.12,37.56h-78.52Z"/>
      <path class="cls-3" d="M2169.11,172.63c-52.57,0-88.82,35.25-88.82,88.47s34.92,87.46,90.05,87.46c31.14,0,56.46-11.18,73.74-30.46l-25.95-26.22c-11.85,11.83-27.25,18.2-43.61,18.2-22.12,0-38.85-12.77-44.6-34.56h123.79c4.16-62.81-24.06-102.89-84.61-102.89M2128.96,246.35c3.94-22.79,18.71-37.56,40.47-37.56s37.48,14.77,38.1,37.56h-78.57Z"/>
      <path class="cls-3" d="M1898.5,307.19c-10.56.34-16.64-5.42-16.64-19.84v-71.18h46.77v-34.27h-46.77v-47.47h-49.06v47.47h-23.99v34.01h23.99v79.81c0,35.53,23.46,53.15,54.23,53.15,15.97,0,32.03-4.48,44.87-11.86l-10.27-36.18c-8.96,4.18-16.68,6.36-23.12,6.36"/>
      <path class="cls-3" d="M700.88,118.12h-97.8v230.71h52.01v-65.91h45.79c58.65,0,92.28-30.98,92.28-84.73s-33.63-80.07-92.28-80.07M698.18,239.37h-43.1v-78.06h43.1c29.09,0,45.52,12.85,45.52,38.55s-16.44,39.51-45.52,39.51"/>
      <path class="cls-3" d="M2011.05,205.35v-31.13h-49.37v172.44h49.37v-83.08c0-29.11,21.83-48,57.08-44.81v-46.46c-25.66.32-45.27,11.86-57.08,33.04"/>
      <path class="cls-3" d="M1671.27,181.59c0-12.14,11.52-18.24,28.54-18.24,17.93,0,46.18,8.96,69.9,23.11l19.47-42.05c-22.39-14.74-53.76-24.36-85.23-24.36-51.93,0-86.83,25.64-86.83,66.41,0,79.41,119.58,54.75,119.58,97.03,0,13.83-12.53,21.53-33.39,21.53-23.71,0-56.42-13.13-79.5-33.67l-20.16,41.36c25.32,21.46,62.16,35.57,99.1,35.57,49.63,0,87.73-23.74,87.73-67.64.33-80.77-119.21-57.66-119.21-99.03"/>
    </g>
    <g>
      <path class="cls-1" d="M443.94,260.39c-1.7-2.39-28.28-38.83-86.09-65.32v9.11s-.01,22.32-.01,22.32c0,1.72-.14,3.37-.34,4.99-.36,2.9-1.01,5.64-1.95,8.22h0c-.07.18-.15.35-.22.54,3.72,2.05,7.4,4.16,10.99,6.41,20.91,13.09,34.03,26.34,40.02,33.1v51.09c-70.59,78.46-158.8,110.6-181.18,117.81-22.43-7.22-110.61-39.37-181.19-117.81v-89.31H2.55v104.85l5.04,5.83c90.39,104.63,207.29,136.77,212.23,138.09l5.34,1.43,5.34-1.43c4.93-1.32,121.84-33.46,212.23-138.09l5.04-5.83v-80.6l-3.82-5.39Z"/>
      <path class="cls-1" d="M426.32,178.78c12.49,8.73,21.44,17.21,21.44,17.21V61.61l-7.33-6.21c-2.67-2.26-67.2-55.41-216.55-55.41S10.01,53.14,7.33,55.41l-7.33,6.2v147.4h92.83v-41.42h-51.41v-85.52c19.29-11.9,76.8-40.64,182.46-40.64s163.3,28.81,182.46,40.63v85.78s8.25,2.74,19.98,10.94Z"/>
      <path class="cls-3" d="M353.59,124.34h0c-.56-.47-5.82-4.77-16.39-10.09-20.25-10.19-56.09-22.34-111.85-22.34s-91.6,12.15-111.85,22.34c-10.57,5.32-15.83,9.62-16.39,10.09l-4.28,3.58v176.17c35.11,33.01,72.32,63.51,98.86,75.9v-94.74l-.62-1.79h42.29s13.67.31,31.91-1.43c32.27-3.08,78.88-12.62,90.06-41.8.07-.18.15-.35.22-.54h0c.94-2.58,1.59-5.32,1.95-8.22.2-1.62.34-3.27.34-4.99v-22.32s.01-8.99.01-8.99v-.13l.03-67.14-4.28-3.58ZM268.05,170.22v29.76s-.03,1.28-.25,3.3c-.22,2.08-.67,4.96-1.5,8.13-.03.11-.06.23-.09.34-2.55,9.52-8.65,21.36-23.39,21.36h-53.91v-80.03c10.32-1.27,21.49-2.04,33.66-2.04,16.97,0,32.07,1.43,45.47,3.76v15.42Z"/>
    </g>
  </g>
</svg>
