<?xml version="1.0" encoding="UTF-8"?>
<svg id="Layer_1" data-name="Layer 1" xmlns="http://www.w3.org/2000/svg" viewBox="0 0 592.24 153.4">
  <defs>
    <style>
      .cls-1 {
        fill: #214c77;
      }

      .cls-2 {
        fill: #0091ff;
      }
    </style>
  </defs>
  <g>
    <g>
      <path class="cls-2" d="M584.61,70.39c-2.43.08-3.83-1.24-3.83-4.55v-16.31h10.73v-7.85h-10.73v-10.88h-11.24v10.88h-5.5v7.79h5.5v18.29c0,8.14,5.36,12.18,12.41,12.18,3.67,0,7.36-1.03,10.28-2.72l-2.35-8.29c-2.05.96-3.81,1.46-5.28,1.46"/>
      <path class="cls-2" d="M266.41,34.24c3.7,0,6.28-2.72,6.28-6.49s-2.58-6.5-6.28-6.5-6.26,2.72-6.26,6.5,2.57,6.49,6.26,6.49"/>
      <rect class="cls-2" x="237.33" y="23.89" width="11.64" height="56.04"/>
      <path class="cls-2" d="M300.63,80.38c8.29,0,14.63-3.32,18.04-8.98l-8.02-5.45c-2.03,3.18-5.27,4.76-9.43,4.76-5.66,0-9.66-4.45-9.66-11.02s4-10.87,9.66-10.87c4-.08,7.1,1.58,9.29,4.3l7.85-5.66c-3.63-5.44-9.81-8.54-17.59-8.54-12.47,0-20.83,8.39-20.83,20.85s8.36,20.61,20.69,20.61"/>
      <rect class="cls-2" x="260.61" y="39.31" width="11.63" height="40.63"/>
      <path class="cls-2" d="M207.52,80.38c12.98,0,21.75-8.38,21.75-20.77s-8.76-20.7-21.75-20.7-21.83,8.24-21.83,20.7,8.76,20.77,21.83,20.77M207.52,48.59c5.96,0,10.1,4.53,10.1,11.18s-4.15,11.18-10.1,11.18-10.13-4.54-10.13-11.18,4.08-11.18,10.13-11.18"/>
      <path class="cls-2" d="M351.82,39.31l-9.57,27.95-10.66-27.95h-12l16.84,39.81-1.15,2.25c-1.13,2.43-2.94,3.63-5.35,3.63-1.89,0-3.49-.68-5.29-2.19l-4.91,8.39c3.32,2.71,6.71,3.92,11.02,3.92,7.02,0,12.01-3.47,14.87-10.65l17.82-45.15h-11.63Z"/>
      <path class="cls-2" d="M540.9,39.56c-12.05,0-20.34,8.08-20.34,20.27s8,20.04,20.64,20.04c7.13,0,12.92-2.56,16.89-6.98l-5.95-6.01c-2.73,2.71-6.24,4.17-9.98,4.17-5.09,0-8.91-2.93-10.22-7.92h28.34c.96-14.39-5.51-23.58-19.39-23.58M531.71,56.45c.88-5.22,4.26-8.61,9.26-8.61s8.61,3.38,8.73,8.61h-17.99Z"/>
      <path class="cls-2" d="M497.05,39.56c-12.05,0-20.35,8.08-20.35,20.27s8,20.04,20.64,20.04c7.14,0,12.94-2.56,16.9-6.98l-5.95-6.01c-2.72,2.71-6.25,4.17-9.99,4.17-5.07,0-8.9-2.93-10.22-7.92h28.37c.95-14.39-5.51-23.58-19.39-23.58M487.85,56.45c.9-5.22,4.29-8.61,9.27-8.61s8.59,3.38,8.73,8.61h-18Z"/>
      <path class="cls-2" d="M435.04,70.39c-2.42.08-3.81-1.24-3.81-4.55v-16.31h10.72v-7.85h-10.72v-10.88h-11.24v10.88h-5.5v7.79h5.5v18.29c0,8.14,5.38,12.18,12.43,12.18,3.66,0,7.34-1.03,10.28-2.72l-2.35-8.29c-2.05.96-3.82,1.46-5.3,1.46"/>
      <path class="cls-2" d="M160.61,27.07h-22.41v52.87h11.92v-15.1h10.49c13.44,0,21.15-7.1,21.15-19.42s-7.71-18.35-21.15-18.35M159.99,54.85h-9.88v-17.89h9.88c6.67,0,10.43,2.94,10.43,8.83s-3.77,9.05-10.43,9.05"/>
      <path class="cls-2" d="M460.84,47.06v-7.13h-11.31v39.51h11.31v-19.04c0-6.67,5-11,13.08-10.27v-10.65c-5.88.07-10.37,2.72-13.08,7.57"/>
      <path class="cls-2" d="M382.97,41.61c0-2.78,2.64-4.18,6.54-4.18,4.11,0,10.58,2.05,16.02,5.29l4.46-9.64c-5.13-3.38-12.32-5.58-19.53-5.58-11.9,0-19.9,5.88-19.9,15.22,0,18.2,27.4,12.55,27.4,22.23,0,3.17-2.87,4.93-7.65,4.93-5.43,0-12.93-3.01-18.22-7.72l-4.62,9.48c5.8,4.92,14.24,8.15,22.71,8.15,11.37,0,20.1-5.44,20.1-15.5.08-18.51-27.32-13.21-27.32-22.69"/>
    </g>
    <g>
      <path class="cls-1" d="M101.73,59.67c-.39-.55-6.48-8.9-19.73-14.97v2.09s0,5.11,0,5.11c0,.39-.03.77-.08,1.14-.08.66-.23,1.29-.45,1.88h0s-.03.08-.05.12c.85.47,1.7.95,2.52,1.47,4.79,3,7.8,6.03,9.17,7.59v11.71c-16.18,17.98-36.39,25.34-41.52,27-5.14-1.65-25.35-9.02-41.52-27v-20.47H.58v24.03l1.15,1.34c20.71,23.98,47.5,31.34,48.63,31.64l1.22.33,1.22-.33c1.13-.3,27.92-7.67,48.63-31.64l1.15-1.34v-18.47l-.88-1.23Z"/>
      <path class="cls-1" d="M97.69,40.97c2.86,2,4.91,3.94,4.91,3.94V14.12l-1.68-1.42c-.61-.52-15.4-12.7-49.62-12.7S2.29,12.18,1.68,12.7l-1.68,1.42v33.78h21.27v-9.49h-11.78v-19.6c4.42-2.73,17.6-9.31,41.81-9.31s37.42,6.6,41.81,9.31v19.66s1.89.63,4.58,2.51Z"/>
      <path class="cls-2" d="M81.03,28.49h0c-.13-.11-1.33-1.09-3.76-2.31-4.64-2.34-12.85-5.12-25.63-5.12s-20.99,2.78-25.63,5.12c-2.42,1.22-3.63,2.2-3.76,2.31l-.98.82v40.37c8.05,7.56,16.57,14.55,22.65,17.39v-21.71l-.14-.41h9.69s3.13.07,7.31-.33c7.39-.71,18.08-2.89,20.64-9.58.02-.04.04-.08.05-.12h0c.22-.59.36-1.22.45-1.88.05-.37.08-.75.08-1.14v-5.11s0-2.06,0-2.06v-15.41s-.97-.82-.97-.82ZM61.42,39.01v6.82s0,.29-.06.76c-.05.48-.15,1.14-.34,1.86,0,.03-.01.05-.02.08-.58,2.18-1.98,4.89-5.36,4.89h-12.35v-18.34c2.37-.29,4.92-.47,7.71-.47,3.89,0,7.35.33,10.42.86v3.53Z"/>
    </g>
  </g>
  <g>
    <path class="cls-1" d="M258.71,116.17c-2.17,0-4.12.37-5.85,1.12-1.73.75-3.2,1.82-4.41,3.23-1.21,1.41-2.14,3.11-2.78,5.1s-.97,4.23-.97,6.72c0,3.3.52,6.16,1.55,8.59s2.57,4.31,4.63,5.63,4.62,1.99,7.71,1.99c1.76,0,3.41-.15,4.96-.44,1.55-.3,3.06-.67,4.53-1.12v3.98c-1.44.54-2.94.94-4.52,1.2-1.58.26-3.45.39-5.62.39-4,0-7.34-.83-10.02-2.49-2.68-1.66-4.69-4-6.02-7.03-1.34-3.03-2-6.61-2-10.73,0-2.98.42-5.7,1.25-8.16.83-2.47,2.05-4.59,3.66-6.39,1.6-1.79,3.58-3.18,5.92-4.16,2.34-.98,5.02-1.47,8.06-1.47,1.99,0,3.91.2,5.76.59,1.85.39,3.51.96,5,1.69l-1.83,3.87c-1.26-.57-2.63-1.07-4.13-1.49-1.5-.42-3.12-.63-4.85-.63Z"/>
    <path class="cls-1" d="M286.95,122.06c3.51,0,6.12.79,7.83,2.37s2.56,4.1,2.56,7.56v20.04h-3.25l-.86-4.36h-.22c-.82,1.08-1.69,1.98-2.58,2.7-.9.73-1.93,1.27-3.11,1.64-1.17.37-2.61.55-4.32.55-1.79,0-3.39-.31-4.77-.94-1.39-.63-2.48-1.58-3.28-2.85-.8-1.27-1.2-2.89-1.2-4.84,0-2.94,1.17-5.2,3.5-6.78s5.88-2.44,10.65-2.58l5.08-.22v-1.8c0-2.55-.55-4.33-1.64-5.35s-2.64-1.53-4.63-1.53c-1.54,0-3.01.22-4.41.67-1.4.45-2.73.98-3.98,1.59l-1.37-3.39c1.33-.68,2.85-1.26,4.57-1.75,1.72-.48,3.53-.73,5.43-.73ZM292.93,137.5l-4.49.19c-3.68.14-6.27.74-7.77,1.8-1.51,1.06-2.26,2.56-2.26,4.49,0,1.69.51,2.93,1.53,3.74s2.38,1.21,4.06,1.21c2.62,0,4.76-.73,6.43-2.18,1.67-1.45,2.5-3.63,2.5-6.54v-2.72Z"/>
    <path class="cls-1" d="M319.93,122c.59,0,1.21.03,1.86.09.65.06,1.22.15,1.72.25l-.56,4.14c-.48-.12-1.02-.22-1.61-.3s-1.15-.11-1.67-.11c-1.18,0-2.3.24-3.35.71-1.05.47-1.97,1.16-2.76,2.04s-1.41,1.95-1.86,3.2c-.45,1.25-.67,2.63-.67,4.16v15.82h-4.49v-29.48h3.71l.48,5.43h.19c.61-1.09,1.34-2.09,2.21-3s1.86-1.63,3-2.17c1.14-.54,2.41-.81,3.81-.81Z"/>
    <path class="cls-1" d="M344.03,152.02v-39.32h4.57v39.32h-4.57Z"/>
    <path class="cls-1" d="M372.7,122c3.5,0,6.14.86,7.93,2.57,1.79,1.71,2.69,4.46,2.69,8.24v19.21h-4.41v-18.91c0-2.46-.56-4.29-1.68-5.51-1.12-1.22-2.84-1.83-5.15-1.83-3.26,0-5.56.92-6.89,2.77s-1.99,4.53-1.99,8.04v15.44h-4.46v-29.48h3.6l.67,4.25h.24c.63-1.04,1.43-1.91,2.39-2.62.97-.71,2.05-1.25,3.25-1.61s2.47-.55,3.79-.55Z"/>
    <path class="cls-1" d="M411.6,143.95c0,1.88-.47,3.47-1.41,4.75-.94,1.28-2.29,2.25-4.04,2.89-1.75.65-3.83.97-6.25.97-2.06,0-3.85-.16-5.35-.48-1.51-.32-2.82-.78-3.95-1.37v-4.12c1.2.59,2.64,1.13,4.3,1.61,1.67.48,3.37.73,5.11.73,2.55,0,4.39-.41,5.54-1.24,1.15-.83,1.72-1.95,1.72-3.36,0-.81-.23-1.52-.69-2.14-.46-.62-1.22-1.22-2.3-1.8-1.08-.58-2.56-1.22-4.46-1.92-1.88-.72-3.51-1.43-4.88-2.14s-2.43-1.57-3.17-2.6c-.74-1.02-1.12-2.35-1.12-3.98,0-2.49,1.01-4.41,3.03-5.74,2.02-1.34,4.67-2,7.95-2,1.78,0,3.44.17,4.99.52,1.55.35,3,.82,4.34,1.41l-1.51,3.58c-1.22-.52-2.52-.96-3.9-1.32-1.38-.36-2.79-.54-4.22-.54-2.06,0-3.65.34-4.75,1.02s-1.65,1.61-1.65,2.8c0,.92.26,1.67.77,2.26.51.59,1.33,1.15,2.46,1.67,1.13.52,2.62,1.13,4.47,1.83,1.85.68,3.44,1.39,4.79,2.11,1.34.73,2.38,1.61,3.11,2.64.73,1.03,1.09,2.35,1.09,3.97Z"/>
    <path class="cls-1" d="M443.12,122.54v29.48h-3.66l-.65-4.14h-.24c-.61,1.02-1.4,1.88-2.37,2.58-.97.7-2.06,1.22-3.27,1.57-1.21.35-2.5.52-3.86.52-2.33,0-4.29-.38-5.86-1.13-1.58-.75-2.77-1.92-3.56-3.5-.8-1.58-1.2-3.6-1.2-6.08v-19.31h4.52v18.99c0,2.46.56,4.29,1.67,5.5,1.11,1.21,2.81,1.82,5.08,1.82s3.93-.41,5.23-1.24c1.3-.82,2.24-2.04,2.81-3.64s.86-3.57.86-5.9v-15.52h4.49Z"/>
    <path class="cls-1" d="M465.96,122c.59,0,1.21.03,1.86.09.65.06,1.22.15,1.72.25l-.57,4.14c-.48-.12-1.02-.22-1.61-.3s-1.15-.11-1.67-.11c-1.18,0-2.3.24-3.35.71-1.05.47-1.97,1.16-2.76,2.04-.79.89-1.41,1.95-1.86,3.2-.45,1.25-.67,2.63-.67,4.16v15.82h-4.49v-29.48h3.71l.48,5.43h.19c.61-1.09,1.35-2.09,2.21-3s1.86-1.63,3-2.17c1.14-.54,2.41-.81,3.81-.81Z"/>
    <path class="cls-1" d="M486.1,122.06c3.51,0,6.12.79,7.83,2.37,1.7,1.58,2.55,4.1,2.55,7.56v20.04h-3.25l-.86-4.36h-.21c-.83,1.08-1.69,1.98-2.58,2.7-.9.73-1.93,1.27-3.11,1.64-1.17.37-2.61.55-4.32.55-1.79,0-3.38-.31-4.77-.94-1.39-.63-2.48-1.58-3.28-2.85-.8-1.27-1.2-2.89-1.2-4.84,0-2.94,1.17-5.2,3.5-6.78,2.33-1.58,5.88-2.44,10.65-2.58l5.08-.22v-1.8c0-2.55-.55-4.33-1.64-5.35s-2.64-1.53-4.63-1.53c-1.54,0-3.01.22-4.41.67-1.4.45-2.73.98-3.98,1.59l-1.37-3.39c1.33-.68,2.85-1.26,4.57-1.75s3.53-.73,5.43-.73ZM492.07,137.5l-4.49.19c-3.68.14-6.27.74-7.77,1.8-1.51,1.06-2.26,2.56-2.26,4.49,0,1.69.51,2.93,1.53,3.74s2.38,1.21,4.06,1.21c2.62,0,4.76-.73,6.43-2.18,1.67-1.45,2.5-3.63,2.5-6.54v-2.72Z"/>
    <path class="cls-1" d="M519.64,122c3.5,0,6.14.86,7.93,2.57,1.79,1.71,2.69,4.46,2.69,8.24v19.21h-4.41v-18.91c0-2.46-.56-4.29-1.68-5.51-1.12-1.22-2.84-1.83-5.15-1.83-3.26,0-5.56.92-6.89,2.77s-1.99,4.53-1.99,8.04v15.44h-4.46v-29.48h3.6l.67,4.25h.24c.63-1.04,1.43-1.91,2.39-2.62.97-.71,2.05-1.25,3.25-1.61s2.47-.55,3.79-.55Z"/>
    <path class="cls-1" d="M551.27,152.56c-2.65,0-4.99-.55-7.02-1.64-2.03-1.09-3.6-2.76-4.73-5s-1.69-5.07-1.69-8.47.6-6.49,1.79-8.75,2.84-3.95,4.94-5.04c2.1-1.09,4.48-1.64,7.15-1.64,1.47,0,2.89.15,4.26.44,1.37.3,2.5.67,3.38,1.12l-1.34,3.74c-.9-.36-1.93-.68-3.11-.97-1.17-.29-2.27-.43-3.29-.43-2.04,0-3.74.44-5.1,1.32-1.35.88-2.37,2.17-3.04,3.87-.67,1.7-1.01,3.8-1.01,6.29s.33,4.42.98,6.11c.65,1.69,1.63,2.97,2.93,3.86,1.3.89,2.93,1.33,4.88,1.33,1.56,0,2.97-.17,4.22-.5,1.25-.33,2.39-.72,3.42-1.17v3.98c-.99.5-2.08.89-3.29,1.16-1.21.27-2.65.4-4.32.4Z"/>
    <path class="cls-1" d="M577.2,122c2.51,0,4.66.56,6.46,1.67,1.79,1.11,3.17,2.67,4.12,4.67.95,2,1.43,4.33,1.43,7.01v2.77h-20.36c.05,3.46.92,6.1,2.58,7.91,1.67,1.81,4.02,2.72,7.05,2.72,1.86,0,3.51-.17,4.95-.51,1.43-.34,2.92-.84,4.47-1.51v3.93c-1.49.66-2.96,1.15-4.42,1.45-1.46.3-3.19.46-5.18.46-2.83,0-5.3-.58-7.41-1.74-2.11-1.16-3.74-2.86-4.91-5.1s-1.75-4.98-1.75-8.23.53-5.92,1.6-8.24c1.07-2.32,2.57-4.11,4.52-5.37,1.95-1.25,4.24-1.88,6.87-1.88ZM577.15,125.66c-2.38,0-4.29.78-5.7,2.34-1.42,1.56-2.26,3.74-2.53,6.54h15.6c-.02-1.76-.29-3.3-.82-4.64-.53-1.34-1.33-2.38-2.41-3.12-1.08-.74-2.46-1.12-4.14-1.12Z"/>
  </g>
</svg>
