<svg width="40" height="40" viewBox="0 0 40 40" fill="none" xmlns="http://www.w3.org/2000/svg">
<g clip-path="url(#clip0_2243_3585)">
<path d="M19.9978 39.5493C30.7958 39.5493 39.5493 30.7958 39.5493 19.9978C39.5493 9.1998 30.7958 0.446289 19.9978 0.446289C9.1998 0.446289 0.446289 9.1998 0.446289 19.9978C0.446289 30.7958 9.1998 39.5493 19.9978 39.5493Z" fill="white"/>
<path d="M20.0152 40V39.0987C20.6045 39.0987 21.1938 39.0727 21.7788 39.0164L21.8611 39.9133C21.2545 39.9697 20.6305 40 20.0152 40ZM18.1692 39.9177C17.5582 39.8613 16.9429 39.779 16.3406 39.6663L16.5053 38.7824C17.0816 38.8907 17.6666 38.9687 18.2515 39.0207L18.1692 39.9177ZM23.6897 39.662L23.5251 38.778C24.1014 38.6697 24.6777 38.5354 25.241 38.375L25.488 39.2417C24.8987 39.4107 24.2921 39.5537 23.6897 39.662ZM14.5423 39.246C13.953 39.077 13.3637 38.882 12.7917 38.661L13.1167 37.8204C13.6627 38.0327 14.226 38.219 14.7893 38.3794L14.5423 39.246ZM27.2387 38.648L26.9137 37.8074C27.4596 37.5951 28.0013 37.3567 28.5256 37.0924L28.9286 37.8984C28.3783 38.1714 27.8106 38.4227 27.2387 38.648ZM11.1017 37.9157C10.5514 37.6427 10.0098 37.3394 9.48976 37.0187L9.96208 36.2518C10.4604 36.5594 10.9804 36.8497 11.5047 37.1097L11.1017 37.9157ZM30.5362 37.0014L30.0596 36.2388C30.5579 35.9311 31.0476 35.5931 31.5155 35.2421L32.0572 35.9614C31.5675 36.3341 31.0562 36.6851 30.5362 37.0057V37.0014ZM7.96447 35.9744C7.47481 35.6061 6.99816 35.2075 6.54317 34.7958L7.14982 34.1285C7.58314 34.5228 8.04247 34.9041 8.50612 35.2551L7.96447 35.9744ZM33.4785 34.7741L32.8718 34.1111C33.3052 33.7168 33.7255 33.2965 34.1198 32.8632L34.7828 33.4698C34.3711 33.9248 33.9292 34.3625 33.4785 34.7741ZM5.23454 33.4915C4.81855 33.0365 4.42422 32.5599 4.05157 32.0745L4.76655 31.5329C5.12187 32.0009 5.49886 32.4559 5.89752 32.8892L5.23454 33.4958V33.4915ZM35.9658 32.0485L35.2465 31.5069C35.6018 31.0389 35.9354 30.5492 36.2431 30.0509L37.0057 30.5232C36.6851 31.0432 36.3298 31.5545 35.9614 32.0442L35.9658 32.0485ZM3.00726 30.5492C2.68227 30.0293 2.37894 29.4876 2.10595 28.9373L2.91193 28.5343C3.17192 29.0586 3.46225 29.5743 3.77424 30.0726L3.01159 30.5492H3.00726ZM37.9071 28.9113L37.1011 28.5083C37.3611 27.984 37.6037 27.4423 37.8161 26.8963L38.6567 27.2213C38.4357 27.7933 38.1844 28.361 37.9114 28.9113H37.9071ZM1.3563 27.2517C1.13531 26.6797 0.935977 26.0903 0.766981 25.501L1.63363 25.254C1.79396 25.8174 1.98462 26.3807 2.19695 26.9267L1.3563 27.2517ZM39.2417 25.4707L38.375 25.2237C38.5354 24.6604 38.6697 24.0841 38.778 23.5077L39.662 23.6724C39.5493 24.2747 39.4063 24.8814 39.2417 25.4707ZM0.342325 23.7027C0.229661 23.1004 0.142996 22.4851 0.0866645 21.8741L0.983642 21.7918C1.03997 22.3768 1.11797 22.9618 1.2263 23.5381L0.342325 23.7027ZM39.9177 21.8438L39.0207 21.7615C39.0727 21.1808 39.0987 20.5872 39.0987 19.9978V19.9415H40V19.9978C40 20.6175 39.974 21.2371 39.9177 21.8438ZM0 20.0282V19.9978C0 19.3912 0.0259994 18.7802 0.0823313 18.1822L0.979309 18.2645C0.92731 18.8365 0.901311 19.4215 0.901311 19.9978L0 20.0282ZM39.0164 18.1822C38.96 17.5972 38.8777 17.0122 38.7694 16.4359L39.6533 16.2669C39.766 16.8692 39.8527 17.4846 39.9133 18.0955L39.0164 18.1822ZM1.21764 16.5183L0.333658 16.3536C0.446322 15.7513 0.584985 15.1446 0.753981 14.5553L1.62063 14.798C1.4603 15.3613 1.32597 15.9376 1.22197 16.5139L1.21764 16.5183ZM38.362 14.72C38.2017 14.1566 38.0111 13.5933 37.7987 13.0473L38.635 12.718C38.8604 13.29 39.0554 13.8793 39.2287 14.4686L38.362 14.7156V14.72ZM2.17095 13.1297L1.3303 12.8047C1.55129 12.2327 1.80262 11.665 2.07561 11.1147L2.88159 11.5134C2.6216 12.0377 2.38327 12.5794 2.17095 13.1253V13.1297ZM37.0794 11.4397C36.8151 10.9154 36.5248 10.3997 36.2171 9.90142L36.9797 9.42476C37.3047 9.94475 37.6081 10.4864 37.8854 11.0367L37.0794 11.4397ZM3.73957 9.97075L2.97259 9.49843C3.29325 8.97844 3.64424 8.46279 4.0169 7.97313L4.73622 8.51479C4.38522 8.98278 4.04723 9.47243 3.73957 9.97075ZM35.2118 8.44979C34.8565 7.9818 34.4751 7.52681 34.0808 7.09782L34.7438 6.49117C35.1598 6.94183 35.5584 7.41848 35.9268 7.90814L35.2118 8.45412V8.44979ZM5.86285 7.15849L5.19554 6.55184C5.60719 6.09685 6.04485 5.65919 6.49984 5.2432L7.10649 5.90619C6.67317 6.30051 6.25718 6.72083 5.86285 7.15415V7.15849ZM32.8328 5.84985C32.3995 5.45553 31.9402 5.07854 31.4722 4.72755L32.0139 4.00823C32.5035 4.37656 32.9845 4.77088 33.4352 5.18687L32.8285 5.85419L32.8328 5.84985ZM8.46279 4.77955L7.9168 4.06457C8.40646 3.69191 8.91778 3.34092 9.43777 3.01592L9.91442 3.77857C9.4161 4.08623 8.93078 4.42422 8.46279 4.77955ZM30.0162 3.73091C29.5179 3.42325 28.9979 3.13725 28.4736 2.87726L28.8723 2.07128C29.4226 2.34427 29.9643 2.64327 30.4886 2.96826L30.0162 3.73524V3.73091ZM11.4527 2.91626L11.0497 2.11028C11.6 1.83729 12.1677 1.58163 12.7353 1.36063L13.0647 2.19695C12.5187 2.40927 11.977 2.65193 11.4527 2.91193V2.91626ZM26.8573 2.16661C26.3113 1.95428 25.748 1.76796 25.1847 1.61196L25.4274 0.745315C26.0167 0.909977 26.606 1.10931 27.178 1.32597L26.853 2.16661H26.8573ZM14.733 1.63363L14.486 0.766981C15.0753 0.597985 15.6819 0.454989 16.2843 0.342325L16.4489 1.2263C15.8726 1.33463 15.2963 1.46896 14.733 1.63363ZM23.4687 1.2133C22.8924 1.10931 22.3074 1.02697 21.7225 0.974976L21.8005 0.0779981C22.4114 0.13433 23.0268 0.216661 23.6291 0.324992L23.4687 1.20897V1.2133ZM18.1952 0.983642L18.1129 0.0866645C18.7239 0.0303326 19.3435 0 19.9588 0V0.901311C19.3738 0.901311 18.7802 0.931643 18.1995 0.983642H18.1952Z" fill="#8CB0C0"/>
<path d="M9.94463 18.633C9.70197 18.3557 9.40298 18.2344 9.06499 18.178C8.80066 18.1347 8.532 18.0957 8.28067 18.009C7.91235 17.8834 7.80835 17.5194 8.02068 17.1944C8.30234 16.7611 9.29031 16.3364 9.80164 16.4317C10.0833 16.4837 10.235 16.6571 10.261 16.9387C10.2783 17.1467 10.2826 17.3634 10.3216 17.567C10.3563 17.7577 10.4256 17.944 10.495 18.1824C10.8893 17.8574 11.2663 17.6364 11.4006 17.151C11.7126 16.0634 12.1112 15.0061 12.6702 14.0181C12.6832 13.9921 12.7006 13.9705 12.7136 13.9445C13.1339 13.1125 13.7579 12.6532 14.7328 12.5708C17.1898 12.3628 19.6467 12.2588 22.1123 12.3585C23.3733 12.4105 24.6343 12.5362 25.8952 12.5968C26.7272 12.6358 27.2732 13.0561 27.6849 13.7495C28.2915 14.7721 28.7422 15.8554 29.0585 16.9951C29.2058 17.5237 29.5481 17.8357 30.0031 18.165C30.0681 17.9874 30.1505 17.84 30.1765 17.6797C30.2198 17.4457 30.2285 17.203 30.2501 16.9647C30.2848 16.6094 30.4755 16.4101 30.8308 16.4231C31.4201 16.4447 31.9661 16.6311 32.3864 17.0644C32.7677 17.4544 32.6464 17.9007 32.1264 18.0524C31.9054 18.1174 31.6758 18.1477 31.4504 18.1824C31.1124 18.2344 30.8134 18.3557 30.5665 18.6373C30.6921 18.7457 30.7961 18.841 30.9088 18.9277C32.1524 19.8506 32.7071 21.1246 32.7244 22.6326C32.7504 24.4612 32.7157 26.2898 32.7027 28.1228C32.7027 28.4478 32.6984 28.7728 32.6724 29.0977C32.6594 29.2884 32.6161 29.4791 32.5641 29.6611C32.3821 30.2677 32.0571 30.4974 31.4244 30.5017C31.0041 30.5017 30.5794 30.519 30.1591 30.4974C29.5265 30.4584 28.9848 30.2417 28.6512 29.6524C28.6165 29.5917 28.5255 29.5527 28.4562 29.5267C28.3955 29.5051 28.3218 29.5224 28.2568 29.5224C22.9183 29.5224 17.5841 29.5224 12.2456 29.5224C12.0289 29.5224 11.8946 29.5614 11.7646 29.7737C11.4613 30.2721 10.9543 30.467 10.3996 30.4974C9.89263 30.5277 9.38565 30.5104 8.87866 30.5017C8.506 30.4974 8.21567 30.3111 8.08568 29.9774C7.95135 29.6264 7.82568 29.2451 7.82135 28.8724C7.78669 26.7925 7.76069 24.7169 7.78669 22.6369C7.80402 21.1463 8.35001 19.8723 9.58497 18.9537C9.66297 18.8973 9.7323 18.8323 9.80597 18.7717C9.8493 18.737 9.8883 18.6937 9.9403 18.6417L9.94463 18.633ZM28.2698 17.7924C28.4865 17.7794 28.5905 17.6624 28.5255 17.4457C28.1268 16.1761 27.7195 14.9108 27.0869 13.7278C26.9699 13.5111 26.8139 13.4071 26.5625 13.3985C25.5486 13.3638 24.5346 13.3118 23.5206 13.2685C20.3877 13.1298 17.2591 13.2381 14.1305 13.3811C13.7319 13.3985 13.4805 13.5415 13.3419 13.9055C12.8956 15.0754 12.4492 16.2454 12.0072 17.4154C11.9249 17.6364 12.0159 17.7664 12.2499 17.788C12.6486 17.827 13.0516 17.892 13.4502 17.892C15.7122 17.9007 27.5462 17.8357 28.2698 17.7837V17.7924ZM20.2577 24.0062C18.6024 24.0062 16.9428 24.0062 15.2875 24.0062C14.7198 24.0062 14.4382 24.3009 14.4642 24.8642C14.5205 26.0905 15.4002 27.0438 16.6091 27.1781C16.8735 27.2085 17.1465 27.1955 17.4108 27.1955C19.4691 27.1955 21.5317 27.1998 23.59 27.1955C24.9506 27.1955 25.9906 26.2075 26.0512 24.8902C26.0772 24.2879 25.8086 24.0019 25.1976 24.0019C23.551 24.0019 21.9043 24.0019 20.2534 24.0019L20.2577 24.0062ZM11.9076 23.9975C12.0506 23.9975 12.1936 24.0105 12.3366 23.9975C12.7439 23.9585 13.0906 23.7895 13.3462 23.4646C13.6105 23.1309 13.5889 22.8622 13.2465 22.6066C12.8826 22.3336 12.5142 22.0519 12.1112 21.8353C11.3356 21.4193 10.5469 21.038 9.74964 20.6696C9.33365 20.479 8.95232 20.6046 8.80066 20.9166C8.38467 21.7876 8.649 22.7799 9.45064 23.3259C10.1916 23.8285 11.0279 23.9802 11.9032 24.0019L11.9076 23.9975ZM28.5428 24.0062C29.5698 23.9932 30.4278 23.7549 31.0431 23.3346C31.7754 22.8362 32.0657 22.0173 31.8058 21.1723C31.6411 20.635 31.2988 20.4486 30.7788 20.6566C29.5351 21.1593 28.3392 21.7529 27.2732 22.5849C26.9135 22.8666 26.8962 23.1699 27.2082 23.5122C27.5895 23.9282 28.0748 24.0452 28.5428 24.0019V24.0062ZM27.4249 28.4218C27.3642 28.0578 27.2255 27.9668 26.7835 27.9668C22.433 27.9668 18.0824 27.9668 13.7362 27.9668C13.6495 27.9668 13.5629 27.9668 13.4805 27.9798C13.2552 28.0318 13.1079 28.1531 13.0906 28.4218H27.4292H27.4249ZM11.9812 27.1175C11.9812 26.7405 11.6693 26.4198 11.2923 26.4198C10.9109 26.4198 10.5989 26.7318 10.5989 27.1131C10.5989 27.4988 10.8979 27.8064 11.2879 27.8064C11.6736 27.8064 11.9812 27.5031 11.9856 27.1175H11.9812ZM29.9251 27.1088C29.9251 26.7275 29.6088 26.4155 29.2318 26.4198C28.8548 26.4198 28.5385 26.7405 28.5428 27.1175C28.5428 27.5031 28.8548 27.8064 29.2405 27.8021C29.6261 27.8021 29.9295 27.4945 29.9295 27.1088H29.9251Z" fill="#203570"/>
<path d="M9.77148 11.5827C9.78015 7.63946 12.9954 4.46321 16.956 4.48054C20.8689 4.49787 24.0408 7.70446 24.0321 11.6347C24.0235 15.5736 20.8039 18.7585 16.8476 18.7369C12.9347 18.7152 9.76715 15.5129 9.77582 11.5784L9.77148 11.5827Z" fill="white"/>
<path d="M11.0237 11.5872C11.0324 8.33726 13.68 5.71566 16.9472 5.733C20.1755 5.75033 22.7884 8.3936 22.7797 11.6305C22.7711 14.8804 20.1148 17.502 16.8562 17.4847C13.628 17.4674 11.0194 14.8241 11.0237 11.5828V11.5872ZM21.3064 11.6088C21.3064 9.18224 19.3261 7.20196 16.8995 7.20629C14.4686 7.20629 12.4927 9.18658 12.497 11.6132C12.497 14.0398 14.4773 16.0201 16.9039 16.0201C19.3305 16.0201 21.3108 14.0355 21.3108 11.6132L21.3064 11.6088Z" fill="#0091FF"/>
<path d="M21.3065 11.609C21.3065 14.0356 19.3262 16.0159 16.8996 16.0159C14.473 16.0159 12.4927 14.04 12.4927 11.609C12.4927 9.1781 14.4686 7.20215 16.8952 7.20215C19.3218 7.20215 21.3021 9.1781 21.3021 11.6047L21.3065 11.609ZM17.3502 12.3544C16.7912 12.883 16.3232 13.3293 15.8856 13.741C16.2669 14.1353 16.5876 14.469 16.9256 14.82C17.8269 13.9186 18.7325 13.0303 19.6165 12.129C19.8938 11.843 19.9588 11.466 19.6772 11.1757C18.7672 10.2354 17.8182 9.32976 16.9299 8.45445C16.5789 8.77944 16.2366 9.09577 15.7773 9.52476C16.2582 9.98841 16.7176 10.4347 17.1986 10.8984H13.9876V12.3587H17.3459L17.3502 12.3544Z" fill="white"/>
<path d="M15.1448 12.3282C14.8458 12.3282 14.5468 12.3282 14.2478 12.3282C14.1351 12.3282 14.0918 12.2936 14.0918 12.1766C14.0961 11.7996 14.0961 11.4226 14.0918 11.0499C14.0918 10.9243 14.1395 10.8896 14.2565 10.8896C14.8371 10.8939 15.4178 10.8896 15.9984 10.8939C16.1631 10.8939 16.2194 10.8593 16.2151 10.6859C16.2021 10.1096 16.2151 9.53331 16.2064 8.96132C16.2064 8.82266 16.2411 8.762 16.3927 8.76633C16.7481 8.775 17.0991 8.775 17.4544 8.76633C17.593 8.76633 17.6364 8.81399 17.6364 8.94832C17.632 9.52464 17.6364 10.101 17.6364 10.6729C17.6364 10.8896 17.6364 10.8896 17.8617 10.8896C18.4207 10.8896 18.9797 10.8939 19.5387 10.8896C19.699 10.8896 19.7683 10.9286 19.7597 11.1019C19.7467 11.4486 19.751 11.7996 19.7597 12.1462C19.7597 12.2849 19.7163 12.3282 19.5777 12.3282C18.997 12.3239 18.4164 12.3282 17.8357 12.3239C17.684 12.3239 17.632 12.3672 17.6364 12.5189C17.645 13.0996 17.6364 13.6802 17.6407 14.2609C17.6407 14.4082 17.5887 14.4559 17.45 14.4515C17.0947 14.4472 16.7437 14.4429 16.3884 14.4515C16.2454 14.4515 16.2107 14.3995 16.2107 14.2652C16.2151 13.6889 16.2107 13.1126 16.2107 12.5406C16.2107 12.3239 16.2107 12.3239 15.9898 12.3239C15.7081 12.3239 15.4264 12.3239 15.1448 12.3239V12.3282Z" fill="#0091FF"/>
</g>
<defs>
<clipPath id="clip0_2243_3585">
<rect width="40" height="40" fill="white"/>
</clipPath>
</defs>
</svg>
