<svg width="40" height="40" viewBox="0 0 40 40" fill="none" xmlns="http://www.w3.org/2000/svg">
<g clip-path="url(#clip0_2243_3556)">
<path d="M20 39.5503C30.7975 39.5503 39.5506 30.7973 39.5506 19.9998C39.5506 9.2023 30.7975 0.449219 20 0.449219C9.20255 0.449219 0.449463 9.2023 0.449463 19.9998C0.449463 30.7973 9.20255 39.5503 20 39.5503Z" fill="white"/>
<path d="M20.0173 40.0001V39.1012C20.605 39.1012 21.1971 39.0753 21.7805 39.0191L21.8626 39.9136C21.2532 39.9698 20.6353 40.0001 20.0173 40.0001ZM18.172 39.918C17.5583 39.8618 16.9447 39.7797 16.344 39.6673L16.5082 38.7814C17.083 38.8894 17.6707 38.9672 18.2541 39.0234L18.172 39.918ZM23.6863 39.663L23.522 38.7771C24.0968 38.669 24.6759 38.5351 25.2377 38.3752L25.484 39.2395C24.892 39.408 24.2869 39.5506 23.6863 39.663ZM14.5419 39.2481C13.9542 39.0796 13.3621 38.8851 12.7917 38.6647L13.1158 37.8263C13.6646 38.0381 14.2264 38.2239 14.7882 38.3838L14.5419 39.2481ZM27.2385 38.6518L26.9144 37.8134C27.4589 37.6016 28.0035 37.3596 28.5264 37.1003L28.9283 37.9041C28.3794 38.1764 27.8133 38.4314 27.2385 38.6518ZM11.102 37.9171C10.5532 37.6448 10.0086 37.3423 9.49006 37.0182L9.96543 36.2533C10.4624 36.5601 10.981 36.8497 11.5082 37.1133L11.1063 37.9171H11.102ZM30.5402 37.0009L30.0648 36.236C30.5618 35.9292 31.0501 35.5921 31.5169 35.2378L32.0614 35.9551C31.573 36.3268 31.0588 36.6768 30.5402 37.0009ZM7.96456 35.9724C7.47623 35.6051 6.99654 35.2075 6.54278 34.7926L7.1478 34.1271C7.57995 34.5204 8.03803 34.9007 8.50475 35.255L7.96456 35.9724ZM33.4788 34.7754L32.8738 34.1098C33.306 33.7166 33.7252 33.2931 34.1227 32.8609L34.7882 33.4659C34.3734 33.9197 33.9369 34.3605 33.4831 34.771L33.4788 34.7754ZM5.23336 33.4919C4.8185 33.0381 4.42092 32.5627 4.04927 32.0744L4.76664 31.5299C5.121 31.9966 5.5013 32.4504 5.89456 32.8868L5.22904 33.4962L5.23336 33.4919ZM35.9637 32.0485L35.2463 31.504C35.6007 31.0372 35.9378 30.5446 36.2446 30.0476L37.0095 30.523C36.6854 31.0416 36.3354 31.5558 35.9637 32.0442V32.0485ZM3.00778 30.5489C2.68366 30.026 2.38116 29.4858 2.10458 28.937L2.90838 28.5351C3.172 29.058 3.46154 29.5766 3.76837 30.0735L3.00346 30.5489H3.00778ZM37.9084 28.911L37.1046 28.5091C37.3639 27.9862 37.6059 27.4417 37.8176 26.8972L38.656 27.2213C38.4356 27.7918 38.185 28.3622 37.9084 28.911ZM1.35696 27.2516C1.13656 26.6811 0.93777 26.0934 0.769231 25.5014L1.63354 25.255C1.79343 25.8168 1.98358 26.383 2.19533 26.9275L1.35696 27.2559V27.2516ZM39.2437 25.4711L38.3794 25.2248C38.5393 24.663 38.6733 24.0839 38.7813 23.5091L39.6672 23.6734C39.5549 24.2741 39.4123 24.8791 39.2481 25.4711H39.2437ZM0.3414 23.7036C0.229041 23.1029 0.14261 22.4849 0.0864304 21.8756L0.980985 21.7935C1.03717 22.3769 1.11927 22.9646 1.22299 23.5394L0.337079 23.7036H0.3414ZM39.9179 21.8454L39.0233 21.7633C39.0752 21.1842 39.1054 20.5878 39.1054 20.0001V19.9396H40.0043V19.9958C40.0043 20.6137 39.9741 21.236 39.9222 21.841L39.9179 21.8454ZM0.272256 20.0217L0 20.0087C0 19.3951 0.0259291 18.7857 0.0821089 18.1894L0.976664 18.2715C0.924806 18.8419 0.898876 19.4253 0.898876 20.0044L0.272256 20.026V20.0217ZM39.0147 18.1807C38.9585 17.5973 38.8764 17.0096 38.7684 16.4348L39.6543 16.2663C39.7666 16.867 39.8531 17.4806 39.9136 18.0943L39.019 18.1807H39.0147ZM1.21435 16.5212L0.328436 16.357C0.440795 15.752 0.579084 15.147 0.747623 14.5593L1.61193 14.8056C1.45203 15.3674 1.31806 15.9465 1.21435 16.5212ZM38.3621 14.7192C38.2022 14.1574 38.0121 13.5956 37.796 13.0467L38.6344 12.7183C38.8591 13.2888 39.0579 13.8765 39.2264 14.4685L38.3621 14.7149V14.7192ZM2.17373 13.1289L1.33535 12.8047C1.55575 12.2343 1.8064 11.6639 2.07865 11.115L2.88245 11.5169C2.62316 12.0398 2.38116 12.5843 2.17373 13.1332V13.1289ZM37.0787 11.4391C36.815 10.9162 36.5255 10.3977 36.2143 9.90068L36.9793 9.42531C37.3034 9.94389 37.6102 10.4884 37.8825 11.0372L37.0787 11.4391ZM3.74244 9.97414L2.97753 9.5031C3.29732 8.98019 3.65169 8.47025 4.01901 7.9776L4.73639 8.51779C4.38202 8.98452 4.04927 9.47717 3.74244 9.97414ZM35.2161 8.44865C34.8617 7.98192 34.4814 7.52816 34.0838 7.09601L34.745 6.48668C35.1599 6.94044 35.5575 7.4158 35.9291 7.90414L35.2118 8.44865H35.2161ZM5.85998 7.15651L5.19447 6.5515C5.60501 6.09774 6.04581 5.65694 6.49957 5.24208L7.1089 5.90759C6.67675 6.30517 6.25756 6.72436 5.8643 7.15651H5.85998ZM32.8306 5.85141C32.3984 5.45815 31.9404 5.07786 31.4693 4.72782L32.0095 4.01044C32.4978 4.37777 32.9775 4.77535 33.4313 5.1859L32.8263 5.85141H32.8306ZM8.46154 4.77968L7.91703 4.0623C8.40536 3.69065 8.91962 3.34061 9.4382 3.01649L9.91357 3.7814C9.4166 4.09255 8.92826 4.42963 8.46154 4.784V4.77968ZM30.0173 3.73387C29.5203 3.42704 29.0017 3.1375 28.4745 2.87821L28.8764 2.07008C29.4252 2.34234 29.9697 2.64484 30.4927 2.96464L30.0216 3.72955L30.0173 3.73387ZM11.452 2.9171L11.0501 2.1133C11.599 1.83672 12.1651 1.58607 12.7355 1.36135L13.064 2.19973C12.5194 2.41148 11.9749 2.65349 11.452 2.9171ZM26.8583 2.16948C26.3094 1.95772 25.7476 1.7719 25.1858 1.612L25.4278 0.747696C26.0199 0.911914 26.6076 1.1107 27.1824 1.3311L26.8583 2.16948ZM14.7321 1.63361L14.4857 0.769304C15.0778 0.600764 15.6785 0.458154 16.2835 0.345795L16.4477 1.23171C15.8729 1.33974 15.2939 1.47803 14.7321 1.63793V1.63361ZM23.4659 1.21442C22.8911 1.1107 22.3034 1.0286 21.72 0.976737L21.8021 0.0821819C22.4157 0.138362 23.0294 0.220471 23.6301 0.33283L23.4659 1.21874V1.21442ZM18.1936 0.98538L18.1115 0.090825C18.7208 0.0346452 19.3431 0.00439453 19.9568 0.00439453V0.903271C19.3734 0.903271 18.7813 0.933522 18.1979 0.98538H18.1936Z" fill="#8CB0C0"/>
<path d="M21.7027 8.29302C21.5342 8.28438 21.3657 8.26709 21.1928 8.26709C21.1755 8.26709 21.1582 8.26709 21.1366 8.26709C20.9076 8.26709 20.6872 8.28438 20.4625 8.30166C20.2766 8.31895 20.0951 8.34056 19.9093 8.36216C19.905 8.36216 19.9007 8.36216 19.8963 8.36216C19.637 8.39674 19.3778 8.44427 19.1271 8.50045C19.0277 8.52206 18.9283 8.55231 18.8289 8.57824C18.6733 8.61713 18.5178 8.66035 18.3665 8.70789C18.1591 8.77703 17.9517 8.8505 17.7529 8.9326C17.7097 8.94989 17.6664 8.96286 17.6275 8.98014C15.752 9.76666 14.2265 11.1625 13.2801 12.9084C12.567 14.2005 12.1565 15.6828 12.1565 17.2645C12.1565 22.2386 16.1885 26.2662 21.1582 26.2662C26.128 26.2662 30.16 22.2342 30.16 17.2645C30.16 12.2947 26.4175 8.5696 21.7027 8.2887V8.29302ZM19.8272 12.204C19.8877 12.1954 19.9482 12.1867 20.0433 12.1694C20.2161 10.5748 20.4063 10.2247 21.0761 10.2247C21.7719 10.2247 21.9923 10.631 22.0917 11.962C22.822 12.3466 23.5264 12.6189 24.1098 13.0553C24.7451 13.5264 25.0001 14.2697 25.0217 15.0648C25.0346 15.6612 24.6673 16.089 24.1401 16.1409C23.6172 16.1928 23.1677 15.8254 23.0597 15.2593C22.8912 14.3907 22.6535 14.1833 21.7935 14.1789C21.2403 14.1789 20.6829 14.1573 20.1297 14.1789C19.529 14.2049 19.1314 14.5938 19.1185 15.1297C19.1012 15.6785 19.5204 16.1107 20.1383 16.1366C20.7131 16.1582 21.2879 16.1366 21.8626 16.1366C23.5999 16.1409 24.9136 17.2731 25.026 18.8635C25.1427 20.4884 24.058 21.7718 22.3337 22.0527C22.2732 22.0614 22.2127 22.07 22.1003 22.0873C21.9793 22.8479 22.3596 24.045 21.0286 23.9931C19.8574 23.9456 20.147 22.8825 20.0822 22.1046C18.5221 21.9101 17.4936 21.1193 17.1738 19.5463C17.0701 19.0363 17.1349 18.5523 17.6362 18.2498C18.2239 17.8954 18.9499 18.2412 19.1055 18.9412C19.3302 19.9525 19.4858 20.0778 20.5057 20.0778C21.0199 20.0778 21.5342 20.0951 22.0485 20.0778C22.6319 20.0562 23.0467 19.6457 23.0597 19.1228C23.077 18.5653 22.6621 18.1374 22.0398 18.1158C21.4434 18.0942 20.8471 18.1158 20.2507 18.1158C18.5567 18.0985 17.2602 16.9577 17.1522 15.389C17.0398 13.7597 18.1245 12.4676 19.8358 12.1997L19.8272 12.204Z" fill="#0091FF"/>
<path d="M32.956 24.516C32.7961 23.7382 32.0874 23.1375 31.3052 23.1245C30.9465 23.1245 30.5403 23.2239 30.1859 23.4227C29.4426 23.8419 28.7036 24.2654 27.9646 24.6932L27.9041 24.7278C27.1738 25.147 26.4478 25.5662 25.7131 25.981C25.4754 26.115 25.2464 26.2706 25.0606 26.491C24.8531 25.9854 24.4167 25.6007 23.8246 25.4408L23.0381 25.2291C20.7736 24.6154 18.4314 23.9845 16.1237 23.3838C15.6224 23.2542 15.0649 23.2369 14.5939 23.3319C13.8462 23.4875 13.0943 23.6777 12.3251 23.8765C12.0355 23.9499 11.746 24.0277 11.4564 24.1012L11.3484 24.1271V24.1141H8.61719V30.994H11.3181C11.3441 31.0113 11.3657 31.0372 11.3959 31.0545C11.5083 31.1107 11.6163 31.1669 11.7244 31.223C12.3856 31.5644 13.1332 31.9491 14.0969 31.9491C16.3959 31.9318 18.7123 31.9361 20.9551 31.9404H21.5904C22.2818 31.9404 22.9128 31.7719 23.5048 31.4262C24.0407 31.1107 24.5809 30.8039 25.1168 30.4927L27.822 28.9283C29.2308 28.1115 30.644 27.2991 32.0528 26.4823C32.7572 26.0761 33.1072 25.3026 32.9517 24.5204L32.956 24.516ZM10.389 30.0346H9.58089V25.0778H10.389V30.0346ZM31.5774 25.6483C30.1686 26.465 28.7598 27.2775 27.351 28.0943L24.6457 29.6587C24.1055 29.9698 23.5653 30.281 23.0295 30.5964C22.5843 30.8557 22.1176 30.981 21.5904 30.981H20.9681C18.7252 30.9724 16.4089 30.9681 14.0796 30.9897C13.3795 30.9897 12.7961 30.6872 12.1781 30.3717C12.0744 30.3198 11.975 30.268 11.8713 30.2161C11.867 30.1988 11.8627 30.1729 11.8627 30.1599C11.8627 28.6733 11.8627 27.1824 11.8627 25.6742V25.0044C12.109 24.9439 12.3553 24.8791 12.6362 24.8056C13.3493 24.6198 14.0882 24.4296 14.8099 24.2827C15.1384 24.2135 15.5403 24.2308 15.9033 24.3216C18.2066 24.9223 20.5489 25.5532 22.8263 26.1669L23.5956 26.3743C23.9888 26.478 24.2179 26.7373 24.2438 27.1046C24.2697 27.4979 24.0969 27.809 23.7857 27.9171C23.5697 27.9949 23.3147 28.0122 23.1202 27.9603C21.6466 27.58 20.1729 27.1824 18.6993 26.7848L17.0787 26.3484C16.8324 26.2879 16.612 26.3138 16.4348 26.4218C16.3268 26.4867 16.1842 26.6206 16.128 26.8626C16.0286 27.2732 16.2576 27.6189 16.7071 27.7399C17.4547 27.943 18.2023 28.1418 18.9499 28.3406L20.1729 28.669C21.0718 28.911 21.9707 29.153 22.8739 29.3778C23.5135 29.5377 24.1833 29.4253 24.7192 29.0623C25.2248 28.7166 25.5489 28.1937 25.631 27.5886C25.6872 27.1738 25.8557 27.0182 26.2101 26.8151C26.9448 26.4002 27.6751 25.981 28.4054 25.5575L28.4659 25.523C29.2006 25.0994 29.9396 24.6759 30.6786 24.2568C30.8817 24.1444 31.1107 24.0882 31.3052 24.0839C31.6423 24.0882 31.962 24.3605 32.0312 24.7062C32.109 25.0908 31.9448 25.4408 31.5947 25.644L31.5774 25.6483Z" fill="white"/>
<path d="M32.4852 24.6111C32.3685 24.0493 31.8585 23.6128 31.2967 23.6042C31.0115 23.5998 30.6961 23.6863 30.4238 23.8375C29.6632 24.2654 28.9069 24.7018 28.1464 25.1383C27.416 25.5575 26.6857 25.981 25.951 26.3915C25.5059 26.6422 25.212 26.9188 25.1299 27.5195C25.0651 27.9905 24.8145 28.3924 24.4255 28.6603C24.0063 28.9456 23.4791 29.032 22.9692 28.9067C22.0444 28.6776 21.1282 28.427 20.2077 28.1806L19.0539 27.8695C18.3063 27.6707 17.5586 27.4719 16.811 27.2688C16.5215 27.191 16.556 27.0311 16.5733 26.962C16.5906 26.8972 16.6165 26.8496 16.6641 26.8237C16.7289 26.7848 16.8283 26.7805 16.9407 26.8064L18.5483 27.2386C20.0219 27.6361 21.4955 28.0337 22.9735 28.414C23.2587 28.4875 23.6131 28.4659 23.9199 28.3578C24.4342 28.1763 24.741 27.6621 24.6978 27.0571C24.6589 26.4909 24.2829 26.0545 23.6952 25.8989L22.9303 25.6915C20.6226 25.0692 18.3149 24.4425 16.0029 23.8418C15.5707 23.7295 15.0954 23.7122 14.6935 23.7943C13.9458 23.9499 13.1939 24.1443 12.4636 24.3302C12.1697 24.408 11.8715 24.4814 11.5733 24.5592L11.3616 24.6111V25.6569C11.3616 27.1651 11.3616 28.656 11.3616 30.1426C11.3616 30.2723 11.4134 30.5186 11.6036 30.6137C11.7159 30.6698 11.8283 30.726 11.9407 30.7822C12.5846 31.115 13.2458 31.4564 14.0625 31.4564H14.0885C16.3745 31.4348 18.6995 31.4434 20.951 31.4477H21.5733C21.5733 31.4477 21.582 31.4477 21.5863 31.4477C22.1913 31.4477 22.7401 31.3008 23.2587 30.994C23.7946 30.6785 24.3348 30.3717 24.875 30.0605L26.9925 28.8375C28.6001 27.9084 30.2077 26.9793 31.811 26.0501C32.3426 25.7433 32.5975 25.1858 32.4765 24.5981L32.4852 24.6111Z" fill="#203570"/>
<path d="M10.8731 24.5938H9.10132V30.5099H10.8731V24.5938Z" fill="#203570"/>
</g>
<defs>
<clipPath id="clip0_2243_3556">
<rect width="40" height="40" fill="white"/>
</clipPath>
</defs>
</svg>
