<svg width="40" height="40" viewBox="0 0 40 40" fill="none" xmlns="http://www.w3.org/2000/svg">
<g clip-path="url(#clip0_2243_3570)">
<path d="M19.9978 39.5493C30.7958 39.5493 39.5493 30.7958 39.5493 19.9978C39.5493 9.1998 30.7958 0.446289 19.9978 0.446289C9.1998 0.446289 0.446289 9.1998 0.446289 19.9978C0.446289 30.7958 9.1998 39.5493 19.9978 39.5493Z" fill="white"/>
<path d="M20.0152 40V39.0987C20.6045 39.0987 21.1938 39.0727 21.7788 39.0164L21.8611 39.9133C21.2545 39.9697 20.6305 40 20.0152 40ZM18.1692 39.9177C17.5582 39.8613 16.9429 39.779 16.3406 39.6663L16.5053 38.7824C17.0816 38.8907 17.6666 38.9687 18.2515 39.0207L18.1692 39.9177ZM23.6897 39.662L23.5251 38.778C24.1014 38.6697 24.6777 38.5354 25.241 38.375L25.488 39.2417C24.8987 39.4107 24.2921 39.5537 23.6897 39.662ZM14.5423 39.246C13.953 39.077 13.3637 38.882 12.7917 38.661L13.1167 37.8204C13.6627 38.0327 14.226 38.219 14.7893 38.3794L14.5423 39.246ZM27.2387 38.648L26.9137 37.8074C27.4596 37.5951 28.0013 37.3567 28.5256 37.0924L28.9286 37.8984C28.3783 38.1714 27.8106 38.4227 27.2387 38.648ZM11.1017 37.9157C10.5514 37.6427 10.0098 37.3394 9.48976 37.0187L9.96208 36.2518C10.4604 36.5594 10.9804 36.8497 11.5047 37.1097L11.1017 37.9157ZM30.5362 37.0014L30.0596 36.2388C30.5579 35.9311 31.0476 35.5931 31.5155 35.2421L32.0572 35.9614C31.5675 36.3341 31.0562 36.6851 30.5362 37.0057V37.0014ZM7.96447 35.9744C7.47481 35.6061 6.99816 35.2075 6.54317 34.7958L7.14982 34.1285C7.58314 34.5228 8.04247 34.9041 8.50612 35.2551L7.96447 35.9744ZM33.4785 34.7741L32.8718 34.1111C33.3052 33.7168 33.7255 33.2965 34.1198 32.8632L34.7828 33.4698C34.3711 33.9248 33.9292 34.3625 33.4785 34.7741ZM5.23454 33.4915C4.81855 33.0365 4.42422 32.5599 4.05157 32.0745L4.76655 31.5329C5.12187 32.0009 5.49886 32.4559 5.89752 32.8892L5.23454 33.4958V33.4915ZM35.9658 32.0485L35.2465 31.5069C35.6018 31.0389 35.9354 30.5492 36.2431 30.0509L37.0057 30.5232C36.6851 31.0432 36.3298 31.5545 35.9614 32.0442L35.9658 32.0485ZM3.00726 30.5492C2.68227 30.0293 2.37894 29.4876 2.10595 28.9373L2.91193 28.5343C3.17192 29.0586 3.46225 29.5743 3.77424 30.0726L3.01159 30.5492H3.00726ZM37.9071 28.9113L37.1011 28.5083C37.3611 27.984 37.6037 27.4423 37.8161 26.8963L38.6567 27.2213C38.4357 27.7933 38.1844 28.361 37.9114 28.9113H37.9071ZM1.3563 27.2517C1.13531 26.6797 0.935977 26.0903 0.766981 25.501L1.63363 25.254C1.79396 25.8174 1.98462 26.3807 2.19695 26.9267L1.3563 27.2517ZM39.2417 25.4707L38.375 25.2237C38.5354 24.6604 38.6697 24.0841 38.778 23.5077L39.662 23.6724C39.5493 24.2747 39.4063 24.8814 39.2417 25.4707ZM0.342325 23.7027C0.229661 23.1004 0.142996 22.4851 0.0866645 21.8741L0.983642 21.7918C1.03997 22.3768 1.11797 22.9618 1.2263 23.5381L0.342325 23.7027ZM39.9177 21.8438L39.0207 21.7615C39.0727 21.1808 39.0987 20.5872 39.0987 19.9978V19.9415H40V19.9978C40 20.6175 39.974 21.2371 39.9177 21.8438ZM0 20.0282V19.9978C0 19.3912 0.0259994 18.7802 0.0823313 18.1822L0.979309 18.2645C0.92731 18.8365 0.901311 19.4215 0.901311 19.9978L0 20.0282ZM39.0164 18.1822C38.96 17.5972 38.8777 17.0122 38.7694 16.4359L39.6533 16.2669C39.766 16.8692 39.8527 17.4846 39.9133 18.0955L39.0164 18.1822ZM1.21764 16.5183L0.333658 16.3536C0.446322 15.7513 0.584985 15.1446 0.753981 14.5553L1.62063 14.798C1.4603 15.3613 1.32597 15.9376 1.22197 16.5139L1.21764 16.5183ZM38.362 14.72C38.2017 14.1566 38.0111 13.5933 37.7987 13.0473L38.635 12.718C38.8604 13.29 39.0554 13.8793 39.2287 14.4686L38.362 14.7156V14.72ZM2.17095 13.1297L1.3303 12.8047C1.55129 12.2327 1.80262 11.665 2.07561 11.1147L2.88159 11.5134C2.6216 12.0377 2.38327 12.5794 2.17095 13.1253V13.1297ZM37.0794 11.4397C36.8151 10.9154 36.5248 10.3997 36.2171 9.90142L36.9797 9.42476C37.3047 9.94475 37.6081 10.4864 37.8854 11.0367L37.0794 11.4397ZM3.73957 9.97075L2.97259 9.49843C3.29325 8.97844 3.64424 8.46279 4.0169 7.97313L4.73622 8.51479C4.38522 8.98278 4.04723 9.47243 3.73957 9.97075ZM35.2118 8.44979C34.8565 7.9818 34.4751 7.52681 34.0808 7.09782L34.7438 6.49117C35.1598 6.94183 35.5584 7.41848 35.9268 7.90814L35.2118 8.45412V8.44979ZM5.86285 7.15849L5.19554 6.55184C5.60719 6.09685 6.04485 5.65919 6.49984 5.2432L7.10649 5.90619C6.67317 6.30051 6.25718 6.72083 5.86285 7.15415V7.15849ZM32.8328 5.84985C32.3995 5.45553 31.9402 5.07854 31.4722 4.72755L32.0139 4.00823C32.5035 4.37656 32.9845 4.77088 33.4352 5.18687L32.8285 5.85419L32.8328 5.84985ZM8.46279 4.77955L7.9168 4.06457C8.40646 3.69191 8.91778 3.34092 9.43777 3.01592L9.91442 3.77857C9.4161 4.08623 8.93078 4.42422 8.46279 4.77955ZM30.0162 3.73091C29.5179 3.42325 28.9979 3.13725 28.4736 2.87726L28.8723 2.07128C29.4226 2.34427 29.9643 2.64327 30.4886 2.96826L30.0162 3.73524V3.73091ZM11.4527 2.91626L11.0497 2.11028C11.6 1.83729 12.1677 1.58163 12.7353 1.36063L13.0647 2.19695C12.5187 2.40927 11.977 2.65193 11.4527 2.91193V2.91626ZM26.8573 2.16661C26.3113 1.95428 25.748 1.76796 25.1847 1.61196L25.4274 0.745315C26.0167 0.909977 26.606 1.10931 27.178 1.32597L26.853 2.16661H26.8573ZM14.733 1.63363L14.486 0.766981C15.0753 0.597985 15.6819 0.454989 16.2843 0.342325L16.4489 1.2263C15.8726 1.33463 15.2963 1.46896 14.733 1.63363ZM23.4687 1.2133C22.8924 1.10931 22.3074 1.02697 21.7225 0.974976L21.8005 0.0779981C22.4114 0.13433 23.0268 0.216661 23.6291 0.324992L23.4687 1.20897V1.2133ZM18.1952 0.983642L18.1129 0.0866645C18.7239 0.0303326 19.3435 0 19.9588 0V0.901311C19.3738 0.901311 18.7802 0.931643 18.1995 0.983642H18.1952Z" fill="#8CB0C0"/>
<path d="M9.22536 20.9079C9.84935 24.5088 11.6996 27.1564 14.8672 28.985C14.9929 28.816 15.0969 28.7077 15.1705 28.5777C15.8249 27.4424 16.0762 27.3428 17.2765 27.7544C18.3511 28.1227 19.4171 28.5127 20.5004 28.8594C21.3064 29.115 21.5404 29.661 21.4277 30.4367C21.1374 32.3693 19.3998 33.5913 17.4498 33.2273C9.87535 31.8233 4.83147 24.6085 6.12277 17.0253C6.44776 15.1274 8.18105 13.9098 10.0487 14.2737C10.8547 14.4297 11.3096 14.8327 11.2576 15.7384C11.1926 16.839 11.21 17.9483 11.1926 19.0533C11.171 20.3966 11.0756 20.5136 9.75401 20.7952C9.60235 20.8256 9.45069 20.8602 9.22969 20.9079H9.22536Z" fill="#203570"/>
<path d="M27.5636 9.33397C27.8366 9.03931 28.1183 8.74032 28.4173 8.41966C28.7812 9.60263 29.1409 10.7553 29.5049 11.9426C28.2873 11.6652 27.113 11.3966 25.9083 11.1236C26.229 10.7769 26.5323 10.4476 26.8486 10.1053C26.6666 9.97962 26.5106 9.86263 26.346 9.7543C24.162 8.333 21.7571 7.79568 19.1831 7.99934C13.9053 8.41966 9.70638 12.5622 8.86574 17.7318C8.01643 22.9706 10.7854 28.2615 15.6472 30.3198C19.8808 32.1137 23.824 31.4248 27.4033 28.5648C27.4466 28.5302 27.4899 28.4955 27.5376 28.4565C27.0523 27.6548 26.9093 26.8229 27.1476 25.9346C27.3426 25.2066 27.7499 24.6303 28.3739 24.2056C29.5959 23.378 31.2295 23.5816 32.2132 24.6779C33.2445 25.8262 33.2748 27.5639 32.2825 28.7468C31.3638 29.8388 29.6869 30.2288 28.2483 29.2191C28.1399 29.3101 28.0273 29.4011 27.9146 29.4965C25.3017 31.5981 22.3247 32.5817 18.9838 32.2524C14.9149 31.8494 11.795 29.8301 9.61972 26.3895C8.05976 23.9239 7.48777 21.207 7.75643 18.3081C8.21142 13.4159 11.5393 9.11298 16.2062 7.58335C20.1971 6.27472 23.9714 6.83804 27.4379 9.25598C27.4683 9.27764 27.4943 9.29931 27.5246 9.31664C27.5376 9.32531 27.5506 9.32531 27.5723 9.33397H27.5636Z" fill="#203570"/>
<path d="M15.6776 18.1777C16.0763 18.1777 16.4619 18.1777 16.8519 18.1777C17.5972 18.1777 17.9742 18.5417 17.9829 19.287C17.9959 20.4136 17.9959 21.5403 17.9829 22.6669C17.9829 23.3386 17.5842 23.7155 16.9083 23.7199C16.4446 23.7199 15.9853 23.7285 15.5216 23.7199C14.9323 23.7069 14.5077 23.3299 14.5033 22.7536C14.4947 20.9163 14.421 19.0747 14.5337 17.2417C14.746 13.8705 17.7056 11.2445 21.0855 11.2142C23.2694 11.1969 25.1111 11.8858 26.5584 13.5238C27.6373 14.7414 28.1616 16.1887 28.1573 17.8224C28.153 19.3866 28.1573 20.9509 28.153 22.5152C28.153 23.3385 27.7847 23.7025 26.957 23.7155C26.541 23.7242 26.125 23.7242 25.7134 23.7155C25.0547 23.6939 24.6777 23.3126 24.6691 22.6626C24.6604 21.5143 24.6604 20.3616 24.6647 19.2133C24.6647 18.5807 25.0721 18.182 25.7177 18.1647C26.0384 18.156 26.359 18.1473 26.6797 18.1733C26.97 18.195 27.0393 18.078 27.0393 17.805C27.0393 15.4477 25.5227 13.3331 23.2564 12.6182C20.8905 11.8728 18.2559 12.4665 16.7003 14.5421C15.9506 15.5431 15.5866 16.674 15.6343 17.935C15.6343 18.0043 15.6516 18.0693 15.669 18.1777H15.6776Z" fill="#0091FF"/>
<path d="M14.0699 19.5947V22.3029C13.7926 22.1556 13.5456 22.0429 13.3246 21.8956C13.2509 21.8436 13.2076 21.7006 13.2076 21.5966C13.1946 21.2196 13.2206 20.8383 13.1946 20.4613C13.1729 20.1623 13.2596 19.9673 13.5456 19.859C13.7102 19.794 13.8576 19.6987 14.0699 19.5903V19.5947Z" fill="#0091FF"/>
<path d="M28.5862 19.5771C28.8722 19.7331 29.1148 19.8501 29.3402 19.9975C29.4095 20.0408 29.4485 20.1751 29.4528 20.2661C29.4615 20.7168 29.4615 21.1674 29.4528 21.6181C29.4528 21.7091 29.4095 21.8434 29.3402 21.8868C29.1148 22.0298 28.8722 22.1424 28.5905 22.2941V19.5771H28.5862Z" fill="#0091FF"/>
</g>
<defs>
<clipPath id="clip0_2243_3570">
<rect width="40" height="40" fill="white"/>
</clipPath>
</defs>
</svg>
