<svg width="40" height="40" viewBox="0 0 40 40" fill="none" xmlns="http://www.w3.org/2000/svg">
<g clip-path="url(#clip0_2243_3538)">
<path d="M20 39.5503C30.7975 39.5503 39.5506 30.7973 39.5506 19.9998C39.5506 9.2023 30.7975 0.449219 20 0.449219C9.20255 0.449219 0.449463 9.2023 0.449463 19.9998C0.449463 30.7973 9.20255 39.5503 20 39.5503Z" fill="white"/>
<path d="M20.0173 40.0001V39.1012C20.605 39.1012 21.1971 39.0753 21.7805 39.0191L21.8626 39.9136C21.2532 39.9698 20.6353 40.0001 20.0173 40.0001ZM18.172 39.918C17.5583 39.8618 16.9447 39.7797 16.344 39.6673L16.5082 38.7814C17.083 38.8894 17.6707 38.9672 18.2541 39.0234L18.172 39.918ZM23.6863 39.663L23.522 38.7771C24.0968 38.669 24.6759 38.5351 25.2377 38.3752L25.484 39.2395C24.892 39.408 24.2869 39.5506 23.6863 39.663ZM14.5419 39.2481C13.9542 39.0796 13.3621 38.8851 12.7917 38.6647L13.1158 37.8263C13.6646 38.0381 14.2264 38.2239 14.7882 38.3838L14.5419 39.2481ZM27.2385 38.6518L26.9144 37.8134C27.4589 37.6016 28.0035 37.3596 28.5264 37.1003L28.9283 37.9041C28.3794 38.1764 27.8133 38.4314 27.2385 38.6518ZM11.102 37.9171C10.5532 37.6448 10.0086 37.3423 9.49006 37.0182L9.96543 36.2533C10.4624 36.5601 10.981 36.8497 11.5082 37.1133L11.1063 37.9171H11.102ZM30.5402 37.0009L30.0648 36.236C30.5618 35.9292 31.0501 35.5921 31.5169 35.2378L32.0614 35.9551C31.573 36.3268 31.0588 36.6768 30.5402 37.0009ZM7.96456 35.9724C7.47623 35.6051 6.99654 35.2075 6.54278 34.7926L7.1478 34.1271C7.57995 34.5204 8.03803 34.9007 8.50475 35.255L7.96456 35.9724ZM33.4788 34.7754L32.8738 34.1098C33.306 33.7166 33.7252 33.2931 34.1227 32.8609L34.7882 33.4659C34.3734 33.9197 33.9369 34.3605 33.4831 34.771L33.4788 34.7754ZM5.23336 33.4919C4.8185 33.0381 4.42092 32.5627 4.04927 32.0744L4.76664 31.5299C5.121 31.9966 5.5013 32.4504 5.89456 32.8868L5.22904 33.4962L5.23336 33.4919ZM35.9637 32.0485L35.2463 31.504C35.6007 31.0372 35.9378 30.5446 36.2446 30.0476L37.0095 30.523C36.6854 31.0416 36.3354 31.5558 35.9637 32.0442V32.0485ZM3.00778 30.5489C2.68366 30.026 2.38116 29.4858 2.10458 28.937L2.90838 28.5351C3.172 29.058 3.46154 29.5766 3.76837 30.0735L3.00346 30.5489H3.00778ZM37.9084 28.911L37.1046 28.5091C37.3639 27.9862 37.6059 27.4417 37.8176 26.8972L38.656 27.2213C38.4356 27.7918 38.185 28.3622 37.9084 28.911ZM1.35696 27.2516C1.13656 26.6811 0.93777 26.0934 0.769231 25.5014L1.63354 25.255C1.79343 25.8168 1.98358 26.383 2.19533 26.9275L1.35696 27.2559V27.2516ZM39.2437 25.4711L38.3794 25.2248C38.5393 24.663 38.6733 24.0839 38.7813 23.5091L39.6672 23.6734C39.5549 24.2741 39.4123 24.8791 39.2481 25.4711H39.2437ZM0.3414 23.7036C0.229041 23.1029 0.14261 22.4849 0.0864304 21.8756L0.980985 21.7935C1.03717 22.3769 1.11927 22.9646 1.22299 23.5394L0.337079 23.7036H0.3414ZM39.9179 21.8454L39.0233 21.7633C39.0752 21.1842 39.1054 20.5878 39.1054 20.0001V19.9396H40.0043V19.9958C40.0043 20.6137 39.9741 21.236 39.9222 21.841L39.9179 21.8454ZM0.272256 20.0217L0 20.0087C0 19.3951 0.0259291 18.7857 0.0821089 18.1894L0.976664 18.2715C0.924806 18.8419 0.898876 19.4253 0.898876 20.0044L0.272256 20.026V20.0217ZM39.0147 18.1807C38.9585 17.5973 38.8764 17.0096 38.7684 16.4348L39.6543 16.2663C39.7666 16.867 39.8531 17.4806 39.9136 18.0943L39.019 18.1807H39.0147ZM1.21435 16.5212L0.328436 16.357C0.440795 15.752 0.579084 15.147 0.747623 14.5593L1.61193 14.8056C1.45203 15.3674 1.31806 15.9465 1.21435 16.5212ZM38.3621 14.7192C38.2022 14.1574 38.0121 13.5956 37.796 13.0467L38.6344 12.7183C38.8591 13.2888 39.0579 13.8765 39.2264 14.4685L38.3621 14.7149V14.7192ZM2.17373 13.1289L1.33535 12.8047C1.55575 12.2343 1.8064 11.6639 2.07865 11.115L2.88245 11.5169C2.62316 12.0398 2.38116 12.5843 2.17373 13.1332V13.1289ZM37.0787 11.4391C36.815 10.9162 36.5255 10.3977 36.2143 9.90068L36.9793 9.42531C37.3034 9.94389 37.6102 10.4884 37.8825 11.0372L37.0787 11.4391ZM3.74244 9.97414L2.97753 9.5031C3.29732 8.98019 3.65169 8.47025 4.01901 7.9776L4.73639 8.51779C4.38202 8.98452 4.04927 9.47717 3.74244 9.97414ZM35.2161 8.44865C34.8617 7.98192 34.4814 7.52816 34.0838 7.09601L34.745 6.48668C35.1599 6.94044 35.5575 7.4158 35.9291 7.90414L35.2118 8.44865H35.2161ZM5.85998 7.15651L5.19447 6.5515C5.60501 6.09774 6.04581 5.65694 6.49957 5.24208L7.1089 5.90759C6.67675 6.30517 6.25756 6.72436 5.8643 7.15651H5.85998ZM32.8306 5.85141C32.3984 5.45815 31.9404 5.07786 31.4693 4.72782L32.0095 4.01044C32.4978 4.37777 32.9775 4.77535 33.4313 5.1859L32.8263 5.85141H32.8306ZM8.46154 4.77968L7.91703 4.0623C8.40536 3.69065 8.91962 3.34061 9.4382 3.01649L9.91357 3.7814C9.4166 4.09255 8.92826 4.42963 8.46154 4.784V4.77968ZM30.0173 3.73387C29.5203 3.42704 29.0017 3.1375 28.4745 2.87821L28.8764 2.07008C29.4252 2.34234 29.9697 2.64484 30.4927 2.96464L30.0216 3.72955L30.0173 3.73387ZM11.452 2.9171L11.0501 2.1133C11.599 1.83672 12.1651 1.58607 12.7355 1.36135L13.064 2.19973C12.5194 2.41148 11.9749 2.65349 11.452 2.9171ZM26.8583 2.16948C26.3094 1.95772 25.7476 1.7719 25.1858 1.612L25.4278 0.747696C26.0199 0.911914 26.6076 1.1107 27.1824 1.3311L26.8583 2.16948ZM14.7321 1.63361L14.4857 0.769304C15.0778 0.600764 15.6785 0.458154 16.2835 0.345795L16.4477 1.23171C15.8729 1.33974 15.2939 1.47803 14.7321 1.63793V1.63361ZM23.4659 1.21442C22.8911 1.1107 22.3034 1.0286 21.72 0.976737L21.8021 0.0821819C22.4157 0.138362 23.0294 0.220471 23.6301 0.33283L23.4659 1.21874V1.21442ZM18.1936 0.98538L18.1115 0.090825C18.7208 0.0346452 19.3431 0.00439453 19.9568 0.00439453V0.903271C19.3734 0.903271 18.7813 0.933522 18.1979 0.98538H18.1936Z" fill="#8CB0C0"/>
<path d="M31.1365 10.3588C31.1365 9.2266 30.2419 8.46602 28.9152 8.46602C27.1866 8.46602 25.458 8.46602 23.7294 8.46602C19.8919 8.46602 15.9247 8.46602 12.018 8.44873H12.0008C11.292 8.44873 10.6568 8.69074 10.2203 9.13153C9.8616 9.49454 9.66714 9.96558 9.67146 10.4669C9.70171 13.3709 9.69739 16.3269 9.69307 19.1834C9.69307 20.3027 9.69307 21.4176 9.69307 22.5369V24.339C9.69307 26.141 9.69307 27.9431 9.69307 29.7452C9.69307 30.7089 10.5747 31.5343 11.6161 31.5516C12.4977 31.5645 13.3836 31.5689 14.2696 31.5689C15.0085 31.5689 15.7389 31.5689 16.4606 31.5645H17.5712C17.5712 31.5645 17.5798 31.5602 17.5842 31.5602H29.222C29.343 31.5689 29.4597 31.5386 29.5461 31.5213C30.5314 31.2836 31.1408 30.5879 31.1408 29.7149C31.1408 23.2629 31.1408 16.8152 31.1408 10.3632L31.1365 10.3588ZM29.84 29.6026C29.84 30.1471 29.5591 30.3934 28.9065 30.4323H14.6455H12.1607C11.2402 30.4323 10.9852 30.2206 10.9852 29.447V10.8299C10.9852 10.0693 11.2575 9.83594 12.1563 9.83594H28.63C29.5937 9.83594 29.84 10.0477 29.84 10.8601V27.9474C29.84 28.1462 29.84 28.345 29.84 28.5438C29.84 28.8938 29.84 29.2482 29.84 29.5983V29.6026Z" fill="#203570"/>
<path d="M25.6395 13.1204C22.675 13.1161 19.7147 13.1118 16.7502 13.1118C16.197 13.1118 15.6438 13.1031 15.0864 13.1118C14.6715 13.1204 14.3215 13.3883 14.2091 13.7513C14.0924 14.136 14.2221 14.5811 14.5678 14.7669C14.7839 14.8836 15.0518 14.9441 15.2981 14.9441C16.9965 14.957 18.6992 14.9527 20.3975 14.9527C22.1348 14.9527 23.8763 14.9527 25.6136 14.9527C26.2359 14.9527 26.6292 14.5897 26.6335 14.0409C26.6378 13.4748 26.2661 13.1247 25.6309 13.1204H25.6395Z" fill="#203570"/>
<path d="M25.7259 17.1006C22.2385 17.1006 18.7467 17.0962 15.2592 17.1006C14.6283 17.1006 14.2437 17.4463 14.2437 18.0038C14.2437 18.5655 14.6153 18.894 15.2635 18.894C17.0008 18.894 18.738 18.894 20.4753 18.894C22.2385 18.894 24.0016 18.894 25.7692 18.894C26.3655 18.894 26.7199 18.5353 26.7069 17.9649C26.6896 17.4376 26.3266 17.1049 25.7303 17.1049L25.7259 17.1006Z" fill="#203570"/>
<path d="M25.4235 20.7998C21.9188 20.7998 24.8963 20.7955 21.3959 20.7998C20.7606 20.7998 20.376 21.1498 20.376 21.7073C20.376 22.2691 20.7476 22.6018 21.4002 22.6018C23.1461 22.6018 23.6949 22.6018 25.4667 22.6018C26.0674 22.6018 26.4218 22.2388 26.4045 21.6684C26.3872 21.1369 26.0242 20.8041 25.4235 20.8041V20.7998Z" fill="#203570"/>
<path d="M25.6568 24.5332C22.0829 24.5332 25.8555 24.5288 22.2773 24.5332C21.6291 24.5332 21.2358 24.8832 21.2358 25.4407C21.2358 26.0025 21.6161 26.3352 22.2816 26.3352C24.0621 26.3352 22.8175 26.3352 24.598 26.3352C26.4044 26.3352 23.8893 26.3352 25.7 26.3352C26.3136 26.3352 26.6766 25.9722 26.6593 25.4018C26.6421 24.8702 26.2704 24.5375 25.6611 24.5375L25.6568 24.5332Z" fill="#203570"/>
<path d="M16.2275 30.2207C19.4997 30.2207 22.1523 27.5681 22.1523 24.2959C22.1523 21.0237 19.4997 18.3711 16.2275 18.3711C12.9554 18.3711 10.3027 21.0237 10.3027 24.2959C10.3027 27.5681 12.9554 30.2207 16.2275 30.2207Z" fill="white"/>
<path d="M19.8489 29.3477C16.3873 31.5604 12.6881 29.9484 11.1669 27.6753C9.4772 25.1472 9.80564 21.7505 11.988 19.6459C14.1747 17.537 17.5844 17.3123 20.0433 19.0971C22.4158 20.8214 23.5956 24.486 21.5602 27.6191C21.9491 27.9692 22.3467 28.2933 22.7097 28.652C23.6907 29.6157 24.663 30.588 25.6267 31.5647C26.3225 32.2691 26.1929 33.2933 25.3631 33.7211C24.8705 33.9761 24.3951 33.9242 23.9543 33.5958C23.7987 33.4791 23.6604 33.3322 23.5222 33.1896C22.4893 32.161 21.4565 31.1325 20.4323 30.0954C20.2162 29.8793 20.052 29.6113 19.8489 29.3434V29.3477ZM11.6682 24.1446C11.6682 26.7159 13.7685 28.8162 16.3355 28.8162C18.9068 28.8162 21.007 26.7159 21.007 24.1489C21.007 21.582 18.9111 19.4817 16.3398 19.4774C13.7728 19.4731 11.6682 21.5733 11.6682 24.1446Z" fill="#0091FF"/>
</g>
<defs>
<clipPath id="clip0_2243_3538">
<rect width="40" height="40" fill="white"/>
</clipPath>
</defs>
</svg>
