<svg width="24" height="24" viewBox="0 0 24 24" fill="none" xmlns="http://www.w3.org/2000/svg">
<mask id="mask0_1333_3093" style="mask-type:alpha" maskUnits="userSpaceOnUse" x="0" y="0" width="24" height="24">
<rect width="24" height="24" fill="#D9D9D9"/>
</mask>
<g mask="url(#mask0_1333_3093)">
<path d="M11.0002 18V18.5C11.0002 18.6333 11.0502 18.75 11.1502 18.85C11.2502 18.95 11.3669 19 11.5002 19H12.5002C12.6336 19 12.7502 18.95 12.8502 18.85C12.9502 18.75 13.0002 18.6333 13.0002 18.5V18H14.0002C14.2836 18 14.5211 17.9042 14.7127 17.7125C14.9044 17.5208 15.0002 17.2833 15.0002 17V14C15.0002 13.7167 14.9044 13.4792 14.7127 13.2875C14.5211 13.0958 14.2836 13 14.0002 13H11.0002V12H14.0002C14.2836 12 14.5211 11.9042 14.7127 11.7125C14.9044 11.5208 15.0002 11.2833 15.0002 11C15.0002 10.7167 14.9044 10.4792 14.7127 10.2875C14.5211 10.0958 14.2836 10 14.0002 10H13.0002V9.5C13.0002 9.36667 12.9502 9.25 12.8502 9.15C12.7502 9.05 12.6336 9 12.5002 9H11.5002C11.3669 9 11.2502 9.05 11.1502 9.15C11.0502 9.25 11.0002 9.36667 11.0002 9.5V10H10.0002C9.71691 10 9.47941 10.0958 9.28774 10.2875C9.09608 10.4792 9.00024 10.7167 9.00024 11V14C9.00024 14.2833 9.09608 14.5208 9.28774 14.7125C9.47941 14.9042 9.71691 15 10.0002 15H13.0002V16H10.0002C9.71691 16 9.47941 16.0958 9.28774 16.2875C9.09608 16.4792 9.00024 16.7167 9.00024 17C9.00024 17.2833 9.09608 17.5208 9.28774 17.7125C9.47941 17.9042 9.71691 18 10.0002 18H11.0002ZM6.00024 22C5.45024 22 4.97941 21.8042 4.58774 21.4125C4.19608 21.0208 4.00024 20.55 4.00024 20V4C4.00024 3.45 4.19608 2.97917 4.58774 2.5875C4.97941 2.19583 5.45024 2 6.00024 2H15.0002L20.0002 7V20C20.0002 20.55 19.8044 21.0208 19.4127 21.4125C19.0211 21.8042 18.5502 22 18.0002 22H6.00024ZM6.00024 20H18.0002V8H15.0002C14.7169 8 14.4794 7.90417 14.2877 7.7125C14.0961 7.52083 14.0002 7.28333 14.0002 7V4H6.00024V20Z" fill="#0091FF"/>
</g>
</svg>
