<svg width="50" height="55" viewBox="0 0 50 55" fill="none" xmlns="http://www.w3.org/2000/svg">
<mask id="mask0_2243_3441" style="mask-type:luminance" maskUnits="userSpaceOnUse" x="0" y="0" width="50" height="50">
<path d="M25 50C38.8071 50 50 38.8071 50 25C50 11.1929 38.8071 0 25 0C11.1929 0 0 11.1929 0 25C0 38.8071 11.1929 50 25 50Z" fill="white"/>
</mask>
<g mask="url(#mask0_2243_3441)">
<path d="M25 50C38.8071 50 50 38.8071 50 25C50 11.1929 38.8071 0 25 0C11.1929 0 0 11.1929 0 25C0 38.8071 11.1929 50 25 50Z" fill="#FFF3C0"/>
<path d="M8.36169 32.5226C8.25389 32.3963 8.1265 32.3718 7.97951 32.4491C7.79332 32.5471 7.6006 32.6287 7.38664 32.6451C6.90157 32.6826 6.50959 32.3968 6.39526 31.9232C6.3479 31.7256 6.3528 31.5263 6.35933 31.3254C6.3626 31.2176 6.34463 31.1294 6.24501 31.0543C5.73544 30.6705 5.66684 30.4418 5.8563 29.8261C5.86446 29.7983 5.86936 29.7706 5.87426 29.7428C5.79423 29.6693 5.69297 29.6905 5.60151 29.6726C5.154 29.5844 4.91228 29.2561 4.96618 28.8037C4.99068 28.6012 5.06907 28.4182 5.1638 28.2402C5.30916 27.9707 5.49372 27.7274 5.7044 27.5053C5.79913 27.4056 5.83016 27.3142 5.80076 27.1753C5.18177 24.2192 5.67827 21.4361 7.10736 18.8001C7.15309 18.7168 7.19555 18.6302 7.24945 18.5518C7.32621 18.4424 7.30661 18.3722 7.20045 18.2922C6.8591 18.0341 6.52919 17.7565 6.18458 17.5033C5.88243 17.2828 5.63744 17.0035 5.35816 16.7585C5.22096 16.6393 5.18667 16.4646 5.154 16.2947C5.09357 15.986 5.05764 15.6724 5.03968 15.3589C4.98415 14.3838 5.04294 13.4153 5.25363 12.4582C5.2618 12.4207 5.27323 12.3847 5.27976 12.3472C5.36306 11.867 5.63744 11.5599 6.08495 11.3541C7.34581 10.7776 8.65567 10.4624 10.0456 10.5049C10.6074 10.5212 11.1055 10.6764 11.5334 11.0651C12.0838 11.5648 12.7012 11.9862 13.2402 12.5007C13.361 12.6166 13.4443 12.5431 13.5407 12.4876C14.7803 11.7625 16.0918 11.2006 17.4523 10.7499C20.0573 9.88913 22.7293 9.48246 25.4748 9.59025C26.4857 9.62945 27.4984 9.69641 28.4897 9.88097C31.1878 10.3873 33.77 11.2219 36.1088 12.7032C36.3097 12.8306 36.4403 12.8208 36.6331 12.6869C37.6277 11.9976 38.6354 11.3248 39.6382 10.647C39.8604 10.4967 40.0906 10.366 40.3422 10.2713C40.5071 10.2076 40.6737 10.1864 40.8468 10.2174C42.0963 10.4428 43.2755 10.8625 44.3714 11.5077C44.502 11.5844 44.6261 11.6743 44.7519 11.7608C45.0377 11.9601 45.2125 12.2165 45.2778 12.5742C45.5048 13.8252 45.446 15.06 45.1177 16.2865C45.0785 16.4335 45.0361 16.5789 45.0247 16.7324C45.0116 16.9121 44.9136 17.0542 44.796 17.1832C44.667 17.3253 44.5134 17.4396 44.3616 17.5539C43.7083 18.0504 43.0174 18.493 42.3363 18.9487C42.289 18.9814 42.24 19.0108 42.1942 19.0434C42.0767 19.1251 42.044 19.2302 42.0963 19.3587C42.1763 19.553 42.2596 19.7457 42.3314 19.9417C43.3963 22.8113 43.3359 25.6728 42.2383 28.5179C42.1534 28.7384 42.1208 28.9147 42.2775 29.1205C42.4164 29.3018 42.4899 29.5256 42.5323 29.7526C42.5944 30.0923 42.5405 30.4043 42.2743 30.6427C42.1763 30.7325 42.1714 30.8028 42.2253 30.9122C42.3265 31.118 42.3935 31.3385 42.4245 31.5655C42.4588 31.8203 42.4213 32.062 42.2465 32.2629C42.1355 32.3919 41.9901 32.4654 41.8202 32.467C41.7026 32.467 41.6634 32.5111 41.6406 32.6287C41.5034 33.3196 41.0526 33.6054 40.3667 33.4486C40.0841 33.3833 39.8228 33.2706 39.5892 33.1007C39.4782 33.0191 39.4014 33.006 39.305 33.1203C39.1646 33.2869 39.0078 33.4405 38.8575 33.6005C38.9327 33.8079 39.0878 33.9647 39.2071 34.146C39.9453 35.2648 40.4908 36.4815 41.0167 37.7081C41.0869 37.8714 41.1375 38.0429 41.2306 38.1915C41.3139 38.167 41.3237 38.1034 41.3515 38.0576C41.8676 37.1822 42.5519 36.4587 43.3751 35.8674C43.8667 35.5147 44.4008 35.2501 45.0067 35.1456C46.4701 34.894 47.6166 35.9311 47.5039 37.4158C47.4565 38.0462 47.1969 38.5901 46.8049 39.0751C46.5387 39.4034 46.2137 39.6696 45.8756 39.9195C45.446 40.2364 45.0198 40.5565 44.6278 40.9223C44.0055 41.5038 43.5613 42.2077 43.1415 42.9541C43.5139 43.168 43.6756 43.5241 43.821 43.8867C44.1443 44.6918 44.4906 45.4856 44.9087 46.2467C45.3693 47.0862 45.9164 47.8636 46.5566 48.5757C46.9323 48.9938 47.3177 49.4054 47.6983 49.8186C48.0919 50.2465 48.4724 50.6875 48.8089 51.1627C48.9085 51.3032 49.0049 51.4453 49.0571 51.6119C49.178 51.9957 48.9036 52.3076 48.5051 52.239C48.3352 52.2096 48.1768 52.1411 48.0233 52.0659C47.6901 51.901 47.3765 51.7001 47.0613 51.5041C46.6971 51.2771 46.3329 51.0517 45.9474 50.8639C45.5522 50.6711 45.139 50.5307 44.6996 50.4686C44.3322 50.4163 43.999 50.4898 43.6936 50.694C43.4143 50.8802 43.1807 51.1186 42.9537 51.3653C42.6761 51.6674 42.4098 51.9794 42.1159 52.2652C41.4511 52.9103 40.6574 53.219 39.7248 53.1292C39.3018 53.0883 38.9082 52.9446 38.5293 52.7633C38.2875 52.6474 38.0442 52.5445 37.7584 52.5183C37.7192 52.6621 37.7649 52.809 37.7747 52.956C37.7845 53.1177 37.8106 53.2778 37.8139 53.4395C37.8221 53.9768 37.582 54.3198 37.0773 54.506C36.7605 54.6236 36.4256 54.6497 36.0925 54.6611C35.1876 54.6905 34.2812 54.6954 33.3764 54.7363C32.1662 54.7902 30.9592 54.8718 29.7506 54.9355C29.2361 54.9633 28.7217 54.978 28.2088 54.9029C27.709 54.831 27.3007 54.6236 27.0492 54.1663C26.881 53.8592 26.618 53.6975 26.2832 53.624C26.0023 53.562 25.7198 53.5211 25.4356 53.4983C24.8068 53.4476 24.1796 53.446 23.5508 53.5015C23.1115 53.5407 22.7195 53.691 22.3618 53.9474C21.8179 54.3361 21.2202 54.5958 20.5587 54.7003C20.3513 54.733 20.1422 54.764 19.9332 54.7689C18.7932 54.7885 17.6663 54.6922 16.5654 54.3802C15.7276 54.1434 14.9698 53.7563 14.3736 53.0981C14.3181 53.0377 14.2773 52.9642 14.163 53.0246C13.6713 53.2811 13.1552 53.268 12.6326 53.1439C12.1296 53.0246 11.6625 52.8058 11.1937 52.5935C11.0124 52.5102 10.8311 52.4236 10.6466 52.3468C10.2056 52.1656 9.75647 52.146 9.30733 52.3093C8.86962 52.4693 8.43681 52.6441 8.00074 52.8074C7.66266 52.9348 7.32784 53.0736 6.97016 53.1422C6.44916 53.2435 6.13558 52.9038 6.27277 52.3909C6.3234 52.2047 6.40343 52.0333 6.49653 51.8667C6.79704 51.3261 7.10246 50.7871 7.40624 50.2465C8.03177 49.1326 8.63934 48.0106 9.07214 46.8036C9.39389 45.907 9.62091 44.9793 9.89203 44.0679C10.0472 43.5486 10.1942 43.0227 10.5045 42.567C10.5813 42.4527 10.529 42.3432 10.5094 42.2371C10.4065 41.6818 10.3461 41.1232 10.3575 40.5597C10.3934 38.8791 10.7495 37.272 11.4844 35.7564C11.5743 35.5718 11.5759 35.5718 11.4028 35.4412C11.0614 35.1864 10.7266 34.9234 10.4049 34.6441C10.5208 34.5364 10.6564 34.5886 10.7821 34.6099C11.1921 34.6784 11.6053 34.7193 12.0169 34.7601C12.0789 34.8614 12.1851 34.912 12.2766 34.9757C13.4688 35.8005 14.746 36.4652 16.0951 36.9895C16.2894 37.0646 16.4773 37.1577 16.6847 37.192C17.0603 37.3586 17.4539 37.4713 17.8492 37.5758C17.9129 37.8959 17.9766 38.2144 18.0403 38.5345L17.9553 38.5411L17.8557 38.5215C17.7887 38.4594 17.6989 38.4561 17.6173 38.4349C15.837 37.9302 14.1515 37.21 12.5754 36.2382C12.5428 36.2186 12.5085 36.2006 12.4791 36.1778C12.4072 36.1255 12.3615 36.1484 12.3223 36.2219C12.1737 36.5109 12.0512 36.8098 11.9466 37.1169C11.9205 37.192 11.9385 37.2345 12.0103 37.2769C12.368 37.4893 12.6408 37.7963 12.907 38.1083C13.0377 38.2618 13.1405 38.4349 13.1863 38.6342C13.2712 38.9967 13.0899 39.3022 12.7322 39.405C12.631 39.4344 12.5264 39.4459 12.4219 39.4442C12.0855 39.441 11.7621 39.3773 11.4436 39.2336C11.3603 39.49 11.3636 39.7464 11.3407 40.0028C11.3799 40.011 11.4077 40.0257 11.4338 40.0224C11.883 39.9652 12.1753 40.2119 12.4121 40.5434C12.5852 40.7835 12.6391 41.0497 12.4693 41.3192C12.2978 41.5887 12.0348 41.6769 11.7294 41.654C11.62 41.6458 11.5122 41.6132 11.3799 41.5887C11.4387 42.0525 11.5351 42.487 11.6592 42.9165C11.6739 42.9671 11.7017 42.9998 11.7523 43.0129C12.1933 43.1337 12.6032 43.351 13.054 43.4408C13.2369 43.4767 13.2385 43.4783 13.2614 43.2856C13.379 42.3106 13.495 41.3355 13.6175 40.3621C13.6632 40.0028 13.7203 39.6451 13.7808 39.2875C13.8216 39.0392 13.9033 38.8056 14.0944 38.6276C14.2299 38.5002 14.3148 38.5084 14.4226 38.657C14.5206 38.7909 14.5664 38.9461 14.5843 39.1094C14.617 39.3952 14.5941 39.6811 14.5582 39.9652C14.3475 41.6197 14.1336 43.2742 14.0356 44.9417C14.0209 45.1883 13.9915 45.435 14.0225 45.6963C14.2217 45.6375 14.4145 45.5999 14.6154 45.6195C15.3471 45.6914 16.0722 45.8024 16.7843 45.987C16.9868 46.0393 17.1861 46.1095 17.3592 46.2336C17.8149 46.5586 17.841 47.1433 17.4164 47.5075C17.2694 47.6333 17.0979 47.7182 16.9133 47.7705C16.131 47.9975 15.3389 48.1559 14.519 48.1004C14.341 48.089 14.163 48.0547 13.9653 48.0286C13.9621 48.1886 13.9425 48.3372 13.9719 48.494C14.1287 48.494 14.274 48.4271 14.4275 48.4483C14.844 48.5071 15.2556 48.5855 15.6427 48.757C15.7913 48.8223 15.9334 48.9007 16.0542 49.0118C16.4495 49.376 16.4168 49.928 15.984 50.2449C15.8599 50.3363 15.7194 50.3951 15.5757 50.4457C15.1739 50.5878 14.7591 50.6303 14.3377 50.6303C14.2462 50.6303 14.1532 50.6074 14.065 50.6385C14.0405 50.7838 14.1025 50.8965 14.1466 51.0092C14.6431 52.2505 15.4859 53.1194 16.8072 53.4738C17.6875 53.7106 18.5858 53.7955 19.4938 53.8233C20.3807 53.8511 21.1908 53.6436 21.9143 53.1145C22.3063 52.8286 22.7505 52.6653 23.2291 52.5918C23.4381 52.5592 23.6455 52.5461 23.8546 52.5347C24.7627 52.4906 25.6659 52.5134 26.5543 52.7257C27.0868 52.8531 27.5278 53.1226 27.7972 53.611C27.9393 53.869 28.1566 53.9621 28.426 53.9866C28.7968 54.0209 29.1692 54.0209 29.5399 53.9997C31.5292 53.8886 33.5185 53.7612 35.5127 53.7612C35.8279 53.7612 36.1415 53.7449 36.455 53.709C36.8928 53.6583 36.9352 53.611 36.8781 53.1684C36.8258 52.7617 36.767 52.355 36.8111 51.9434C36.816 51.9042 36.8013 51.8683 36.7572 51.8422C36.05 51.9614 35.3412 51.9532 34.6389 51.7638C34.5115 51.7295 34.3825 51.687 34.2632 51.6298C33.9676 51.4861 33.7749 51.2575 33.7716 50.9161C33.7684 50.5895 33.9497 50.3625 34.2273 50.2089C34.3694 50.1305 34.5213 50.0734 34.6781 50.0293C35.4604 49.8104 36.2509 49.6422 37.0675 49.6324C37.1475 49.6324 37.1949 49.6095 37.2145 49.5328C37.2945 49.2143 37.3746 48.8942 37.4628 48.543C37.2112 48.6459 37.0071 48.7521 36.7866 48.8125C35.6711 49.1114 34.536 49.2127 33.3862 49.1114C33.0922 49.0853 32.7982 49.033 32.5336 48.8876C31.9653 48.5741 31.9212 47.8799 32.4438 47.4977C32.5761 47.4014 32.7215 47.3295 32.8766 47.2822C33.1853 47.1858 33.4956 47.0911 33.8076 47.0045C34.6242 46.7791 35.4604 46.6223 36.2558 46.3218C36.8519 46.0964 37.4546 45.8825 37.9903 45.5199C38.1063 45.4415 38.152 45.3566 38.1667 45.221C38.2402 44.5367 38.2761 43.8524 38.2614 43.1648C38.2418 42.1914 38.165 41.2228 38.036 40.2576C37.8629 38.9722 37.6261 37.6983 37.239 36.457C37.1198 36.0765 36.9891 35.7025 36.7997 35.317C35.7903 36.0455 34.7254 36.6465 33.6263 37.1789C33.6442 37.2263 33.6459 37.2492 33.6573 37.2606C34.2632 37.8878 34.7205 38.6276 35.2219 39.3348C35.2987 39.4442 35.3689 39.5569 35.4196 39.6811C35.48 39.8264 35.4816 39.9636 35.3657 40.0779C35.2546 40.1874 35.1174 40.2053 34.9688 40.1498C34.8594 40.109 34.7646 40.0469 34.683 39.9652C34.5752 39.8575 34.4674 39.7497 34.371 39.6304C34.291 39.5324 34.2338 39.5357 34.1424 39.6174C33.8484 39.8803 33.507 40.0714 33.1477 40.2266C32.9452 40.3148 32.7362 40.3785 32.5108 40.3638C32.1074 40.3376 31.8509 40.0273 31.895 39.6272C31.9146 39.4524 31.9816 39.2956 32.0714 39.1486C32.2495 38.8514 32.4716 38.5901 32.7476 38.381C32.857 38.2977 32.937 38.1964 33.0236 38.0952C33.0693 38.0413 33.0677 37.9956 33.0187 37.9466C32.9779 37.9057 32.9354 37.8682 32.8995 37.8241C32.8244 37.7326 32.7656 37.731 32.6692 37.8143C32.0731 38.3206 31.4704 38.8187 30.8694 39.3185C30.7077 39.4524 30.5411 39.5798 30.3418 39.6566C29.8698 39.8411 29.4648 39.5618 29.4697 39.0539C29.4697 38.8906 29.5056 38.7322 29.5628 38.5786C29.8355 37.8306 30.2536 37.1806 30.871 36.6661C30.9233 36.622 31.0196 36.6057 31 36.493C30.902 36.4636 30.804 36.4325 30.7028 36.4064C30.3979 36.3226 30.1224 36.3738 29.8764 36.5599C29.7473 36.6579 29.6199 36.7592 29.4925 36.8572C28.4865 37.6313 27.7678 38.6195 27.2746 39.7872C26.9725 40.5026 26.8304 41.2637 26.6001 41.9986C26.5739 42.0836 26.5952 42.1456 26.6654 42.1962C26.8124 42.3024 26.9545 42.4151 27.1047 42.5164C28.0439 43.155 29.0777 43.5894 30.1605 43.9095C31.0752 44.179 32.011 44.3587 32.9338 44.5922C33.1657 44.651 33.3911 44.7261 33.6001 44.8421C33.7243 44.9107 33.8402 44.9973 33.9546 45.0806C34.0231 45.1312 34.0966 45.19 34.0656 45.2929C34.0395 45.3762 33.966 45.399 33.886 45.4105C33.7635 45.4268 33.641 45.4546 33.5185 45.4611C33.0399 45.4889 32.5679 45.435 32.1008 45.3223C31.6207 45.2063 31.1356 45.1083 30.6521 45.0022C30.5884 44.9826 30.528 44.9581 30.4627 44.9417C29.6216 44.7327 28.8033 44.4534 28.0177 44.0859C27.0459 43.6319 26.1395 43.0815 25.3996 42.2877C25.4045 42.2567 25.3931 42.242 25.3604 42.2452L25.3457 42.2289C25.1383 41.9758 24.9146 41.734 24.761 41.4401C24.681 41.3061 24.6026 41.1722 24.5226 41.0383C24.4638 40.9321 24.4605 40.7998 24.374 40.7067C24.3674 40.6218 24.3364 40.545 24.2956 40.4715C24.2531 40.2625 24.209 40.0534 24.1665 39.8428C24.2025 39.7987 24.2368 39.7529 24.2743 39.7105C25.0191 38.884 25.3833 37.9564 25.0485 36.8392C25.4339 36.4505 25.8651 36.1271 26.3616 35.8952C27.4837 35.3726 28.6629 35.1897 29.8927 35.304C30.5133 35.3611 31.1078 35.5163 31.686 35.7384C32.0649 35.9556 32.4503 36.168 32.7803 36.4587C32.9158 36.5779 33.0285 36.5795 33.1853 36.5077C34.3302 35.9785 35.4228 35.3562 36.4452 34.6164C37.2423 34.0382 37.987 33.3996 38.6697 32.6908C38.7938 32.5623 38.8129 32.4229 38.7269 32.2727C38.6599 32.1551 38.6077 32.0342 38.6109 31.8954C38.6142 31.6978 38.7203 31.5296 38.8886 31.4659C39.0682 31.3989 39.2283 31.4463 39.3589 31.5786C39.4194 31.639 39.4635 31.7141 39.5157 31.7811C39.7722 32.1077 40.0694 32.387 40.4548 32.5552C40.7211 32.6728 40.7733 32.6353 40.7799 32.3511C40.7831 32.2172 40.7684 32.0832 40.7799 31.9509C40.8027 31.6406 40.9971 31.4675 41.3058 31.4675C41.358 31.4675 41.4168 31.51 41.4658 31.4463C41.4462 31.314 41.376 31.1996 41.3254 31.0772C41.2715 30.9449 41.2061 30.8158 41.1653 30.6803C41.0934 30.4304 41.18 30.223 41.394 30.0907C41.5475 29.996 41.584 29.868 41.5034 29.7069C41.3662 29.4308 41.1637 29.2022 40.9563 28.9768C40.8403 28.851 40.7211 28.7253 40.6606 28.5603C40.5447 28.2386 40.7635 27.9724 41.1 28.0344C41.1914 28.0508 41.2796 28.0965 41.3678 28.1308C41.4364 28.1586 41.4822 28.2304 41.5655 28.2255C41.9525 27.484 42.4131 25.3314 42.2824 24.8692C42.204 24.8823 42.1502 24.9411 42.0897 24.9852C41.5263 25.382 40.9383 25.7316 40.2915 25.9782C39.9159 26.1219 39.5337 26.2346 39.1287 26.2607C38.8102 26.282 38.4982 26.2526 38.2075 26.1105C37.7812 25.9014 37.6587 25.4506 37.9135 25.0505C38.0115 24.8953 38.1405 24.7679 38.281 24.652C38.5685 24.4168 38.8543 24.1767 39.1515 23.9546C40.1494 23.2098 41.0118 22.3181 41.9084 21.4639C41.9721 21.4035 41.9934 21.3463 41.9689 21.263C41.7631 20.5885 41.5736 19.9091 41.2012 19.2999C41.0526 19.0549 41.0657 18.8671 41.2421 18.6433C41.3874 18.4604 41.5818 18.3461 41.7729 18.217C42.4817 17.7336 43.1791 17.2322 43.883 16.7438C44.0169 16.6507 44.0872 16.5332 44.1296 16.378C44.4547 15.2119 44.5347 14.0343 44.3371 12.8371C44.3028 12.6281 44.2178 12.5023 44.0316 12.3978C42.9994 11.8164 41.8856 11.4636 40.7423 11.1892C40.6361 11.1631 40.5626 11.2023 40.481 11.2611C39.4128 12.0303 38.312 12.7506 37.2112 13.4708C37.1426 13.5166 37.0561 13.5411 37.0103 13.6309C37.0397 13.6538 37.0659 13.6815 37.0969 13.7011C37.6685 14.0441 38.1438 14.4932 38.5538 15.0159C38.6942 15.1955 38.8494 15.3654 39.0062 15.532C39.145 15.6806 39.3116 15.79 39.5076 15.8505C39.9616 15.9893 40.3405 15.7182 40.3552 15.2429C40.3601 15.0992 40.3275 14.9587 40.2785 14.8232C40.2262 14.6794 40.1739 14.5357 40.1331 14.3887C39.9567 13.7387 40.2523 13.1997 40.8991 13.0086C41.9411 12.7016 43.006 13.4692 42.921 14.699C42.9129 14.8248 42.8769 14.9424 42.8018 15.0469C42.681 15.2168 42.4948 15.2919 42.3037 15.2494C42.1175 15.207 41.9836 15.0534 41.9607 14.8395C41.9509 14.7464 41.9672 14.65 41.964 14.5537C41.9493 14.1633 41.6977 13.9053 41.3417 13.9118C41.0836 13.9151 41.0167 14.0016 41.0918 14.2515C41.1555 14.4606 41.2372 14.6647 41.2649 14.8852C41.3466 15.5173 41.1833 16.0628 40.6753 16.4678C40.1641 16.8745 39.5909 16.8957 39.0013 16.6605C38.6583 16.5234 38.3806 16.2898 38.1373 16.0154C37.9348 15.7868 37.7388 15.5532 37.5395 15.3229C37.2227 14.9571 36.834 14.686 36.4142 14.4524C36.3097 14.3936 36.2068 14.3707 36.0876 14.4083C35.8916 14.4687 35.6907 14.4491 35.4914 14.4197C35.0848 14.3577 34.6911 14.2483 34.3008 14.1192C34.0934 14.0506 33.8843 13.9837 33.6687 13.9412C33.0791 13.8236 32.4993 13.6734 31.9261 13.4904C30.7191 13.1066 29.5138 12.7163 28.2823 12.4109C26.8222 12.0483 25.3441 11.9878 23.8513 12.0924C23.6962 12.1038 23.6586 12.1642 23.6635 12.3031C23.67 12.4942 23.6619 12.6852 23.6635 12.8747C23.6651 13.1082 23.6668 13.1099 23.9003 13.0984C24.8378 13.0511 25.7688 13.1164 26.6883 13.3042C27.3252 13.4349 27.9442 13.626 28.5142 13.9477C28.7821 14.098 29.0352 14.2679 29.2247 14.5145C29.5595 14.9473 29.3945 15.4062 28.8605 15.5385C28.6155 15.5989 28.3672 15.5973 28.1206 15.5646C27.7139 15.5107 27.3089 15.4552 26.9039 15.3866C25.9239 15.22 24.9391 15.1237 23.9461 15.0894C23.719 15.0812 23.7174 15.0861 23.7223 15.3017C23.7239 15.4062 23.737 15.5124 23.7321 15.6153C23.7239 15.7476 23.7713 15.8064 23.9101 15.8031C24.0718 15.7982 24.2351 15.808 24.3952 15.8211C24.8427 15.8554 25.287 15.9142 25.7149 16.0562C25.9713 16.1412 26.2097 16.2588 26.3845 16.476C26.6687 16.832 26.587 17.273 26.1934 17.5017C26.0693 17.5735 25.9321 17.6176 25.7933 17.6519C25.4944 17.7271 25.189 17.7434 24.8835 17.7271C23.8105 17.6699 22.7505 17.745 21.6987 17.9655C21.4145 18.0259 21.1287 18.0031 20.8478 17.9296C20.6518 17.8789 20.4705 17.7924 20.3333 17.6356C20.1602 17.438 20.1226 17.1848 20.2517 16.9741C20.4379 16.6687 20.673 16.4156 21.0177 16.2735C21.408 16.1118 21.8163 16.0219 22.2279 15.9419C22.4075 15.9076 22.664 15.9697 22.744 15.8015C22.8224 15.6398 22.7701 15.4111 22.7081 15.1857C22.4712 15.2347 22.2295 15.2788 21.9911 15.3327C21.1434 15.5205 20.3186 15.7884 19.4808 16.0138C19.0284 16.1363 18.5711 16.2261 18.0991 16.2163C17.8492 16.2114 17.6042 16.1706 17.3804 16.053C17.0228 15.8652 16.9297 15.5614 17.0767 15.1923C17.1926 14.8999 17.3902 14.699 17.6565 14.5488C17.8639 14.4312 18.0746 14.3185 18.3 14.2385C19.0006 13.9886 19.7029 13.7468 20.4313 13.5884C21.1026 13.4431 21.7804 13.3353 22.4582 13.2356C22.6754 13.2046 22.677 13.203 22.6803 12.9907C22.6836 12.7996 22.6852 12.6085 22.6852 12.419C22.6852 12.1985 22.6836 12.1985 22.4598 12.2181C22.432 12.2214 22.4026 12.2247 22.3749 12.2279C21.163 12.3913 19.974 12.6509 18.7981 12.9874C17.7528 13.2879 16.7369 13.6734 15.7031 14.0082C15.285 14.1437 14.8652 14.2711 14.4243 14.3005C14.163 14.3185 13.9033 14.2956 13.6828 14.1437C13.4394 13.9771 13.1879 13.822 12.9789 13.6097C12.6244 13.2487 12.2276 12.9335 11.8274 12.6248C11.4648 12.3455 11.0794 12.0875 10.7772 11.7445C10.5551 11.4913 10.2938 11.4309 9.99329 11.4244C9.8512 11.4211 9.70747 11.4276 9.56375 11.4342C8.58871 11.4734 7.66919 11.7314 6.77091 12.1005C6.4165 12.2459 6.24011 12.4386 6.18294 12.8306C6.02615 13.8938 5.95756 14.9538 6.10128 16.0219C6.11598 16.1346 6.12578 16.2375 6.24337 16.3127C6.83624 16.6981 7.37194 17.1587 7.91908 17.6029C8.03014 17.6928 8.14283 17.7826 8.24083 17.8855C8.44825 18.1027 8.46458 18.3297 8.30289 18.5812C8.0285 19.0075 7.79658 19.455 7.57283 19.9091C7.50587 20.0446 7.5075 20.1361 7.61203 20.2618C8.14446 20.9135 8.721 21.5211 9.35796 22.0698C9.65358 22.3246 9.94103 22.5908 10.2285 22.8571C10.4931 23.1037 10.7462 23.3634 10.952 23.6655C11.1823 24.0069 11.3309 24.3694 11.277 24.7924C10.9046 24.8169 10.5992 24.9656 10.4 25.2906C10.3297 25.4049 10.2432 25.4425 10.1174 25.4294C10.0619 25.4229 10.0047 25.4343 9.94756 25.4392C9.58988 25.4147 9.26323 25.2759 8.93332 25.1583C8.0971 24.861 7.28375 24.5132 6.58309 23.9481C6.55859 23.9285 6.53409 23.9268 6.50796 23.9481C6.39363 24.5965 6.46713 26.1627 6.64188 26.6805C6.79541 26.6037 6.94567 26.5253 7.09919 26.4518C7.24618 26.3816 7.39971 26.3326 7.56793 26.3506C7.77209 26.3718 7.94031 26.5024 7.98767 26.687C8.03667 26.8814 7.97461 27.0431 7.82272 27.1721C7.72635 27.2537 7.6104 27.2978 7.4977 27.3501C6.94077 27.6098 6.49163 28.0001 6.13068 28.4917C6.06535 28.5799 5.98532 28.6665 5.97879 28.8053C6.10128 28.8135 6.21234 28.8151 6.3234 28.8314C6.76764 28.8951 6.98813 29.2185 6.87707 29.6513C6.83624 29.8065 6.77418 29.9584 6.71048 30.107C6.65332 30.2409 6.66312 30.3324 6.79867 30.4173C7.06816 30.5856 7.19065 30.8501 7.22005 31.1604C7.23312 31.3025 7.23148 31.4463 7.24292 31.5884C7.25925 31.7941 7.30335 31.8219 7.49607 31.737C7.58263 31.6994 7.66593 31.6488 7.74105 31.5933C7.91254 31.4691 8.0481 31.3091 8.1804 31.1458C8.25879 31.0494 8.33719 30.953 8.42701 30.8697C8.56421 30.744 8.72753 30.7031 8.90229 30.7881C9.05418 30.8616 9.12604 31.0543 9.08848 31.2601C9.06561 31.3858 9.00845 31.4969 8.92679 31.59C8.83859 31.6896 8.85492 31.768 8.93495 31.8627C9.05255 31.9999 9.15871 32.1469 9.26813 32.289C8.98395 32.4376 8.66873 32.4654 8.36332 32.5307L8.36169 32.5226ZM7.25272 52.2064C7.36378 52.226 7.45687 52.1639 7.5516 52.128C7.98767 51.9614 8.42048 51.7899 8.85492 51.6168C9.61111 51.3163 10.3608 51.3293 11.1023 51.6674C11.2672 51.7425 11.4305 51.8193 11.5955 51.8944C12.0381 52.0937 12.4774 52.3044 12.9576 52.4007C13.2287 52.4546 13.4982 52.4579 13.7693 52.3566C13.7432 52.2341 13.673 52.1525 13.6224 52.0643C13.2385 51.3881 13.0311 50.663 13.0344 49.8823C13.036 49.3106 13.0344 48.739 13.0409 48.1674C13.0458 47.6807 13.0556 47.1956 13.0752 46.7105C13.0817 46.5537 13.0344 46.4688 12.8907 46.4018C12.6898 46.3104 12.5281 46.1585 12.3713 46.005C11.7784 45.4235 11.3178 44.7523 11.0124 43.9781C10.9765 43.8883 10.9585 43.787 10.8703 43.6972C10.7152 44.081 10.6123 44.4567 10.5192 44.8339C10.0472 46.7416 9.3204 48.5463 8.32902 50.2449C8.00237 50.8034 7.68226 51.3669 7.36378 51.932C7.31478 52.0169 7.22332 52.0937 7.25925 52.2129C7.24128 52.2031 7.23148 52.2064 7.23148 52.2243C7.23148 52.2243 7.24128 52.226 7.24618 52.226C7.28375 52.2227 7.22985 52.2341 7.25598 52.2064H7.25272ZM47.4794 50.8524C47.5317 50.9226 47.5888 50.9847 47.6934 50.9847C47.6819 50.8965 47.6444 50.8508 47.5774 50.8296C47.0384 50.2383 46.4913 49.6536 45.9605 49.0542C44.5951 47.5108 43.6266 45.7469 43.0468 43.7691C43.0092 43.6384 43.0043 43.4979 42.9276 43.3689C42.8279 43.4685 42.7871 43.5878 42.7316 43.6956C42.418 44.295 42.1191 44.9009 41.768 45.4807C41.3989 46.0915 40.9318 46.6109 40.3667 47.0486C39.9191 47.3949 39.4308 47.599 38.8559 47.5222C38.722 47.5043 38.6746 47.5516 38.6436 47.6774C38.5325 48.1298 38.4084 48.5806 38.2892 49.0314C38.0785 49.8333 37.876 50.6352 37.7714 51.46C37.7535 51.5972 37.7453 51.7066 37.9201 51.7278C38.3643 51.7785 38.7481 52.0039 39.1532 52.1639C40.0531 52.5183 40.8566 52.3501 41.5508 51.6886C41.8333 51.4192 42.0865 51.1203 42.3527 50.8345C42.5993 50.5682 42.8557 50.3135 43.1513 50.1011C43.576 49.7941 44.0463 49.6504 44.5722 49.6781C45.0949 49.7059 45.5816 49.8561 46.0569 50.0636C46.5566 50.2808 47.0139 50.5748 47.4778 50.8557L47.4794 50.8524ZM38.8641 46.833C39.6709 46.5554 40.2638 46.0376 40.7374 45.3729C41.149 44.798 41.4479 44.1578 41.7729 43.5322C41.8284 43.4261 41.8055 43.3705 41.719 43.2938C41.3891 43.0014 41.2747 42.6176 41.2894 42.1881C41.3041 41.7928 41.492 41.4989 41.8382 41.3127C42.1828 41.1281 42.5454 41.0938 42.9145 41.231C43.0125 41.2669 43.0811 41.2898 43.1562 41.1853C43.5319 40.6643 43.9908 40.2217 44.4873 39.8166C44.5722 39.748 44.5951 39.6778 44.5788 39.57C44.5004 39.0327 44.4155 38.497 44.2799 37.9711C44.1607 37.5072 43.9075 37.1087 43.6838 36.6922C43.2738 36.9862 42.7201 37.5693 42.5552 37.8763C42.5781 37.8927 42.5993 37.9106 42.6254 37.9237C43.0272 38.1148 43.1709 38.6146 43.0452 39.0898C42.9227 39.5553 42.5536 39.8362 42.0832 39.8297C41.9787 39.8297 41.8741 39.8085 41.7729 39.7889C41.5573 39.7448 41.5573 39.7431 41.4838 39.9571C41.3646 40.2984 41.2519 40.643 41.1277 40.9828C40.7815 41.9317 40.4058 42.8675 39.8799 43.7348C39.7019 44.0287 39.5223 44.3227 39.2348 44.5252C39.1744 44.5677 39.1401 44.6167 39.1401 44.6886C39.1385 45.0985 39.0192 45.5003 39.0633 45.9119C39.078 46.0491 39.0454 46.1765 38.9882 46.3006C38.9114 46.4655 38.882 46.6403 38.8657 46.8347L38.8641 46.833ZM39.2365 43.1664C39.341 42.9443 39.4488 42.7222 39.5517 42.5C40.0433 41.4335 40.4026 40.318 40.8027 39.2172C40.8387 39.1209 40.8076 39.0539 40.7668 38.9771C40.6051 38.675 40.4581 38.3647 40.3242 38.0495C39.7787 36.7576 39.1826 35.4918 38.4133 34.3142C38.3741 34.2538 38.3594 34.1705 38.2614 34.1427C38.0981 34.2799 37.9315 34.4204 37.7649 34.5609C37.729 34.5919 37.693 34.6246 37.6538 34.6507C37.5575 34.7176 37.5542 34.7944 37.6016 34.8973C37.6963 35.1047 37.7878 35.3154 37.8694 35.5294C38.5015 37.2002 38.7971 38.9445 39.0111 40.7067C39.1107 41.5201 39.1581 42.3383 39.2365 43.168V43.1664ZM28.8474 36.2807C28.8294 36.23 28.7984 36.2333 28.7723 36.2366C27.8348 36.3019 26.9545 36.5485 26.1803 37.1005C25.6332 37.4925 25.2706 38.0233 25.1334 38.6832C24.9276 39.6696 25.2004 40.545 25.8145 41.3257C25.8292 41.3437 25.8488 41.3404 25.8667 41.3241C26.28 39.2989 27.1586 37.5448 28.8474 36.2807ZM12.1377 44.1267C12.3925 44.6232 12.7077 45.0038 13.0948 45.3974C13.116 45.0495 13.1324 44.7572 13.152 44.4648C13.1585 44.3734 13.1291 44.3244 13.0279 44.3211C12.742 44.3113 12.4709 44.2264 12.1394 44.1267H12.1377Z" fill="#040404"/>
<path d="M8.36336 32.5226C8.66878 32.4573 8.98563 32.4295 9.26818 32.2809C9.36944 32.3168 9.47397 32.3054 9.57686 32.2989C10.0391 32.2646 10.5013 32.2384 10.9651 32.2352C11.362 32.2319 11.7605 32.227 12.1574 32.2172C12.2456 32.2156 12.3534 32.2548 12.404 32.1339C12.5232 32.2205 12.6572 32.2384 12.8041 32.2368C13.5228 32.227 14.2381 32.16 14.9568 32.1862C15.1266 32.1927 15.2965 32.1862 15.4614 32.1453C15.7946 32.2303 16.136 32.1796 16.4724 32.1911C16.5753 32.1943 16.688 32.0212 16.6374 31.9444C16.5557 31.8171 16.5018 31.6472 16.3107 31.6276C16.3025 31.5231 16.2339 31.4577 16.1653 31.3908C15.8632 31.0886 15.5611 30.7848 15.2246 30.5186C15.0776 30.4027 14.9241 30.3243 14.733 30.3422C14.7706 30.3161 14.8081 30.29 14.8555 30.2557C14.6285 30.0499 14.3786 29.8849 14.1385 29.7036C14.0813 29.6612 14.0127 29.6693 13.9507 29.653C13.9801 29.5877 13.9474 29.5567 13.8951 29.5191C13.7024 29.3835 13.513 29.2398 13.3251 29.0977C12.9266 28.7956 12.5102 28.5114 12.2162 28.0933C12.1557 28.0067 12.0659 28.0279 11.9908 27.9985C12.0774 27.961 12.1068 27.9152 12.0904 27.8042C12.0169 27.2979 12.324 26.9418 12.8368 26.9157C12.9789 26.9092 13.121 26.9173 13.2615 26.9451C13.6551 27.0186 14.0323 27.1427 14.4047 27.2832C14.653 27.3763 14.8931 27.4922 15.1527 27.5494C15.1576 27.5674 15.1576 27.5951 15.1691 27.6017C15.4239 27.7503 15.6933 27.8744 15.9645 27.992C16.0135 28.0132 16.051 27.9773 16.0755 27.9316C16.1556 28.0524 16.2666 28.1308 16.3973 28.1962C16.7974 28.3954 17.1927 28.6045 17.5912 28.8086C18.0387 29.0389 18.4878 29.2659 18.9353 29.4946C18.9664 29.5158 18.9958 29.5403 19.0301 29.5566C19.9332 30.0368 20.8315 30.5252 21.7184 31.0347C21.7837 31.0723 21.8458 31.1213 21.9291 31.1017C21.9813 31.1801 22.0417 31.2422 22.1267 31.2928C22.3521 31.4283 22.6085 31.4496 22.8535 31.5133C22.891 31.577 22.9253 31.6439 22.9678 31.706C23.2667 32.1274 23.3287 32.5945 23.2275 33.091C23.1442 33.5009 22.9433 33.8537 22.6852 34.1755C22.2002 34.7814 21.622 35.2828 20.954 35.6797C20.6502 35.7368 20.3448 35.7777 20.0361 35.7891C19.7993 35.6519 19.6229 35.4657 19.5625 35.1913C19.5266 35.0313 19.4269 34.979 19.2783 34.9839C19.1754 34.9186 19.0578 34.93 18.9451 34.9267C18.5646 34.9153 18.184 34.9006 17.8035 34.9055C15.8714 34.9333 13.9392 34.9169 12.0104 34.7602C11.5972 34.7193 11.184 34.6785 10.7757 34.6099C10.6499 34.5887 10.516 34.5364 10.3984 34.6442C10.2792 34.5397 10.1322 34.507 9.98354 34.4776C9.60136 34.4025 9.22735 34.3045 8.86314 34.1673C8.66715 34.0938 8.47932 34.0056 8.31273 33.8749C7.88319 33.5352 7.86033 33.0306 8.2572 32.6516C8.29804 32.6124 8.34703 32.5814 8.36336 32.5226Z" fill="#4C3C36"/>
<path d="M6.83668 34.2574C6.84485 34.615 6.57046 34.909 6.22258 34.9139C5.8698 34.9188 5.51702 34.5562 5.51539 34.1871C5.51375 33.849 5.78814 33.5779 6.13765 33.5714C6.51166 33.5649 6.83015 33.8768 6.83831 34.2574H6.83668Z" fill="#4F3E35"/>
<path d="M9.64605 35.7613C9.89431 35.7564 10.105 35.954 10.1148 36.2023C10.1246 36.4538 9.92861 36.658 9.67382 36.6629C9.41903 36.6678 9.21325 36.475 9.20508 36.2252C9.19691 35.972 9.3929 35.7662 9.64605 35.7613Z" fill="#4F3E35"/>
<path d="M13.9534 29.6527C14.0154 29.669 14.084 29.6609 14.1412 29.7033C14.3797 29.883 14.6295 30.0496 14.8582 30.2554C14.8108 30.2897 14.7733 30.3158 14.7357 30.3419C14.1771 30.4416 13.6218 30.5624 13.0731 30.7094C12.8999 30.7568 12.7333 30.8286 12.5831 30.9315C12.1209 31.2484 12.0833 31.8151 12.4034 32.1336C12.3528 32.2545 12.245 32.2153 12.1568 32.2169C11.7599 32.2267 11.3631 32.2332 10.9646 32.2349C10.5007 32.2381 10.0385 32.2659 9.5763 32.2986C9.47177 32.3067 9.36888 32.3165 9.26762 32.2806C9.15656 32.1385 9.05039 31.9915 8.93443 31.8543C8.85441 31.7596 8.83807 31.6812 8.92627 31.5816C9.00793 31.4885 9.06673 31.3774 9.08796 31.2517C9.12389 31.0459 9.05366 30.8531 8.90177 30.7797C8.72701 30.6964 8.56369 30.7356 8.4265 30.8613C8.33667 30.9446 8.25827 31.0426 8.17988 31.1373C8.04759 31.3007 7.91203 31.4607 7.74054 31.5848C7.66377 31.6404 7.58048 31.691 7.49555 31.7286C7.30446 31.8135 7.25873 31.7857 7.2424 31.5799C7.23097 31.4378 7.23423 31.2941 7.21953 31.152C7.19014 30.8433 7.06764 30.5788 6.79816 30.4089C6.6626 30.324 6.65117 30.2325 6.70996 30.0986C6.77366 29.95 6.83736 29.7997 6.87655 29.6429C6.98761 29.2101 6.76713 28.8867 6.32289 28.823C6.21346 28.8067 6.10076 28.8067 5.97827 28.7969C5.9848 28.6581 6.06483 28.5715 6.13016 28.4833C6.49274 27.9917 6.94025 27.6014 7.49718 27.3417C7.60988 27.2894 7.72584 27.2453 7.8222 27.1637C7.97409 27.0363 8.03615 26.8746 7.98716 26.6786C7.94143 26.4957 7.7732 26.365 7.56741 26.3421C7.40082 26.3242 7.24567 26.3732 7.09867 26.4434C6.94515 26.5169 6.79489 26.5953 6.64137 26.6721C6.46824 26.1543 6.39311 24.588 6.50744 23.9396C6.53357 23.92 6.55807 23.9217 6.58257 23.9396C7.2816 24.5047 8.09495 24.8526 8.9328 25.1499C9.26435 25.2675 9.58936 25.4079 9.94704 25.4308C9.96338 25.439 9.97971 25.452 9.99767 25.4553C10.241 25.5043 10.2427 25.5043 10.2263 25.7427C10.2035 26.0629 10.29 26.3454 10.5105 26.5822C10.8306 26.9268 11.3435 27.0167 11.7681 26.8076C12.2025 26.592 12.4279 26.138 12.3479 25.6415C12.2728 25.1809 11.889 24.8363 11.3859 24.7759C11.3647 24.7481 11.3386 24.7399 11.3075 24.7612L11.2847 24.7644L11.2765 24.7857C11.3288 24.3626 11.1818 24.0001 10.9515 23.6587C10.7473 23.3566 10.4942 23.0969 10.228 22.8503C9.94214 22.5841 9.65469 22.3178 9.35744 22.063C8.71885 21.5143 8.14231 20.9067 7.61151 20.2551C7.50862 20.1293 7.50698 20.0378 7.57231 19.9023C7.79443 19.4482 8.02799 19.0007 8.30237 18.5745C8.46406 18.3229 8.44936 18.0959 8.24031 17.8787C8.14231 17.7758 8.02962 17.686 7.91856 17.5961C7.37143 17.1503 6.83572 16.6897 6.24286 16.3059C6.12526 16.2307 6.1171 16.1279 6.10076 16.0152C5.95867 14.947 6.02564 13.8871 6.18243 12.8238C6.23959 12.4318 6.41598 12.2391 6.77039 12.0938C7.67031 11.7246 8.58982 11.4666 9.56323 11.4274C9.70532 11.4209 9.84905 11.416 9.99277 11.4176C10.2933 11.4225 10.5546 11.4846 10.7767 11.7377C11.0789 12.0807 11.4643 12.3404 11.8269 12.618C12.2287 12.9267 12.6239 13.2403 12.9783 13.6029C13.1874 13.8152 13.4405 13.972 13.6823 14.1369C13.9028 14.2888 14.1624 14.3117 14.4238 14.2937C14.8647 14.2643 15.2845 14.1369 15.7026 14.0014C16.7364 13.6666 17.7523 13.2811 18.7976 12.9806C19.9719 12.6442 21.1625 12.3845 22.3744 12.2211C22.4021 12.2179 22.4315 12.2146 22.4593 12.2113C22.683 12.1917 22.683 12.1917 22.6847 12.4122C22.6847 12.6033 22.6847 12.7944 22.6798 12.9839C22.6749 13.1962 22.6732 13.1962 22.4577 13.2289C21.7782 13.3285 21.1004 13.4363 20.4308 13.5816C19.704 13.7384 19.0001 13.9818 18.2994 14.2317C18.0757 14.3117 17.8634 14.4244 17.6559 14.542C17.3913 14.6922 17.1921 14.8931 17.0761 15.1855C16.9308 15.5546 17.0239 15.8584 17.3799 16.0462C17.6037 16.1638 17.8487 16.2046 18.0985 16.2095C18.5705 16.2193 19.0279 16.1295 19.4803 16.007C20.3165 15.78 21.1429 15.5138 21.9906 15.3259C22.2306 15.272 22.4707 15.2279 22.7075 15.1789C22.7696 15.4027 22.8219 15.6314 22.7435 15.7947C22.6634 15.9629 22.407 15.9008 22.2274 15.9351C21.8158 16.0152 21.4075 16.105 21.0171 16.2667C20.6725 16.4088 20.439 16.6619 20.2512 16.9673C20.1221 17.1797 20.1597 17.4328 20.3328 17.6288C20.47 17.7856 20.6497 17.8722 20.8473 17.9228C21.1282 17.9963 21.414 18.0175 21.6982 17.9587C22.75 17.7382 23.81 17.6631 24.883 17.7203C25.1868 17.7366 25.4939 17.7203 25.7927 17.6451C25.9316 17.6108 26.0688 17.5667 26.1929 17.4949C26.5865 17.2662 26.6681 16.8252 26.384 16.4692C26.2108 16.252 25.9708 16.1344 25.7143 16.0495C25.2864 15.9074 24.8422 15.8486 24.3947 15.8143C24.233 15.8012 24.0713 15.793 23.9096 15.7963C23.7692 15.7996 23.7234 15.7424 23.7316 15.6085C23.7381 15.504 23.7251 15.3994 23.7218 15.2949C23.7169 15.0809 23.7185 15.0744 23.9455 15.0826C24.9369 15.1169 25.9234 15.2132 26.9033 15.3798C27.3067 15.4484 27.7134 15.504 28.1201 15.5579C28.3667 15.5905 28.615 15.5922 28.86 15.5317C29.394 15.3994 29.559 14.9405 29.2242 14.5077C29.0331 14.2611 28.7799 14.0912 28.5137 13.9409C27.9421 13.6208 27.3247 13.4281 26.6877 13.2975C25.7682 13.1096 24.8373 13.0443 23.8998 13.0917C23.6663 13.1031 23.6646 13.1015 23.663 12.8679C23.6614 12.6768 23.6695 12.4857 23.663 12.2963C23.6581 12.1575 23.6957 12.0954 23.8508 12.0856C25.3436 11.9811 26.8217 12.0415 28.2818 12.4041C29.5133 12.7095 30.7186 13.0998 31.9256 13.4836C32.4988 13.6649 33.0786 13.8168 33.6682 13.9344C33.8838 13.9769 34.0929 14.0438 34.3003 14.1124C34.689 14.2415 35.0842 14.3509 35.4909 14.413C35.6902 14.4424 35.8911 14.462 36.087 14.4015C36.2063 14.364 36.3092 14.3885 36.4137 14.4456C36.8318 14.6792 37.2221 14.9503 37.539 15.3161C37.7382 15.5464 37.9342 15.78 38.1368 16.0086C38.3801 16.283 38.6561 16.5166 39.0007 16.6538C39.5903 16.8889 40.1636 16.8693 40.6748 16.461C41.1828 16.0576 41.3461 15.5105 41.2644 14.8784C41.2366 14.6596 41.1534 14.4554 41.0913 14.2447C41.0162 13.9948 41.0831 13.9099 41.3412 13.905C41.6972 13.9001 41.9487 14.1565 41.9634 14.5469C41.9667 14.6416 41.9504 14.738 41.9602 14.8327C41.983 15.045 42.117 15.2002 42.3032 15.2426C42.4942 15.2867 42.6804 15.21 42.8013 15.0401C42.8748 14.9356 42.9107 14.818 42.9205 14.6922C43.0054 13.4624 41.9406 12.6948 40.8986 13.0018C40.2518 13.1929 39.9562 13.7319 40.1326 14.3819C40.1718 14.5289 40.2257 14.6726 40.2779 14.8164C40.3269 14.9519 40.3596 15.0907 40.3547 15.2361C40.34 15.7097 39.9595 15.9809 39.507 15.8437C39.3111 15.7832 39.1445 15.6738 39.0056 15.5252C38.8489 15.3586 38.6953 15.1887 38.5532 15.0091C38.1433 14.4865 37.668 14.0373 37.0964 13.6943C37.0654 13.6747 37.0392 13.647 37.0098 13.6241C37.0556 13.5343 37.1421 13.5081 37.2107 13.464C38.3115 12.7454 39.414 12.0252 40.4805 11.2543C40.5621 11.1955 40.6356 11.1579 40.7418 11.1824C41.885 11.4568 42.9989 11.8096 44.0311 12.391C44.2157 12.4955 44.3022 12.6213 44.3365 12.8303C44.5342 14.0275 44.4525 15.2051 44.1291 16.3712C44.085 16.5264 44.0164 16.644 43.8825 16.7371C43.1769 17.227 42.4812 17.7284 41.7724 18.2102C41.5829 18.3393 41.3869 18.452 41.2415 18.6365C41.0652 18.8603 41.0505 19.0481 41.2007 19.2931C41.5731 19.9023 41.7626 20.5833 41.9683 21.2562C41.9945 21.3395 41.9716 21.3967 41.9079 21.4571C41.0113 22.3129 40.1473 23.2047 39.151 23.9478C38.8537 24.1699 38.5679 24.41 38.2805 24.6452C38.14 24.7595 38.011 24.8886 37.913 25.0437C37.6599 25.4455 37.7807 25.8963 38.207 26.1037C38.4977 26.2458 38.8097 26.2752 39.1281 26.2539C39.5315 26.2278 39.9137 26.1151 40.291 25.9714C40.9361 25.7248 41.5257 25.3753 42.0892 24.9784C42.1496 24.9359 42.2035 24.8771 42.2819 24.8624C42.4109 25.3263 41.952 27.4772 41.5649 28.2187C41.4816 28.2236 41.4343 28.1501 41.3673 28.124C41.2791 28.0897 41.1926 28.044 41.0995 28.0276C40.763 27.9656 40.5442 28.2318 40.6601 28.5535C40.7205 28.7201 40.8398 28.8443 40.9557 28.97C41.1632 29.1954 41.364 29.4241 41.5029 29.7001C41.5834 29.8623 41.547 29.9902 41.3934 30.0839C41.1795 30.2162 41.0913 30.4236 41.1648 30.6735C41.204 30.809 41.2709 30.9381 41.3248 31.0704C41.3755 31.1929 41.4457 31.3072 41.4653 31.4395C41.4163 31.5032 41.3575 31.4607 41.3052 31.4607C40.9966 31.4607 40.8022 31.6338 40.7793 31.9441C40.7695 32.0764 40.7826 32.2104 40.7793 32.3443C40.7744 32.6285 40.7222 32.666 40.4543 32.5484C40.0705 32.3786 39.7733 32.0993 39.5152 31.7743C39.4629 31.7073 39.4172 31.6322 39.3584 31.5718C39.2261 31.4395 39.0677 31.3921 38.888 31.4591C38.7198 31.5211 38.6137 31.691 38.6104 31.8886C38.6071 32.0274 38.6594 32.1499 38.7264 32.2659C38.8124 32.4162 38.7933 32.5555 38.6692 32.684C37.9849 33.3928 37.2417 34.0314 36.4447 34.6096C35.4223 35.3495 34.3313 35.9717 33.1848 36.5009C33.0264 36.5744 32.9153 36.5728 32.7797 36.4519C32.4498 36.1612 32.066 35.9489 31.6855 35.7316C31.7933 35.4148 31.8472 35.0914 31.8602 34.7566C31.8831 34.1735 31.8374 33.6003 31.6789 33.0368C31.7737 33.0319 31.8684 33.027 31.9631 33.0221C32.4694 33.0009 32.9692 32.9437 33.4445 32.7542C33.696 32.6546 33.923 32.519 34.0912 32.3002C34.3754 31.9311 34.2349 31.5064 33.9932 31.2974C33.727 31.0671 33.4004 30.9266 33.0476 30.8515C32.5903 30.7551 32.1248 30.7192 31.6626 30.6555C31.7671 30.4759 31.8929 30.3011 31.8619 30.0741C31.8896 30.0692 31.9174 30.0594 31.9451 30.0594C32.783 30.0545 33.6176 29.9826 34.4538 29.9385C34.7576 29.9222 35.0614 29.8912 35.3488 29.7785C35.6706 29.6527 35.9041 29.4355 35.9466 29.0778C35.9874 28.7332 35.8192 28.4735 35.553 28.2726C35.3292 28.1044 35.0728 28.0048 34.8033 27.9345C34.4032 27.83 33.9965 27.817 33.5866 27.817C32.5984 27.817 31.6087 27.8937 30.6206 27.8072C30.4883 27.7957 30.3544 27.8072 30.2221 27.8137C29.8138 27.8317 29.4594 27.9639 29.198 28.2955C28.5872 28.2449 27.9927 28.2841 27.4603 28.6319C27.3165 28.6058 27.199 28.5192 27.0683 28.4653C25.9544 28.008 24.7883 27.7533 23.5944 27.6634C22.7614 27.5997 21.9236 27.6406 21.0972 27.781C20.3573 27.9068 19.6387 28.1158 18.9429 28.4C18.7322 28.1861 18.4807 28.0374 18.1965 27.9427C17.8781 27.8366 17.5498 27.7957 17.2166 27.781C16.8344 27.7647 16.4604 27.8398 16.0864 27.9002C15.9394 27.7484 15.7744 27.6242 15.5572 27.5948C15.4674 27.5328 15.3678 27.523 15.2632 27.5442L15.1554 27.5409C14.8958 27.4838 14.6557 27.3678 14.4074 27.2747C14.035 27.1343 13.6578 27.0085 13.2642 26.9366C13.1237 26.9105 12.9816 26.9007 12.8395 26.9072C12.3267 26.9334 12.0196 27.2894 12.0931 27.7957C12.1095 27.9068 12.0801 27.9525 11.9935 27.9901C11.5084 27.995 11.0233 27.9966 10.5399 28.0031C10.2623 28.0064 9.98951 28.0391 9.73636 28.1648C9.19412 28.4343 9.11736 29.0598 9.5763 29.4535C9.75922 29.6102 9.97644 29.7082 10.2067 29.7752C10.5366 29.8716 10.8764 29.9173 11.2177 29.9434C12.1487 30.0153 13.0551 29.8601 13.955 29.6445L13.9534 29.6527ZM9.5028 15.8878C9.61876 15.8208 9.70859 15.7718 9.79515 15.7146C9.89151 15.6526 9.97154 15.5693 10.0418 15.4778C10.5905 14.7625 10.4599 13.6486 9.75759 13.0786C9.12389 12.5625 8.25174 12.7193 7.8369 13.4216C7.68664 13.6747 7.62784 13.9507 7.63928 14.2431C7.65234 14.5632 7.75034 14.8605 7.8859 15.1463C8.27624 15.9727 8.86257 16.6407 9.56323 17.2172C9.70206 17.3316 9.85395 17.4328 10.0303 17.4867C10.2002 17.539 10.3554 17.5145 10.4729 17.3773C10.5905 17.2417 10.5938 17.0833 10.5252 16.9216C10.4664 16.7844 10.3635 16.6881 10.2492 16.5999C9.98461 16.3957 9.75269 16.1556 9.5028 15.8861V15.8878ZM29.4463 25.1727C29.43 24.7007 29.3287 24.2402 29.0069 23.8547C28.6264 23.4007 28.0548 23.337 27.5762 23.6881C27.4684 23.7682 27.3672 23.858 27.292 23.969C26.7482 24.7579 26.6257 25.6104 27.0013 26.4924C27.377 27.3711 28.3275 27.4756 28.9318 26.7325C28.9972 26.6508 29.0576 26.5643 29.1098 26.4728C29.3385 26.0743 29.4316 25.6415 29.4447 25.1711L29.4463 25.1727ZM19.4035 25.3442C19.3953 25.2299 19.3953 25.1156 19.3806 25.0029C19.3088 24.4802 19.1258 24.0066 18.7192 23.6489C18.2553 23.2406 17.6608 23.2782 17.2444 23.7339C17.0941 23.8972 16.9863 24.0883 16.9161 24.2973C16.6858 24.9882 16.7234 25.6643 17.0304 26.3242C17.1366 26.5512 17.2852 26.7488 17.4828 26.904C17.9173 27.2421 18.4595 27.2143 18.8596 26.8354C19.0213 26.6819 19.1356 26.4973 19.2222 26.2931C19.348 25.991 19.4035 25.6741 19.4035 25.3459V25.3442ZM15.5017 25.2626C15.4968 24.8935 15.1734 24.5684 14.8092 24.5652C14.4662 24.5635 14.1951 24.8379 14.1984 25.1825C14.2033 25.5761 14.5299 25.9044 14.9039 25.8946C15.2485 25.8848 15.505 25.6137 15.5017 25.2626ZM13.0943 23.6685C13.4601 23.6685 13.7721 23.3631 13.7786 23.0005C13.7852 22.6494 13.5189 22.3848 13.1645 22.393C12.8068 22.3995 12.4916 22.7196 12.49 23.0757C12.4884 23.4039 12.7578 23.6685 13.0943 23.6685Z" fill="#C1E1EA"/>
<path d="M30.651 45.0005C31.1345 45.1067 31.6195 45.2047 32.0997 45.3207C32.5668 45.4333 33.0372 45.4872 33.5174 45.4595C33.6399 45.4529 33.7623 45.4252 33.8848 45.4089C33.9649 45.3974 34.0384 45.3746 34.0645 45.2913C34.0955 45.19 34.022 45.1296 33.9534 45.0789C33.8391 44.994 33.7231 44.9091 33.599 44.8405C33.39 44.7245 33.1646 44.6494 32.9327 44.5906C32.0099 44.357 31.0724 44.1774 30.1594 43.9079C29.0766 43.5878 28.0427 43.1533 27.1036 42.5148C26.9534 42.4135 26.8113 42.3008 26.6643 42.1946C26.5924 42.144 26.5712 42.0819 26.599 41.997C26.8292 41.2621 26.9713 40.501 27.2735 39.7856C27.7651 38.6178 28.4853 37.6314 29.4914 36.8556C29.6204 36.7559 29.7462 36.6547 29.8752 36.5583C30.1213 36.3732 30.3968 36.322 30.7017 36.4048C30.8013 36.4326 30.9009 36.4636 30.9989 36.4914C31.0185 36.6041 30.9221 36.6204 30.8699 36.6645C30.2525 37.179 29.8344 37.8274 29.5617 38.577C29.5061 38.7305 29.4702 38.889 29.4686 39.0523C29.4637 39.5602 29.8687 39.8395 30.3407 39.6549C30.5383 39.5782 30.7066 39.4508 30.8682 39.3169C31.4693 38.8171 32.0719 38.319 32.6681 37.8127C32.7661 37.7294 32.8249 37.731 32.8984 37.8225C32.9343 37.8666 32.9768 37.9057 33.0176 37.9449C33.0666 37.9939 33.0682 38.0397 33.0225 38.0936C32.9359 38.1948 32.8559 38.2977 32.7465 38.3794C32.4705 38.5884 32.2483 38.8498 32.0703 39.147C31.9805 39.2956 31.9135 39.4524 31.8939 39.6255C31.8498 40.0273 32.1062 40.336 32.5096 40.3621C32.735 40.3768 32.9441 40.3131 33.1466 40.2249C33.5059 40.0682 33.8473 39.8771 34.1413 39.6157C34.2327 39.5341 34.2915 39.5308 34.3699 39.6288C34.4646 39.7464 34.5741 39.8558 34.6819 39.9636C34.7635 40.0453 34.8582 40.1074 34.9677 40.1482C35.1163 40.2021 35.2535 40.1858 35.3646 40.0763C35.4805 39.962 35.4772 39.8232 35.4185 39.6794C35.3662 39.5553 35.2976 39.441 35.2208 39.3332C34.7194 38.626 34.2621 37.8862 33.6562 37.259C33.6448 37.2459 33.6431 37.2247 33.6252 37.1773C34.7243 36.6449 35.7892 36.0439 36.7985 35.3154C36.988 35.7009 37.1203 36.0765 37.2379 36.4554C37.625 37.6967 37.8618 38.969 38.0349 40.256C38.1656 41.2196 38.2407 42.1897 38.2603 43.1631C38.275 43.8507 38.2391 44.5351 38.1656 45.2194C38.1509 45.3533 38.1051 45.4399 37.9892 45.5183C37.4535 45.8809 36.8524 46.0948 36.2547 46.3202C35.4593 46.6207 34.6231 46.7775 33.8064 47.0029C33.4945 47.0895 33.1842 47.1842 32.8755 47.2805C32.7203 47.3295 32.575 47.3998 32.4427 47.4961C31.9201 47.8783 31.9641 48.5741 32.5325 48.886C32.7971 49.0314 33.0911 49.0836 33.3851 49.1098C34.5349 49.211 35.67 49.1098 36.7855 48.8109C37.006 48.7521 37.2101 48.6459 37.4616 48.5414C37.3734 48.8925 37.2934 49.2127 37.2134 49.5311C37.1938 49.6063 37.1464 49.6291 37.0664 49.6308C36.2498 49.6406 35.4593 49.8072 34.677 50.0277C34.5202 50.0717 34.3683 50.1289 34.2262 50.2073C33.9485 50.3608 33.7672 50.5879 33.7705 50.9145C33.7738 51.2558 33.9665 51.4845 34.2621 51.6282C34.3813 51.6854 34.5104 51.7279 34.6378 51.7622C35.3401 51.9516 36.0505 51.9598 36.7561 51.8405C36.8002 51.8667 36.8132 51.9026 36.81 51.9418C36.7659 52.3534 36.8247 52.7601 36.8769 53.1667C36.9341 53.6093 36.8933 53.6583 36.4539 53.7073C36.1403 53.7433 35.8268 53.7596 35.5115 53.7596C33.5174 53.7596 31.5281 53.887 29.5388 53.9981C29.1664 54.0193 28.7957 54.0193 28.4249 53.985C28.1538 53.9605 27.9382 53.8674 27.7961 53.6093C27.525 53.121 27.084 52.8515 26.5532 52.7241C25.6647 52.5118 24.7599 52.4889 23.8535 52.533C23.6444 52.5428 23.4354 52.5575 23.228 52.5902C22.7478 52.6637 22.3035 52.827 21.9132 53.1128C21.1897 53.642 20.3796 53.8494 19.4927 53.8217C18.5847 53.7939 17.6864 53.709 16.8061 53.4722C15.4848 53.1177 14.6436 52.2489 14.1455 51.0076C14.1014 50.8965 14.0393 50.7822 14.0638 50.6369C14.152 50.6058 14.2468 50.6287 14.3366 50.6287C14.7596 50.6287 15.1744 50.5862 15.5746 50.4441C15.7183 50.3935 15.8588 50.3347 15.9829 50.2432C16.4173 49.9264 16.4484 49.3744 16.0531 49.0101C15.9323 48.8991 15.7902 48.8207 15.6416 48.7554C15.2545 48.5839 14.8429 48.5055 14.4264 48.4467C14.2729 48.4254 14.1275 48.494 13.9707 48.4924C13.9414 48.3356 13.9609 48.187 13.9642 48.0269C14.1618 48.0531 14.3399 48.0874 14.5179 48.0988C15.3378 48.1543 16.1299 47.9959 16.9122 47.7689C17.0968 47.715 17.2683 47.6317 17.4153 47.5059C17.8399 47.1417 17.8138 46.557 17.3581 46.232C17.185 46.1079 16.9857 46.0376 16.7832 45.9854C16.0711 45.8008 15.3459 45.6898 14.6142 45.6179C14.4134 45.5983 14.2206 45.6359 14.0214 45.6947C13.9903 45.4317 14.0197 45.1851 14.0344 44.9401C14.1308 43.2742 14.3464 41.6197 14.5571 39.9636C14.593 39.6794 14.6159 39.3953 14.5832 39.1078C14.5652 38.9445 14.5179 38.7893 14.4215 38.6554C14.3154 38.5084 14.2288 38.5002 14.0932 38.626C13.9022 38.804 13.8205 39.0376 13.7797 39.2858C13.7192 39.6435 13.6621 40.0012 13.6163 40.3605C13.4938 41.3339 13.3795 42.309 13.2603 43.284C13.2374 43.4767 13.2342 43.4767 13.0529 43.4392C12.6021 43.3493 12.1922 43.1321 11.7512 43.0113C11.7005 42.9966 11.6728 42.9655 11.6581 42.9149C11.534 42.4854 11.436 42.0509 11.3788 41.5871C11.5111 41.6132 11.6189 41.6442 11.7283 41.6524C12.0337 41.6753 12.2967 41.5871 12.4682 41.3176C12.638 41.0481 12.5825 40.7819 12.411 40.5418C12.1742 40.2102 11.8818 39.9636 11.4327 40.0208C11.4066 40.0241 11.3788 40.011 11.3396 40.0012C11.3641 39.7448 11.3608 39.49 11.4425 39.2319C11.7593 39.3757 12.0844 39.4394 12.4208 39.4426C12.527 39.4426 12.6299 39.4328 12.7311 39.4034C13.0904 39.3005 13.2717 38.9951 13.1852 38.6325C13.1378 38.4333 13.0365 38.2602 12.9059 38.1066C12.6397 37.7947 12.3669 37.4876 12.0092 37.2753C11.9374 37.2329 11.9194 37.1904 11.9455 37.1153C12.0501 36.8082 12.1742 36.5093 12.3212 36.2202C12.3587 36.1451 12.4045 36.1223 12.478 36.1761C12.509 36.199 12.5433 36.217 12.5743 36.2366C14.1504 37.2084 15.8359 37.9286 17.6161 38.4333C17.6962 38.4562 17.786 38.4594 17.853 38.5198C17.835 38.6489 17.7321 38.7338 17.6847 38.8481C17.1833 40.0567 16.9726 41.3225 16.9285 42.6225C16.9171 42.9361 16.9465 43.2481 16.9743 43.56C17.0216 44.0925 17.1066 44.6184 17.2846 45.1181C17.7288 46.3627 18.5618 47.2903 19.7067 47.9289C20.9251 48.61 22.2496 48.9105 23.6379 48.9464C24.0952 48.9579 24.5558 48.9742 25.0098 48.9334C25.5945 48.8811 26.1727 48.7717 26.7378 48.6035C27.3437 48.4238 27.9219 48.1837 28.4592 47.8538C29.1746 47.4128 29.7413 46.8102 30.2231 46.1324C30.4599 45.7992 30.6298 45.4252 30.6527 45.0022L30.651 45.0005Z" fill="#C0DFE8"/>
<path d="M18.9447 28.4104C19.6405 28.1262 20.3591 27.9171 21.099 27.7914C21.9254 27.6509 22.7633 27.6101 23.5962 27.6738C24.7917 27.7636 25.9562 28.0184 27.0701 28.4757C27.2024 28.5296 27.3184 28.6162 27.4621 28.6423C27.0489 29.1404 27.0538 29.5928 27.4784 30.0599C27.5813 30.1726 27.6924 30.2739 27.8149 30.3654C28.3048 30.7312 28.8667 30.9256 29.4563 31.053C29.0545 31.6262 29.2864 32.2011 29.7731 32.5359C30.0116 32.7009 30.2794 32.794 30.5554 32.8707C30.9246 32.972 31.3067 32.9883 31.6824 33.0439C31.8408 33.6057 31.8865 34.1806 31.8637 34.7637C31.8506 35.0969 31.7967 35.4219 31.6889 35.7387C31.1091 35.5166 30.5146 35.3614 29.8956 35.3043C28.6658 35.19 27.4882 35.3729 26.3646 35.8955C25.8664 36.1274 25.4352 36.4508 25.0514 36.8395C24.991 36.8036 24.9649 36.7415 24.9289 36.686C24.6791 36.3071 24.341 36.0441 23.8967 35.9347C23.4999 35.8367 23.0981 35.7714 22.693 35.7224C22.1149 35.6505 21.5367 35.6767 20.9585 35.6816C21.6265 35.2847 22.2047 34.7833 22.6898 34.1773C22.9478 33.8556 23.1487 33.5028 23.232 33.0929C23.3316 32.5964 23.2712 32.1309 22.9723 31.7079C22.9299 31.6475 22.8956 31.5805 22.858 31.5168C22.9021 31.2522 22.8792 30.986 22.8874 30.7214C22.8923 30.5303 22.9413 30.3801 23.0785 30.238C23.3153 29.9946 23.4656 29.6957 23.5244 29.3593C23.5913 28.9787 23.4378 28.7354 23.0768 28.6129C22.7192 28.4904 22.3648 28.5067 22.0103 28.6145C21.5171 28.7648 21.3097 29.1796 21.4844 29.6696C21.5645 29.8966 21.6788 30.1073 21.8633 30.2657C21.963 30.3507 21.9891 30.4389 21.9728 30.5646C21.9499 30.7443 21.9466 30.9256 21.9352 31.1052C21.8519 31.1248 21.7899 31.0758 21.7245 31.0383C20.8377 30.5287 19.9394 30.0403 19.0362 29.5602C19.0035 29.5422 18.9741 29.5177 18.9431 29.4981C19.1587 29.1372 19.1963 28.7762 18.9496 28.4136L18.9447 28.4104Z" fill="#FCFEFB"/>
<path d="M47.4807 50.8525C47.0169 50.5716 46.5596 50.2776 46.0598 50.0604C45.5862 49.8546 45.0978 49.7043 44.5752 49.6749C44.0477 49.6455 43.5789 49.7909 43.1543 50.0979C42.8587 50.3103 42.6022 50.5667 42.3556 50.8313C42.0894 51.1171 41.8362 51.416 41.5537 51.6854C40.8596 52.3485 40.056 52.5151 39.1561 52.1607C38.7494 52.0007 38.3672 51.7753 37.923 51.7246C37.7482 51.705 37.7564 51.594 37.7744 51.4568C37.8789 50.632 38.0814 49.8301 38.2921 49.0282C38.4113 48.5774 38.5355 48.1266 38.6465 47.6742C38.6776 47.5485 38.7249 47.5011 38.8589 47.5191C39.4338 47.5958 39.9221 47.3917 40.3696 47.0454C40.9347 46.6093 41.4018 46.0883 41.7709 45.4775C42.1221 44.8977 42.421 44.2918 42.7345 43.6924C42.7917 43.5846 42.8309 43.4654 42.9305 43.3657C43.0073 43.4931 43.0122 43.6352 43.0497 43.7659C43.6295 45.7437 44.5981 47.5093 45.9634 49.051C46.4942 49.6504 47.0414 50.2351 47.5804 50.8264C47.5477 50.8345 47.5134 50.8411 47.4807 50.8492V50.8525Z" fill="#0090FD"/>
<path d="M7.26042 52.213C7.22286 52.0938 7.31595 52.017 7.36495 51.9321C7.68343 51.367 8.00355 50.8051 8.33019 50.2449C9.32157 48.5464 10.0484 46.7433 10.5204 44.834C10.6135 44.4567 10.7164 44.0794 10.8715 43.6973C10.9597 43.7871 10.9777 43.8884 11.0136 43.9782C11.3207 44.7523 11.7812 45.422 12.3725 46.005C12.5293 46.1586 12.6909 46.3104 12.8918 46.4019C13.0356 46.4672 13.0829 46.5538 13.0764 46.7106C13.0568 47.1957 13.047 47.6824 13.0421 48.1674C13.0356 48.7391 13.0388 49.3107 13.0356 49.8823C13.0323 50.663 13.2397 51.3866 13.6235 52.0644C13.6742 52.1542 13.7444 52.2342 13.7705 52.3567C13.501 52.458 13.2299 52.4547 12.9588 52.4008C12.4786 52.3044 12.0393 52.0938 11.5967 51.8945C11.4317 51.8194 11.2684 51.7426 11.1034 51.6675C10.3619 51.3278 9.61392 51.3163 8.8561 51.6168C8.42329 51.7883 7.98885 51.9615 7.55277 52.1281C7.45804 52.164 7.36495 52.226 7.25389 52.2064L7.25879 52.213H7.26042Z" fill="#0090FD"/>
<path d="M20.9526 35.6798C21.5307 35.6765 22.1105 35.6504 22.6871 35.7206C23.0921 35.7713 23.4955 35.8366 23.8908 35.933C24.335 36.0424 24.6731 36.3053 24.923 36.6842C24.9589 36.7398 24.985 36.8035 25.0455 36.8378C25.3803 37.9549 25.0161 38.8842 24.2713 39.709C24.2337 39.7515 24.1994 39.7972 24.1635 39.8413C23.8385 40.0797 23.5151 40.3182 23.1525 40.4979C23.0513 40.5126 22.9647 40.5583 22.8781 40.6105C22.4127 40.7543 21.939 40.8408 21.4474 40.831C20.7076 40.818 20.0281 40.5861 19.3716 40.2757C19.1103 40.1516 18.9094 39.9475 18.7395 39.7123C18.4831 39.3579 18.2512 38.9887 18.0552 38.5968C18.047 38.5755 18.0389 38.5543 18.0307 38.5331C17.967 38.213 17.9033 37.8945 17.8396 37.5744C17.9066 37.4911 17.8788 37.3914 17.8853 37.2983C17.8919 37.2036 17.8919 37.1073 17.9343 37.0191C18.1466 36.5781 18.4357 36.2139 18.9241 36.0587C19.0515 36.0179 19.1805 35.9868 19.3095 35.9558C19.5496 35.8987 19.7913 35.8431 20.0314 35.7876C20.3401 35.7778 20.6455 35.7353 20.9493 35.6782L20.9526 35.6798ZM21.4589 36.0701C21.0195 36.0505 20.5377 36.111 20.0592 36.1992C19.6656 36.271 19.2785 36.369 18.942 36.6107C18.5664 36.8835 18.5631 37.2804 18.9502 37.545C19.1168 37.6593 19.303 37.7328 19.4941 37.7948C20.5867 38.1574 21.6973 38.2113 22.821 37.968C23.2342 37.8781 23.6311 37.7491 23.9626 37.4698C24.3007 37.184 24.2925 36.8525 23.9332 36.5928C23.7389 36.4523 23.5151 36.3641 23.2865 36.2955C22.7067 36.1208 22.1122 36.0554 21.4572 36.0685L21.4589 36.0701ZM24.5277 38.1868C24.5391 38.079 24.5277 38.0104 24.4493 37.9908C24.3856 37.9745 24.3432 38.0219 24.3154 38.0758C24.2942 38.1182 24.2762 38.1623 24.2615 38.2081C24.1374 38.5559 23.9316 38.8467 23.6752 39.1096C23.3991 39.3922 23.0839 39.6159 22.7328 39.7923C22.656 39.8315 22.5629 39.874 22.6038 39.9801C22.6446 40.0912 22.741 40.0634 22.821 40.0242C23.5755 39.6633 24.1733 39.1455 24.4804 38.3436C24.5032 38.2816 24.5195 38.2179 24.5277 38.1885V38.1868Z" fill="#FDCE22"/>
<path d="M38.8666 46.8328C38.8813 46.6369 38.9124 46.4637 38.9891 46.2988C39.0463 46.1763 39.0789 46.0473 39.0642 45.9101C39.0201 45.4985 39.1377 45.0967 39.141 44.6868C39.141 44.6133 39.1769 44.5659 39.2357 44.5234C39.5232 44.3193 39.7028 44.0253 39.8809 43.733C40.4068 42.8657 40.7824 41.9299 41.1287 40.981C41.2528 40.6412 41.3655 40.2983 41.4847 39.9553C41.5582 39.7413 41.5582 39.7446 41.7738 39.7871C41.8767 39.8083 41.9812 39.8263 42.0841 39.8279C42.5561 39.8344 42.9236 39.5535 43.0461 39.088C43.1718 38.6128 43.0281 38.1113 42.6263 37.9219C42.6018 37.9105 42.579 37.8909 42.5561 37.8745C42.7211 37.5675 43.2747 36.986 43.6847 36.6904C43.9084 37.1069 44.1616 37.5054 44.2808 37.9693C44.4164 38.4952 44.5013 39.0309 44.5797 39.5682C44.596 39.676 44.5732 39.7462 44.4882 39.8148C43.9917 40.2199 43.5328 40.6625 43.1571 41.1835C43.082 41.288 43.0134 41.2651 42.9154 41.2292C42.5463 41.092 42.1837 41.1263 41.8391 41.3109C41.4929 41.4971 41.305 41.791 41.2903 42.1863C41.274 42.6158 41.39 42.9996 41.7199 43.292C41.8065 43.3687 41.8293 43.4243 41.7738 43.5304C41.4488 44.156 41.1499 44.7962 40.7383 45.3711C40.2647 46.0358 39.6718 46.5536 38.865 46.8312L38.8666 46.8328Z" fill="#BDDCE5"/>
<path d="M39.2387 43.1664C39.1603 42.3367 39.1129 41.5185 39.0133 40.7051C38.7993 38.9428 38.5037 37.1985 37.8716 35.5277C37.7916 35.3138 37.7002 35.1031 37.6038 34.8957C37.5564 34.7928 37.5597 34.716 37.6561 34.6491C37.6953 34.6213 37.7296 34.5886 37.7671 34.5592C37.9337 34.4188 38.1019 34.2783 38.2636 34.1411C38.36 34.1689 38.3763 34.2522 38.4155 34.3126C39.1848 35.4902 39.7793 36.7559 40.3264 38.0478C40.4603 38.3647 40.6073 38.6734 40.769 38.9755C40.8098 39.0523 40.8409 39.1176 40.8049 39.2156C40.4048 40.3164 40.0455 41.4335 39.5539 42.4984C39.451 42.7222 39.3432 42.9426 39.2387 43.1648V43.1664Z" fill="#0090FD"/>
<path d="M20.0363 35.7874C19.7962 35.843 19.5545 35.8985 19.3144 35.9557C19.1854 35.9867 19.0547 36.0177 18.929 36.0585C18.4406 36.2137 18.1516 36.5779 17.9392 37.0189C17.8968 37.1071 17.8951 37.2034 17.8902 37.2982C17.8837 37.3913 17.9131 37.4909 17.8445 37.5742C17.4493 37.4697 17.0557 37.357 16.68 37.1904C16.6833 37.0744 16.6098 36.9977 16.5396 36.9209C16.0806 36.4358 15.7915 35.8462 15.5171 35.2468C15.4061 35.0035 15.429 34.9839 15.705 34.9822C15.9532 34.9822 16.1998 34.9822 16.4481 34.9822C17.3921 34.9822 18.3345 34.9822 19.2785 34.9822C19.4271 34.9773 19.5268 35.0296 19.5627 35.1897C19.6231 35.4641 19.8011 35.6502 20.0363 35.7874Z" fill="#FCFEFB"/>
<path d="M28.848 36.2809C27.1592 37.545 26.2821 39.2991 25.8673 41.3243C25.8493 41.3423 25.8297 41.3439 25.815 41.3259C25.2009 40.5436 24.9282 39.6698 25.134 38.6834C25.2712 38.0235 25.6337 37.4927 26.1809 37.1008C26.9534 36.5471 27.8337 36.3021 28.7728 36.2368C28.799 36.2351 28.83 36.2302 28.848 36.2809Z" fill="#F7F9F7"/>
<path d="M19.2758 34.9821C18.3318 34.9821 17.3894 34.9821 16.4454 34.9821C16.1971 34.9821 15.9505 34.9821 15.7023 34.9821C15.4246 34.9821 15.4034 35.0033 15.5145 35.2466C15.7872 35.8444 16.0779 36.434 16.5369 36.9207C16.6087 36.9958 16.6822 37.0726 16.6773 37.1902C16.4699 37.1559 16.2804 37.0628 16.0877 36.9877C14.737 36.4634 13.4615 35.7987 12.2692 34.9739C12.1761 34.9102 12.0716 34.8596 12.0095 34.7583C13.9384 34.9151 15.8689 34.9314 17.8026 34.9037C18.1832 34.8988 18.5637 34.9135 18.9443 34.9249C19.057 34.9282 19.1745 34.9151 19.2774 34.9821H19.2758Z" fill="#BDDCE5"/>
<path d="M11.3859 24.781C11.8906 24.8414 12.2728 25.186 12.3479 25.6466C12.4279 26.1431 12.2025 26.5971 11.7681 26.8127C11.3451 27.0234 10.8322 26.932 10.5105 26.5873C10.2916 26.3505 10.2034 26.068 10.2263 25.7479C10.2443 25.5094 10.2426 25.5094 9.99765 25.4604C9.97969 25.4571 9.96335 25.4441 9.94702 25.4359C10.0042 25.4326 10.0613 25.4212 10.1169 25.4261C10.2426 25.4392 10.3292 25.4016 10.3994 25.2873C10.5987 24.9623 10.9025 24.8136 11.2765 24.7891L11.2846 24.7679L11.3075 24.7646C11.3336 24.7695 11.3598 24.7744 11.3859 24.7793V24.781Z" fill="#4C3C36"/>
<path d="M12.1381 44.1265C12.4697 44.2261 12.7408 44.311 13.0266 44.3208C13.1279 44.3241 13.1572 44.3731 13.1507 44.4645C13.1311 44.7569 13.1148 45.0492 13.0936 45.3971C12.7081 45.0019 12.3929 44.6213 12.1365 44.1265H12.1381Z" fill="#F7F9F7"/>
<path d="M18.0342 38.5329C18.0424 38.5541 18.0506 38.5753 18.0587 38.5966C18.0146 38.5917 17.9722 38.5835 17.9509 38.5378C17.9787 38.5362 18.0065 38.5345 18.0359 38.5312L18.0342 38.5329Z" fill="#C0DFE8"/>
<path d="M25.3985 42.2861C25.3707 42.2861 25.3576 42.2714 25.3593 42.2436C25.3919 42.2403 25.4034 42.255 25.3985 42.2861Z" fill="#345B81"/>
<path d="M13.9552 29.653C13.0553 29.8686 12.1488 30.0238 11.2179 29.9519C10.8765 29.9258 10.5368 29.88 10.2069 29.7837C9.97662 29.7167 9.76103 29.6203 9.57647 29.4619C9.1159 29.0667 9.19429 28.4411 9.73653 28.1733C9.98968 28.0475 10.2624 28.0165 10.5401 28.0116C11.0252 28.0051 11.5102 28.0018 11.9937 27.9985C12.0688 28.0279 12.1586 28.0083 12.2191 28.0933C12.513 28.5097 12.9295 28.7939 13.328 29.0977C13.5158 29.2398 13.7053 29.3819 13.898 29.5191C13.9519 29.5566 13.9846 29.5877 13.9536 29.653H13.9552Z" fill="#030302"/>
<path d="M12.405 32.1321C12.0832 31.8136 12.1224 31.2469 12.5846 30.9301C12.7349 30.8272 12.8998 30.7553 13.0746 30.7079C13.6234 30.5609 14.177 30.4401 14.7372 30.3405C14.9283 30.3225 15.0819 30.4009 15.2288 30.5185C15.5653 30.7863 15.8674 31.0885 16.1696 31.3906C16.2366 31.4576 16.3068 31.5245 16.3149 31.6274C16.0765 31.8724 15.7743 32.0162 15.464 32.1452C15.2974 32.1844 15.1292 32.1909 14.9594 32.186C14.2407 32.1599 13.5237 32.2268 12.8067 32.2366C12.6614 32.2383 12.5275 32.2203 12.4066 32.1337L12.405 32.1321Z" fill="#030302"/>
<path d="M21.929 31.1014C21.9404 30.9201 21.9437 30.7389 21.9665 30.5608C21.9829 30.4367 21.9567 30.3469 21.8571 30.2619C21.6725 30.1035 21.5582 29.8928 21.4782 29.6658C21.3051 29.1775 21.5109 28.761 22.0041 28.6107C22.3585 28.5029 22.7145 28.4866 23.0706 28.6091C23.4332 28.7332 23.5851 28.9766 23.5181 29.3555C23.4577 29.6919 23.3074 29.9908 23.0722 30.2342C22.935 30.3746 22.8877 30.5265 22.8811 30.7176C22.873 30.9822 22.8975 31.2501 22.8517 31.513C22.6068 31.4493 22.3503 31.4281 22.1249 31.2909C22.04 31.2403 21.9796 31.1782 21.9273 31.0998L21.929 31.1014Z" fill="#040404"/>
<path d="M18.9439 28.41C19.1905 28.7726 19.153 29.1352 18.9374 29.4945C18.4882 29.2658 18.0407 29.0388 17.5916 28.8085C17.1931 28.6044 16.7995 28.3937 16.3977 28.1961C16.267 28.1307 16.156 28.0523 16.0759 27.9315L16.0857 27.9086C16.4597 27.8482 16.8338 27.773 17.2159 27.7894C17.5491 27.8024 17.8774 27.8449 18.1959 27.9511C18.4801 28.0458 18.7299 28.1944 18.9423 28.4084L18.9439 28.41Z" fill="#FDCE22"/>
<path d="M15.4646 32.1452C15.7749 32.0162 16.0754 31.8724 16.3155 31.6274C16.5066 31.647 16.5605 31.8169 16.6422 31.9443C16.6912 32.0211 16.5785 32.1942 16.4772 32.1909C16.1391 32.1795 15.7994 32.2301 15.4662 32.1452H15.4646Z" fill="#F7F9F7"/>
<path d="M16.0866 27.9086L16.0768 27.9315C16.054 27.9772 16.0164 28.0132 15.9658 27.9919C15.6947 27.8743 15.4268 27.7518 15.1704 27.6016C15.159 27.595 15.159 27.5673 15.1541 27.5493C15.19 27.5493 15.2259 27.551 15.2618 27.5526C15.35 27.631 15.4529 27.6114 15.5558 27.6032C15.7747 27.6326 15.938 27.7567 16.085 27.9086H16.0866Z" fill="#060707"/>
<path d="M29.1993 28.3057C29.4607 27.9758 29.8151 27.8419 30.2234 27.8255C30.3557 27.8206 30.4912 27.8076 30.6219 27.819C31.61 27.9056 32.5997 27.8272 33.5879 27.8288C33.9978 27.8288 34.4061 27.8419 34.8046 27.9464C35.0741 28.0166 35.3305 28.1163 35.5543 28.2845C35.8221 28.4854 35.9887 28.7467 35.9479 29.0897C35.9054 29.4474 35.6702 29.6629 35.3501 29.7903C35.0627 29.903 34.7589 29.9357 34.4551 29.9504C33.6189 29.9945 32.7843 30.0664 31.9465 30.0713C31.9187 30.0713 31.8909 30.0811 31.8632 30.086C31.5888 30.0615 31.3128 30.0451 31.04 30.0092C30.5566 29.9439 30.0813 29.8393 29.655 29.5862C29.1307 29.2742 28.9919 28.8741 29.1993 28.3057Z" fill="#030302"/>
<path d="M31.6804 33.0455C31.3048 32.99 30.9226 32.9753 30.5535 32.8724C30.2774 32.7956 30.0096 32.7009 29.7711 32.5376C29.2844 32.2027 29.0541 31.6295 29.4543 31.0546C29.7826 30.7459 30.1827 30.6316 30.6204 30.6348C30.9683 30.6365 31.3162 30.6561 31.6641 30.6675C32.1263 30.7312 32.5901 30.7671 33.0491 30.8635C33.4018 30.937 33.7301 31.0791 33.9947 31.3094C34.2364 31.5184 34.3752 31.9431 34.0927 32.3122C33.9245 32.531 33.6974 32.6649 33.4459 32.7662C32.9707 32.9557 32.4709 33.0128 31.9646 33.0341C31.8699 33.0373 31.7751 33.0439 31.6804 33.0488V33.0455Z" fill="#040404"/>
<path d="M9.50331 15.8879C9.7532 16.1574 9.98512 16.3975 10.2497 16.6016C10.364 16.6898 10.4669 16.7862 10.5257 16.9234C10.5959 17.0851 10.591 17.2419 10.4735 17.3791C10.3542 17.5163 10.2007 17.5407 10.0308 17.4885C9.85446 17.4346 9.70257 17.3333 9.56374 17.219C8.86471 16.6425 8.27675 15.9745 7.8864 15.1481C7.75084 14.8606 7.65285 14.565 7.63978 14.2449C7.62835 13.9525 7.68878 13.6765 7.83741 13.4234C8.25225 12.7211 9.12277 12.5643 9.7581 13.0804C10.4588 13.6504 10.591 14.7642 10.0423 15.4796C9.97205 15.5711 9.89202 15.6527 9.79566 15.7164C9.7091 15.772 9.61927 15.8209 9.50331 15.8895V15.8879ZM9.05254 15.3114C9.22729 15.1023 9.35305 14.8916 9.41512 14.6515C9.49841 14.3331 9.42981 14.0472 9.1832 13.8219C8.97741 13.6357 8.74712 13.6912 8.62626 13.9395C8.56583 14.0652 8.5593 14.1959 8.5887 14.3282C8.66709 14.6842 8.84022 14.9962 9.05254 15.3114Z" fill="#040404"/>
<path d="M29.4462 25.1729C29.4331 25.6416 29.34 26.076 29.1113 26.4746C29.0591 26.5644 28.9987 26.6526 28.9333 26.7342C28.329 27.4774 27.3785 27.3728 27.0028 26.4942C26.6256 25.6122 26.7481 24.7597 27.2936 23.9708C27.3703 23.8614 27.4699 23.7699 27.5777 23.6899C28.0546 23.3371 28.6279 23.4008 29.0085 23.8565C29.3302 24.2403 29.4315 24.7009 29.4478 25.1745L29.4462 25.1729ZM28.6393 25.7445C28.6344 25.4032 28.3519 25.132 28.0122 25.1451C27.6839 25.1565 27.4258 25.4276 27.4307 25.7608C27.434 26.1038 27.7133 26.3717 28.0563 26.3602C28.3862 26.3488 28.6442 26.076 28.6393 25.7461V25.7445Z" fill="#060707"/>
<path d="M19.4012 25.3446C19.4012 25.6729 19.3473 25.9881 19.2199 26.2919C19.135 26.496 19.019 26.6806 18.8573 26.8341C18.4572 27.213 17.9149 27.2408 17.4805 26.9027C17.2812 26.7476 17.1326 26.5499 17.0281 26.3229C16.721 25.6631 16.6835 24.9869 16.9137 24.2961C16.984 24.087 17.0918 23.8959 17.242 23.7326C17.6585 23.2785 18.253 23.241 18.7168 23.6477C19.1235 24.0053 19.3064 24.479 19.3783 25.0016C19.3946 25.1143 19.3946 25.2286 19.4012 25.343V25.3446ZM17.9917 25C17.6503 24.9918 17.3743 25.2564 17.3613 25.601C17.3482 25.9669 17.6226 26.2739 17.9753 26.2902C18.3249 26.3049 18.6139 26.0306 18.6237 25.6745C18.6335 25.3152 18.3461 25.0082 17.9917 25Z" fill="#060707"/>
<path d="M31.6641 30.6658C31.3162 30.6544 30.9683 30.6364 30.6205 30.6332C30.1827 30.6299 29.7826 30.7459 29.4543 31.0529C28.8647 30.9255 28.3045 30.7312 27.8129 30.3653C27.6904 30.2739 27.5777 30.171 27.4765 30.0599C27.0518 29.5928 27.0469 29.1404 27.4601 28.6423C27.9942 28.2944 28.5871 28.2535 29.1979 28.3058C28.9921 28.8758 29.1309 29.276 29.6536 29.5863C30.0798 29.8394 30.5551 29.944 31.0386 30.0093C31.3113 30.0452 31.5873 30.0615 31.8617 30.086C31.8927 30.3131 31.7686 30.4862 31.6625 30.6675L31.6641 30.6658Z" fill="#FDCE22"/>
<path d="M15.5004 25.2628C15.5053 25.614 15.2473 25.8851 14.9026 25.8949C14.5286 25.9047 14.202 25.5764 14.1971 25.1828C14.1922 24.8382 14.4649 24.5622 14.8079 24.5655C15.1721 24.5687 15.4955 24.8937 15.5004 25.2628Z" fill="#4F3E35"/>
<path d="M13.0923 23.6687C12.7559 23.6687 12.4864 23.4042 12.488 23.0759C12.4897 22.7182 12.8049 22.3997 13.1626 22.3932C13.517 22.3867 13.7832 22.6496 13.7767 23.0008C13.7701 23.3633 13.4566 23.6687 13.0923 23.6687Z" fill="#4F3E35"/>
<path d="M15.5555 27.6032C15.4526 27.6114 15.3497 27.6293 15.2615 27.5526C15.366 27.533 15.4656 27.5428 15.5555 27.6032Z" fill="#4F3E35"/>
<path d="M11.3848 24.7811C11.3587 24.7762 11.3325 24.7713 11.3064 24.7664C11.3374 24.7451 11.3636 24.7517 11.3848 24.7811Z" fill="#A2897F"/>
<path d="M23.1547 40.499C23.1939 40.5121 23.2314 40.5252 23.2706 40.5399C23.14 40.5938 23.0093 40.6493 22.8787 40.7032C22.8787 40.6721 22.8803 40.6427 22.8819 40.6117C22.9669 40.5595 23.0551 40.5137 23.1563 40.499H23.1547Z" fill="#BDDCE5"/>
<path d="M21.4577 36.0699C22.1126 36.0584 22.7071 36.1238 23.2869 36.2969C23.5155 36.3655 23.7393 36.4537 23.9336 36.5941C24.293 36.8538 24.3011 37.1854 23.963 37.4712C23.6315 37.7505 23.2346 37.8795 22.8214 37.9693C21.6977 38.2127 20.5871 38.1588 19.4945 37.7962C19.305 37.7325 19.1172 37.659 18.9506 37.5463C18.5636 37.2817 18.5652 36.8832 18.9425 36.6121C19.2789 36.3688 19.6644 36.2724 20.0596 36.2005C20.5381 36.114 21.0199 36.0519 21.4593 36.0715L21.4577 36.0699ZM23.1497 36.6823C23.0147 36.6584 22.8955 36.6698 22.792 36.7166C22.5666 36.8179 22.3445 36.9257 22.1159 37.0188C21.9558 37.0825 21.8039 37.0759 21.6814 36.9208C21.3989 36.5582 21.2225 36.6333 20.9122 36.7705C20.6851 36.8702 20.4646 36.9829 20.2376 37.0759C20.0808 37.1413 19.9159 37.1984 19.7395 37.138C19.6758 37.1151 19.6056 37.0874 19.5696 37.1723C19.5353 37.2523 19.568 37.3209 19.6366 37.3716C19.7542 37.4565 19.8881 37.463 20.0188 37.4336C20.2229 37.3895 20.4238 37.334 20.6116 37.236C20.7635 37.156 20.9171 37.0792 21.0738 37.0122C21.2943 36.9192 21.3123 36.9273 21.4609 37.1037C21.6602 37.3405 21.8676 37.4075 22.1681 37.3046C22.4376 37.2131 22.7006 37.0988 22.9357 36.9322C23.0272 36.8669 23.1236 36.8081 23.1513 36.684L23.1497 36.6823Z" fill="#4F3E35"/>
<path d="M24.5288 38.1867C24.519 38.2161 24.5043 38.2814 24.4814 38.3418C24.1728 39.1437 23.5766 39.6615 22.8221 40.0224C22.742 40.06 22.6457 40.0894 22.6048 39.9783C22.5656 39.8722 22.6571 39.8281 22.7339 39.7905C23.085 39.6141 23.4019 39.3904 23.6762 39.1078C23.931 38.8465 24.1385 38.5541 24.2626 38.2063C24.2789 38.1622 24.2952 38.1164 24.3165 38.074C24.3442 38.0217 24.3867 37.9727 24.4504 37.989C24.5288 38.0086 24.5402 38.0789 24.5288 38.185V38.1867Z" fill="#F7F9F7"/>
<path d="M9.05283 15.3118C8.84051 14.9949 8.66738 14.6846 8.58899 14.3285C8.55959 14.1962 8.56612 14.0656 8.62655 13.9398C8.74578 13.6916 8.9777 13.6377 9.18349 13.8222C9.43174 14.046 9.4987 14.3334 9.41541 14.6519C9.35171 14.892 9.22759 15.1027 9.05283 15.3118Z" fill="#BDDCE5"/>
<path d="M28.6381 25.7444C28.643 26.0744 28.3833 26.3471 28.055 26.3585C27.712 26.37 27.4327 26.1038 27.4295 25.7591C27.4262 25.4276 27.6826 25.1548 28.0109 25.1434C28.3506 25.132 28.6332 25.4031 28.6381 25.7428V25.7444Z" fill="#F7F9F7"/>
<path d="M17.9921 24.9997C18.3465 25.0079 18.6339 25.3149 18.6241 25.6742C18.6143 26.0303 18.3253 26.3047 17.9757 26.29C17.623 26.2753 17.3469 25.9666 17.3616 25.6007C17.3747 25.2561 17.6524 24.9915 17.9921 24.9997Z" fill="#F7F9F7"/>
<path d="M23.1518 36.6824C23.1241 36.8065 23.0277 36.867 22.9363 36.9306C22.7011 37.0972 22.4397 37.2116 22.1686 37.303C21.8697 37.4059 21.6623 37.339 21.4614 37.1021C21.3128 36.9241 21.2948 36.916 21.0744 37.0107C20.9176 37.0776 20.764 37.1544 20.6122 37.2344C20.4243 37.3324 20.2234 37.388 20.0193 37.4321C19.887 37.4615 19.7531 37.4533 19.6371 37.37C19.5685 37.321 19.5358 37.2524 19.5701 37.1707C19.6061 37.0842 19.6763 37.1136 19.74 37.1364C19.9164 37.1969 20.0797 37.1397 20.2381 37.0744C20.4668 36.9796 20.6873 36.867 20.9127 36.769C21.223 36.6334 21.3994 36.5566 21.6819 36.9192C21.8044 37.076 21.9563 37.0825 22.1164 37.0172C22.345 36.9257 22.5671 36.8163 22.7925 36.7151C22.896 36.6682 23.0152 36.6568 23.1502 36.6808L23.1518 36.6824Z" fill="#A2897F"/>
<path d="M30.4659 44.94C29.6248 44.7309 28.8065 44.4516 28.0209 44.0841C27.0492 43.6301 26.1427 43.0797 25.4029 42.286C25.3751 42.286 25.362 42.2713 25.3637 42.2435L25.349 42.2272C25.1415 41.974 24.9178 41.7323 24.7643 41.4383C24.6842 41.3044 24.6058 41.1704 24.5258 41.0365C24.467 40.9304 24.4637 40.7981 24.3772 40.705C24.3723 40.62 24.3413 40.5433 24.2988 40.4698C24.2563 40.2607 24.2122 40.0517 24.1698 39.8426C23.9411 40.0108 23.7125 40.1774 23.4707 40.3244C23.2012 40.4731 22.9203 40.5857 22.7423 40.6494C22.5431 40.705 22.3438 40.754 22.1413 40.7834C21.9159 40.8177 21.6872 40.8356 21.4553 40.8307C20.7155 40.8177 20.036 40.5857 19.3795 40.2754C19.1182 40.1513 18.9173 39.9472 18.7474 39.712C18.491 39.3576 18.2591 38.9884 18.0631 38.5965C18.019 38.5916 17.9765 38.5834 17.9553 38.5377C17.9226 38.5311 17.89 38.5246 17.8557 38.5181C17.8377 38.6471 17.7348 38.732 17.6874 38.8463C17.186 40.0549 16.9753 41.3207 16.9312 42.6208C16.9198 42.9343 16.9492 43.2463 16.977 43.5582C17.0243 44.0907 17.1093 44.6166 17.2873 45.1164C17.7315 46.3609 18.5645 47.2886 19.7094 47.9272C20.9278 48.6082 22.2523 48.9087 23.6406 48.943C24.0979 48.9545 24.5585 48.9708 25.0125 48.93C25.5972 48.8777 26.1754 48.7683 26.7405 48.6001C27.3464 48.4204 27.9246 48.1803 28.4619 47.8488C29.1773 47.4078 29.744 46.8051 30.2258 46.1273C30.4626 45.7941 30.6325 45.4201 30.6554 44.9971C30.5917 44.9775 30.5312 44.953 30.4659 44.9367V44.94ZM23.0151 41.3223C23.0281 41.3534 23.0494 41.3697 23.0722 41.3762C23.0494 41.3697 23.0298 41.3534 23.0151 41.3223ZM23.2584 41.6229C23.2633 41.7176 23.2731 41.8123 23.2747 41.9054C23.2747 41.8107 23.2633 41.716 23.2584 41.6229ZM23.2666 41.3109C23.2731 41.19 23.3417 41.1166 23.4528 41.0708C23.3417 41.1182 23.2731 41.19 23.2666 41.3109Z" fill="#F7F9F7"/>
<path d="M24.8474 41.2897C24.8377 41.2767 24.8278 41.2653 24.8181 41.2538C24.8638 41.2179 24.8948 41.1624 24.8948 41.0921C24.8948 40.852 24.9814 40.4486 24.7936 40.269C24.4832 39.975 23.91 39.9342 23.5147 39.9489C23.175 39.9603 22.6736 40.0191 22.4205 40.2886C22.2473 40.4731 22.3404 40.919 22.3404 41.1558C22.3404 41.1885 22.3486 41.2195 22.3633 41.2489C22.3568 41.2685 22.3535 41.2898 22.3535 41.311C22.3535 41.4563 22.3486 41.6033 22.3535 41.7503C22.36 41.9479 22.4956 42.0623 22.6393 42.1897C22.8745 42.3955 23.3106 42.7368 23.6536 42.7107C24.0031 42.6845 24.4016 42.3824 24.6449 42.1586C24.7968 42.0198 24.8932 41.9234 24.8981 41.716C24.8997 41.6164 24.9177 41.4857 24.8899 41.3796C24.885 41.3502 24.8736 41.3208 24.8507 41.2914L24.8474 41.2897Z" fill="white"/>
<path d="M24.6579 41.3992C24.6498 41.3877 24.524 41.2146 24.2496 41.0889V41.1313V41.2375C24.2496 41.2457 24.2496 41.2538 24.248 41.262C24.2464 41.2751 24.2431 41.2881 24.2382 41.3012C24.2382 41.3012 24.2382 41.3028 24.2382 41.3045C24.2562 41.3143 24.2741 41.3241 24.2905 41.3355C24.3901 41.3975 24.4522 41.4612 24.4799 41.4923V41.7356C24.1451 42.108 23.7254 42.2615 23.6192 42.2958C23.513 42.2615 23.0933 42.1096 22.7585 41.7356V41.311H22.5625V41.8091L22.587 41.8369C23.0165 42.3334 23.5718 42.4869 23.5947 42.4935L23.6208 42.5L23.647 42.4935C23.6698 42.4869 24.2251 42.335 24.6547 41.8369L24.6792 41.8091V41.4269L24.6612 41.4008L24.6579 41.3992Z" fill="#22366D"/>
<path d="M24.578 41.0104C24.6367 41.0513 24.6792 41.0921 24.6792 41.0921V40.4535L24.6449 40.4241C24.6318 40.4127 24.3264 40.1611 23.616 40.1611C22.9055 40.1611 22.6001 40.4143 22.587 40.4241L22.5527 40.4535V41.1541H22.9937V40.9582H22.7504V40.5515C22.8418 40.4943 23.1146 40.3588 23.6176 40.3588C24.1206 40.3588 24.3934 40.4959 24.4849 40.5515V40.9582C24.4849 40.9582 24.5241 40.9712 24.5796 41.0104H24.578Z" fill="#22366D"/>
<path d="M24.2302 40.7522C24.2302 40.7522 24.2024 40.7293 24.1518 40.7048C24.0554 40.6558 23.8856 40.5986 23.621 40.5986C23.3564 40.5986 23.1865 40.6558 23.0902 40.7048C23.0396 40.7293 23.0151 40.7505 23.0118 40.7522L22.9922 40.7685V40.9563V41.1507V41.6047C23.1588 41.7615 23.3352 41.9069 23.4609 41.9657V41.5165L23.4577 41.5083H23.6585C23.6585 41.5083 23.7239 41.5083 23.8104 41.5018C23.964 41.4871 24.1845 41.4414 24.2384 41.3026C24.2384 41.3026 24.2384 41.3009 24.2384 41.2993C24.2432 41.2862 24.2465 41.2748 24.2481 41.2601C24.2481 41.2519 24.2481 41.2438 24.2481 41.2356V41.1294V41.087V40.7669L24.2286 40.7505L24.2302 40.7522ZM23.8251 40.9694V41.1115C23.8251 41.1115 23.8251 41.118 23.8251 41.1278C23.8251 41.1376 23.8219 41.1507 23.8186 41.167C23.8072 41.2127 23.7778 41.2683 23.7075 41.2683H23.4511V41.1539V40.9579V40.8893C23.5001 40.8828 23.5524 40.8796 23.6112 40.8796C23.6912 40.8796 23.7631 40.8861 23.8268 40.8975V40.971L23.8251 40.9694Z" fill="#0091FF"/>
<mask id="mask1_2243_3441" style="mask-type:luminance" maskUnits="userSpaceOnUse" x="23" y="39" width="3" height="4">
<path d="M25.3751 39.2856H23.5459V42.1389H25.3751V39.2856Z" fill="white"/>
</mask>
<g mask="url(#mask1_2243_3441)">
<path d="M8.36169 32.5221C8.25389 32.3958 8.1265 32.3713 7.97951 32.4486C7.79332 32.5466 7.6006 32.6282 7.38664 32.6446C6.90157 32.6821 6.50959 32.3963 6.39526 31.9227C6.3479 31.7251 6.3528 31.5258 6.35933 31.3249C6.3626 31.2171 6.34463 31.1289 6.24501 31.0538C5.73544 30.67 5.66684 30.4413 5.8563 29.8256C5.86446 29.7978 5.86936 29.7701 5.87426 29.7423C5.79423 29.6688 5.69297 29.69 5.60151 29.6721C5.154 29.5839 4.91228 29.2556 4.96618 28.8032C4.99068 28.6007 5.06907 28.4178 5.1638 28.2397C5.30916 27.9702 5.49372 27.7269 5.7044 27.5048C5.79913 27.4051 5.83016 27.3137 5.80076 27.1749C5.18177 24.2187 5.67827 21.4357 7.10736 18.7996C7.15309 18.7163 7.19555 18.6297 7.24945 18.5513C7.32621 18.4419 7.30661 18.3717 7.20045 18.2917C6.8591 18.0336 6.52919 17.756 6.18458 17.5028C5.88243 17.2823 5.63744 17.003 5.35816 16.7581C5.22096 16.6388 5.18667 16.4641 5.154 16.2942C5.09357 15.9855 5.05764 15.6719 5.03968 15.3584C4.98415 14.3833 5.04294 13.4148 5.25363 12.4577C5.2618 12.4202 5.27323 12.3842 5.27976 12.3467C5.36306 11.8665 5.63744 11.5594 6.08495 11.3537C7.34581 10.7771 8.65567 10.4619 10.0456 10.5044C10.6074 10.5207 11.1055 10.6759 11.5334 11.0646C12.0838 11.5643 12.7012 11.9857 13.2402 12.5002C13.361 12.6162 13.4443 12.5427 13.5407 12.4871C14.7803 11.762 16.0918 11.2001 17.4523 10.7494C20.0573 9.88865 22.7293 9.48197 25.4748 9.58976C26.4857 9.62896 27.4984 9.69592 28.4897 9.88048C31.1878 10.3868 33.77 11.2214 36.1088 12.7027C36.3097 12.8301 36.4403 12.8203 36.6331 12.6864C37.6277 11.9972 38.6354 11.3243 39.6382 10.6465C39.8604 10.4962 40.0906 10.3656 40.3422 10.2708C40.5071 10.2071 40.6737 10.1859 40.8468 10.2169C42.0963 10.4423 43.2755 10.8621 44.3714 11.5072C44.502 11.5839 44.6261 11.6738 44.7519 11.7603C45.0377 11.9596 45.2125 12.216 45.2778 12.5737C45.5048 13.8248 45.446 15.0595 45.1177 16.286C45.0785 16.433 45.0361 16.5784 45.0247 16.7319C45.0116 16.9116 44.9136 17.0537 44.796 17.1827C44.667 17.3248 44.5134 17.4391 44.3616 17.5534C43.7083 18.0499 43.0174 18.4926 42.3363 18.9482C42.289 18.9809 42.24 19.0103 42.1942 19.043C42.0767 19.1246 42.044 19.2297 42.0963 19.3582C42.1763 19.5525 42.2596 19.7452 42.3314 19.9412C43.3963 22.8108 43.3359 25.6723 42.2383 28.5174C42.1534 28.7379 42.1208 28.9143 42.2775 29.12C42.4164 29.3013 42.4899 29.5251 42.5323 29.7521C42.5944 30.0918 42.5405 30.4038 42.2743 30.6422C42.1763 30.7321 42.1714 30.8023 42.2253 30.9117C42.3265 31.1175 42.3935 31.338 42.4245 31.565C42.4588 31.8198 42.4213 32.0615 42.2465 32.2624C42.1355 32.3914 41.9901 32.4649 41.8202 32.4666C41.7026 32.4666 41.6634 32.5107 41.6406 32.6282C41.5034 33.3191 41.0526 33.6049 40.3667 33.4481C40.0841 33.3828 39.8228 33.2701 39.5892 33.1003C39.4782 33.0186 39.4014 33.0055 39.305 33.1198C39.1646 33.2864 39.0078 33.44 38.8575 33.6C38.9327 33.8074 39.0878 33.9642 39.2071 34.1455C39.9453 35.2643 40.4908 36.4811 41.0167 37.7076C41.0869 37.8709 41.1375 38.0424 41.2306 38.1911C41.3139 38.1666 41.3237 38.1029 41.3515 38.0571C41.8676 37.1817 42.5519 36.4582 43.3751 35.867C43.8667 35.5142 44.4008 35.2496 45.0067 35.1451C46.4701 34.8935 47.6166 35.9307 47.5039 37.4153C47.4565 38.0457 47.1969 38.5896 46.8049 39.0746C46.5387 39.4029 46.2137 39.6691 45.8756 39.919C45.446 40.2359 45.0198 40.556 44.6278 40.9218C44.0055 41.5033 43.5613 42.2072 43.1415 42.9536C43.5139 43.1675 43.6756 43.5236 43.821 43.8862C44.1443 44.6914 44.4906 45.4851 44.9087 46.2462C45.3693 47.0857 45.9164 47.8631 46.5566 48.5752C46.9323 48.9933 47.3177 49.4049 47.6983 49.8181C48.0919 50.246 48.4724 50.687 48.8089 51.1623C48.9085 51.3027 49.0049 51.4448 49.0571 51.6114C49.178 51.9952 48.9036 52.3072 48.5051 52.2386C48.3352 52.2092 48.1768 52.1406 48.0233 52.0654C47.6901 51.9005 47.3765 51.6996 47.0613 51.5036C46.6971 51.2766 46.3329 51.0512 45.9474 50.8634C45.5522 50.6706 45.139 50.5302 44.6996 50.4681C44.3322 50.4159 43.999 50.4894 43.6936 50.6935C43.4143 50.8797 43.1807 51.1182 42.9537 51.3648C42.6761 51.6669 42.4098 51.9789 42.1159 52.2647C41.4511 52.9098 40.6574 53.2185 39.7248 53.1287C39.3018 53.0878 38.9082 52.9441 38.5293 52.7628C38.2875 52.6469 38.0442 52.544 37.7584 52.5178C37.7192 52.6616 37.7649 52.8086 37.7747 52.9555C37.7845 53.1172 37.8106 53.2773 37.8139 53.439C37.8221 53.9763 37.582 54.3193 37.0773 54.5055C36.7605 54.6231 36.4256 54.6492 36.0925 54.6607C35.1876 54.69 34.2812 54.695 33.3764 54.7358C32.1662 54.7897 30.9592 54.8713 29.7506 54.935C29.2361 54.9628 28.7217 54.9775 28.2088 54.9024C27.709 54.8305 27.3007 54.6231 27.0492 54.1658C26.881 53.8587 26.618 53.697 26.2832 53.6235C26.0023 53.5615 25.7198 53.5206 25.4356 53.4978C24.8068 53.4472 24.1796 53.4455 23.5508 53.501C23.1115 53.5402 22.7195 53.6905 22.3618 53.9469C21.8179 54.3356 21.2202 54.5953 20.5587 54.6999C20.3513 54.7325 20.1422 54.7635 19.9332 54.7684C18.7932 54.788 17.6663 54.6917 16.5654 54.3797C15.7276 54.1429 14.9698 53.7558 14.3736 53.0976C14.3181 53.0372 14.2773 52.9637 14.163 53.0241C13.6713 53.2806 13.1552 53.2675 12.6326 53.1434C12.1296 53.0241 11.6625 52.8053 11.1937 52.593C11.0124 52.5097 10.8311 52.4231 10.6466 52.3464C10.2056 52.1651 9.75647 52.1455 9.30733 52.3088C8.86962 52.4688 8.43681 52.6436 8.00074 52.8069C7.66266 52.9343 7.32784 53.0731 6.97016 53.1417C6.44916 53.243 6.13558 52.9033 6.27277 52.3904C6.3234 52.2043 6.40343 52.0328 6.49653 51.8662C6.79704 51.3256 7.10246 50.7866 7.40624 50.246C8.03177 49.1321 8.63934 48.0101 9.07214 46.8031C9.39389 45.9065 9.62091 44.9788 9.89203 44.0675C10.0472 43.5481 10.1942 43.0222 10.5045 42.5665C10.5813 42.4522 10.529 42.3428 10.5094 42.2366C10.4065 41.6813 10.3461 41.1227 10.3575 40.5593C10.3934 38.8787 10.7495 37.2715 11.4844 35.7559C11.5743 35.5713 11.5759 35.5713 11.4028 35.4407C11.0614 35.1859 10.7266 34.9229 10.4049 34.6437C10.5208 34.5359 10.6564 34.5881 10.7821 34.6094C11.1921 34.678 11.6053 34.7188 12.0169 34.7596C12.0789 34.8609 12.1851 34.9115 12.2766 34.9752C13.4688 35.8 14.746 36.4647 16.0951 36.989C16.2894 37.0641 16.4773 37.1572 16.6847 37.1915C17.0603 37.3581 17.4539 37.4708 17.8492 37.5753C17.9129 37.8954 17.9766 38.2139 18.0403 38.534L17.9553 38.5406L17.8557 38.521C17.7887 38.4589 17.6989 38.4556 17.6173 38.4344C15.837 37.9297 14.1515 37.2095 12.5754 36.2377C12.5428 36.2181 12.5085 36.2001 12.4791 36.1773C12.4072 36.125 12.3615 36.1479 12.3223 36.2214C12.1737 36.5105 12.0512 36.8093 11.9466 37.1164C11.9205 37.1915 11.9385 37.234 12.0103 37.2764C12.368 37.4888 12.6408 37.7958 12.907 38.1078C13.0377 38.2613 13.1405 38.4344 13.1863 38.6337C13.2712 38.9962 13.0899 39.3017 12.7322 39.4046C12.631 39.434 12.5264 39.4454 12.4219 39.4438C12.0855 39.4405 11.7621 39.3768 11.4436 39.2331C11.3603 39.4895 11.3636 39.7459 11.3407 40.0023C11.3799 40.0105 11.4077 40.0252 11.4338 40.0219C11.883 39.9648 12.1753 40.2114 12.4121 40.5429C12.5852 40.783 12.6391 41.0492 12.4693 41.3187C12.2978 41.5882 12.0348 41.6764 11.7294 41.6535C11.62 41.6454 11.5122 41.6127 11.3799 41.5882C11.4387 42.052 11.5351 42.4865 11.6592 42.916C11.6739 42.9666 11.7017 42.9993 11.7523 43.0124C12.1933 43.1332 12.6032 43.3505 13.054 43.4403C13.2369 43.4762 13.2385 43.4779 13.2614 43.2851C13.379 42.3101 13.495 41.335 13.6175 40.3616C13.6632 40.0023 13.7203 39.6446 13.7808 39.287C13.8216 39.0387 13.9033 38.8052 14.0944 38.6271C14.2299 38.4997 14.3148 38.5079 14.4226 38.6565C14.5206 38.7905 14.5664 38.9456 14.5843 39.1089C14.617 39.3948 14.5941 39.6806 14.5582 39.9648C14.3475 41.6192 14.1336 43.2737 14.0356 44.9412C14.0209 45.1879 13.9915 45.4345 14.0225 45.6958C14.2217 45.637 14.4145 45.5994 14.6154 45.619C15.3471 45.6909 16.0722 45.802 16.7843 45.9865C16.9868 46.0388 17.1861 46.109 17.3592 46.2331C17.8149 46.5581 17.841 47.1428 17.4164 47.5071C17.2694 47.6328 17.0979 47.7177 16.9133 47.77C16.131 47.997 15.3389 48.1555 14.519 48.0999C14.341 48.0885 14.163 48.0542 13.9653 48.0281C13.9621 48.1881 13.9425 48.3367 13.9719 48.4935C14.1287 48.4935 14.274 48.4266 14.4275 48.4478C14.844 48.5066 15.2556 48.585 15.6427 48.7565C15.7913 48.8218 15.9334 48.9002 16.0542 49.0113C16.4495 49.3755 16.4168 49.9275 15.984 50.2444C15.8599 50.3358 15.7194 50.3946 15.5757 50.4453C15.1739 50.5873 14.7591 50.6298 14.3377 50.6298C14.2462 50.6298 14.1532 50.6069 14.065 50.638C14.0405 50.7833 14.1025 50.896 14.1466 51.0087C14.6431 52.25 15.4859 53.1189 16.8072 53.4733C17.6875 53.7101 18.5858 53.795 19.4938 53.8228C20.3807 53.8506 21.1908 53.6431 21.9143 53.114C22.3063 52.8282 22.7505 52.6648 23.2291 52.5913C23.4381 52.5587 23.6455 52.5456 23.8546 52.5342C24.7627 52.4901 25.6659 52.5129 26.5543 52.7253C27.0868 52.8527 27.5278 53.1221 27.7972 53.6105C27.9393 53.8685 28.1566 53.9616 28.426 53.9861C28.7968 54.0204 29.1692 54.0204 29.5399 53.9992C31.5292 53.8881 33.5185 53.7607 35.5127 53.7607C35.8279 53.7607 36.1415 53.7444 36.455 53.7085C36.8928 53.6578 36.9352 53.6105 36.8781 53.1679C36.8258 52.7612 36.767 52.3545 36.8111 51.9429C36.816 51.9037 36.8013 51.8678 36.7572 51.8417C36.05 51.9609 35.3412 51.9527 34.6389 51.7633C34.5115 51.729 34.3825 51.6865 34.2632 51.6294C33.9676 51.4856 33.7749 51.257 33.7716 50.9156C33.7684 50.589 33.9497 50.362 34.2273 50.2084C34.3694 50.13 34.5213 50.0729 34.6781 50.0288C35.4604 49.8099 36.2509 49.6417 37.0675 49.6319C37.1475 49.6319 37.1949 49.609 37.2145 49.5323C37.2945 49.2138 37.3746 48.8937 37.4628 48.5425C37.2112 48.6454 37.0071 48.7516 36.7866 48.812C35.6711 49.1109 34.536 49.2122 33.3862 49.1109C33.0922 49.0848 32.7982 49.0325 32.5336 48.8871C31.9653 48.5736 31.9212 47.8794 32.4438 47.4973C32.5761 47.4009 32.7215 47.329 32.8766 47.2817C33.1853 47.1853 33.4956 47.0906 33.8076 47.004C34.6242 46.7786 35.4604 46.6218 36.2558 46.3213C36.8519 46.0959 37.4546 45.882 37.9903 45.5194C38.1063 45.441 38.152 45.3561 38.1667 45.2205C38.2402 44.5362 38.2761 43.8519 38.2614 43.1643C38.2418 42.1909 38.165 41.2224 38.036 40.2571C37.8629 38.9717 37.6261 37.6978 37.239 36.4566C37.1198 36.076 36.9891 35.702 36.7997 35.3166C35.7903 36.045 34.7254 36.646 33.6263 37.1784C33.6442 37.2258 33.6459 37.2487 33.6573 37.2601C34.2632 37.8873 34.7205 38.6271 35.2219 39.3343C35.2987 39.4438 35.3689 39.5564 35.4196 39.6806C35.48 39.8259 35.4816 39.9631 35.3657 40.0774C35.2546 40.1869 35.1174 40.2048 34.9688 40.1493C34.8594 40.1085 34.7646 40.0464 34.683 39.9648C34.5752 39.857 34.4674 39.7492 34.371 39.6299C34.291 39.5319 34.2338 39.5352 34.1424 39.6169C33.8484 39.8798 33.507 40.0709 33.1477 40.2261C32.9452 40.3143 32.7362 40.378 32.5108 40.3633C32.1074 40.3371 31.8509 40.0268 31.895 39.6267C31.9146 39.4519 31.9816 39.2951 32.0714 39.1481C32.2495 38.8509 32.4716 38.5896 32.7476 38.3805C32.857 38.2972 32.937 38.196 33.0236 38.0947C33.0693 38.0408 33.0677 37.9951 33.0187 37.9461C32.9779 37.9052 32.9354 37.8677 32.8995 37.8236C32.8244 37.7321 32.7656 37.7305 32.6692 37.8138C32.0731 38.3201 31.4704 38.8182 30.8694 39.318C30.7077 39.4519 30.5411 39.5793 30.3418 39.6561C29.8698 39.8406 29.4648 39.5613 29.4697 39.0534C29.4697 38.8901 29.5056 38.7317 29.5628 38.5781C29.8355 37.8301 30.2536 37.1801 30.871 36.6656C30.9233 36.6215 31.0196 36.6052 31 36.4925C30.902 36.4631 30.804 36.4321 30.7028 36.4059C30.3979 36.3221 30.1224 36.3733 29.8764 36.5595C29.7473 36.6574 29.6199 36.7587 29.4925 36.8567C28.4865 37.6309 27.7678 38.619 27.2746 39.7867C26.9725 40.5021 26.8304 41.2632 26.6001 41.9981C26.5739 42.0831 26.5952 42.1451 26.6654 42.1958C26.8124 42.3019 26.9545 42.4146 27.1047 42.5159C28.0439 43.1545 29.0777 43.5889 30.1605 43.909C31.0752 44.1785 32.011 44.3582 32.9338 44.5917C33.1657 44.6505 33.3911 44.7257 33.6001 44.8416C33.7243 44.9102 33.8402 44.9968 33.9546 45.0801C34.0231 45.1307 34.0966 45.1895 34.0656 45.2924C34.0395 45.3757 33.966 45.3985 33.886 45.41C33.7635 45.4263 33.641 45.4541 33.5185 45.4606C33.0399 45.4884 32.5679 45.4345 32.1008 45.3218C31.6207 45.2058 31.1356 45.1078 30.6521 45.0017C30.5884 44.9821 30.528 44.9576 30.4627 44.9412C29.6216 44.7322 28.8033 44.4529 28.0177 44.0854C27.0459 43.6314 26.1395 43.081 25.3996 42.2872C25.4045 42.2562 25.3931 42.2415 25.3604 42.2448L25.3457 42.2284C25.1383 41.9753 24.9146 41.7336 24.761 41.4396C24.681 41.3056 24.6026 41.1717 24.5226 41.0378C24.4638 40.9316 24.4605 40.7993 24.374 40.7062C24.3674 40.6213 24.3364 40.5446 24.2956 40.4711C24.2531 40.262 24.209 40.053 24.1665 39.8423C24.2025 39.7982 24.2368 39.7524 24.2743 39.71C25.0191 38.8836 25.3833 37.9559 25.0485 36.8387C25.4339 36.45 25.8651 36.1266 26.3616 35.8947C27.4837 35.3721 28.6629 35.1892 29.8927 35.3035C30.5133 35.3607 31.1078 35.5158 31.686 35.7379C32.0649 35.9552 32.4503 36.1675 32.7803 36.4582C32.9158 36.5774 33.0285 36.5791 33.1853 36.5072C34.3302 35.978 35.4228 35.3558 36.4452 34.6159C37.2423 34.0377 37.987 33.3991 38.6697 32.6903C38.7938 32.5618 38.8129 32.4225 38.7269 32.2722C38.6599 32.1546 38.6077 32.0337 38.6109 31.8949C38.6142 31.6973 38.7203 31.5291 38.8886 31.4654C39.0682 31.3984 39.2283 31.4458 39.3589 31.5781C39.4194 31.6385 39.4635 31.7136 39.5157 31.7806C39.7722 32.1072 40.0694 32.3865 40.4548 32.5547C40.7211 32.6723 40.7733 32.6348 40.7799 32.3506C40.7831 32.2167 40.7684 32.0827 40.7799 31.9504C40.8027 31.6401 40.9971 31.467 41.3058 31.467C41.358 31.467 41.4168 31.5095 41.4658 31.4458C41.4462 31.3135 41.376 31.1992 41.3254 31.0767C41.2715 30.9444 41.2061 30.8153 41.1653 30.6798C41.0934 30.4299 41.18 30.2225 41.394 30.0902C41.5475 29.9955 41.584 29.8675 41.5034 29.7064C41.3662 29.4304 41.1637 29.2017 40.9563 28.9763C40.8403 28.8506 40.7211 28.7248 40.6606 28.5598C40.5447 28.2381 40.7635 27.9719 41.1 28.0339C41.1914 28.0503 41.2796 28.096 41.3678 28.1303C41.4364 28.1581 41.4822 28.2299 41.5655 28.225C41.9525 27.4835 42.4131 25.3309 42.2824 24.8687C42.204 24.8818 42.1502 24.9406 42.0897 24.9847C41.5263 25.3816 40.9383 25.7311 40.2915 25.9777C39.9159 26.1214 39.5337 26.2341 39.1287 26.2602C38.8102 26.2815 38.4982 26.2521 38.2075 26.11C37.7812 25.9009 37.6587 25.4502 37.9135 25.05C38.0115 24.8949 38.1405 24.7675 38.281 24.6515C38.5685 24.4163 38.8543 24.1762 39.1515 23.9541C40.1494 23.2093 41.0118 22.3176 41.9084 21.4634C41.9721 21.403 41.9934 21.3458 41.9689 21.2625C41.7631 20.588 41.5736 19.9086 41.2012 19.2994C41.0526 19.0544 41.0657 18.8666 41.2421 18.6428C41.3874 18.4599 41.5818 18.3456 41.7729 18.2165C42.4817 17.7331 43.1791 17.2317 43.883 16.7434C44.0169 16.6503 44.0872 16.5327 44.1296 16.3775C44.4547 15.2114 44.5347 14.0338 44.3371 12.8366C44.3028 12.6276 44.2178 12.5018 44.0316 12.3973C42.9994 11.8159 41.8856 11.4631 40.7423 11.1887C40.6361 11.1626 40.5626 11.2018 40.481 11.2606C39.4128 12.0298 38.312 12.7501 37.2112 13.4703C37.1426 13.5161 37.0561 13.5406 37.0103 13.6304C37.0397 13.6533 37.0659 13.681 37.0969 13.7006C37.6685 14.0436 38.1438 14.4927 38.5538 15.0154C38.6942 15.195 38.8494 15.3649 39.0062 15.5315C39.145 15.6801 39.3116 15.7895 39.5076 15.85C39.9616 15.9888 40.3405 15.7177 40.3552 15.2424C40.3601 15.0987 40.3275 14.9582 40.2785 14.8227C40.2262 14.6789 40.1739 14.5352 40.1331 14.3882C39.9567 13.7382 40.2523 13.1992 40.8991 13.0081C41.9411 12.7011 43.006 13.4687 42.921 14.6985C42.9129 14.8243 42.8769 14.9419 42.8018 15.0464C42.681 15.2163 42.4948 15.2914 42.3037 15.2489C42.1175 15.2065 41.9836 15.053 41.9607 14.839C41.9509 14.7459 41.9672 14.6495 41.964 14.5532C41.9493 14.1628 41.6977 13.9048 41.3417 13.9113C41.0836 13.9146 41.0167 14.0011 41.0918 14.251C41.1555 14.4601 41.2372 14.6642 41.2649 14.8847C41.3466 15.5168 41.1833 16.0623 40.6753 16.4673C40.1641 16.874 39.5909 16.8952 39.0013 16.6601C38.6583 16.5229 38.3806 16.2893 38.1373 16.0149C37.9348 15.7863 37.7388 15.5527 37.5395 15.3224C37.2227 14.9566 36.834 14.6855 36.4142 14.4519C36.3097 14.3931 36.2068 14.3703 36.0876 14.4078C35.8916 14.4683 35.6907 14.4487 35.4914 14.4193C35.0848 14.3572 34.6911 14.2478 34.3008 14.1187C34.0934 14.0501 33.8843 13.9832 33.6687 13.9407C33.0791 13.8231 32.4993 13.6729 31.9261 13.4899C30.7191 13.1061 29.5138 12.7158 28.2823 12.4104C26.8222 12.0478 25.3441 11.9874 23.8513 12.0919C23.6962 12.1033 23.6586 12.1637 23.6635 12.3026C23.67 12.4937 23.6619 12.6848 23.6635 12.8742C23.6651 13.1078 23.6668 13.1094 23.9003 13.098C24.8378 13.0506 25.7688 13.1159 26.6883 13.3038C27.3252 13.4344 27.9442 13.6255 28.5142 13.9472C28.7821 14.0975 29.0352 14.2674 29.2247 14.514C29.5595 14.9468 29.3945 15.4057 28.8605 15.538C28.6155 15.5985 28.3672 15.5968 28.1206 15.5642C27.7139 15.5103 27.3089 15.4547 26.9039 15.3861C25.9239 15.2195 24.9391 15.1232 23.9461 15.0889C23.719 15.0807 23.7174 15.0856 23.7223 15.3012C23.7239 15.4057 23.737 15.5119 23.7321 15.6148C23.7239 15.7471 23.7713 15.8059 23.9101 15.8026C24.0718 15.7977 24.2351 15.8075 24.3952 15.8206C24.8427 15.8549 25.287 15.9137 25.7149 16.0558C25.9713 16.1407 26.2097 16.2583 26.3845 16.4755C26.6687 16.8315 26.587 17.2725 26.1934 17.5012C26.0693 17.573 25.9321 17.6171 25.7933 17.6514C25.4944 17.7266 25.189 17.7429 24.8835 17.7266C23.8105 17.6694 22.7505 17.7445 21.6987 17.965C21.4145 18.0254 21.1287 18.0026 20.8478 17.9291C20.6518 17.8785 20.4705 17.7919 20.3333 17.6351C20.1602 17.4375 20.1226 17.1843 20.2517 16.9736C20.4379 16.6682 20.673 16.4151 21.0177 16.273C21.408 16.1113 21.8163 16.0215 22.2279 15.9414C22.4075 15.9071 22.664 15.9692 22.744 15.801C22.8224 15.6393 22.7701 15.4106 22.7081 15.1852C22.4712 15.2342 22.2295 15.2783 21.9911 15.3322C21.1434 15.5201 20.3186 15.7879 19.4808 16.0133C19.0284 16.1358 18.5711 16.2256 18.0991 16.2158C17.8492 16.2109 17.6042 16.1701 17.3804 16.0525C17.0228 15.8647 16.9297 15.5609 17.0767 15.1918C17.1926 14.8994 17.3902 14.6985 17.6565 14.5483C17.8639 14.4307 18.0746 14.318 18.3 14.238C19.0006 13.9881 19.7029 13.7464 20.4313 13.5879C21.1026 13.4426 21.7804 13.3348 22.4582 13.2352C22.6754 13.2041 22.677 13.2025 22.6803 12.9902C22.6836 12.7991 22.6852 12.608 22.6852 12.4185C22.6852 12.198 22.6836 12.198 22.4598 12.2176C22.432 12.2209 22.4026 12.2242 22.3749 12.2274C21.163 12.3908 19.974 12.6505 18.7981 12.9869C17.7528 13.2874 16.7369 13.6729 15.7031 14.0077C15.285 14.1432 14.8652 14.2706 14.4243 14.3C14.163 14.318 13.9033 14.2951 13.6828 14.1432C13.4394 13.9766 13.1879 13.8215 12.9789 13.6092C12.6244 13.2482 12.2276 12.933 11.8274 12.6243C11.4648 12.345 11.0794 12.087 10.7772 11.744C10.5551 11.4909 10.2938 11.4304 9.99329 11.4239C9.8512 11.4206 9.70747 11.4272 9.56375 11.4337C8.58871 11.4729 7.66919 11.7309 6.77091 12.1001C6.4165 12.2454 6.24011 12.4381 6.18294 12.8301C6.02615 13.8933 5.95756 14.9533 6.10128 16.0215C6.11598 16.1342 6.12578 16.237 6.24337 16.3122C6.83624 16.6976 7.37194 17.1582 7.91908 17.6024C8.03014 17.6923 8.14283 17.7821 8.24083 17.885C8.44825 18.1022 8.46458 18.3292 8.30289 18.5807C8.0285 19.007 7.79658 19.4545 7.57283 19.9086C7.50587 20.0441 7.5075 20.1356 7.61203 20.2614C8.14446 20.913 8.721 21.5206 9.35796 22.0693C9.65358 22.3241 9.94103 22.5904 10.2285 22.8566C10.4931 23.1032 10.7462 23.3629 10.952 23.665C11.1823 24.0064 11.3309 24.3689 11.277 24.792C10.9046 24.8165 10.5992 24.9651 10.4 25.2901C10.3297 25.4044 10.2432 25.442 10.1174 25.4289C10.0619 25.4224 10.0047 25.4338 9.94756 25.4387C9.58988 25.4142 9.26323 25.2754 8.93332 25.1578C8.0971 24.8606 7.28375 24.5127 6.58309 23.9476C6.55859 23.928 6.53409 23.9263 6.50796 23.9476C6.39363 24.596 6.46713 26.1622 6.64188 26.68C6.79541 26.6032 6.94567 26.5248 7.09919 26.4513C7.24618 26.3811 7.39971 26.3321 7.56793 26.3501C7.77209 26.3713 7.94031 26.502 7.98767 26.6865C8.03667 26.8809 7.97461 27.0426 7.82272 27.1716C7.72635 27.2533 7.6104 27.2973 7.4977 27.3496C6.94077 27.6093 6.49163 27.9996 6.13068 28.4912C6.06535 28.5794 5.98532 28.666 5.97879 28.8048C6.10128 28.813 6.21234 28.8146 6.3234 28.831C6.76764 28.8947 6.98813 29.218 6.87707 29.6508C6.83624 29.806 6.77418 29.9579 6.71048 30.1065C6.65332 30.2404 6.66312 30.3319 6.79867 30.4168C7.06816 30.5851 7.19065 30.8496 7.22005 31.16C7.23312 31.3021 7.23148 31.4458 7.24292 31.5879C7.25925 31.7937 7.30335 31.8214 7.49607 31.7365C7.58263 31.6989 7.66593 31.6483 7.74105 31.5928C7.91254 31.4686 8.0481 31.3086 8.1804 31.1453C8.25879 31.0489 8.33719 30.9525 8.42701 30.8692C8.56421 30.7435 8.72753 30.7027 8.90229 30.7876C9.05418 30.8611 9.12604 31.0538 9.08848 31.2596C9.06561 31.3853 9.00845 31.4964 8.92679 31.5895C8.83859 31.6891 8.85492 31.7675 8.93495 31.8623C9.05255 31.9994 9.15871 32.1464 9.26813 32.2885C8.98395 32.4372 8.66873 32.4649 8.36332 32.5302L8.36169 32.5221ZM7.25272 52.2059C7.36378 52.2255 7.45687 52.1634 7.5516 52.1275C7.98767 51.9609 8.42048 51.7894 8.85492 51.6163C9.61111 51.3158 10.3608 51.3288 11.1023 51.6669C11.2672 51.7421 11.4305 51.8188 11.5955 51.8939C12.0381 52.0932 12.4774 52.3039 12.9576 52.4002C13.2287 52.4541 13.4982 52.4574 13.7693 52.3562C13.7432 52.2337 13.673 52.152 13.6224 52.0638C13.2385 51.3876 13.0311 50.6625 13.0344 49.8818C13.036 49.3102 13.0344 48.7385 13.0409 48.1669C13.0458 47.6802 13.0556 47.1951 13.0752 46.71C13.0817 46.5532 13.0344 46.4683 12.8907 46.4014C12.6898 46.3099 12.5281 46.158 12.3713 46.0045C11.7784 45.423 11.3178 44.7518 11.0124 43.9776C10.9765 43.8878 10.9585 43.7865 10.8703 43.6967C10.7152 44.0805 10.6123 44.4562 10.5192 44.8334C10.0472 46.7411 9.3204 48.5458 8.32902 50.2444C8.00237 50.8029 7.68226 51.3664 7.36378 51.9315C7.31478 52.0164 7.22332 52.0932 7.25925 52.2124C7.24128 52.2026 7.23148 52.2059 7.23148 52.2239C7.23148 52.2239 7.24128 52.2255 7.24618 52.2255C7.28375 52.2222 7.22985 52.2337 7.25598 52.2059H7.25272ZM47.4794 50.8519C47.5317 50.9222 47.5888 50.9842 47.6934 50.9842C47.6819 50.896 47.6444 50.8503 47.5774 50.8291C47.0384 50.2378 46.4913 49.6531 45.9605 49.0537C44.5951 47.5103 43.6266 45.7464 43.0468 43.7686C43.0092 43.6379 43.0043 43.4975 42.9276 43.3684C42.8279 43.4681 42.7871 43.5873 42.7316 43.6951C42.418 44.2945 42.1191 44.9004 41.768 45.4802C41.3989 46.091 40.9318 46.6104 40.3667 47.0481C39.9191 47.3944 39.4308 47.5985 38.8559 47.5218C38.722 47.5038 38.6746 47.5512 38.6436 47.6769C38.5325 48.1293 38.4084 48.5801 38.2892 49.0309C38.0785 49.8328 37.876 50.6347 37.7714 51.4595C37.7535 51.5967 37.7453 51.7061 37.9201 51.7274C38.3643 51.778 38.7481 52.0034 39.1532 52.1634C40.0531 52.5178 40.8566 52.3496 41.5508 51.6882C41.8333 51.4187 42.0865 51.1198 42.3527 50.834C42.5993 50.5677 42.8557 50.313 43.1513 50.1006C43.576 49.7936 44.0463 49.6499 44.5722 49.6776C45.0949 49.7054 45.5816 49.8557 46.0569 50.0631C46.5566 50.2803 47.0139 50.5743 47.4778 50.8552L47.4794 50.8519ZM38.8641 46.8325C39.6709 46.5549 40.2638 46.0371 40.7374 45.3724C41.149 44.7975 41.4479 44.1573 41.7729 43.5318C41.8284 43.4256 41.8055 43.3701 41.719 43.2933C41.3891 43.0009 41.2747 42.6171 41.2894 42.1876C41.3041 41.7924 41.492 41.4984 41.8382 41.3122C42.1828 41.1276 42.5454 41.0933 42.9145 41.2305C43.0125 41.2664 43.0811 41.2893 43.1562 41.1848C43.5319 40.6638 43.9908 40.2212 44.4873 39.8161C44.5722 39.7475 44.5951 39.6773 44.5788 39.5695C44.5004 39.0322 44.4155 38.4965 44.2799 37.9706C44.1607 37.5067 43.9075 37.1082 43.6838 36.6917C43.2738 36.9857 42.7201 37.5688 42.5552 37.8758C42.5781 37.8922 42.5993 37.9101 42.6254 37.9232C43.0272 38.1143 43.1709 38.6141 43.0452 39.0893C42.9227 39.5548 42.5536 39.8357 42.0832 39.8292C41.9787 39.8292 41.8741 39.808 41.7729 39.7884C41.5573 39.7443 41.5573 39.7426 41.4838 39.9566C41.3646 40.2979 41.2519 40.6425 41.1277 40.9823C40.7815 41.9312 40.4058 42.867 39.8799 43.7343C39.7019 44.0283 39.5223 44.3222 39.2348 44.5248C39.1744 44.5672 39.1401 44.6162 39.1401 44.6881C39.1385 45.098 39.0192 45.4998 39.0633 45.9114C39.078 46.0486 39.0454 46.176 38.9882 46.3001C38.9114 46.465 38.882 46.6398 38.8657 46.8342L38.8641 46.8325ZM39.2365 43.1659C39.341 42.9438 39.4488 42.7217 39.5517 42.4995C40.0433 41.433 40.4026 40.3175 40.8027 39.2167C40.8387 39.1204 40.8076 39.0534 40.7668 38.9766C40.6051 38.6745 40.4581 38.3642 40.3242 38.049C39.7787 36.7571 39.1826 35.4913 38.4133 34.3137C38.3741 34.2533 38.3594 34.17 38.2614 34.1423C38.0981 34.2794 37.9315 34.4199 37.7649 34.5604C37.729 34.5914 37.693 34.6241 37.6538 34.6502C37.5575 34.7172 37.5542 34.7939 37.6016 34.8968C37.6963 35.1042 37.7878 35.3149 37.8694 35.5289C38.5015 37.1997 38.7971 38.944 39.0111 40.7062C39.1107 41.5196 39.1581 42.3379 39.2365 43.1675V43.1659ZM28.8474 36.2802C28.8294 36.2295 28.7984 36.2328 28.7723 36.2361C27.8348 36.3014 26.9545 36.548 26.1803 37.1001C25.6332 37.492 25.2706 38.0228 25.1334 38.6827C24.9276 39.6691 25.2004 40.5446 25.8145 41.3252C25.8292 41.3432 25.8488 41.3399 25.8667 41.3236C26.28 39.2984 27.1586 37.5443 28.8474 36.2802ZM12.1377 44.1263C12.3925 44.6228 12.7077 45.0033 13.0948 45.3969C13.116 45.049 13.1324 44.7567 13.152 44.4643C13.1585 44.3729 13.1291 44.3239 13.0279 44.3206C12.742 44.3108 12.4709 44.2259 12.1394 44.1263H12.1377Z" fill="#040404"/>
</g>
</g>
</svg>
