<svg width="14" height="16" viewBox="0 0 14 16" fill="none" xmlns="http://www.w3.org/2000/svg">
<path d="M2.20938 16C1.84844 16 1.53949 15.8694 1.28253 15.6082C1.02543 15.3472 0.896875 15.0333 0.896875 14.6667V2H0.65625C0.470313 2 0.31449 1.9357 0.188781 1.80711C0.0629272 1.67867 0 1.51941 0 1.32933C0 1.13941 0.0629272 0.981481 0.188781 0.855556C0.31449 0.72963 0.470313 0.666667 0.65625 0.666667H4.1125C4.1125 0.474074 4.17543 0.314815 4.30128 0.188889C4.42699 0.062963 4.58281 0 4.76875 0H9.23125C9.41719 0 9.57308 0.0638517 9.69894 0.191555C9.82465 0.319407 9.8875 0.477778 9.8875 0.666667H13.3438C13.5297 0.666667 13.6856 0.730963 13.8114 0.859555C13.9371 0.988 14 1.14726 14 1.33733C14 1.52726 13.9371 1.68519 13.8114 1.81111C13.6856 1.93704 13.5297 2 13.3438 2H13.1031V14.6667C13.1031 15.0333 12.9746 15.3472 12.7177 15.6082C12.4606 15.8694 12.1516 16 11.7906 16H2.20938ZM11.7906 2H2.20938V14.6667H11.7906V2ZM5.65469 12.5638C5.77865 12.4361 5.84063 12.2778 5.84063 12.0889V4.55556C5.84063 4.36667 5.77733 4.2083 5.65075 4.08044C5.52431 3.95274 5.36754 3.88889 5.18044 3.88889C4.99348 3.88889 4.83802 3.95274 4.71406 4.08044C4.5901 4.2083 4.52813 4.36667 4.52813 4.55556V12.0889C4.52813 12.2778 4.59142 12.4361 4.718 12.5638C4.84444 12.6916 5.00121 12.7556 5.18831 12.7556C5.37527 12.7556 5.53073 12.6916 5.65469 12.5638ZM9.28594 12.5638C9.4099 12.4361 9.47188 12.2778 9.47188 12.0889V4.55556C9.47188 4.36667 9.40858 4.2083 9.282 4.08044C9.15556 3.95274 8.99879 3.88889 8.81169 3.88889C8.62473 3.88889 8.46927 3.95274 8.34531 4.08044C8.22135 4.2083 8.15938 4.36667 8.15938 4.55556V12.0889C8.15938 12.2778 8.22267 12.4361 8.34925 12.5638C8.47569 12.6916 8.63246 12.7556 8.81956 12.7556C9.00652 12.7556 9.16198 12.6916 9.28594 12.5638Z" fill="#E30A12"/>
</svg>
