<?xml version="1.0" encoding="utf-8"?>
<!-- Generator: Adobe Illustrator 26.0.0, SVG Export Plug-In . SVG Version: 6.00 Build 0)  -->
<svg version="1.1" id="Layer_1" xmlns="http://www.w3.org/2000/svg" xmlns:xlink="http://www.w3.org/1999/xlink" x="0px" y="0px"
	 viewBox="0 0 300 300" style="enable-background:new 0 0 300 300;" xml:space="preserve">
<style type="text/css">
	.st0{fill:#FFFFFF;}
	.st1{fill:#3D3D3D;}
	.st2{fill:#0091FF;}
	.st3{fill:#214C77;}
	.st4{opacity:0.3;fill:none;stroke:#3D3D3D;stroke-width:0.5;stroke-miterlimit:10;}
	.st5{opacity:0.2;fill:none;stroke:#3D3D3D;stroke-width:0.5;stroke-miterlimit:10;}
	.st6{clip-path:url(#SVGID_00000069384338001821741830000004473920325759246501_);}
</style>
<path class="st2" d="M274.68,298.95H25.21c-13.57,0-24.56-11-24.56-24.56V24.91c0-13.57,11-24.56,24.56-24.56h249.47
	c13.57,0,24.56,11,24.56,24.56v249.47C299.24,287.95,288.24,298.95,274.68,298.95z"/>
<g>
	<path class="st0" d="M259.51,156.88c-0.85-1.19-14.08-19.33-42.87-32.52v0.06l0,4.47l0,11.11c0,0.86-0.07,1.68-0.17,2.48
		c-0.18,1.44-0.5,2.81-0.97,4.09h0c-0.03,0.09-0.08,0.18-0.11,0.27c1.85,1.02,3.69,2.07,5.47,3.19
		c10.41,6.52,16.94,13.11,19.93,16.48v25.44c-35.15,39.06-79.07,55.07-90.21,58.66c-11.17-3.6-55.07-19.6-90.21-58.66v-44.47H39.74
		v52.2l2.51,2.9c45,52.1,103.21,68.1,105.67,68.76l2.66,0.71l2.66-0.71c2.46-0.66,60.66-16.66,105.67-68.76l2.51-2.9v-40.13
		L259.51,156.88z"/>
	<path class="st0" d="M250.74,116.25c6.22,4.35,10.67,8.57,10.67,8.57V57.91l-3.65-3.09c-1.33-1.13-33.46-27.59-107.82-27.59
		c-74.36,0-106.49,26.46-107.82,27.59l-3.65,3.09v73.39H84.7v-0.23V127v-12.21v-3.64v-0.43v-0.05H59.1V68.09
		c9.6-5.93,38.24-20.24,90.85-20.24c52.67,0,81.31,14.34,90.85,20.23v42.71C240.79,110.8,244.9,112.16,250.74,116.25z"/>
	<path class="st0" d="M214.53,89.14L214.53,89.14c-0.28-0.24-2.9-2.37-8.16-5.02C196.28,79.05,178.44,73,150.68,73
		c-27.76,0-45.61,6.05-55.69,11.13c-5.26,2.65-7.88,4.79-8.16,5.02l-2.13,1.78v19.75v0.05v0.43v3.64V127v4.07v0.23v47.35
		c17.48,16.43,36.01,31.62,49.22,37.79v-47.17l-0.31-0.89h0.31h20.75c0,0,6.8,0.15,15.89-0.71c16.06-1.53,39.28-6.28,44.84-20.81
		c0.03-0.09,0.08-0.18,0.11-0.27h0c0.47-1.29,0.79-2.65,0.97-4.09c0.1-0.81,0.17-1.63,0.17-2.48l0-11.11l0-4.47v-0.06l0.01-33.43
		L214.53,89.14z M171.94,111.99v0.08v4.09v10.64c0,0-0.01,0.64-0.12,1.64c-0.11,1.03-0.33,2.47-0.75,4.05
		c-0.01,0.06-0.03,0.11-0.05,0.17c-1.27,4.74-4.31,10.63-11.65,10.63c-12.27,0-26.84,0-26.84,0v-12v-0.23V127v-12.21v-4.07v-0.05
		v-7.22c5.14-0.63,10.7-1.01,16.76-1.01c8.45,0,15.97,0.71,22.64,1.87V111.99z"/>
</g>
</svg>
