<?xml version="1.0" encoding="UTF-8"?>
<svg id="Layer_1" data-name="Layer 1" xmlns="http://www.w3.org/2000/svg" xmlns:xlink="http://www.w3.org/1999/xlink" viewBox="0 0 614.48 500.03">
  <defs>
    <style>
      .cls-1 {
        fill: #c1e1ea;
      }

      .cls-2 {
        clip-path: url(#clippath-4);
      }

      .cls-3 {
        fill: #bfdfe8;
      }

      .cls-4 {
        fill: #333343;
      }

      .cls-5 {
        fill: #fff;
      }

      .cls-6 {
        fill: none;
      }

      .cls-7 {
        fill: #ffce25;
      }

      .cls-8 {
        fill: #f6f8f7;
      }

      .cls-9 {
        clip-path: url(#clippath-1);
      }

      .cls-10 {
        fill: #080a0c;
      }

      .cls-11 {
        fill: #0091ff;
      }

      .cls-12 {
        clip-path: url(#clippath-3);
      }

      .cls-13 {
        fill: #1f3371;
      }

      .cls-14 {
        clip-path: url(#clippath-2);
      }

      .cls-15 {
        fill: #040404;
      }

      .cls-16 {
        fill: #c2dff7;
      }

      .cls-17 {
        clip-path: url(#clippath);
      }

      .cls-18 {
        fill: #f7f7f7;
      }

      .cls-19 {
        fill: #22366d;
      }
    </style>
    <clipPath id="clippath">
      <rect class="cls-18" x="168.99" y="201.61" width="159.37" height="170.38" rx="16.82" ry="16.82" transform="translate(-98.68 133.72) rotate(-25.29)"/>
    </clipPath>
    <clipPath id="clippath-1">
      <path class="cls-5" d="M188.75,300.1c-6.8-3.93-12.68-8.97-17.48-14.99-4.8-6.03-8.27-12.73-10.32-19.91-2.12-7.45-2.62-15.09-1.48-22.73,1.14-7.63,3.86-14.8,8.08-21.29,4.07-6.27,9.35-11.66,15.71-16.01,6.35-4.35,13.45-7.45,21.11-9.21,7.92-1.82,16.09-2.12,24.28-.9,8.19,1.23,15.91,3.91,22.95,7.98,6.8,3.93,12.68,8.97,17.48,14.99,4.8,6.03,8.27,12.73,10.32,19.91,2.12,7.45,2.62,15.09,1.48,22.73-1.14,7.63-3.86,14.8-8.08,21.29-4.07,6.27-9.35,11.66-15.71,16.01-6.35,4.35-13.45,7.45-21.11,9.21-7.92,1.82-16.09,2.12-24.28.9-8.19-1.23-15.91-3.91-22.95-7.98ZM204.61,196.99c-7.52,1.73-14.5,4.78-20.75,9.05-6.24,4.27-11.43,9.56-15.42,15.71-4.13,6.37-6.79,13.39-7.92,20.87-1.12,7.48-.63,14.98,1.45,22.28,2.01,7.05,5.42,13.63,10.13,19.54,4.71,5.92,10.49,10.88,17.18,14.74,6.92,4,14.52,6.64,22.58,7.85,8.06,1.21,16.09.91,23.89-.88,7.52-1.73,14.5-4.78,20.75-9.05,6.24-4.27,11.43-9.56,15.42-15.71,4.13-6.37,6.79-13.39,7.92-20.87,1.12-7.48.63-14.98-1.45-22.28-2.01-7.05-5.42-13.63-10.13-19.54-4.71-5.92-10.49-10.88-17.18-14.74-6.92-4-14.52-6.64-22.58-7.85-8.06-1.21-16.09-.91-23.89.88Z"/>
    </clipPath>
    <clipPath id="clippath-2">
      <path class="cls-6" d="M359.43,494.33h-134.99c-10.34,0-18.73-8.38-18.73-18.73V135.81c0-10.34,8.38-18.73,18.73-18.73h21.68l13.43-53.1,99.88,53.1c10.34,0,81.02,62.16,81.02,72.5l-62.29,76.62v209.39c0,10.34-8.38,18.73-18.73,18.73Z"/>
    </clipPath>
    <clipPath id="clippath-3">
      <path class="cls-6" d="M432.55,164.82l-38.05,98.08-67.31,40.33s-62.62,12.7-64.79,12.02c-2.16-.68-37.54-13.7-37.54-13.7l-16.9,10.05-44.78-34.23,23.21-118.34,14.24-39.42,62.94-52.74,135.2,60.79,33.79,37.15Z"/>
    </clipPath>
    <clipPath id="clippath-4">
      <path class="cls-6" d="M404.19,605.16h40.35l-14.46,53.29s-10.2,2.65-13.8,7.37c-3.59,4.72-12.38-9.64-12.38-9.64l.28-51.02Z"/>
    </clipPath>
  </defs>
  <g>
    <g>
      <path class="cls-8" d="M218.42,413.59l-.69-.12s.14-.84.14-2.37h.7c0,1.59-.15,2.45-.15,2.49Z"/>
      <path class="cls-8" d="M217.49,406.31c-.23-1.53-.57-3.12-.99-4.72l.67-.18c.44,1.63.77,3.24,1.01,4.79l-.69.1ZM215.03,397c-.54-1.47-1.17-2.97-1.86-4.46l.63-.29c.7,1.51,1.33,3.03,1.88,4.51l-.65.24ZM210.99,388.22c-.76-1.38-1.59-2.78-2.47-4.16l.59-.37c.88,1.39,1.72,2.81,2.49,4.2l-.61.34ZM205.82,380.05c-.92-1.28-1.9-2.59-2.91-3.87l.55-.43c1.02,1.29,2.01,2.6,2.93,3.9l-.57.4ZM199.81,372.45c-1.04-1.19-2.13-2.4-3.25-3.59l.51-.48c1.13,1.2,2.23,2.41,3.27,3.61l-.53.46ZM535.23,365.83l-.38-.58c1.37-.9,2.72-1.79,4.05-2.69l.39.58c-1.33.9-2.68,1.79-4.06,2.69ZM193.17,365.39c-1.13-1.12-2.31-2.24-3.51-3.35l.47-.51c1.2,1.11,2.39,2.24,3.53,3.36l-.49.5ZM543.3,360.39l-.4-.57c1.34-.93,2.66-1.87,3.96-2.81l.41.57c-1.3.94-2.63,1.88-3.97,2.81ZM186.04,358.82c-1.2-1.04-2.45-2.09-3.71-3.12l.44-.54c1.27,1.04,2.52,2.09,3.73,3.14l-.46.53ZM551.2,354.7l-.42-.56c1.31-.98,2.6-1.96,3.87-2.94l.43.55c-1.27.98-2.56,1.96-3.88,2.94ZM178.54,352.67c-1.26-.97-2.56-1.96-3.87-2.92l.41-.56c1.32.97,2.63,1.96,3.89,2.93l-.43.55ZM558.9,348.74l-.44-.54c1.28-1.03,2.54-2.06,3.75-3.08l.45.53c-1.22,1.02-2.48,2.06-3.76,3.09ZM170.73,346.91c-1.31-.92-2.65-1.84-4-2.75l.39-.58c1.35.91,2.7,1.83,4.01,2.75l-.4.57ZM566.37,342.49l-.46-.52c1.22-1.07,2.44-2.16,3.62-3.23l.47.52c-1.18,1.08-2.41,2.17-3.63,3.24ZM162.67,341.5c-1.34-.86-2.71-1.72-4.11-2.59l.37-.59c1.41.87,2.78,1.73,4.12,2.59l-.38.59ZM154.4,336.4c-1.37-.81-2.77-1.63-4.2-2.44l.35-.6c1.43.82,2.83,1.63,4.21,2.45l-.36.6ZM573.56,335.92l-.48-.5c1.18-1.13,2.35-2.27,3.47-3.4l.49.49c-1.12,1.13-2.3,2.28-3.48,3.41ZM145.97,331.58c-1.4-.77-2.82-1.54-4.27-2.31l.33-.62c1.45.77,2.88,1.55,4.28,2.32l-.34.61ZM580.43,329.02l-.51-.48c1.12-1.19,2.22-2.39,3.28-3.57l.52.46c-1.06,1.19-2.17,2.4-3.3,3.59ZM137.4,327.02c-1.42-.73-2.86-1.46-4.33-2.2l.31-.62c1.47.73,2.92,1.47,4.34,2.2l-.32.62ZM128.71,322.68c-1.44-.7-2.9-1.39-4.39-2.09l.3-.63c1.49.7,2.95,1.39,4.39,2.09l-.3.63ZM586.92,321.75l-.53-.45c1.04-1.24,2.08-2.51,3.06-3.76l.55.43c-.99,1.26-2.03,2.53-3.08,3.78ZM119.91,318.56l-1.51-.68c-.98-.44-1.95-.89-2.92-1.34l.29-.63c.96.45,1.93.89,2.91,1.34l1.51.68-.29.63ZM111.09,314.43c-1.46-.72-2.93-1.45-4.35-2.19l.32-.62c1.42.73,2.88,1.47,4.34,2.18l-.31.63ZM592.95,314.1l-.56-.41c.96-1.31,1.91-2.64,2.81-3.95l.58.39c-.9,1.32-1.85,2.66-2.82,3.97ZM102.43,309.97c-1.42-.77-2.86-1.57-4.26-2.37l.35-.6c1.4.8,2.82,1.59,4.24,2.36l-.33.61ZM598.45,306.05l-.59-.37c.87-1.38,1.71-2.77,2.5-4.15l.6.35c-.8,1.38-1.64,2.79-2.51,4.18ZM93.97,305.14c-1.39-.83-2.78-1.69-4.15-2.55l.37-.59c1.36.86,2.75,1.71,4.14,2.54l-.36.6ZM85.73,299.94c-1.36-.9-2.71-1.82-4.03-2.74l.4-.57c1.31.91,2.66,1.83,4.01,2.73l-.39.58ZM603.31,297.59l-.62-.32c.75-1.44,1.47-2.9,2.14-4.35l.63.29c-.68,1.45-1.4,2.93-2.16,4.37ZM77.75,294.36c-1.31-.96-2.62-1.95-3.89-2.93l.43-.55c1.27.98,2.57,1.96,3.87,2.92l-.41.56ZM607.42,288.75l-.64-.26c.62-1.5,1.2-3.02,1.73-4.52l.66.23c-.54,1.51-1.12,3.05-1.74,4.55ZM70.05,288.39c-1.26-1.03-2.51-2.08-3.73-3.13l.46-.53c1.21,1.05,2.47,2.1,3.72,3.12l-.44.54ZM62.67,282.03c-1.2-1.1-2.4-2.22-3.55-3.33l.48-.5c1.15,1.11,2.34,2.23,3.54,3.32l-.47.52ZM610.68,279.56l-.67-.2c.46-1.55.89-3.12,1.27-4.67l.68.16c-.38,1.56-.81,3.15-1.28,4.71ZM55.66,275.26c-1.14-1.16-2.26-2.35-3.35-3.54l.51-.47c1.08,1.18,2.21,2.36,3.34,3.52l-.5.49ZM612.98,270.08l-.69-.13c.3-1.58.55-3.19.76-4.78l.69.09c-.21,1.6-.47,3.22-.77,4.82ZM49.06,268.08c-1.06-1.24-2.12-2.49-3.12-3.74l.54-.44c1,1.24,2.05,2.5,3.11,3.73l-.53.46ZM42.94,260.49c-.98-1.3-1.94-2.63-2.86-3.95l.57-.4c.91,1.31,1.87,2.63,2.84,3.93l-.56.42ZM614.25,260.41l-.69-.05c.12-1.6.2-3.23.23-4.84h.7c-.03,1.63-.11,3.27-.23,4.89ZM37.38,252.49c-.88-1.37-1.74-2.77-2.55-4.15l.6-.35c.81,1.38,1.66,2.77,2.54,4.13l-.59.38ZM613.74,250.68c-.06-1.6-.16-3.23-.31-4.83l.69-.06c.15,1.62.25,3.26.31,4.87l-.7.03ZM32.44,244.08c-.77-1.44-1.51-2.91-2.2-4.35l.63-.3c.69,1.44,1.42,2.89,2.19,4.33l-.61.33ZM612.87,241.04c-.23-1.58-.51-3.19-.82-4.77l.68-.14c.32,1.6.6,3.21.83,4.81l-.69.1ZM28.24,235.28c-.64-1.51-1.24-3.03-1.79-4.54l.65-.24c.55,1.5,1.14,3.01,1.77,4.51l-.64.27ZM610.98,231.57c-.39-1.54-.83-3.11-1.3-4.66l.67-.2c.48,1.56.92,3.13,1.31,4.69l-.68.17ZM24.9,226.11c-.48-1.57-.92-3.15-1.3-4.7l.68-.17c.38,1.54.81,3.11,1.29,4.67l-.67.2ZM608.16,222.31c-.54-1.5-1.12-3.03-1.74-4.53l.64-.26c.62,1.51,1.21,3.04,1.75,4.56l-.66.23ZM22.57,216.63c-.3-1.61-.54-3.24-.73-4.83l.69-.08c.18,1.57.43,3.18.72,4.78l-.69.13ZM604.48,213.34c-.67-1.45-1.38-2.92-2.12-4.37l.62-.32c.75,1.46,1.46,2.93,2.14,4.39l-.63.29ZM21.44,206.93c-.05-1.07-.08-2.14-.08-3.2,0-.57,0-1.13.02-1.69l.7.02c-.01.56-.02,1.11-.02,1.67,0,1.04.03,2.11.08,3.16l-.7.03ZM600.06,204.69c-.78-1.39-1.61-2.8-2.46-4.19l.59-.36c.86,1.4,1.69,2.81,2.48,4.21l-.61.34ZM22.4,197.24l-.69-.07c.17-1.63.41-3.26.72-4.84l.68.13c-.3,1.56-.54,3.17-.71,4.78ZM594.98,196.41c-.88-1.33-1.81-2.68-2.76-4l.57-.4c.95,1.33,1.88,2.68,2.77,4.02l-.58.39ZM332.72,192.35c-1.67-.01-3.32-.11-4.89-.28l.08-.69c1.55.17,3.17.27,4.82.28v.7ZM337.61,192.17l-.05-.69c1.55-.12,3.16-.31,4.8-.56l.1.69c-1.66.25-3.29.44-4.85.56ZM323,191.23c-1.61-.38-3.19-.87-4.68-1.45l.25-.65c1.46.57,3.01,1.05,4.59,1.42l-.16.68ZM347.27,190.73l-.14-.68c1.53-.32,3.12-.7,4.71-1.13l.18.67c-1.61.43-3.21.81-4.75,1.14ZM589.34,188.5c-.97-1.27-1.98-2.55-3.01-3.81l.54-.44c1.03,1.27,2.05,2.56,3.02,3.83l-.55.42ZM356.7,188.24l-.21-.67c1.5-.46,3.05-.98,4.61-1.52l.23.66c-1.57.55-3.13,1.06-4.63,1.53ZM24.23,187.76l-.67-.19c.45-1.57.98-3.13,1.57-4.64l.65.25c-.58,1.48-1.1,3.02-1.55,4.57ZM313.89,187.67c-1.41-.81-2.78-1.73-4.07-2.75l.43-.55c1.26,1,2.6,1.9,3.98,2.69l-.35.6ZM365.92,185.04l-.25-.65c1.46-.56,2.98-1.17,4.51-1.8l.27.64c-1.54.63-3.06,1.24-4.53,1.8ZM306.2,181.61c-1.07-1.13-2.11-2.36-3.09-3.67l-.06-.09.56-.42.06.09c.96,1.28,1.98,2.5,3.03,3.6l-.5.48ZM374.93,181.32l-.28-.64c1.47-.64,2.95-1.31,4.43-1.99l.29.63c-1.49.69-2.97,1.35-4.45,2ZM583.21,180.97c-1.05-1.21-2.13-2.43-3.23-3.62l.51-.47c1.1,1.2,2.19,2.42,3.24,3.64l-.53.46ZM27.75,178.79l-.62-.32c.74-1.45,1.56-2.88,2.43-4.25l.59.38c-.86,1.35-1.67,2.76-2.4,4.19ZM383.79,177.25l-.3-.63c1.45-.7,2.91-1.41,4.37-2.13l.31.62c-1.46.73-2.92,1.44-4.38,2.14ZM300.22,173.88c-.89-1.31-1.78-2.68-2.66-4.08l.59-.37c.87,1.4,1.77,2.76,2.65,4.06l-.58.39ZM576.65,173.82c-1.11-1.15-2.26-2.3-3.42-3.43l.49-.5c1.16,1.13,2.32,2.29,3.43,3.44l-.5.49ZM392.52,172.92l-.32-.62c1.44-.73,2.88-1.48,4.32-2.23l.32.62c-1.44.76-2.89,1.5-4.33,2.24ZM32.95,170.67l-.55-.43c1-1.27,2.09-2.51,3.22-3.69l.5.48c-1.12,1.16-2.18,2.38-3.17,3.63ZM401.15,168.41l-.33-.62c1.43-.76,2.85-1.53,4.28-2.3l.33.61c-1.43.77-2.86,1.54-4.28,2.3ZM569.71,167.04c-1.18-1.09-2.39-2.19-3.61-3.26l.46-.52c1.22,1.07,2.44,2.17,3.62,3.27l-.47.51ZM295.04,165.62c-.79-1.36-1.6-2.79-2.4-4.25l.61-.33c.79,1.45,1.59,2.87,2.39,4.23l-.6.35ZM409.71,163.78l-.33-.61c1.43-.78,2.85-1.56,4.27-2.35l.34.61c-1.42.79-2.85,1.57-4.27,2.35ZM39.63,163.72l-.45-.53c1.22-1.05,2.52-2.06,3.85-3.02l.4.57c-1.32.94-2.6,1.94-3.8,2.98ZM562.42,160.63c-1.24-1.03-2.5-2.07-3.77-3.07l.43-.55c1.27,1.01,2.54,2.04,3.78,3.08l-.45.53ZM418.25,159.07l-.34-.61,4.26-2.36.34.61-4.26,2.36ZM47.48,158.11l-.36-.6c1.38-.82,2.83-1.6,4.3-2.32l.31.63c-1.46.72-2.89,1.49-4.25,2.3ZM290.36,157.07c-.73-1.41-1.46-2.87-2.19-4.35l.63-.31c.72,1.48,1.46,2.94,2.18,4.34l-.62.32ZM554.81,154.58c-1.29-.97-2.6-1.94-3.92-2.88l.41-.57c1.32.94,2.64,1.91,3.93,2.89l-.42.56ZM426.76,154.35l-.34-.61c1.43-.79,2.85-1.57,4.26-2.35l.34.61c-1.42.78-2.84,1.56-4.26,2.35ZM56.15,153.84l-.26-.65c1.48-.6,3.03-1.16,4.59-1.68l.22.66c-1.55.51-3.08,1.07-4.54,1.66ZM65.34,150.81l-.18-.67c1.57-.41,3.13-.87,4.63-1.36l.22.66c-1.52.49-3.09.96-4.67,1.37ZM435.29,149.66l-.33-.61c1.44-.78,2.86-1.55,4.28-2.32l.33.61c-1.42.76-2.85,1.53-4.28,2.31ZM546.91,148.93c-1.33-.91-2.7-1.81-4.06-2.68l.38-.59c1.36.87,2.73,1.78,4.07,2.69l-.39.58ZM286.06,148.32c-.69-1.46-1.36-2.94-2.03-4.43l.64-.29c.67,1.48,1.35,2.96,2.03,4.42l-.63.3ZM74.59,147.79l-.26-.65c1.5-.59,2.99-1.24,4.43-1.92l.3.63c-1.45.69-2.95,1.34-4.47,1.94ZM443.87,145.06l-.32-.62c1.45-.76,2.89-1.51,4.32-2.25l.32.62c-1.43.73-2.87,1.48-4.32,2.24ZM538.73,143.68c-1.38-.84-2.79-1.67-4.19-2.46l.34-.61c1.4.8,2.82,1.63,4.21,2.47l-.36.6ZM83.39,143.62l-.34-.61c1.4-.78,2.79-1.62,4.13-2.5l.38.58c-1.36.88-2.76,1.73-4.17,2.52ZM452.53,140.62l-.31-.62c1.47-.73,2.93-1.44,4.38-2.13l.3.63c-1.44.69-2.9,1.4-4.37,2.13ZM282.06,139.44c-.65-1.48-1.29-2.97-1.93-4.47l.64-.27c.64,1.5,1.28,2.99,1.92,4.47l-.64.28ZM530.28,138.88c-1.44-.77-2.9-1.51-4.33-2.21l.31-.63c1.44.7,2.9,1.45,4.35,2.22l-.33.62ZM91.56,138.3l-.42-.56c1.27-.96,2.53-1.98,3.76-3.04l.46.53c-1.23,1.07-2.51,2.1-3.79,3.06ZM461.31,136.44l-.29-.63c1.53-.69,3.04-1.35,4.47-1.96l.27.64c-1.42.6-2.92,1.26-4.45,1.95ZM521.56,134.61c-1.5-.67-3-1.32-4.47-1.91l.26-.65c1.47.59,2.98,1.24,4.49,1.92l-.29.64ZM470.26,132.67l-.25-.65c1.57-.61,3.11-1.17,4.58-1.68l.23.66c-1.46.5-3,1.06-4.56,1.67ZM98.93,131.93l-.49-.5c1.13-1.11,2.26-2.29,3.36-3.5l.52.47c-1.1,1.22-2.24,2.41-3.38,3.53ZM512.55,130.98c-1.57-.56-3.13-1.06-4.61-1.5l.2-.67c1.5.44,3.06.95,4.65,1.51l-.23.66ZM278.24,130.48c-.62-1.5-1.24-3-1.86-4.5l.64-.26c.62,1.5,1.24,3,1.86,4.5l-.64.27ZM479.44,129.54l-.19-.67c1.62-.47,3.22-.87,4.73-1.21l.15.68c-1.5.33-3.08.73-4.69,1.2ZM503.25,128.26c-1.66-.37-3.26-.65-4.76-.84l.09-.69c1.52.19,3.14.48,4.82.85l-.15.68ZM488.88,127.5l-.09-.69c1.7-.22,3.34-.35,4.88-.37v.7c-1.51.02-3.12.14-4.79.36ZM105.49,124.69l-.54-.44c.99-1.22,1.99-2.52,2.95-3.84l.56.41c-.97,1.33-1.98,2.63-2.97,3.86ZM274.53,121.47l-1.83-4.52.65-.26,1.83,4.51-.65.26ZM111.26,116.83l-.58-.39c.87-1.3,1.75-2.67,2.62-4.08l.59.37c-.87,1.41-1.76,2.79-2.63,4.1ZM270.87,112.44c-.61-1.5-1.22-3-1.84-4.5l.64-.26c.62,1.5,1.23,3,1.84,4.5l-.65.26ZM116.38,108.54l-.6-.35c.77-1.34,1.56-2.76,2.36-4.24l.61.33c-.8,1.48-1.6,2.91-2.37,4.26ZM267.17,103.46c-.63-1.5-1.26-3-1.89-4.48l.64-.27c.63,1.49,1.26,2.99,1.89,4.49l-.64.27ZM121.03,99.98l-.62-.32c.75-1.44,1.48-2.89,2.2-4.34l.62.31c-.73,1.45-1.46,2.9-2.21,4.35ZM263.36,94.51c-.65-1.49-1.31-2.97-1.98-4.44l.63-.29c.67,1.47,1.33,2.96,1.98,4.45l-.64.28ZM125.4,91.25l-.63-.31c.65-1.33,1.3-2.67,1.95-4l.18-.38.63.3-.18.38c-.65,1.33-1.3,2.66-1.95,4ZM259.34,85.65c-.69-1.47-1.4-2.94-2.11-4.38l.62-.31c.71,1.45,1.42,2.91,2.11,4.39l-.63.3ZM129.67,82.5l-.63-.31c.72-1.46,1.44-2.92,2.16-4.36l.62.31c-.73,1.44-1.44,2.9-2.16,4.36ZM255.04,76.94c-.76-1.47-1.53-2.91-2.29-4.28l.61-.34c.76,1.38,1.54,2.83,2.3,4.3l-.62.32ZM134.05,73.82l-.62-.32c.8-1.53,1.55-2.93,2.3-4.29l.61.34c-.75,1.36-1.5,2.76-2.3,4.28ZM250.34,68.44c-.84-1.42-1.7-2.81-2.54-4.14l.59-.37c.85,1.33,1.71,2.73,2.55,4.16l-.6.35ZM138.75,65.32l-.6-.36c.85-1.44,1.72-2.84,2.56-4.15l.59.38c-.84,1.3-1.7,2.69-2.55,4.13ZM245.11,60.27c-.94-1.35-1.9-2.67-2.85-3.92l.55-.42c.96,1.26,1.93,2.59,2.87,3.94l-.57.4ZM144.02,57.19l-.57-.4c.97-1.35,1.96-2.66,2.94-3.89l.54.44c-.98,1.22-1.96,2.52-2.92,3.86ZM239.22,52.58c-1.06-1.25-2.15-2.46-3.24-3.59l.5-.48c1.1,1.14,2.2,2.36,3.27,3.62l-.53.45ZM150.07,49.66l-.51-.47c1.12-1.22,2.27-2.39,3.42-3.47l.48.51c-1.14,1.07-2.28,2.23-3.38,3.44ZM232.52,45.61c-1.21-1.1-2.44-2.15-3.68-3.12l.43-.55c1.25.98,2.5,2.04,3.72,3.16l-.47.51ZM157.1,43.07l-.43-.54c1.28-1.02,2.6-1.98,3.94-2.87l.38.58c-1.32.87-2.63,1.83-3.89,2.83ZM224.93,39.66c-1.35-.89-2.73-1.72-4.12-2.47l.33-.61c1.41.76,2.81,1.6,4.17,2.5l-.38.58ZM165.12,37.76l-.33-.61c1.42-.76,2.9-1.48,4.39-2.11l.27.64c-1.48.63-2.93,1.33-4.33,2.09ZM216.46,35.09c-1.47-.63-2.99-1.19-4.51-1.68l.21-.66c1.54.5,3.08,1.07,4.57,1.71l-.27.64ZM173.96,33.98l-.22-.66c1.52-.5,3.09-.94,4.69-1.33l.16.68c-1.57.38-3.13.82-4.63,1.31ZM207.31,32.15c-1.54-.34-3.14-.63-4.74-.84l.09-.69c1.62.21,3.24.5,4.8.85l-.15.68ZM183.32,31.73l-.11-.69c1.57-.26,3.2-.46,4.84-.62l.06.69c-1.63.15-3.24.36-4.8.61ZM197.77,30.88c-1.58-.08-3.19-.1-4.83-.05l-.02-.7c1.65-.04,3.29-.02,4.88.05l-.03.7Z"/>
      <path class="cls-8" d="M528.71,369.99l-.37-.59c.69-.43,1.38-.86,2.06-1.29l.37.59c-.68.43-1.37.86-2.07,1.3Z"/>
    </g>
    <g>
      <rect class="cls-18" x="168.99" y="201.61" width="159.37" height="170.38" rx="16.82" ry="16.82" transform="translate(-98.68 133.72) rotate(-25.29)"/>
      <g class="cls-17">
        <g>
          <path class="cls-5" d="M188.75,300.1c-6.8-3.93-12.68-8.97-17.48-14.99-4.8-6.03-8.27-12.73-10.32-19.91-2.12-7.45-2.62-15.09-1.48-22.73,1.14-7.63,3.86-14.8,8.08-21.29,4.07-6.27,9.35-11.66,15.71-16.01,6.35-4.35,13.45-7.45,21.11-9.21,7.92-1.82,16.09-2.12,24.28-.9,8.19,1.23,15.91,3.91,22.95,7.98,6.8,3.93,12.68,8.97,17.48,14.99,4.8,6.03,8.27,12.73,10.32,19.91,2.12,7.45,2.62,15.09,1.48,22.73-1.14,7.63-3.86,14.8-8.08,21.29-4.07,6.27-9.35,11.66-15.71,16.01-6.35,4.35-13.45,7.45-21.11,9.21-7.92,1.82-16.09,2.12-24.28.9-8.19-1.23-15.91-3.91-22.95-7.98ZM204.61,196.99c-7.52,1.73-14.5,4.78-20.75,9.05-6.24,4.27-11.43,9.56-15.42,15.71-4.13,6.37-6.79,13.39-7.92,20.87-1.12,7.48-.63,14.98,1.45,22.28,2.01,7.05,5.42,13.63,10.13,19.54,4.71,5.92,10.49,10.88,17.18,14.74,6.92,4,14.52,6.64,22.58,7.85,8.06,1.21,16.09.91,23.89-.88,7.52-1.73,14.5-4.78,20.75-9.05,6.24-4.27,11.43-9.56,15.42-15.71,4.13-6.37,6.79-13.39,7.92-20.87,1.12-7.48.63-14.98-1.45-22.28-2.01-7.05-5.42-13.63-10.13-19.54-4.71-5.92-10.49-10.88-17.18-14.74-6.92-4-14.52-6.64-22.58-7.85-8.06-1.21-16.09-.91-23.89.88Z"/>
          <g class="cls-9">
            <path class="cls-5" d="M211.71,308.08l.16-1.05c-6.28-.94-12.18-3.32-17.51-7.07-5.16-3.63-9.58-8.37-13.14-14.1-3.56-5.75-6.08-12.19-7.46-19.15-1.44-7.22-1.6-14.68-.48-22.17,1.12-7.49,3.46-14.58,6.96-21.06,3.37-6.25,7.66-11.67,12.75-16.12,5.08-4.44,10.7-7.68,16.7-9.63,6.2-2.02,12.53-2.56,18.81-1.62l.16-1.05c-6.45-.97-12.94-.41-19.3,1.66-6.14,2-11.88,5.31-17.07,9.84-5.19,4.53-9.56,10.06-12.99,16.42-3.55,6.59-5.93,13.79-7.07,21.4-1.14,7.61-.98,15.2.49,22.54,1.41,7.08,3.97,13.65,7.6,19.5,3.63,5.86,8.15,10.7,13.43,14.41,5.47,3.84,11.51,6.28,17.96,7.25Z"/>
            <path class="cls-5" d="M211.71,308.08c6.09.91,12.36.32,18.63-1.76,6.09-2.02,11.83-5.33,17.08-9.84,5.31-4.56,9.78-10.06,13.29-16.37,3.69-6.62,6.13-13.81,7.27-21.38,1.13-7.57.91-15.16-.68-22.57-1.51-7.05-4.17-13.63-7.91-19.54-3.69-5.84-8.22-10.69-13.44-14.41-5.38-3.83-11.2-6.24-17.3-7.15l-.16,1.05c5.93.89,11.59,3.23,16.84,6.96,5.11,3.64,9.54,8.39,13.16,14.11,3.67,5.81,6.29,12.27,7.77,19.2,1.56,7.29,1.78,14.75.67,22.19-1.12,7.44-3.52,14.51-7.14,21.02-3.45,6.19-7.84,11.6-13.05,16.08-5.14,4.41-10.77,7.65-16.72,9.63-6.11,2.03-12.21,2.61-18.14,1.72l-.16,1.05Z"/>
            <path class="cls-5" d="M211.71,308.08c3.43.51,6.92-.53,10.35-3.11,3.24-2.43,6.36-6.15,9.25-11.06,5.78-9.81,10.22-23.59,12.5-38.8,2.28-15.22,2.08-29.69-.57-40.77-1.33-5.54-3.21-10.01-5.6-13.28-2.53-3.47-5.56-5.49-8.99-6.01l-.16,1.05c6.21.93,11.08,7.5,13.71,18.48,2.62,10.94,2.82,25.27.56,40.36-2.26,15.09-6.65,28.73-12.37,38.42-5.74,9.73-12.32,14.58-18.53,13.65l-.16,1.05Z"/>
            <rect class="cls-5" x="163.57" y="251.03" width="113.22" height="1.07" transform="translate(-61.25 432.01) rotate(-81.47)"/>
            <path class="cls-5" d="M211.71,308.08l.16-1.05c-3.15-.47-6.01-2.36-8.49-5.62-2.44-3.2-4.42-7.57-5.87-12.98-3.01-11.2-3.43-25.56-1.2-40.44,2.23-14.88,6.85-28.49,13.01-38.31,2.97-4.75,6.14-8.34,9.41-10.69,3.33-2.38,6.62-3.35,9.77-2.88l.16-1.05c-6.74-1.01-13.93,3.98-20.24,14.06-6.23,9.94-10.9,23.7-13.16,38.72-2.25,15.03-1.82,29.54,1.23,40.88,3.08,11.48,8.49,18.36,15.23,19.37Z"/>
            <rect class="cls-5" x="225.68" y="169.03" width="1.07" height="84.52" transform="translate(-16.27 403.68) rotate(-81.47)"/>
            <rect class="cls-5" x="222.16" y="176.71" width="1.07" height="116.13" transform="translate(-42.49 420.2) rotate(-81.47)"/>
            <rect class="cls-5" x="218.64" y="197.84" width="1.07" height="120.84" transform="translate(-68.72 436.73) rotate(-81.47)"/>
            <rect class="cls-5" x="215.22" y="231.54" width="1.07" height="100.42" transform="translate(-94.87 453.35) rotate(-81.47)"/>
          </g>
        </g>
      </g>
    </g>
    <g>
      <path class="cls-4" d="M385.23,172.84h-.37v-38.4c0-12.73-10.32-23.05-23.05-23.05h-139.74c-12.73,0-23.05,10.32-23.05,23.05v38.4h-.37c-1.66,0-3.01,1.35-3.01,3.01v26.56c0,1.66,1.35,3.01,3.01,3.01h.37v6.34h-.37c-1.66,0-3.01,1.35-3.01,3.01v26.56c0,1.66,1.35,3.01,3.01,3.01h.37v232.64c0,12.73,10.32,23.05,23.05,23.05h139.74c12.73,0,23.05-10.32,23.05-23.05v-255.26h.37c1.66,0,3.01-1.35,3.01-3.01v-42.86c0-1.66-1.35-3.01-3.01-3.01Z"/>
      <rect class="cls-5" x="205.72" y="117.08" width="172.44" height="377.25" rx="18.73" ry="18.73"/>
    </g>
    <path d="M356.64,383.73h-129.62c-5.16,0-9.36-4.2-9.36-9.36v-12.9c0-5.16,4.2-9.36,9.36-9.36h129.62c5.16,0,9.36,4.2,9.36,9.36v12.9c0,5.16-4.2,9.36-9.36,9.36ZM227.03,354.1c-4.06,0-7.36,3.3-7.36,7.36v12.9c0,4.06,3.3,7.36,7.36,7.36h129.62c4.06,0,7.36-3.3,7.36-7.36v-12.9c0-4.06-3.3-7.36-7.36-7.36h-129.62Z"/>
    <path d="M356.64,343.44h-129.62c-5.16,0-9.36-4.2-9.36-9.36v-12.9c0-5.16,4.2-9.36,9.36-9.36h129.62c5.16,0,9.36,4.2,9.36,9.36v12.9c0,5.16-4.2,9.36-9.36,9.36ZM227.03,313.82c-4.06,0-7.36,3.3-7.36,7.36v12.9c0,4.06,3.3,7.36,7.36,7.36h129.62c4.06,0,7.36-3.3,7.36-7.36v-12.9c0-4.06-3.3-7.36-7.36-7.36h-129.62Z"/>
    <g class="cls-14">
      <g>
        <path class="cls-11" d="M221.22,198.28s-7.69,13.84-15.66,19.35c-7.98,5.52-28.36,39.95-30.49,41.42-3.24,2.25,16.24,5.82,16.24,5.82l28.21-11.57,5.87-52.4-4.17-2.62Z"/>
        <path class="cls-11" d="M307.93,324.33c5.46-1.39,16.39,9.8,20.6,10.48,4.21.68.49-33.91,8.86-54.17s6.78-24.76,6.78-24.76c0,0-4.23-8.07-9.59-2.81-5.36,5.26-29.56,49.87-29.56,49.87l2.9,21.39Z"/>
        <path class="cls-10" d="M325.87,335.65c-1.59-.76-3.57-1.99-6.15-3.6-4.52-2.83-10.7-6.71-13.34-6.04l-.83-3.29c4.04-1.02,10.11,2.78,15.97,6.45,2.55,1.6,5.17,3.24,6.68,3.79.68-1.86.99-7.84,1.28-13.16.63-11.84,1.49-28.05,6.35-39.81,7.73-18.72,6.77-23.45,6.72-23.64.02.07.03.1.03.1l3.2-1.13c.3.85,1.39,6.11-6.81,25.97-4.63,11.23-5.48,27.1-6.1,38.7-.55,10.28-.84,14.51-2.68,15.99-.55.45-1.23.63-1.92.52-.69-.11-1.48-.4-2.4-.84Z"/>
        <path class="cls-10" d="M175.64,262.48c-2.3-1.1-2.48-1.93-2.59-2.43-.19-.89.18-1.76.99-2.35.75-.72,3.88-5.49,6.92-10.1,7.64-11.62,18.1-27.53,23.63-31.36,7.55-5.23,15.07-18.65,15.15-18.78l2.97,1.65c-.32.58-7.97,14.25-16.18,19.92-4.99,3.45-15.66,19.69-22.72,30.43-3.85,5.85-5.7,8.63-6.77,9.97,2.42,1.11,8.94,2.74,14.59,3.77l-.61,3.34c-8.62-1.58-13.05-2.95-15.36-4.06ZM174.1,257.66s-.01,0-.02.02c0,0,.01-.01.02-.02Z"/>
        <g>
          <g class="cls-12">
            <g>
              <g>
                <g>
                  <path class="cls-3" d="M234.56,147.56s-1.22-19.59-19.46-18.81c-18.24.78-17.33,24.74-15.66,31.5,1.67,6.76,24.31,42.39,23.4,43.33-.91.94-16.96,29.36-18.34,35.17-1.38,5.81-1.63,16.59-1.63,16.59,0,0-5.88,5.15-12.41,10.4-4.31,3.47-6.95,8.29-7.32,13.99-.55,8.46,23.18,25.51,29.47,22.33,6.29-3.19,11.76-13.81,14.7-13.54,2.93.27,5.21,2.49,13.47,7.96,8.26,5.47,21.68,8.1,26.66,10.86,4.98,2.76.19,7.68,1.54,20.47,1.35,12.79,24.06,17.58,32.7,15.65,8.64-1.94,8.2-16.68,8.2-16.68,2.15-11.46,2.34-23.2,2.34-23.2,5.71-3.18,16.59-24.56,21.3-37.12,3.83-10.21,5.14-10.74,5.14-10.74,0,0,39.42-3.33,51.21-12.59,11.79-9.26,15.73-26.28,4.34-31.03-11.39-4.75-18.86-.39-18.86-.39"/>
                  <ellipse class="cls-5" cx="272.23" cy="247.48" rx="40.95" ry="37.01" transform="translate(-68.53 386.2) rotate(-64.43)"/>
                  <path class="cls-5" d="M375.99,215.08s9.96,14.59,15.63,17.31c5.67,2.71,5.88,2.27,5.88,2.27,0,0,6.8-8.65,2.53-16.92-4.27-8.27-14.59-8.06-17.02-7.85-2.43.22-6.72,1.36-6.72,1.36l-.3,3.82Z"/>
                  <path class="cls-5" d="M200.93,149.61s5.92,4.89,16.6,2.57c10.68-2.32,17.03-4.62,17.03-4.62,0,0-1.46-12.19-7.83-15.57-6.37-3.39-14.08-3.79-18.8-.49-4.72,3.3-8.59,8.8-8.86,12.66s1.86,5.45,1.86,5.45Z"/>
                  <g>
                    <path class="cls-6" d="M339.97,234.46c.69-.18,1.36-.38,2.01-.59.02,0,.04-.01.07-.02-.7.19-1.4.37-2.1.54,0,.03.02.05.02.08Z"/>
                    <path class="cls-6" d="M260.67,185.01c.08.03.16,0,.24-.07.6,0,1.2.03,1.79.02-.6,0-1.2-.01-1.79-.02-.08.07-.16.1-.24.07Z"/>
                    <polygon class="cls-6" points="310.82 235.83 310.82 235.83 310.82 235.83 310.82 235.83 310.82 235.83"/>
                    <path class="cls-6" d="M270.22,168.09c.39.36.73.76.98,1.24-.25-.48-.59-.89-.98-1.24Z"/>
                    <path class="cls-6" d="M322.47,194.63c.36.01.73.07,1.09.16-.36-.08-.72-.14-1.09-.16Z"/>
                    <path class="cls-6" d="M272.23,170.24c-.21-.06-.43-.09-.66.01h0c.23-.1.45-.07.66-.01Z"/>
                    <path class="cls-6" d="M279.56,181.17c1.27-.76,2.13-2.06,1.88-4.03,2.06.15,4.11.4,6.12.83-2.02-.43-4.06-.68-6.13-.83.24,1.97-.62,3.27-1.88,4.03Z"/>
                    <path class="cls-6" d="M268,183c.42-.57.63-1.28.57-2.17.32.1.64.22.97.32-.32-.11-.64-.22-.97-.32.06.89-.15,1.6-.57,2.17Z"/>
                    <path class="cls-10" d="M240.61,190.38c.94,1.75,1.96,3.46,3.07,5.15,1.19,1.8,2.6,3.79,4.26,5.99.06.05.12.12.17.19.21.28.43.55.66.82.67.81,1.36,1.59,1.9,2.5.5.26.88.63,1.23,1.03s.68.84,1.04,1.22c4.37,4.53,9.17,8.55,14.35,12.12,4.85,3.34,9.97,6.2,15.35,8.6,8.7,3.87,17.77,6.49,27.23,7.7.32.04.63.09.95.14,0,0,0,0,0,0,0,0,0,0,0,0,0,0,0,0,0,0,.93.09,1.87.17,2.81.25,3.19.23,8.74.49,14.68.12.11-.08.31-.11.68-.14,2.39-.22,4.77-.51,7.13-.97.34-.06.57-.06.73.08,1.07-.2,2.11-.44,3.13-.71,0-.03-.02-.05-.02-.08.71-.17,1.41-.35,2.1-.54,12.3-4.07,7.46-2.44,7.46-2.44.48-.19.63.06.82.4.67,1.2,1.54,2.24,2.68,3.03,2.26,1.55,4.29,1.24,5.94-.96.34-.45.59-.45,1.09-.29,1.35.42,2.54-.06,3.32-1.26.31-.47.53-.99.66-1.54.19-.78.32-1.57.3-2.37-.01-.54.19-.76.69-.92,1.49-.47,2.22-1.63,2.58-3.06.22-.9.31-1.84.14-2.74-.18-.94.16-1.53.84-2.16,7.87-7.35,13-16.25,15.12-26.84.53-2.63.84-5.29.88-7.98,0-.63.23-.83.81-.89.92-.09,1.82-.26,2.73-.38,2.86-.39,5.71-.81,8.53-1.4.71-.15,1.41-.31,2.08-.59.64-.27,1.23-.62,1.58-1.24.34-.6.79-1.1,1.23-1.62,3.35-3.93,5.71-8.37,7.14-13.34.49-1.69.24-3.15-.64-4.58-.27-.44-.51-.91-.8-1.34-2.92-4.31-6.53-7.97-10.73-11.04-.77-.56-1.61-.85-2.57-.88-1.05-.04-2.08.04-3.11.19-4.95.74-9.9,1.48-14.84,2.23-.24.04-.48.06-.71.11-.36.08-.62-.03-.81-.35-.16-.28-.34-.54-.51-.81-6.12-9.63-14.23-17.34-23.36-24.03-3.19-2.34-6.65-4.3-10.14-6.18-11.51-6.19-23.81-9.72-36.81-10.88-4.67-.42-9.34-.48-14.02-.09-.49.04-.87.07-1.11-.55-1.12-2.96-2.7-5.72-3.92-8.64-.81-1.95-2.23-3.3-4.03-4.27-5.29-2.86-10.97-4.11-16.96-4.18-2.03-.02-3.52.68-4.75,2.25-2.42,3.07-4.39,6.4-5.94,9.98-.7,1.62-1.32,3.26-1.72,4.99-.14.59-.26,1.21,0,1.77.58,1.28.9,2.64,1.56,3.89.9,1.7,1.69,3.45,2.58,5.16.29.56.19.82-.31,1.15-1.51.99-2.93,2.09-4.3,3.26-8.04,6.82-13.63,15.22-16.29,25.47-.32,1.24-.81,2-2.06,2.45-1.51.54-2.87,1.43-3.92,2.69-1.46,1.74-1.24,3.62.55,5,.27.21.66.29.79.67-.08.11-.14.21-.22.3-1.78,1.92-1.94,2.97-.74,5.26.24.45.21.83,0,1.24-.33.64-.67,1.28-.87,1.97-.7,2.37.62,4.58,3.04,5.09.67.14,1.35.16,2.03.13.92-.05.93-.04,1.14.89.92,4.07,2.25,8.02,3.93,11.84.12.28.31.53.3.85.45.98,1.08,2.27,1.96,3.84.11.07.21.17.28.32ZM238.61,176.06c-.37-1.27-.63-2.57-.99-3.84-.17-.6-.07-.97.53-1.23.48-.2.88-.54,1.17-1,.45-.72.49-1.49.07-2.02-.48-.6-1.13-.75-1.84-.58-.42.1-.82.3-1.23.47-.63.26-1.24.56-1.87.8-.56.22-1.15.34-1.76.35-1.15.02-1.31-.21-.88-1.23.13-.29.27-.58.4-.87.61-1.39.77-2.79-.08-4.14-.32-.52-.24-.86.21-1.22.41-.32.78-.69,1.14-1.06,1.67-1.72,1.4-3.55-.67-4.74-.27-.16-.6-.22-.83-.54.29-.39.73-.59,1.14-.81,2.19-1.17,4.52-1.82,7.02-1.82.44,0,.88.03,1.32-.02,1.06-.12,1.77-.78,1.88-1.72.11-.93-.53-1.85-1.53-2.17-.85-.27-1.74-.24-2.62-.19-.28.02-.55.02-1,.04.99-3.78,2.58-7.18,4.39-10.48.22-.03.32.07.39.23,1.6,3.33,4.01,6.05,6.57,8.65.87.88,1.73,1.77,2.73,2.52.74.56,1.55,1,2.42,1.3,2.62.88,4.89-.55,5.23-3.3.16-1.29-.02-2.56-.32-3.81-.28-1.13-.67-2.22-1.11-3.3-.78-1.93-1.55-3.87-2.38-5.78-1.2-2.77-1.96-5.67-2.72-8.58-.14-.54.06-.8.44-1.11,1.68-1.36,3.41-2.65,5.26-3.78.99-.6,1.33-1.43,1.04-2.53-.1-.38-.26-.76-.43-1.12-1.36-2.9-2.64-5.84-4.31-8.58-.28-.46-.15-.84-.02-1.24.78-2.49,1.83-4.87,3.1-7.15,1.11-2,2.36-3.9,3.72-5.74.34-.45.67-.71,1.28-.7,5.03.01,9.87.9,14.43,3.09.36.17.72.36,1.06.56.73.44,1.25.99,1.52,1.89.6,2,1.63,3.82,2.57,5.68.9,1.79,1.78,3.59,2.43,5.49.42,1.22,1.09,2.32,1.75,3.41.75,1.23,2,1.8,3.32,2.21,2.04.62,4.14.89,6.25,1.12,5.68.63,11.36,1.29,16.96,2.51,3.13.68,6.21,1.53,9.27,2.49.27.08.52.21.79.28.49.13.65.36.38.86-.44.81-.85,1.64-1.23,2.48-.23.52-.51.56-1.03.4-2.26-.69-4.52-1.36-6.8-1.97-3.8-1.02-7.68-1.53-11.59-1.82-.79-.06-1.6.04-2.4.07-1.46.05-2.58.79-3.56,1.78-.78.78-.79,2.13-.06,3.22.6.88,1.43,1.49,2.37,1.99,1.83.96,3.8,1.47,5.81,1.83,4.01.73,8.06,1.25,12.01,2.28,1.8.47,1.7.08.97,1.96-.07.19-.17.36-.24.55-.14.37-.35.44-.74.33-1.23-.37-2.46-.71-3.7-1.02-1.09-.28-2.2-.38-3.32-.43-1.48-.07-2.74.5-3.93,1.28-1.05.69-1.28,1.96-.65,3.21.58,1.16,1.59,1.88,2.69,2.48,1.03.56,2.16.82,3.29,1.11,3.36.85,6.52,2.18,9.58,3.78,1.45.76,2.91,1.53,4.53,1.89.63.14,1.26.24,1.9.2,1.97-.13,3.1-1.68,2.62-3.6-.29-1.13-.98-2.01-1.81-2.78-1.59-1.48-3.4-2.66-5.32-3.66q-1.54-.8-.85-2.41c.05-.11.09-.22.14-.33.33-.69.33-.71,1.06-.34,3.12,1.57,6.11,3.34,8.99,5.31,1.82,1.24,3.61,2.51,5.45,3.72,1.07.7,2.19,1.34,3.49,1.55,2.15.35,3.5-1.06,3.05-3.2-.29-1.36-.99-2.53-1.79-3.64-1.66-2.29-3.74-4.15-5.99-5.83-2.74-2.04-5.71-3.69-8.83-5.07-.4-.18-.8-.37-1.21-.54-.37-.15-.5-.34-.31-.73.45-.89.89-1.79,1.3-2.7.21-.46.48-.43.87-.27.66.28,1.34.53,2.01.8,6.44,2.64,12.15,6.4,17.32,11.05,3.42,3.07,6.7,6.29,10.14,9.34.99.87,1.98,1.75,3.04,2.52,1.98,1.44,3.63,3.25,5.53,4.78,1.25,1,2.52,1.98,4.16,2.27.41.07.59.4.79.68,1.18,1.63,2.15,3.37,2.68,5.33.31,1.16.61,2.32.94,3.48.41,1.44.98,2.8,1.98,3.94,1.82,2.08,4.07,3.12,6.84,2.48,2.76-.64,4.38-2.52,5.12-5.19.22-.8.28-1.65.43-2.48.17-.94.53-1.14,1.41-.79,1.07.43,1.69,1.54,1.5,2.72-.09.52-.32.98-.57,1.44-.59,1.13-.37,2.17.52,2.77.88.59,2.09.32,2.88-.64,2.09-2.54,1.6-6.8-1.03-8.99-1.19-.99-2.54-1.51-4.07-1.53-2.22-.03-3.94,1.29-4.45,3.45-.15.62-.2,1.26-.27,1.9-.07.6-.13,1.2-.34,1.76-.74,2.06-2.96,2.56-4.52,1.03-.52-.52-.9-1.13-1.14-1.81-.22-.6-.42-1.21-.56-1.84-.73-3.18-1.65-6.28-3.59-8.91.22-.39.53-.3.79-.34,5.52-.72,11.03-1.46,16.51-2.45.43-.08.77-.05,1.11.23,3.86,3.14,7.48,6.51,10.29,10.66.34.49.46.93.29,1.55-1.41,5.12-3.95,9.6-7.46,13.56-.3.34-.66.54-1.12.62-3.9.67-7.79,1.42-11.73,1.86-.81.09-1.56.38-2.24.81-.69.43-1.05,1.1-.96,1.94.34,2.94-.15,5.82-.58,8.71-.07.47-.19.77-.71.95-5.61,1.92-11.24,3.76-17.08,4.89-.94.18-1.87.46-2.79.71-.58.16-1.13.4-1.63.75-1.52,1.04-1.84,2.8-.77,4.3.52.73,1.21,1.27,1.98,1.72,1.63.94,3.4,1.39,5.24,1.6,3.09.35,6.15.16,9.2-.36.35-.06.71-.11,1.07-.15.06,0,.14.06.3.14-2.36,4.21-5.3,7.93-8.86,11.26-.27-.38-.47-.67-.68-.96-.31-.43-.71-.76-1.21-.94-.98-.36-1.86.13-2.09,1.17-.18.82.07,1.59.31,2.35.41,1.34.8,2.69.74,4.11-.03.81-.04.81-.88.87-1.32.1-2.01.75-2.19,2.1-.13,1.03.03,2.08-.18,3.1-.11,0-.2.04-.26,0-1.68-.84-2.68-.5-3.48,1.17-.21.43-.38.88-.62,1.3-.38.68-.6.71-1.17.15-.46-.45-.84-.97-1.13-1.54-.57-1.15-1.07-2.32-1.27-3.61-.22-1.39-1.02-2.12-2.09-2-1.04.11-1.77,1.07-1.76,2.36,0,.44.08.87.12,1.33-.46.39-1.07.51-1.62.71-10.02,3.61-20.37,4.79-30.96,4.08-2.11-.14-4.22-.29-6.3-.7-2.79-.26-5.52-.86-8.24-1.5-7.31-1.73-14.33-4.28-21.03-7.66-8.26-4.17-15.77-9.41-22.45-15.83-.37-.36-.7-.76-1.05-1.14-2-1.79-3.74-3.83-5.43-5.9-5.9-7.2-10.44-15.14-13.08-24.11Z"/>
                    <path class="cls-1" d="M257.12,206.07c.15-.98-.29-1.88-.48-2.8-.78-3.78-.67-7.52.36-11.23.6-2.16,1.51-4.18,2.96-5.93.28-.34.46-.74.63-1.15,0,0,0,0,0,0,0,0,0,0,0,0-1.54-.4-3.15-.5-4.67-1.02-1.48-.51-2.91-1.13-4.14-2.13-.73-.59-1.31-1.29-1.64-2.18-.66-1.81.18-3.62,1.99-4.28,1.01-.37,2.05-.33,3.08-.15,2.68.47,5.3,1.21,7.95,1.81-.58-.72-1.03-1.52-1.2-2.44-.08-.42-.18-.86.1-1.27-1.97-.51-3.95-.97-5.91-1.53-3.45-.98-6.67-2.46-9.51-4.68-.89-.7-1.67-1.49-2.21-2.49-.63-1.17-.78-2.37-.02-3.52.76-1.15,1.92-1.5,3.24-1.41.93.07,1.79.4,2.65.73.33.13.67.28.98.45,3.93,2.14,8.16,3.42,12.49,4.46,1.71.41,3.41.86,4.97,1.72.33.18.65.38.95.59.2.14.38.29.56.45.39.36.73.76.98,1.24.15.28.28.58.36.92.23-.1.45-.07.66-.01.21.06.41.17.61.23,2.15.67,4.18,1.61,5.96,3.02,1.21.97,2.05,2.22,2.65,3.64,2.06.15,4.11.4,6.13.83.67.14,1.34.31,2,.49,1.65.46,3.31.88,4.86,1.65.96.47,2.04.68,3,1.19,4.09,2.17,8,4.61,11.38,7.82.35.33.69.66,1.03,1,1.01,1.01,1.99,2.06,2.98,3.11,1.48-.16,2.89.04,4.23.48.81.27,1.59.62,2.36,1.05.21.11.44.19.56.42.84-.42,1.67-.58,2.5-.55.36.01.73.07,1.09.16.26.06.51.13.77.22.21.07.41.16.62.25.4.18.82.34,1.19.56,3.73,2.21,7.78,3.74,11.67,5.62,1.81.88,3.52,1.89,4.91,3.37.58.61,1.09,1.28,1.42,2.06,1.12,2.62-.52,5.04-3.38,4.98-1.34-.03-2.59-.47-3.81-.98-3.36-1.39-6.72-2.8-10.07-4.21-.14.58-.49.97-.92,1.28-.25.19-.54.35-.82.51,1.29.86,2.58,1.72,3.88,2.58,1.41.94,2.58,2.1,3.43,3.59.88,1.54.45,3.44-1.09,4.33-.78.45-1.64.6-2.53.63-1.95.05-3.78-.48-5.59-1.14-1.39-.51-2.64-1.32-3.99-1.91.08.31.36.41.6.55.9.52.93.53.74,1.49-.41,2.05-1.1,4.01-2.18,5.79-1.03,1.7-2.26,3.25-3.7,4.65-1.04,1.01-2.3,1.54-3.55,2.16-.51.25-1.01.49-1.26,1.04,2.08.41,4.19.56,6.3.7,10.59.71,20.93-.46,30.96-4.08.56-.2,1.16-.32,1.62-.71-.04-.46-.12-.9-.12-1.33,0-1.28.72-2.24,1.76-2.36,1.07-.12,1.87.61,2.09,2,.2,1.29.7,2.46,1.27,3.61.29.58.67,1.09,1.13,1.54.57.56.79.54,1.17-.15.23-.42.41-.87.62-1.3.8-1.68,1.8-2.01,3.48-1.17.06.03.15,0,.26,0,.22-1.02.05-2.07.18-3.1.17-1.35.86-2,2.19-2.1.84-.06.85-.06.88-.87.06-1.43-.33-2.77-.74-4.11-.24-.77-.49-1.53-.31-2.35.23-1.03,1.1-1.53,2.09-1.17.5.18.9.51,1.21.94.21.29.41.58.68.96,3.56-3.32,6.5-7.05,8.86-11.26-.16-.08-.23-.14-.3-.14-.36.04-.71.09-1.07.15-3.05.52-6.12.71-9.2.36-1.85-.21-3.62-.66-5.24-1.6-.77-.45-1.46-.99-1.98-1.72-1.07-1.5-.75-3.26.77-4.3.5-.34,1.05-.58,1.63-.75.93-.26,1.85-.53,2.79-.71,5.84-1.13,11.47-2.96,17.08-4.89.53-.18.64-.48.71-.95.43-2.89.92-5.77.58-8.71-.1-.84.27-1.5.96-1.94.68-.43,1.43-.72,2.24-.81,3.94-.44,7.83-1.19,11.73-1.86.46-.08.82-.28,1.12-.62,3.5-3.96,6.05-8.44,7.46-13.56.17-.62.04-1.05-.29-1.55-2.82-4.15-6.43-7.52-10.29-10.66-.35-.28-.69-.31-1.11-.23-5.48.99-10.99,1.73-16.51,2.45-.26.03-.58-.05-.79.34,1.95,2.63,2.86,5.73,3.59,8.91.14.62.34,1.24.56,1.84.25.68.62,1.3,1.14,1.81,1.56,1.53,3.78,1.04,4.52-1.03.2-.57.27-1.17.34-1.76.07-.64.12-1.28.27-1.9.51-2.16,2.24-3.49,4.45-3.45,1.54.02,2.89.54,4.07,1.53,2.63,2.19,3.12,6.45,1.03,8.99-.79.96-2,1.23-2.88.64-.89-.6-1.11-1.64-.52-2.77.24-.47.48-.92.57-1.44.2-1.18-.42-2.29-1.5-2.72-.88-.35-1.25-.15-1.41.79-.15.83-.21,1.68-.43,2.48-.74,2.66-2.36,4.55-5.12,5.19-2.78.64-5.02-.39-6.84-2.48-1-1.14-1.57-2.5-1.98-3.94-.33-1.16-.62-2.32-.94-3.48-.53-1.96-1.5-3.7-2.68-5.33-.21-.29-.39-.61-.79-.68-1.64-.29-2.91-1.27-4.16-2.27-1.9-1.52-3.55-3.34-5.53-4.78-1.06-.77-2.06-1.65-3.04-2.52-3.44-3.05-6.72-6.27-10.14-9.34-5.17-4.64-10.88-8.4-17.32-11.05-.67-.27-1.34-.52-2.01-.8-.38-.16-.66-.18-.87.27-.41.91-.86,1.81-1.3,2.7-.19.39-.06.58.31.73.41.16.8.36,1.21.54,3.12,1.39,6.09,3.03,8.83,5.07,2.25,1.68,4.34,3.54,5.99,5.83.8,1.11,1.5,2.28,1.79,3.64.45,2.14-.9,3.55-3.05,3.2-1.3-.21-2.42-.84-3.49-1.55-1.84-1.21-3.64-2.48-5.45-3.72-2.88-1.96-5.87-3.74-8.99-5.31-.73-.37-.73-.35-1.06.34-.05.11-.09.22-.14.33q-.69,1.6.85,2.41c1.92,1,3.73,2.18,5.32,3.66.83.77,1.52,1.65,1.81,2.78.49,1.91-.65,3.47-2.62,3.6-.64.04-1.27-.06-1.9-.2-1.62-.36-3.08-1.13-4.53-1.89-3.06-1.61-6.23-2.93-9.58-3.78-1.12-.29-2.26-.54-3.29-1.11-1.1-.6-2.11-1.32-2.69-2.48-.63-1.25-.4-2.53.65-3.21,1.18-.77,2.45-1.34,3.93-1.28,1.12.05,2.24.16,3.32.43,1.24.31,2.47.65,3.7,1.02.39.12.61.05.74-.33.07-.19.16-.37.24-.55.73-1.88.83-1.49-.97-1.96-3.95-1.03-8-1.56-12.01-2.28-2.01-.36-3.99-.87-5.81-1.83-.93-.49-1.77-1.11-2.37-1.99-.74-1.09-.72-2.44.06-3.22.98-.99,2.1-1.73,3.56-1.78.8-.03,1.6-.12,2.4-.07,3.91.28,7.8.8,11.59,1.82,2.28.61,4.54,1.28,6.8,1.97.52.16.8.12,1.03-.4.37-.84.79-1.67,1.23-2.48.27-.5.11-.73-.38-.86-.27-.07-.52-.2-.79-.28-3.06-.95-6.14-1.81-9.27-2.49-5.6-1.22-11.28-1.87-16.96-2.51-2.11-.24-4.21-.5-6.25-1.12-1.33-.41-2.58-.97-3.32-2.21-.66-1.09-1.33-2.18-1.75-3.41-.65-1.9-1.53-3.7-2.43-5.49-.94-1.86-1.96-3.69-2.57-5.68-.27-.9-.79-1.45-1.52-1.89-.34-.21-.7-.39-1.06-.56-4.56-2.2-9.4-3.08-14.43-3.09-.61,0-.94.25-1.28.7-1.36,1.84-2.61,3.74-3.72,5.74-1.27,2.28-2.32,4.66-3.1,7.15-.13.41-.26.78.02,1.24,1.66,2.74,2.95,5.68,4.31,8.58.17.36.32.74.43,1.12.29,1.11-.05,1.93-1.04,2.53-1.85,1.13-3.58,2.42-5.26,3.78-.37.3-.58.56-.44,1.11.76,2.91,1.52,5.81,2.72,8.58.83,1.91,1.6,3.84,2.38,5.78.43,1.08.83,2.17,1.11,3.3.31,1.25.48,2.52.32,3.81-.34,2.74-2.61,4.18-5.23,3.3-.88-.3-1.68-.74-2.42-1.3-.99-.75-1.86-1.64-2.73-2.52-2.56-2.6-4.97-5.32-6.57-8.65-.08-.16-.18-.26-.39-.23-1.82,3.3-3.41,6.7-4.39,10.48.45-.02.72-.03,1-.04.88-.05,1.76-.08,2.62.19,1,.32,1.65,1.25,1.53,2.17-.11.94-.82,1.6-1.88,1.72-.43.05-.88.02-1.32.02-2.5,0-4.83.65-7.02,1.82-.41.22-.85.42-1.14.81.23.32.56.38.83.54,2.07,1.18,2.33,3.01.67,4.74-.36.37-.74.74-1.14,1.06-.46.36-.54.71-.21,1.22.84,1.35.69,2.75.08,4.14-.13.29-.28.58-.4.87-.44,1.02-.27,1.25.88,1.23.61-.01,1.2-.13,1.76-.35.63-.25,1.25-.54,1.87-.8.41-.17.81-.37,1.23-.47.71-.17,1.36-.02,1.84.58.43.53.38,1.31-.07,2.02-.29.46-.69.8-1.17,1-.61.25-.7.62-.53,1.23.36,1.27.62,2.57.99,3.84,2.64,8.97,7.18,16.91,13.08,24.11,1.7,2.07,3.43,4.11,5.43,5.9ZM320.39,175.59c.55-.33,1.16-.54,1.79-.67,2.48-.5,4.57.81,5.17,3.27.49,2,.05,3.88-.74,5.71-1.02,1.96-2.35,3.63-4.31,4.7-1.71.93-3.5,1.26-5.23.15-1.73-1.11-2.25-2.88-2.04-4.82.4-3.64,2.22-6.44,5.36-8.34ZM286.28,169.64c-.71.65-1.52,1.17-2.45,1.46-2.15.67-4.23-.2-5.25-2.2-.45-.87-.67-1.8-.68-2.77-.04-3.24,1.09-6.01,3.41-8.28.72-.71,1.57-1.23,2.55-1.51,2.03-.6,3.97.19,4.99,2.05.84,1.54.96,3.2.72,4.89-.15,1.11-.48,2.18-.97,3.2-.58,1.2-1.34,2.27-2.32,3.17ZM269.37,120.51c-.69.31-1.32.13-1.88-.37-.58-.52-.97-1.17-1.29-1.86-1.61-3.44-2.62-7.03-2.58-10.87.01-1.58.27-3.1,1.05-4.5,1.36-2.43,4.15-3.59,6.64-2.69,1.82.66,2.96,1.99,3.48,3.84.89,3.14-.39,6.5-3.14,8.26-.87.56-1.44.72-3.21.86.39,1.37.84,2.65,1.44,3.87.28.58.54,1.16.51,1.82-.03.74-.33,1.32-1.02,1.63Z"/>
                    <path class="cls-5" d="M314.71,229.01c1.45-1.4,2.68-2.96,3.7-4.65,1.08-1.78,1.77-3.74,2.18-5.79.19-.95.16-.96-.74-1.49-.24-.14-.52-.23-.6-.55-.9-.73-1.9-1.31-2.75-2.11-.82-.77-1.56-1.59-2.09-2.59-.25-.49-.44-1.01-.53-1.54-.28-1.59.24-3.26,2.03-4.26-1.25-1.02-2.45-2.07-3.46-3.34-.14-.18-.28-.36-.42-.55-.79-1.11-1.48-2.28-1.8-3.62-.63-2.68.11-4.18,2.57-5.29,0,0,0,0,0,0-.98-1.05-1.96-2.09-2.97-3.11-.34-.34-.68-.67-1.03-1-3.39-3.21-7.29-5.65-11.38-7.82-.96-.51-2.03-.71-3-1.19-1.55-.76-3.21-1.18-4.86-1.65-.66-.19-1.33-.35-2-.49-2.02-.43-4.06-.68-6.12-.83.24,1.97-.62,3.27-1.88,4.03-.42.25-.89.45-1.38.58-2.59.73-5.15.42-7.68-.29-.33-.09-.65-.2-.97-.3-.32-.11-.64-.22-.97-.32.06.89-.15,1.6-.57,2.17-.42.57-1.04,1.01-1.78,1.35-1.11.51-2.31.6-3.51.61-.6,0-1.2-.01-1.79-.02-.08.07-.16.1-.24.07-.03,0-.05-.03-.08-.05-.16.41-.34.81-.63,1.15-1.45,1.75-2.36,3.77-2.96,5.93-1.02,3.71-1.14,7.45-.36,11.23.19.92.63,1.81.48,2.8.35.38.68.78,1.05,1.14,6.68,6.42,14.19,11.66,22.45,15.83,6.7,3.39,13.72,5.93,21.03,7.66,2.72.64,5.45,1.24,8.24,1.5.25-.55.75-.79,1.26-1.04,1.24-.61,2.51-1.15,3.55-2.16Z"/>
                    <path class="cls-5" d="M312.82,193.23h0c-.98-1.04-1.96-2.09-2.98-3.11,1.01,1.01,1.99,2.06,2.97,3.11,0,0,0,0,0,0Z"/>
                    <path class="cls-10" d="M313.57,236.07c-.91-.07-1.83-.15-2.74-.24h0s1.03.12,2.74.24Z"/>
                    <path class="cls-10" d="M310.82,235.83c.91.09,1.83.17,2.74.24.02,0,.04,0,.06,0-.94-.07-1.87-.16-2.81-.25,0,0,0,0,0,0Z"/>
                    <path class="cls-10" d="M248.77,202.53c-.22-.27-.44-.54-.66-.82-.06-.07-.11-.14-.17-.19.84,1.12,1.75,2.28,2.73,3.5-.54-.9-1.23-1.69-1.9-2.5Z"/>
                    <path class="cls-10" d="M240.33,190.07c.86,1.54,1.96,3.37,3.35,5.47-1.11-1.7-2.13-3.4-3.07-5.15-.08-.15-.18-.24-.28-.32Z"/>
                    <polygon class="cls-13" points="310.82 235.83 310.82 235.83 310.82 235.83 310.82 235.83"/>
                    <path class="cls-13" d="M250.96,205.68c1.93,3.55,4.25,6.83,6.84,9.93.38.46.78.9,1.18,1.35,1.21,1.32,2.48,2.58,3.7,3.89h0c1.3,1.12,2.6,2.24,3.92,3.34,1.41,1.18,2.9,2.25,4.42,3.29.3.21.61.59,1.04.17.6-.57,1.37-.61,2.13-.66,1.75-.1,3.42.28,5.04.89,2.53.95,4.85,2.26,6.66,4.33.5.57,1.14,1.18,1.17,1.91.05,1.28.85,1.5,1.81,1.7.63.13,1.24.31,1.86.46,3.16.77,6.38,1.08,9.61,1.24.3-.15.63-.06.94-.06,2.66-.04,5.28-.34,7.86-.98l1.68-.65c-.32-.05-.63-.1-.95-.14-9.46-1.22-18.52-3.83-27.23-7.7-5.38-2.39-10.5-5.25-15.35-8.6-5.18-3.57-9.97-7.59-14.35-12.12-.37-.38-.69-.82-1.04-1.22-.35-.4-.74-.77-1.23-1.03.1.22.18.44.29.65Z"/>
                    <path class="cls-13" d="M310.82,235.83s0,0,0,0c-.32-.05-.63-.1-.95-.14.32.04.63.09.95.14h0Z"/>
                    <path class="cls-13" d="M251.91,206.06c-.35-.4-.74-.77-1.23-1.03h0c.5.26.88.63,1.23,1.03Z"/>
                    <path class="cls-13" d="M262.68,220.84h0c-1.22-1.31-2.49-2.57-3.7-3.89,1.21,1.32,2.48,2.58,3.69,3.89,0,0,0,0,0,0Z"/>
                    <path class="cls-10" d="M336.12,235.09c-2.36.45-4.74.75-7.13.97-.37.03-.57.06-.68.14,2.83-.18,5.75-.49,8.54-1.03-.16-.14-.39-.14-.73-.08Z"/>
                    <path class="cls-10" d="M319.97,195.18c-1.21,1.25-1.67,2.48-1.37,3.81.14.6.43,1.23.88,1.89,1.12,1.65,2.66,2.87,4.3,3.94,1,.66,2.06,1.23,3.09,1.84,3.36,1.4,6.71,2.81,10.07,4.21,1.22.51,2.48.95,3.81.98,2.86.07,4.5-2.36,3.38-4.98-.33-.78-.84-1.45-1.42-2.06-1.4-1.48-3.1-2.5-4.91-3.37-3.89-1.88-7.94-3.41-11.67-5.62-.38-.22-.79-.38-1.19-.56-.21-.09-.41-.17-.62-.25-.26-.09-.51-.16-.77-.22-.36-.08-.72-.14-1.09-.16-.83-.03-1.66.13-2.5.55Z"/>
                    <path class="cls-10" d="M326.87,206.66c3.36,1.4,6.71,2.81,10.07,4.21-3.36-1.39-6.72-2.8-10.07-4.21h0Z"/>
                    <path class="cls-10" d="M323.56,194.79c.26.06.51.13.77.22-.26-.09-.51-.16-.77-.22Z"/>
                    <path class="cls-10" d="M322.47,194.63c-.83-.03-1.66.13-2.5.55h0c.84-.42,1.67-.58,2.5-.55Z"/>
                    <path class="cls-10" d="M269.37,173.86c1.25-.3,1.92-1.04,2.06-2.3.05-.43.1-.87.14-1.3h0c-.09-.34-.21-.64-.36-.92-.25-.48-.59-.89-.98-1.24-.18-.16-.36-.31-.56-.45-.3-.21-.62-.41-.95-.59-1.55-.86-3.26-1.31-4.97-1.72-4.32-1.04-8.56-2.32-12.49-4.46-.32-.17-.65-.32-.98-.45-.86-.33-1.72-.66-2.65-.73-1.32-.09-2.48.26-3.24,1.41-.76,1.15-.61,2.36.02,3.52.54,1,1.32,1.8,2.21,2.49,2.84,2.23,6.06,3.7,9.51,4.68,1.96.56,3.94,1.02,5.91,1.53,1.84.24,3.67.64,5.54.66.6,0,1.19.02,1.78-.12Z"/>
                    <path class="cls-10" d="M269.67,167.64c.2.14.38.29.56.45-.18-.16-.36-.31-.56-.45Z"/>
                    <path class="cls-10" d="M271.57,170.25h0c-.09-.34-.21-.64-.36-.92.15.28.28.58.36.92Z"/>
                    <path class="cls-10" d="M320.66,206.22c-1.56-.64-3.13-.84-4.74-.19-1.79,1-2.31,2.67-2.03,4.26.09.53.28,1.05.53,1.54.53,1,1.27,1.83,2.09,2.59.85.79,1.85,1.38,2.75,2.11,1.35.59,2.59,1.4,3.99,1.91,1.81.66,3.64,1.19,5.59,1.14.89-.02,1.75-.18,2.53-.63,1.54-.89,1.98-2.79,1.09-4.33-.86-1.49-2.02-2.65-3.43-3.59-1.29-.86-2.58-1.72-3.88-2.58-1.51-.7-2.93-1.6-4.48-2.23Z"/>
                    <path class="cls-10" d="M315.92,206.03s0,0,0,0c-1.79,1-2.31,2.67-2.03,4.26-.28-1.59.24-3.26,2.03-4.26Z"/>
                    <path class="cls-10" d="M337.81,176.09c.05.06.12.11.16.18-.04-.07-.1-.12-.16-.18,0,0,0,0,0,0Z"/>
                    <path class="cls-10" d="M279.62,146.97c-.08.13-.17.27-.26.4.09-.13.17-.27.26-.4,0,0,0,0,0,0Z"/>
                    <path class="cls-7" d="M267.42,179.21c.47.5.89.99,1.15,1.63.32.11.64.22.97.32.32.11.64.21.97.3,2.54.71,5.09,1.03,7.68.29.49-.14.95-.33,1.38-.58,1.27-.76,2.13-2.06,1.88-4.03-.6-1.42-1.44-2.68-2.65-3.64-1.77-1.42-3.81-2.35-5.96-3.02-.2-.06-.4-.16-.61-.23-.21-.06-.43-.09-.66.01-.05.43-.09.87-.14,1.3-.15,1.26-.81,2.01-2.06,2.3-.58.14-1.18.12-1.78.12-1.87-.02-3.7-.42-5.54-.66-.28.4-.17.85-.1,1.27.17.92.62,1.71,1.2,2.44,1.54.5,3.1.94,4.27,2.19Z"/>
                    <path class="cls-10" d="M269.88,117.05c-.6-1.22-1.05-2.5-1.44-3.87,1.77-.15,2.34-.31,3.21-.86,2.75-1.76,4.03-5.13,3.14-8.26-.53-1.85-1.66-3.18-3.48-3.84-2.49-.9-5.28.26-6.64,2.69-.78,1.4-1.04,2.92-1.05,4.5-.03,3.83.98,7.43,2.58,10.87.32.69.71,1.34,1.29,1.86.56.5,1.18.68,1.88.37.69-.31.99-.88,1.02-1.63.02-.67-.23-1.25-.51-1.82ZM270.25,108.35c-.66.76-1.48,1.31-2.52,1.81-.16-1.61-.3-3.03.05-4.45.11-.43.26-.83.57-1.16.4-.42.84-.77,1.46-.65.65.13,1.02.6,1.18,1.22.32,1.21.07,2.29-.74,3.24Z"/>
                    <path class="cls-10" d="M260.91,184.94c.6,0,1.2.03,1.79.02,1.2-.01,2.4-.1,3.51-.61.75-.34,1.37-.78,1.78-1.35.42-.57.63-1.28.57-2.17-.25-.63-.68-1.13-1.15-1.63-1.17-1.25-2.73-1.69-4.27-2.19-2.65-.61-5.27-1.34-7.95-1.81-1.03-.18-2.07-.22-3.08.15-1.81.66-2.65,2.47-1.99,4.28.32.89.91,1.59,1.64,2.18,1.23.99,2.66,1.61,4.14,2.13,1.52.52,3.13.62,4.67,1.02.1-.12.21-.1.32-.02Z"/>
                    <path class="cls-7" d="M310.25,198.52c.32,1.35,1.01,2.51,1.8,3.62.13.19.27.37.42.55,1,1.26,2.21,2.32,3.46,3.34,0,0,0,0,0,0,1.61-.65,3.18-.45,4.74.19,1.55.63,2.97,1.53,4.48,2.23.28-.16.56-.32.82-.51.42-.31.77-.7.92-1.28h0c-1.03-.61-2.08-1.19-3.09-1.84-1.65-1.08-3.18-2.3-4.3-3.94-.45-.66-.74-1.29-.88-1.89-.3-1.33.16-2.56,1.37-3.81,0,0,0,0,0,0-.12-.23-.35-.3-.56-.42-.77-.42-1.56-.78-2.36-1.05-1.34-.44-2.75-.64-4.23-.48-2.46,1.1-3.2,2.61-2.57,5.29Z"/>
                    <path class="cls-7" d="M317.05,193.71c-1.34-.44-2.75-.64-4.23-.48h0c1.48-.16,2.89.04,4.23.48Z"/>
                    <path class="cls-7" d="M326.87,206.66c-.14.58-.49.97-.92,1.28.42-.31.77-.7.92-1.28h0s0,0,0,0Z"/>
                    <path class="cls-7" d="M315.92,206.03c-1.25-1.02-2.46-2.07-3.46-3.34,1,1.26,2.21,2.32,3.46,3.34,0,0,0,0,0,0,0,0,0,0,0,0Z"/>
                    <path class="cls-7" d="M318.6,198.98c-.3-1.33.16-2.56,1.37-3.81h0s0,0,0,0c-1.21,1.25-1.67,2.48-1.37,3.81Z"/>
                    <path class="cls-5" d="M279.62,146.97c0-.45-.28-.91-.18-1.36-.1.45.19.91.18,1.36,0,0,0,0,0,0h0Z"/>
                    <path class="cls-5" d="M337.8,176.09c-.3.14-.61.24-.94.26.33-.02.64-.12.94-.26,0,0,0,0,0,0h0Z"/>
                    <path class="cls-1" d="M260.58,184.97s.06.04.08.05c.08.03.16,0,.24-.07-.11-.08-.22-.1-.32.02,0,0,0,0,0,0,0,0,0,0,0,0Z"/>
                    <polygon class="cls-1" points="260.58 184.97 260.58 184.97 260.58 184.97 260.58 184.97"/>
                    <path class="cls-1" d="M260.67,185.01s-.05-.03-.08-.05h0s.06.04.08.05Z"/>
                    <polygon class="cls-1" points="260.59 184.96 260.58 184.97 260.58 184.97 260.59 184.96"/>
                    <polygon class="cls-1" points="260.58 184.96 260.58 184.97 260.59 184.96 260.58 184.96"/>
                    <path class="cls-1" d="M269.81,103.89c-.61-.13-1.06.23-1.46.65-.31.33-.47.73-.57,1.16-.35,1.42-.21,2.84-.05,4.45,1.03-.5,1.86-1.05,2.52-1.81.81-.94,1.07-2.03.74-3.24-.17-.62-.54-1.09-1.18-1.22Z"/>
                    <path class="cls-11" d="M277.04,236.48c.14.07.26.12.37.17l-.79-.38c.11.06.24.13.42.21Z"/>
                    <path class="cls-15" d="M310.73,235.97s.06-.09.09-.14h0c-.03.05-.06.1-.09.14Z"/>
                    <path class="cls-15" d="M342.05,233.84c2.55-.68,5.04-1.47,7.46-2.44,0,0,4.84-1.62-7.46,2.44Z"/>
                    <path class="cls-15" d="M321.14,236.42c-2.52-.02-5.02-.15-7.52-.34-.02,0-.04,0-.06,0,2.51.2,5.04.33,7.58.35Z"/>
                    <g>
                      <path class="cls-5" d="M284.41,239.72c-.02-.1-.04-.19-.07-.29.37-.08.7-.32.9-.73.67-1.4,2.31-3.52,1.7-5.09-.99-2.58-4.23-4.43-6.58-5.45-2.01-.88-5.11-1.94-7.34-1.08-1.53.59-2.23,3.46-2.89,4.84-.09.19-.13.4-.13.6-.09.1-.17.21-.23.33-.41.85-.85,1.7-1.23,2.56-.51,1.17-.05,2.22.44,3.37.79,1.86,2.39,5.07,4.47,5.88,2.12.82,5.28.17,7.33-.45,1.28-.39,2.11-.68,2.71-1.88.29-.57.76-1.29.89-1.99.05-.18.07-.39.02-.62Z"/>
                      <g>
                        <path class="cls-19" d="M283.02,239.84c-.02-.09-.27-1.45-1.52-2.95h0s-.12.25-.12.25l-.3.62s-.05.09-.08.13c-.05.08-.1.14-.16.2h0s0,0-.01.01c.08.11.15.21.22.32.41.64.59,1.18.67,1.45l-.68,1.42c-3,1.24-5.87.96-6.59.86-.53-.5-2.55-2.56-3.46-5.67l1.19-2.48-1.15-.55-1.39,2.91.06.23c1.12,4.1,3.93,6.54,4.05,6.65l.13.11.17.03c.15.03,3.82.69,7.72-1.01l.22-.09,1.07-2.24-.03-.2Z"/>
                        <path class="cls-19" d="M283.61,237.34c.23.41.37.76.37.76l1.78-3.73-.12-.27c-.04-.1-1.13-2.43-5.27-4.41s-6.64-1.36-6.74-1.34l-.29.07-1.96,4.09,2.57,1.23h0s.11-.24.11-.24l.33-.68.1-.2v-.02s.01,0,.01,0l-1.43-.68,1.14-2.37c.69-.07,2.67-.11,5.6,1.29,2.93,1.4,4.15,2.97,4.52,3.55l-1.14,2.38s.19.19.41.57Z"/>
                        <path class="cls-11" d="M282.32,234.87h0s-.1-.21-.32-.5c-.43-.55-1.26-1.36-2.81-2.1s-2.7-.88-3.4-.86c-.36,0-.57.06-.59.06l-.17.04-.53,1.1h0s-.01.03-.01.03l-.1.2-.33.68-.11.23h0s-1.26,2.65-1.26,2.65c.54,1.38,1.16,2.72,1.73,3.42l1.26-2.63v-.06s.02,0,.02,0l1.16.55s.37.19.9.38c.94.34,2.36.7,3.05.04,0,0,0,0,.01-.01h0c.06-.06.11-.13.16-.2.03-.04.05-.09.08-.13l.3-.62.12-.25h0s.89-1.87.89-1.87l-.07-.16ZM279.34,235h0s-.11.23-.11.23l-.28.59s-.02.04-.05.09c-.03.05-.08.13-.15.21,0,0,0,0,0,0-.2.23-.52.48-.93.28l-1.5-.72.32-.67h0s.11-.24.11-.24l.33-.68.11-.23h0s.19-.4.19-.4c.3.1.62.23.96.39.47.23.87.47,1.21.71l-.2.43Z"/>
                      </g>
                    </g>
                  </g>
                  <path class="cls-10" d="M393.53,235.73c-10.46-5.01-20.48-22.97-20.95-23.81l3.14-1.73c3.3,5.96,13.64,21.74,21.88,23.15l-.61,3.53c-1.15-.2-2.31-.59-3.46-1.14Z"/>
                  <path class="cls-10" d="M278.69,341.46c-1.61-.77-3.12-1.64-4.48-2.62-4.21-3.02-6.57-6.67-7.01-10.83-.61-5.76-.02-10,.41-13.09.59-4.21.56-5.11-1.04-6-1.79-.99-4.93-2.02-8.56-3.21-5.78-1.89-12.98-4.25-18.22-7.72-2.25-1.49-4.08-2.76-5.55-3.77-3.63-2.51-5.34-3.69-6.97-3.89-.98.37-1.63,1.39-3.47,3.55-3.19,3.74-6.81,7.99-10.37,9.79-4.5,2.28-13-2.77-16.45-5.04-6-3.96-16.05-12.42-15.62-19,.4-6.14,3.31-11.51,7.99-15.27,5.25-4.22,9.86-8.55,11.76-9.94.09-2.74.47-11.07,1.65-16.07,1.29-5.45,14.81-29.92,18.15-35.09-.95-2.15-4.91-8.93-8.45-14.98-6.46-11.05-13.77-23.57-14.76-27.58-1.3-5.28-2-18.83,4.15-27.05,3.14-4.19,7.57-6.44,13.17-6.68,19.77-.84,21.31,20.28,21.33,20.49l.08,1.28-1.19.49c-18.37,7.54-29.94,4.97-34.85,3.02.01,3.15.36,5.9.78,7.58.87,3.51,8.68,16.87,14.38,26.63,2.48,4.24,4.81,8.24,6.46,11.19,2.58,4.63,3.24,5.95,2.17,7.12-1.47,1.99-16.67,29.03-17.94,34.4-1.32,5.56-1.58,16.11-1.58,16.22l-.02.89-.72.52c-.07.05-5.91,5.19-12.33,10.35-3.94,3.17-6.32,7.52-6.66,12.71-.23,3.51,5.93,10.44,14.02,15.78,6.39,4.22,11.3,5.62,12.86,4.84,2.92-1.48,6.44-5.6,9.26-8.92,3.89-4.57,4.16-5.01,6.4-4.81,2.61.24,4.55,1.58,8.81,4.52,1.46,1.01,3.27,2.26,5.49,3.73,4.84,3.2,11.78,5.48,17.36,7.31,3.8,1.25,7.1,2.33,9.18,3.48,3.89,2.16,3.44,5.45,2.85,9.62-.43,3.07-.96,6.9-.4,12.22.33,3.11,2.19,5.9,5.54,8.3,7.38,5.3,19.73,6.97,24.98,5.79,7.09-1.59,6.8-14.75,6.8-14.88l.03-.38c2.1-11.17,2.31-22.78,2.31-22.9l.02-1.03.9-.5c4.72-2.63,15.21-22.09,20.5-36.19,4.1-10.94,5.58-11.55,6.14-11.77l.25-.1.27-.02c.39-.03,39.02-3.39,50.25-12.21,6.88-5.4,11.23-14.08,10.34-20.63-.48-3.53-2.36-6-5.58-7.34-10.34-4.32-17-.65-17.28-.49l-1.8-3.1c.34-.2,8.38-4.75,20.46.29,4.34,1.81,7.1,5.43,7.75,10.17,1.07,7.85-3.73,17.69-11.67,23.93-11.33,8.9-45.89,12.39-51.46,12.9-.52.76-1.87,3.1-4.32,9.65-4.19,11.16-14.55,32.41-21.21,37.47-.09,3.02-.52,12.7-2.32,22.37.03,1.96-.12,16.16-9.6,18.28-5.66,1.27-15.63-.05-23.37-3.75ZM224.16,204.8s-.02.02-.03.03c0,0,.02-.02.03-.03ZM221.55,202.35c-.08.08-.14.16-.2.25.08-.11.15-.2.2-.25ZM223.35,132.04c-2.18-1.05-4.87-1.64-8.18-1.5-4.47.19-7.99,1.96-10.46,5.25-2.59,3.46-3.77,8.17-4.16,12.61,2.98,1.42,13.67,5.22,32.07-1.98-.46-3.11-2.3-11.03-9.28-14.37Z"/>
                  <path class="cls-10" d="M382.75,246.98s-8.35-12.73-10.99-11.61,1.48,14.2,1.48,14.2"/>
                  <path class="cls-10" d="M368.06,251.28s.92-10.38-4.15-11.88c-5.06-1.5-3.79,12.03-3.79,12.03"/>
                  <path class="cls-10" d="M205.27,169.28s15.13-1.69,15.95,1.06c.82,2.75-11.88,7.92-11.88,7.92"/>
                  <path class="cls-10" d="M211.33,183.33s7.41-7.33,11.8-4.39-6.85,10.59-6.85,10.59"/>
                </g>
                <path class="cls-10" d="M214.81,220.38s2.66,2.45,8.7,7.18c6.04,4.73,4.52,6.05.65,5.65s-14-5.88-14-5.88"/>
                <path class="cls-10" d="M208.97,231.46s3.16,2.54,10.27,7.37c7.11,4.84,5.52,6.42,1.16,6.27s-16.11-5.52-16.11-5.52"/>
                <path class="cls-10" d="M328.26,274.67s-3.57-.54-11.04-2.27c-7.47-1.73-7.55.27-4.81,3.03,2.74,2.76,13.36,7.22,13.36,7.22"/>
                <path class="cls-10" d="M323.29,286.17s-3.96-.87-12.18-3.37c-8.23-2.5-8.46-.27-5.61,3.03,2.86,3.3,14.4,9.08,14.4,9.08"/>
              </g>
              <polygon class="cls-3" points="281.75 152.03 331.86 171.04 328.81 185.23 323.96 190.91 273.77 167.6 277.42 154.76 281.75 152.03"/>
              <circle class="cls-5" cx="283.92" cy="162.63" r="3.49"/>
              <circle class="cls-5" cx="319.8" cy="179.8" r="3.49"/>
              <g>
                <path class="cls-10" d="M335.37,175.93c-.23.48-.35,1.01-.74,1.41-.54.54-1.01.61-1.63.16-.74-.54-1.18-1.3-1.45-2.16-.19-.62-.34-1.26-.57-1.87-.53-1.37-1.31-2.59-2.33-3.66-.69-.72-1.38-1.44-1.95-2.26-1.16-1.68-1.68-3.5-.64-5.4,1.07-1.96,2.91-2.69,5.05-2.52,3.26.25,5.64,2,7.36,4.71,1.02,1.61,1.58,3.4,1.84,5.28.21,1.56.27,3.13.21,4.7,0,.23-.02.46-.06.69-.16,1.09-.68,1.78-1.52,1.94-.99.18-1.71-.23-2.19-1.1-.04-.06-.1-.11-.15-.17,0-.65-.04-1.3-.02-1.95.04-1.46,0-2.91-.24-4.36-.2-1.22-.57-2.39-1.21-3.46-.84-1.41-2.02-2.4-3.69-2.68-.73-.12-1.52-.14-1.92.65-.36.7.12,1.26.55,1.74.58.66,1.23,1.26,1.81,1.92,2.1,2.39,3.62,5.04,3.5,8.37Z"/>
                <path class="cls-10" d="M280.92,146.07c-.26-.16-.55-.28-.78-.48-.89-.75-.9-2.05-.02-2.82.23-.2.49-.38.77-.49,3.19-1.2,6.43-2.01,9.88-1.41,2.35.41,4.33,1.49,5.94,3.23,1.02,1.09,1.68,2.37,1.94,3.84.61,3.59-2.15,6.28-5.72,5.57-1.14-.23-2.18-.72-3.2-1.25-.96-.49-1.95-.9-3-1.14-1.01-.23-2.04-.31-3.08-.26-.85.04-1.69-.03-2.46-.42-1.17-.59-1.33-1.21-.59-2.27.09-.12.16-.25.25-.38,1.63-.96,3.4-1.07,5.21-.82,1.83.25,3.57.82,5.2,1.7.67.36,1.36.72,2.07.97,1.23.43,1.95-.26,1.65-1.55-.21-.9-.76-1.56-1.44-2.15-1.43-1.24-3.14-1.5-4.94-1.46-1.89.05-3.71.53-5.48,1.17-.73.26-1.45.45-2.23.41Z"/>
                <path class="cls-10" d="M325.87,183.16c-.97,1.87-2.25,3.47-4.13,4.5-1.64.89-3.35,1.21-5.01.14-1.66-1.06-2.15-2.76-1.95-4.61.38-3.49,2.12-6.16,5.13-7.99.53-.32,1.11-.52,1.71-.64,2.37-.48,4.38.78,4.95,3.13.47,1.91.04,3.71-.71,5.47ZM321.7,180.32c.55-1.19.09-2.55-1.08-3.11-1.2-.58-2.61-.07-3.18,1.16-.55,1.18-.07,2.56,1.08,3.13,1.19.58,2.61.06,3.18-1.17Z"/>
                <path class="cls-10" d="M289.46,166.47c-.56,1.15-1.28,2.17-2.22,3.04-.68.63-1.45,1.12-2.35,1.4-2.06.64-4.05-.19-5.03-2.11-.43-.83-.64-1.73-.65-2.65-.04-3.1,1.04-5.76,3.26-7.93.69-.68,1.51-1.17,2.44-1.45,1.95-.57,3.81.18,4.78,1.96.81,1.47.92,3.06.69,4.68-.15,1.06-.46,2.09-.93,3.06ZM284.74,159.9c-1.22-.58-2.63-.01-3.25,1.3-.64,1.36-.17,2.86,1.07,3.44,1.21.57,2.66,0,3.27-1.28.62-1.31.13-2.87-1.09-3.45Z"/>
                <path class="cls-5" d="M280.92,146.07c.78.04,1.5-.14,2.23-.41,1.77-.64,3.58-1.12,5.48-1.17,1.79-.05,3.51.22,4.94,1.46.68.59,1.23,1.26,1.44,2.15.29,1.29-.42,1.98-1.65,1.55-.72-.25-1.4-.61-2.07-.97-1.63-.89-3.37-1.45-5.2-1.7-1.81-.25-3.58-.14-5.21.82,0-.58-.48-1.17.06-1.73Z"/>
                <path class="cls-5" d="M335.37,175.93c.12-3.33-1.4-5.97-3.5-8.37-.58-.66-1.23-1.26-1.81-1.92-.42-.49-.91-1.04-.55-1.74.41-.78,1.19-.77,1.92-.65,1.66.28,2.84,1.27,3.69,2.68.64,1.06,1.01,2.23,1.21,3.46.23,1.44.28,2.9.24,4.36-.02.65.01,1.3.02,1.95-.39.17-.79.29-1.22.25Z"/>
                <path class="cls-10" d="M289.03,196.81c-1.71.46-3.37.51-5.02,0-1.68-.52-3.15-1.38-4.21-2.84-.84-1.16-1.21-2.47-1.19-3.89,0-.38.05-.76.2-1.13.36-.9,1.06-1.44,1.89-1.42.86.02,1.59.66,1.82,1.65.09.37.11.76.15,1.14.09.82.5,1.46,1.18,1.88,1.63,1.01,3.31,1.15,4.98.09.45-.28.85-.65,1.25-1,.63-.56.95-1.17.64-2.1-.29-.87-.26-1.82-.03-2.73.42-1.61,1.68-2.52,3.34-2.34,1.65.18,3.11.79,4.28,2.01.91.95,1.04,2.01.34,3.13-.69,1.11-1.69,1.89-2.84,2.43-.64.3-1.04.72-1.37,1.31-.38.67-.73,1.35-.95,2.09-.34,1.17-.11,2.18.87,2.99.57.47,1.17.86,1.86,1.12,1.12.43,2.17.37,3.13-.42.26-.22.55-.43.86-.57.76-.35,1.68-.16,2.22.42.51.55.63,1.41.3,2.15-.21.47-.57.82-.95,1.14-2,1.67-4.28,1.97-6.7,1.24-1.88-.57-3.44-1.65-4.7-3.17-.75-.91-1.03-2.03-1.36-3.17Z"/>
              </g>
            </g>
          </g>
          <path class="cls-3" d="M303.83,280.32s18.61,10.36,9.86,32.36c-8.75,22-26.02,19.36-35.22,16.71-9.2-2.66-20.16-18.87-8.82-36.46,11.33-17.59,27.92-16.47,34.18-12.61Z"/>
          <path class="cls-10" d="M275.76,330.16c-4.65-2.23-8.82-7.02-11-12.82-3.05-8.14-1.82-17.14,3.46-25.33,12.28-19.07,30.19-17,36.48-13.14,1.1.65,19.53,11.89,10.56,34.44-4.63,11.65-14.86,24.18-37.26,17.71-.75-.22-1.5-.51-2.24-.86ZM301.97,281.24c-6.1-2.92-20.54-3.46-30.9,12.61-4.69,7.27-5.8,15.19-3.13,22.3,2.45,6.53,7.29,10.54,11,11.61,16.25,4.69,27.1-.44,33.17-15.7,8.07-20.31-8.4-29.85-9.11-30.25l-.06-.04c-.29-.18-.62-.36-.97-.52Z"/>
          <g>
            <path class="cls-5" d="M297.27,292.61s9.28,5.17,4.92,16.14c-4.36,10.97-12.98,9.66-17.56,8.33s-10.05-9.41-4.4-18.18c5.65-8.77,13.92-8.21,17.05-6.29Z"/>
            <path class="cls-10" d="M282.92,318.24c-2.52-1.21-4.77-3.77-5.93-6.87-1.62-4.32-.98-9.07,1.81-13.39,5.88-9.13,14.98-9.48,19.33-6.83,3.66,2.06,9.51,8.48,5.64,18.23-2.44,6.14-7.82,12.74-19.61,9.34-.42-.12-.83-.28-1.23-.47ZM295.95,293.82c-2.79-1.34-9.45-1.53-14.3,6-2.8,4.35-2.35,8.04-1.48,10.36,1.11,2.96,3.33,4.81,4.92,5.27,7.61,2.2,12.68-.2,15.52-7.33,3.77-9.48-3.84-13.85-4.16-14.03l-.07-.04c-.13-.08-.27-.16-.43-.23Z"/>
          </g>
        </g>
      </g>
    </g>
    <path d="M513.09,258.91c-.63,0-1.26-.11-1.87-.33l-4.19-1.55c-2.88-1.06-4.33-4.25-3.31-7.24l15.37-44.92c.61-1.78,1.92-3.24,3.6-4.02,1.63-.75,3.43-.81,5.07-.16l10.22,4.05c1.62.64,2.89,1.9,3.56,3.53.7,1.69.68,3.63-.05,5.33l-18.14,42.05c-.17.39-.62.57-1.02.4-.39-.17-.57-.62-.4-1.02l18.14-42.05c.58-1.34.59-2.81.05-4.13-.52-1.25-1.48-2.2-2.7-2.69l-10.22-4.05c-1.24-.49-2.61-.45-3.85.12-1.3.6-2.31,1.73-2.79,3.11l-15.37,44.92c-.75,2.2.29,4.52,2.38,5.29l4.19,1.55c2.06.76,4.43-.35,5.27-2.49l13.85-34.94c.96-2.42-.15-5.15-2.48-6.07-1.13-.45-2.38-.41-3.51.11-1.18.55-2.11,1.58-2.54,2.84l-10.27,30.19c-.14.4-.58.62-.98.48-.4-.14-.62-.58-.48-.98l10.27-30.19c.56-1.66,1.79-3.02,3.35-3.75,1.52-.7,3.2-.75,4.73-.15,3.12,1.24,4.62,4.86,3.34,8.08l-13.85,34.94c-.9,2.28-3.1,3.7-5.37,3.7Z"/>
    <g>
      <rect x="384.77" y="82.15" width="9.46" height="9.46"/>
      <path d="M394.23,92.39h-9.46c-.43,0-.77-.35-.77-.77v-9.46c0-.43.35-.77.77-.77h9.46c.43,0,.77.35.77.77v9.46c0,.43-.35.77-.77.77ZM385.54,90.84h7.92v-7.92h-7.92v7.92Z"/>
    </g>
    <g>
      <path d="M401.49,215.09c0-1.06.86-1.93,1.93-1.93s1.93.86,1.93,1.93-.86,1.93-1.93,1.93-1.93-.86-1.93-1.93Z"/>
      <path d="M403.42,217.79c-1.49,0-2.7-1.21-2.7-2.7s1.21-2.7,2.7-2.7,2.7,1.21,2.7,2.7-1.21,2.7-2.7,2.7ZM403.42,213.93c-.64,0-1.16.52-1.16,1.16s.52,1.16,1.16,1.16,1.16-.52,1.16-1.16-.52-1.16-1.16-1.16Z"/>
    </g>
    <g>
      <path d="M421.53,215.09c0-1.06.86-1.93,1.93-1.93s1.93.86,1.93,1.93-.86,1.93-1.93,1.93-1.93-.86-1.93-1.93Z"/>
      <path d="M423.46,217.79c-1.49,0-2.7-1.21-2.7-2.7s1.21-2.7,2.7-2.7,2.7,1.21,2.7,2.7-1.21,2.7-2.7,2.7ZM423.46,213.93c-.64,0-1.15.52-1.15,1.16s.52,1.16,1.15,1.16,1.16-.52,1.16-1.16-.52-1.16-1.16-1.16Z"/>
    </g>
    <g>
      <circle cx="602.12" cy="310.38" r="1.93"/>
      <path d="M602.12,313.08c-1.49,0-2.7-1.21-2.7-2.7s1.21-2.7,2.7-2.7,2.7,1.21,2.7,2.7-1.21,2.7-2.7,2.7ZM602.12,309.22c-.64,0-1.15.52-1.15,1.16s.52,1.16,1.15,1.16,1.16-.52,1.16-1.16-.52-1.16-1.16-1.16Z"/>
    </g>
    <g>
      <path d="M158.76,84.2c0-1.07.86-1.93,1.93-1.93s1.93.86,1.93,1.93-.86,1.93-1.93,1.93-1.93-.86-1.93-1.93Z"/>
      <path d="M160.69,86.9c-1.49,0-2.7-1.21-2.7-2.7s1.21-2.7,2.7-2.7,2.7,1.21,2.7,2.7-1.21,2.7-2.7,2.7ZM160.69,83.05c-.64,0-1.15.52-1.15,1.16s.52,1.16,1.15,1.16,1.16-.52,1.16-1.16-.52-1.16-1.16-1.16Z"/>
    </g>
    <g>
      <path d="M56.54,237.49c0-1.07.86-1.93,1.93-1.93s1.93.86,1.93,1.93-.86,1.93-1.93,1.93-1.93-.86-1.93-1.93Z"/>
      <path d="M58.47,240.19c-1.49,0-2.7-1.21-2.7-2.7s1.21-2.7,2.7-2.7,2.7,1.21,2.7,2.7-1.21,2.7-2.7,2.7ZM58.47,236.33c-.64,0-1.16.52-1.16,1.16s.52,1.16,1.16,1.16,1.16-.52,1.16-1.16-.52-1.16-1.16-1.16Z"/>
    </g>
    <g>
      <circle cx="39.67" cy="252.76" r="1.93"/>
      <path d="M39.67,255.46c-1.49,0-2.7-1.21-2.7-2.7s1.21-2.7,2.7-2.7,2.7,1.21,2.7,2.7-1.21,2.7-2.7,2.7ZM39.67,251.6c-.64,0-1.16.52-1.16,1.15s.52,1.16,1.16,1.16,1.16-.52,1.16-1.16-.52-1.15-1.16-1.15Z"/>
    </g>
    <g>
      <path class="cls-5" d="M68.09,189.1c5.13-4.22,11.47-5.25,16.31-.58,4.84,4.67,5.49,14.53.65,19.2-5.26,5.08-17.77,5.01-24.61,4.89-13.16-.23-26.55.41-39.71.41-24.66,0-21.99-21.19-15.41-25.7,3.2-2.19,7.54-1.84,10.45.85-1.23-8.92,4.25-18.39,11.82-20.44,7.57-2.05,16.09,3.64,18.38,12.28,3.41-4.11,9.07-5.46,13.59-3.23,4.53,2.23,7.44,6.98,8.54,12.33Z"/>
      <path d="M20.72,213.79c-14.39,0-18.72-7.03-20.02-11.22-1.99-6.42.55-13.4,4.17-15.89,2.97-2.04,6.91-2.05,9.95-.18-.41-8.8,5.04-17.49,12.55-19.52,3.52-.95,7.37-.36,10.86,1.65,3.74,2.16,6.63,5.71,8.06,9.86,3.69-3.61,9.1-4.62,13.59-2.41,4.16,2.05,7.28,6.26,8.68,11.67,5.7-4.16,11.88-4.11,16.36.22,2.63,2.54,4.21,6.61,4.21,10.88,0,3.81-1.3,7.25-3.56,9.43-5.64,5.45-18.82,5.22-25.16,5.11-7.57-.13-15.35.03-22.88.18-5.53.11-11.24.23-16.82.23ZM9.95,186.66c-1.48,0-2.95.42-4.2,1.29-3.1,2.13-5.34,8.47-3.57,14.15,2.03,6.54,8.61,10.14,18.54,10.14,5.56,0,11.27-.12,16.79-.23,7.54-.15,15.33-.31,22.93-.18,5.65.1,18.88.33,24.06-4.67,1.96-1.89,3.09-4.92,3.09-8.32,0-3.86-1.4-7.51-3.73-9.77-4.19-4.04-9.9-3.81-15.28.62-.21.17-.49.22-.75.13-.26-.09-.45-.31-.5-.57-1.14-5.51-4.1-9.81-8.13-11.79-4.17-2.05-9.5-.78-12.66,3.03-.18.22-.48.32-.76.26-.28-.06-.51-.28-.58-.56-1.14-4.32-3.97-8.05-7.75-10.24-3.12-1.81-6.56-2.34-9.68-1.49-7.17,1.94-12.43,11.09-11.26,19.59.04.32-.12.64-.41.79-.29.15-.64.1-.88-.12-1.47-1.36-3.38-2.06-5.28-2.06Z"/>
    </g>
    <g>
      <g>
        <g>
          <polygon class="cls-5" points="475.35 478.62 429.83 435.5 439.07 425.77 484.58 468.89 486.62 480.4 475.35 478.62"/>
          <path d="M486.62,481.17s-.08,0-.12,0l-11.27-1.78c-.15-.02-.3-.09-.41-.2l-45.52-43.12c-.15-.14-.24-.34-.24-.54,0-.2.07-.4.21-.55l9.23-9.73c.29-.31.78-.32,1.09-.03l45.52,43.12c.12.11.2.26.23.43l2.04,11.51c.04.25-.03.5-.21.68-.15.15-.35.23-.55.23ZM475.71,477.89l9.97,1.57-1.8-10.19-44.77-42.41-8.17,8.61,44.78,42.42Z"/>
        </g>
        <path d="M475.1,479.21c-.19,0-.38-.07-.53-.21-.31-.29-.32-.78-.03-1.09l8.95-9.43c.29-.31.78-.32,1.09-.03.31.29.32.78.03,1.09l-8.95,9.43c-.15.16-.36.24-.56.24Z"/>
        <path d="M489.03,483.46c-.19,0-.38-.07-.53-.21l-2.53-2.39c-.31-.29-.32-.78-.03-1.09.29-.31.78-.32,1.09-.03l2.53,2.39c.31.29.32.78.03,1.09-.15.16-.36.24-.56.24Z"/>
      </g>
      <rect x="425.25" y="420.5" width="10.31" height="12.48" transform="translate(-175.39 445.65) rotate(-46.54)"/>
    </g>
    <path d="M326.52,65.12c-.14,0-.27-.04-.4-.11-4.47-2.69-7.64-7.46-8.7-13.11-.47-2.5-.49-5-.09-7.36-3.86-.06-7.69-1.35-10.61-3.87-3.7-3.2-5.65-8.14-5.59-13.02,0,0,0,0,0,0-11.48-2.57-20.12-14.21-19.25-25.94.03-.43.4-.74.83-.71.43.03.75.4.71.83-.81,10.92,7.16,21.75,17.81,24.27.25-2.38.99-4.7,2.25-6.74.98-1.59,2.66-3.51,5.05-3.66,1.74-.11,3.32.88,4.21,2.65,1.14,2.26.9,5.05-.58,6.8-1.98,2.33-5.45,3.34-9.49,2.8,0,4.35,1.78,8.72,5.07,11.57,2.71,2.34,6.29,3.52,9.86,3.52.02,0,.04,0,.06,0,.6-2.38,1.66-4.59,3.12-6.48,1.52-1.97,3.1-3.07,4.81-3.36,1.22-.21,2.55.11,3.55.87.83.62,1.33,1.49,1.43,2.42.15,1.45-.64,2.95-2.28,4.34-2.62,2.21-5.96,3.44-9.38,3.69-.42,2.27-.42,4.69.03,7.12.98,5.21,3.88,9.61,7.97,12.07.37.22.48.69.26,1.06-.15.24-.4.38-.66.38ZM326.33,34.65c-.16,0-.32.01-.48.04-1.32.23-2.58,1.14-3.85,2.79-1.24,1.6-2.16,3.45-2.72,5.45,2.93-.3,5.76-1.4,8.02-3.31.86-.73,1.86-1.84,1.74-3-.07-.65-.49-1.09-.83-1.35-.53-.4-1.22-.62-1.88-.62ZM302.74,26.37c2.21.3,6.03.36,8.23-2.24,1.21-1.43,1.11-3.65.38-5.1-.29-.58-1.11-1.9-2.73-1.8-1.82.12-3.18,1.89-3.83,2.93-1.17,1.88-1.84,4.02-2.05,6.21Z"/>
    <g>
      <g>
        <polygon class="cls-5" points="200.51 .41 187.74 13.96 182.23 76.05 233.65 81.21 240.45 4.55 200.51 .41"/>
        <path d="M233.65,81.62s-.03,0-.04,0l-51.42-5.17c-.22-.02-.38-.22-.36-.44l5.5-62.09c0-.09.05-.18.11-.24L200.22.13c.09-.09.21-.14.34-.13l39.94,4.15c.22.02.38.22.36.44l-6.8,76.66c0,.11-.06.21-.15.28-.07.06-.16.09-.26.09ZM182.67,75.68l50.61,5.08,6.72-75.85L200.67.83l-12.54,13.31-5.46,61.55Z"/>
      </g>
      <g>
        <polygon class="cls-16" points="187.74 13.96 199.36 14.84 200.51 .41 187.74 13.96"/>
        <path d="M199.36,15.25s-.02,0-.03,0l-11.62-.88c-.16-.01-.29-.11-.35-.26-.06-.15-.02-.31.08-.43L200.22.13c.12-.13.3-.16.46-.09.16.07.25.23.24.4l-1.15,14.43c-.02.21-.19.37-.4.37ZM188.62,13.62l10.37.79,1.03-12.88-11.4,12.09Z"/>
      </g>
      <g>
        <path d="M229.74,14.91s0,0-.01,0l-9.38-.97c-.07,0-.13-.07-.12-.15s.08-.13.15-.12l9.38.97c.07,0,.13.07.12.15,0,.07-.07.12-.13.12Z"/>
        <path d="M229.42,18.51s0,0-.01,0l-13.25-1.38c-.07,0-.13-.07-.12-.15,0-.07.08-.13.15-.12l13.25,1.38c.07,0,.13.07.12.15,0,.07-.07.12-.13.12Z"/>
      </g>
      <path d="M228.01,34.47s0,0-.01,0l-32.56-3.38c-.07,0-.13-.07-.12-.15,0-.07.07-.13.15-.12l32.56,3.38c.07,0,.13.07.12.15,0,.07-.07.12-.13.12Z"/>
      <path d="M226.96,46.26s0,0-.01,0l-32.56-3.38c-.07,0-.13-.07-.12-.15,0-.07.07-.13.15-.12l32.56,3.38c.07,0,.13.07.12.15,0,.07-.07.12-.13.12Z"/>
      <path d="M225.92,58.05s0,0-.01,0l-32.56-3.38c-.07,0-.13-.07-.12-.15,0-.07.08-.13.15-.12l32.56,3.38c.07,0,.13.07.12.15,0,.07-.07.12-.13.12Z"/>
    </g>
    <path d="M138.7,178.53c-.41,0-.75-.32-.77-.73-.36-6.23,1.95-12.69,6.18-17.29.29-.31.78-.33,1.09-.05.31.29.33.78.05,1.09-3.95,4.29-6.11,10.33-5.77,16.15.02.43-.3.79-.73.82-.02,0-.03,0-.05,0Z"/>
    <path d="M128.89,177.32c-.07,0-.13,0-.21-.01-.9-.08-.8-1.15-.73-1.92.3-3.28.76-6.58,1.39-9.82.08-.41.46-.68.87-.62.41.06.7.43.66.84-.98,10.7-1.22,11.54-1.98,11.54ZM129.48,176.32h0,0Z"/>
    <g>
      <path d="M602.12,282.85h-162.83c-.43,0-.77-.35-.77-.77s.35-.77.77-.77h162.83c.43,0,.77.35.77.77s-.35.77-.77.77Z"/>
      <path d="M457.35,283.03c-.43,0-.77-.35-.77-.77v-83.16c0-.43.35-.77.77-.77s.77.35.77.77v83.16c0,.43-.35.77-.77.77Z"/>
      <g>
        <rect class="cls-16" x="450.04" y="274.76" width="14.61" height="14.61" transform="translate(739.42 -175.28) rotate(90)"/>
        <path d="M464.66,290.15h-14.61c-.43,0-.77-.35-.77-.77v-14.61c0-.43.35-.77.77-.77h14.61c.43,0,.77.35.77.77v14.61c0,.43-.35.77-.77.77ZM450.82,288.6h13.07v-13.07h-13.07v13.07Z"/>
      </g>
    </g>
    <g>
      <path class="cls-5" d="M464.83,121.72c-6.78-5.57-15.13-6.92-21.52-.76-6.39,6.16-7.24,19.17-.85,25.33,6.95,6.7,23.46,6.61,32.48,6.45,17.37-.3,35.03.54,52.4.54,32.55,0,29.02-27.96,20.34-33.92-4.22-2.89-9.95-2.43-13.78,1.12,1.63-11.77-5.6-24.27-15.6-26.98-10-2.7-21.24,4.81-24.25,16.2-4.5-5.43-11.96-7.2-17.94-4.26-5.97,2.94-9.81,9.21-11.27,16.27Z"/>
      <path d="M527.34,154.06c-7.36,0-14.9-.15-22.19-.3-9.93-.2-20.2-.41-30.19-.24-8.33.14-25.65.44-33.03-6.67-2.94-2.83-4.62-7.3-4.62-12.27,0-5.57,2.05-10.88,5.48-14.18,5.9-5.69,14.07-5.67,21.57-.05,1.79-7.24,5.91-12.89,11.42-15.6,5.94-2.93,13.12-1.5,17.93,3.41,1.83-5.59,5.66-10.37,10.66-13.26,4.54-2.63,9.56-3.39,14.14-2.15,9.93,2.69,17.11,14.32,16.35,25.99,3.99-2.66,9.3-2.74,13.27-.02,4.71,3.23,8.01,12.32,5.41,20.69-1.7,5.47-7.35,14.64-26.19,14.64ZM482.86,151.91c7.47,0,14.98.15,22.32.3,7.28.15,14.81.3,22.16.3,17.84,0,23.14-8.49,24.71-13.55,2.36-7.61-.64-16.1-4.81-18.96-3.89-2.67-9.28-2.23-12.82,1.05-.24.22-.59.27-.88.12-.29-.15-.45-.47-.41-.79,1.57-11.33-5.46-23.54-15.03-26.12-4.18-1.13-8.78-.42-12.96,2-5.05,2.92-8.81,7.9-10.34,13.66-.07.28-.3.49-.58.56-.28.06-.58-.04-.76-.26-4.24-5.11-11.39-6.82-17-4.06-5.38,2.65-9.34,8.38-10.86,15.73-.05.27-.24.48-.5.57-.25.09-.54.04-.75-.13-7.21-5.93-14.87-6.23-20.49-.8-3.13,3.02-5,7.91-5,13.07,0,4.54,1.51,8.61,4.15,11.15,6.91,6.67,24.44,6.37,31.93,6.24,2.63-.05,5.28-.06,7.93-.06Z"/>
    </g>
    <path d="M578.02,244.7c-3.98,0-7.21-3.23-7.21-7.21s3.23-7.21,7.21-7.21,7.21,3.23,7.21,7.21-3.23,7.21-7.21,7.21ZM578.02,231.83c-3.12,0-5.66,2.54-5.66,5.66s2.54,5.66,5.66,5.66,5.66-2.54,5.66-5.66-2.54-5.66-5.66-5.66Z"/>
    <path d="M31.85,333.72c-3.98,0-7.21-3.23-7.21-7.21s3.23-7.21,7.21-7.21,7.21,3.23,7.21,7.21-3.23,7.21-7.21,7.21ZM31.85,320.84c-3.12,0-5.66,2.54-5.66,5.66s2.54,5.66,5.66,5.66,5.66-2.54,5.66-5.66-2.54-5.66-5.66-5.66Z"/>
    <g>
      <path d="M158.77,480.09H31.71c-.44,0-.79-.36-.79-.79s.36-.79.79-.79h127.06c.44,0,.79.36.79.79s-.36.79-.79.79Z"/>
      <path d="M95.24,480.09c-.44,0-.79-.36-.79-.79v-74.84c0-.44.36-.79.79-.79s.79.36.79.79v74.84c0,.44-.36.79-.79.79Z"/>
      <g>
        <rect class="cls-16" x="87.75" y="471.61" width="14.98" height="14.98" transform="translate(574.35 383.87) rotate(90)"/>
        <path d="M102.73,487.39h-14.98c-.44,0-.79-.36-.79-.79v-14.98c0-.44.36-.79.79-.79h14.98c.44,0,.79.36.79.79v14.98c0,.44-.36.79-.79.79ZM88.54,485.81h13.4v-13.4h-13.4v13.4Z"/>
      </g>
    </g>
    <rect x="218.67" y="441.38" width="146.34" height="29.62" rx="8.36" ry="8.36"/>
  </g>
  <g class="cls-2">
    <polyline class="cls-5" points="407.5 65.25 408.07 65.26 439.24 65.63 427.91 115.71 410.14 125.16 398.61 80.18 407.31 66.01"/>
  </g>
</svg>