<svg width="62" height="168" viewBox="0 0 62 168" fill="none" xmlns="http://www.w3.org/2000/svg">
<path d="M24.3008 90.9727L26.563 100.725C26.722 101.397 27.1462 101.981 27.7412 102.33L32.1478 104.92C32.7428 105.268 33.1729 105.852 33.326 106.524L34.4925 111.539C34.6575 112.241 34.5102 112.978 34.0978 113.568L31.3289 117.492C30.9107 118.082 30.7693 118.819 30.9342 119.521L31.7236 122.925C32.0418 124.282 33.3967 125.132 34.7517 124.813C36.1067 124.495 37.4675 125.344 37.7798 126.701L38.4926 129.775C38.8107 131.132 37.9624 132.494 36.6074 132.807C35.2525 133.126 34.4041 134.483 34.7222 135.84L35.4763 139.078C35.6413 139.798 36.1126 140.406 36.7665 140.748L40.8667 142.884C41.5206 143.226 41.9919 143.834 42.1569 144.553L43.394 149.881C43.5531 150.571 43.4176 151.297 43.017 151.887L40.2305 155.951C39.8299 156.536 39.6944 157.261 39.8535 157.957L40.9256 162.583C41.1318 163.479 41.8093 164.187 42.693 164.441L50.9406 166.801C51.783 167.043 52.6903 166.83 53.3324 166.24L59.6124 160.506C60.284 159.892 60.5786 158.954 60.3724 158.069L43.7416 86.4536L24.3067 90.9786L24.3008 90.9727Z" fill="white"/>
<path d="M51.6416 167.479C51.3529 167.479 51.0643 167.438 50.7815 167.355L42.5339 164.995C41.4499 164.689 40.6192 163.81 40.3659 162.712L39.2937 158.087C39.0934 157.237 39.2643 156.341 39.7591 155.621L42.5456 151.556C42.852 151.108 42.958 150.541 42.8343 150.016L41.5972 144.689C41.4676 144.134 41.1023 143.668 40.6016 143.403L36.5013 141.261C35.6942 140.842 35.1169 140.093 34.9107 139.208L34.1566 135.969C33.9681 135.161 34.1036 134.329 34.5455 133.621C34.9814 132.919 35.6707 132.423 36.4778 132.235C37.5205 131.993 38.1744 130.943 37.9329 129.898L37.22 126.825C37.1022 126.317 36.7959 125.887 36.354 125.615C35.9122 125.338 35.3938 125.255 34.8871 125.373C34.08 125.562 33.2494 125.421 32.5425 124.984C31.8414 124.547 31.3466 123.857 31.158 123.049L30.3686 119.645C30.1683 118.783 30.3451 117.869 30.8576 117.149L33.6264 113.226C33.9446 112.772 34.0565 112.205 33.9328 111.663L32.7663 106.648C32.6485 106.129 32.3127 105.68 31.8591 105.409L27.4525 102.819C26.722 102.388 26.1918 101.669 26.0033 100.843L23.7411 91.0906C23.6704 90.7779 23.8648 90.4652 24.177 90.3944C24.4892 90.3177 24.8015 90.5183 24.8722 90.831L27.1344 100.583C27.2522 101.102 27.588 101.551 28.0416 101.822L32.4482 104.412C33.1787 104.843 33.7089 105.562 33.8974 106.388L35.0639 111.403C35.2642 112.264 35.0874 113.179 34.5749 113.899L31.8061 117.822C31.4879 118.276 31.376 118.842 31.4997 119.385L32.2891 122.789C32.407 123.297 32.7133 123.727 33.1551 123.999C33.597 124.276 34.1154 124.359 34.622 124.241C35.4291 124.052 36.2598 124.188 36.9667 124.63C37.6678 125.067 38.1626 125.757 38.3511 126.565L39.064 129.639C39.4528 131.308 38.41 132.978 36.7428 133.367C36.2362 133.485 35.8062 133.792 35.5352 134.235C35.2583 134.677 35.1758 135.196 35.2936 135.704L36.0477 138.943C36.1773 139.497 36.5426 139.963 37.0433 140.229L41.1435 142.37C41.9506 142.789 42.528 143.538 42.7342 144.423L43.9713 149.751C44.1657 150.6 44.0008 151.497 43.5059 152.211L40.7194 156.276C40.413 156.724 40.307 157.285 40.4307 157.816L41.5029 162.441C41.662 163.131 42.1863 163.68 42.8638 163.869L51.1114 166.228C51.7653 166.417 52.4546 166.252 52.9553 165.798L59.2353 160.063C59.7537 159.591 59.9776 158.872 59.8185 158.187L43.1878 86.5714C43.1171 86.2587 43.3115 85.9461 43.6237 85.8753C43.936 85.7986 44.2482 85.9992 44.3189 86.3118L60.9496 157.928C61.203 159.019 60.8495 160.17 60.0188 160.931L53.7388 166.665C53.1556 167.196 52.4192 167.479 51.6534 167.479H51.6416Z" fill="black"/>
<path d="M36.4649 96.4594L50.1559 155.415C50.4269 156.589 51.5993 157.32 52.7716 157.043C53.944 156.772 54.6744 155.597 54.3976 154.423L40.7065 95.4683C40.4355 94.2942 39.2632 93.5627 38.0908 93.84C36.9185 94.1114 36.188 95.2854 36.4649 96.4594Z" fill="black"/>
<path d="M29.075 39.9111L16.9627 42.7312C5.78132 45.3388 -1.48837 56.3239 1.11552 67.5215L5.50443 86.4062C6.53538 90.8546 11.2837 93.8103 15.7315 92.7779L52.2449 84.2706C56.6868 83.2381 59.2613 78.5774 58.2303 74.1232L53.8414 55.2384C51.2375 44.0409 40.2623 37.3035 29.0809 39.9052L29.075 39.9111ZM36.2151 55.4213C36.486 56.5953 35.9794 57.8755 34.8071 58.1469L19.8494 61.6277C18.6771 61.8991 17.275 61.0673 16.9981 59.8932L16.6446 58.3711C15.9612 55.4213 18.0349 52.619 20.9864 51.9287L29.5109 49.9464C32.4565 49.2621 35.1723 50.9435 35.8616 53.8992L36.2151 55.4213Z" fill="white"/>
<path d="M13.9219 93.5686C12.2312 93.5686 10.5168 93.0789 9.02047 92.1467C6.94679 90.8547 5.45633 88.8134 4.92613 86.5421L0.537208 67.6573C-2.09614 56.3064 5.20891 44.8729 16.8204 42.1708L28.9326 39.3508C34.4998 38.0529 40.1965 38.9614 44.9683 41.9113C49.752 44.867 53.0981 49.5572 54.3942 55.1147L58.7831 73.9994C59.9201 78.8902 57.0393 83.7515 52.3676 84.843L15.8542 93.3444C15.2239 93.4919 14.5758 93.5627 13.9278 93.5627L13.9219 93.5686ZM29.2036 40.4776L17.0914 43.2977C11.7952 44.5307 7.27081 47.6988 4.35469 52.2179C1.415 56.7725 0.460618 62.1588 1.6742 67.3918L6.06312 86.2766C6.52263 88.2471 7.82458 90.0288 9.63906 91.1556C11.4535 92.2824 13.6215 92.6659 15.595 92.2116L52.1084 83.7102C56.1615 82.7663 58.6476 78.5304 57.6579 74.2649L53.269 55.3802C52.0495 50.1236 48.886 45.6929 44.3674 42.8965C39.8548 40.1119 34.4703 39.2505 29.2036 40.4776ZM19.3889 62.265C18.8469 62.265 18.2873 62.1057 17.7865 61.8049C17.0914 61.386 16.5965 60.737 16.4375 60.0291L16.084 58.507C15.7187 56.9377 16.0369 55.333 16.9794 53.976C17.8867 52.6663 19.2652 51.7401 20.8558 51.3743L29.3803 49.392C32.6381 48.631 35.6662 50.5188 36.4262 53.7754L36.7796 55.2976C36.9446 56.0173 36.8739 56.7548 36.5734 57.3801C36.2376 58.0763 35.6603 58.5542 34.9357 58.7193L19.978 62.206C19.7836 62.2532 19.5892 62.2709 19.3889 62.2709V62.265ZM30.8354 50.3772C30.4466 50.3772 30.0519 50.4244 29.6454 50.5188L21.1209 52.5011C19.8308 52.802 18.6643 53.5808 17.9338 54.6368C17.1797 55.7223 16.9264 57.0026 17.2151 58.2415L17.5686 59.7636C17.6628 60.1707 17.9633 60.5482 18.3933 60.8078C18.8234 61.0674 19.3064 61.1618 19.7247 61.0674L34.6824 57.5807C35.1596 57.4686 35.407 57.1323 35.5366 56.8669C35.7192 56.4834 35.7605 56.0055 35.6544 55.5453L35.301 54.0232C34.7766 51.7696 32.9916 50.3655 30.8413 50.3655L30.8354 50.3772Z" fill="black"/>
<path d="M7.68644 45.2563C3.03242 40.218 1.73047 34.6369 1.73047 27.7579C1.73047 12.0766 15.0563 -0.548595 30.9624 0.649034C44.2352 1.64607 54.9512 12.3775 55.9468 25.6694C57.1427 41.5985 44.5357 54.9435 28.8769 54.9435C25.6368 54.9435 22.4674 54.3771 19.457 53.2621C19.457 53.2621 19.6514 53.0733 21.348 52.501L29.1126 50.6898L31.8696 50.1884C42.8567 48.1825 51.5343 36.985 50.4268 25.5809C49.4076 15.1032 40.8065 6.79646 30.3203 6.1121C17.7309 5.29205 7.22693 15.3156 7.22693 27.7461C7.22693 33.6753 8.60545 38.6722 12.8648 42.7961L13.1416 42.9082C11.4332 43.5808 9.15923 44.1471 7.68644 45.2504V45.2563Z" fill="white"/>
<path d="M33.0604 49.6161C32.7894 49.6161 32.5479 49.4214 32.4949 49.1442C32.436 48.8315 32.6363 48.5247 32.9544 48.4657C42.8044 46.5365 49.9563 37.8286 49.9563 27.7579C49.9563 16.1238 40.501 6.6549 28.8836 6.6549C17.2662 6.6549 7.81091 16.1238 7.81091 27.7579C7.81091 32.4364 9.29549 36.8552 12.1056 40.5307C12.3 40.7844 12.2528 41.1501 11.9995 41.3448C11.7462 41.5395 11.381 41.4923 11.1866 41.2386C8.2233 37.3567 6.65625 32.6959 6.65625 27.7579C6.65625 15.4808 16.63 5.49268 28.8895 5.49268C41.149 5.49268 51.1227 15.4808 51.1227 27.7579C51.1227 38.3832 43.5762 47.5749 33.1841 49.6043C33.1488 49.6102 33.1076 49.6161 33.0722 49.6161H33.0604Z" fill="black"/>
<path d="M28.884 55.5334C26.8751 55.5334 24.8662 55.3151 22.928 54.8903C22.6158 54.8195 22.4155 54.5127 22.4862 54.2001C22.5569 53.8874 22.8632 53.6868 23.1754 53.7576C25.037 54.1647 26.9575 54.3711 28.884 54.3711C43.5353 54.3711 55.4531 42.4362 55.4531 27.7637C55.4531 13.0913 43.5353 1.15633 28.884 1.15633C14.2326 1.15633 2.31484 13.0913 2.31484 27.7637C2.31484 33.6634 4.20001 39.2445 7.76416 43.9111C7.95857 44.1648 7.91143 44.5305 7.65811 44.7252C7.40479 44.9199 7.03953 44.8727 6.84512 44.619C3.1278 39.7518 1.16016 33.923 1.16016 27.7696C1.16016 12.4601 13.5964 0 28.8899 0C44.1833 0 56.6195 12.4542 56.6195 27.7696C56.6195 43.0851 44.1833 55.5393 28.8899 55.5393L28.884 55.5334Z" fill="black"/>
</svg>
