<svg width="48" height="47" viewBox="0 0 48 47" fill="none" xmlns="http://www.w3.org/2000/svg">
<path d="M5.67415 46.0267L38.1462 14.7173L46.3526 0.90625L31.9016 9.04776L0.908203 41.4486L5.67415 46.0267Z" fill="white"/>
<path d="M5.67416 46.9352C5.45029 46.9352 5.22054 46.8526 5.0438 46.6816L0.277854 42.1093C-0.0815068 41.7612 -0.0932999 41.189 0.248387 40.8232L31.2477 8.42235C31.3066 8.35745 31.3773 8.30436 31.4598 8.25716L45.9108 0.115652C46.2701 -0.0849364 46.7179 -0.0200422 47.0065 0.27494C47.2952 0.569922 47.3482 1.0183 47.1362 1.37227L38.9298 15.1833C38.8885 15.2541 38.8355 15.319 38.7766 15.3721L6.30452 46.6816C6.12778 46.8526 5.90391 46.9352 5.67416 46.9352ZM2.18658 41.425L5.66826 44.7701L37.4216 14.1509L43.8253 3.37225L32.4613 9.77337L2.18658 41.4191V41.425Z" fill="black"/>
<g opacity="0.13">
<path d="M8.81981 33.4309C8.80214 34.1448 9.27932 34.8174 9.94502 35.0592C9.96859 35.0946 9.99215 35.13 10.0098 35.1713C10.6578 36.1271 10.4693 36.776 11.2352 38.3159C12.2426 39.838 14.7169 38.6698 14.2456 36.9176C13.8037 35.3837 13.3796 33.7377 12.2661 32.546C11.0938 31.3366 8.96709 31.5018 8.81981 33.4309Z" fill="black"/>
</g>
</svg>
