<?xml version="1.0" encoding="UTF-8"?>
<svg id="Layer_1" data-name="Layer 1" xmlns="http://www.w3.org/2000/svg" viewBox="0 0 614.48 500.03">
  <defs>
    <style>
      .cls-1 {
        fill: #fff;
      }

      .cls-2 {
        fill: #c2dff7;
      }
    </style>
  </defs>
  <g>
    <path d="M537.52,432.15c-.1,0-.2-.02-.29-.06l-70.62-29.1c-.4-.16-.58-.61-.42-1.01.16-.39.62-.58,1.01-.42l69.9,28.81,35.88-86.37c.16-.39.62-.58,1.01-.42.39.16.58.62.42,1.01l-36.17,87.08c-.12.3-.41.48-.71.48Z"/>
    <g>
      <polygon class="cls-1" points="514.33 309.75 491.82 320.18 462.31 391.24 531.85 419.9 568.3 332.16 514.33 309.75"/>
      <path d="M531.85,420.67c-.1,0-.2-.02-.29-.06l-69.55-28.66c-.19-.08-.34-.23-.42-.42-.08-.19-.08-.4,0-.59l29.51-71.06c.07-.18.21-.32.39-.4l22.5-10.44c.2-.09.42-.1.62-.01l53.97,22.42c.39.16.58.62.42,1.01l-36.44,87.73c-.12.3-.41.48-.71.48ZM463.32,390.82l68.12,28.07,35.85-86.31-52.94-21.99-21.92,10.17-29.1,70.06Z"/>
    </g>
    <g>
      <polygon class="cls-2" points="491.82 320.18 507.64 326.32 514.33 309.75 491.82 320.18"/>
      <path d="M507.64,327.09c-.09,0-.19-.02-.28-.05l-15.81-6.14c-.29-.11-.48-.39-.49-.7-.01-.31.17-.6.45-.73l22.5-10.44c.29-.13.63-.08.86.14.23.22.3.56.18.85l-6.69,16.57c-.12.3-.41.48-.72.48ZM493.8,320.12l13.41,5.2,5.67-14.05-19.08,8.85Z"/>
    </g>
    <g>
      <path d="M549.83,339.82s-.07,0-.1-.02l-12.68-5.27c-.13-.05-.19-.21-.14-.34.05-.13.21-.19.34-.14l12.68,5.27c.13.05.19.21.14.34-.04.1-.14.16-.24.16Z"/>
      <path d="M548.12,343.94s-.07,0-.1-.02l-17.9-7.43c-.13-.05-.19-.21-.14-.34.05-.13.21-.19.34-.14l17.9,7.43c.13.06.19.21.14.34-.04.1-.14.16-.24.16Z"/>
    </g>
    <path d="M540.53,362.21s-.07,0-.1-.02l-44-18.28c-.13-.05-.19-.21-.14-.34.05-.13.21-.19.34-.14l44,18.28c.13.05.19.21.14.34-.04.1-.14.16-.24.16Z"/>
    <path d="M534.93,375.7s-.07,0-.1-.02l-44-18.28c-.13-.05-.19-.21-.14-.34.06-.13.21-.19.34-.14l44,18.28c.13.05.19.21.14.34-.04.1-.14.16-.24.16Z"/>
    <path d="M529.32,389.2s-.07,0-.1-.02l-44-18.28c-.13-.06-.19-.21-.14-.34.05-.13.21-.19.34-.14l44,18.28c.13.05.19.21.14.34-.04.1-.14.16-.24.16Z"/>
  </g>
  <g>
    <g>
      <rect class="cls-1" x="40.38" y="31.87" width="83.22" height="30.52"/>
      <path d="M123.6,63.17H40.38c-.43,0-.77-.35-.77-.77v-30.52c0-.43.35-.77.77-.77h83.22c.43,0,.77.35.77.77v30.52c0,.43-.35.77-.77.77ZM41.15,61.62h81.68v-28.98H41.15v28.98Z"/>
    </g>
    <g>
      <rect class="cls-1" x="40.38" y="62.18" width="83.22" height="30.52"/>
      <path d="M123.6,93.48H40.38c-.43,0-.77-.35-.77-.77v-30.52c0-.43.35-.77.77-.77h83.22c.43,0,.77.35.77.77v30.52c0,.43-.35.77-.77.77ZM41.15,91.93h81.68v-28.98H41.15v28.98Z"/>
    </g>
    <g>
      <rect class="cls-1" x="40.38" y="92.71" width="83.22" height="30.52"/>
      <path d="M123.6,124H40.38c-.43,0-.77-.35-.77-.77v-30.52c0-.43.35-.77.77-.77h83.22c.43,0,.77.35.77.77v30.52c0,.43-.35.77-.77.77ZM41.15,122.46h81.68v-28.98H41.15v28.98Z"/>
    </g>
    <g>
      <path d="M55.2,47.13c0-1.35,1.09-2.44,2.44-2.44s2.44,1.09,2.44,2.44-1.09,2.44-2.44,2.44-2.44-1.09-2.44-2.44Z"/>
      <path d="M57.64,50.34c-1.77,0-3.21-1.44-3.21-3.21s1.44-3.21,3.21-3.21,3.21,1.44,3.21,3.21-1.44,3.21-3.21,3.21ZM57.64,45.47c-.92,0-1.66.75-1.66,1.67s.75,1.67,1.66,1.67,1.67-.75,1.67-1.67-.75-1.67-1.67-1.67Z"/>
    </g>
    <g>
      <path d="M55.2,77.44c0-1.35,1.09-2.44,2.44-2.44s2.44,1.09,2.44,2.44-1.09,2.44-2.44,2.44-2.44-1.09-2.44-2.44Z"/>
      <path d="M57.64,80.65c-1.77,0-3.21-1.44-3.21-3.21s1.44-3.21,3.21-3.21,3.21,1.44,3.21,3.21-1.44,3.21-3.21,3.21ZM57.64,75.78c-.92,0-1.66.75-1.66,1.66s.75,1.66,1.66,1.66,1.67-.75,1.67-1.66-.75-1.66-1.67-1.66Z"/>
    </g>
    <g>
      <path d="M55.2,107.97c0-1.35,1.09-2.44,2.44-2.44,3.22,0,3.17,4.88,0,4.88-1.35,0-2.44-1.09-2.44-2.44Z"/>
      <path d="M57.64,111.18c-1.77,0-3.21-1.44-3.21-3.21s1.44-3.21,3.21-3.21c2.08,0,3.17,1.61,3.17,3.2,0,.83-.28,1.61-.79,2.19-.58.67-1.42,1.03-2.38,1.03ZM57.64,106.3c-.92,0-1.66.75-1.66,1.66s.75,1.67,1.66,1.67c.51,0,.92-.17,1.21-.5.26-.3.41-.73.41-1.18,0-.76-.43-1.65-1.62-1.65Z"/>
    </g>
    <path d="M112.44,47.39h-37.79c-.14,0-.26-.12-.26-.26s.12-.26.26-.26h37.79c.14,0,.26.12.26.26s-.12.26-.26.26Z"/>
    <path d="M112.44,77.7h-37.79c-.14,0-.26-.12-.26-.26s.12-.26.26-.26h37.79c.14,0,.26.12.26.26s-.12.26-.26.26Z"/>
    <path d="M112.44,108.01h-37.79c-.14,0-.26-.12-.26-.26s.12-.26.26-.26h37.79c.14,0,.26.12.26.26s-.12.26-.26.26Z"/>
  </g>
</svg>