<?xml version="1.0" encoding="UTF-8"?>
<svg id="Layer_1" data-name="Layer 1" xmlns="http://www.w3.org/2000/svg" viewBox="0 0 614.48 500.03">
  <defs>
    <style>
      .cls-1 {
        fill: #fff;
      }

      .cls-2 {
        fill: #c2dff7;
      }
    </style>
  </defs>
  <g>
    <path d="M88.13,376.32c-.32,0-.61-.19-.73-.51l-35.52-97.05c-.07-.19-.06-.41.02-.59.09-.19.24-.33.44-.4l79.76-29.09c.19-.07.41-.06.59.03.19.09.33.24.4.44l9.58,26.28c.15.4-.06.84-.46.99-.4.15-.84-.06-.99-.46l-9.32-25.55-78.3,28.56,34.99,95.59,78.17-28.58-5.65-15.49c-.15-.4.06-.84.46-.99.4-.15.85.06.99.46l5.91,16.22c.15.4-.06.84-.46.99l-79.62,29.11c-.09.03-.18.05-.27.05Z"/>
    <g>
      <path d="M107.99,274.78c-.11,0-.2-.07-.24-.17-.05-.13.02-.28.15-.33l14.54-5.3c.13-.05.28.02.33.15.05.13-.02.28-.15.33l-14.54,5.3s-.06.02-.09.02Z"/>
      <path d="M103.67,281.51c-.11,0-.2-.06-.24-.17-.05-.13.02-.28.15-.33l20.52-7.48c.13-.05.28.02.33.15.05.13-.02.28-.15.33l-20.52,7.48s-.06.02-.09.02Z"/>
    </g>
    <path d="M81.09,312.56c-.11,0-.2-.06-.24-.17-.05-.13.02-.28.15-.33l44.74-16.32c.13-.05.28.02.33.15.05.13-.02.28-.15.33l-44.74,16.32s-.06.02-.09.02Z"/>
    <path d="M86.69,327.2c-.11,0-.2-.06-.24-.17-.05-.13.02-.28.15-.33l37.6-13.71c.13-.05.28.02.33.15.05.13-.02.28-.15.33l-37.6,13.71s-.06.02-.09.02Z"/>
    <path d="M91.94,342.31c-.11,0-.2-.06-.24-.17-.05-.13.02-.28.15-.33l40.19-14.66c.13-.05.28.02.33.15.05.13-.02.28-.15.33l-40.19,14.66s-.06.02-.09.02Z"/>
    <g>
      <path class="cls-2" d="M170.69,300.14c-2.22-.7-3.55-.3-5.36-.81-.75-1.64-2.25-4.38-3.07-6,1.09-2.03,1.81-2.68,2.77-4.4-.08-.23-.31-.4-.54-.57-.55-.41-1.09-.82-1.65-1.22-2.06-1.46-4.27-2.68-6.59-3.65-1.06,2.03-1.86,3.94-2.66,5.84-2.23-.04-4.47.22-6.63.79-.94-1.86-2.01-3.66-3.18-5.38-2.62,1.41-5.15,3.18-7.21,5.39,1.11,1.67,1.98,2.63,3.21,3.99-1.09,2.09-2.17,4.06-2.89,6.12-2.27-.36-4.02-.29-6.15-.65-.87,3.48-1.01,7.07.17,10.32,2.11-.47,3.27-.98,5.16-1.52,1.04,2,2.47,3.89,4.07,5.56-.99,1.94-1.37,3.47-2.29,5.01,1.97,2.09,4.48,3.58,7.2,4.4.81-1.86,1.33-3.02,2.08-4.66,2.01.04,4.6.17,6.58-.29,1.26,1.62,1.73,2.61,2.56,4.26,3.09-.59,5.99-1.86,8.62-3.57-.99-1.91-1.21-3.13-2.29-4.7,1.25-1.78,2.31-4.04,2.86-5.93,2.03-.36,2.94-.25,4.78-.33.78-2.73.85-5.4.48-8ZM155.07,308.63c-1.11.92-2.25,1.78-6.36.86-1.62-.36-5.73-2.85-3.86-8.48.6-1.79,2.16-3.29,4.03-3.66,1.86-.36,3.37-.42,4.75.1,2.14.8,3.7,2.89,3.96,5.15s-.76,4.58-2.52,6.03Z"/>
      <path d="M145.03,324.11c-.07,0-.15-.01-.22-.03-2.91-.87-5.52-2.47-7.54-4.61-.24-.25-.28-.63-.1-.93.47-.79.81-1.61,1.16-2.48.26-.63.52-1.29.86-2-1.44-1.56-2.62-3.16-3.52-4.78-.47.14-.89.28-1.31.42-1,.33-1.95.64-3.3.94-.38.08-.76-.13-.9-.49-1.13-3.12-1.2-6.74-.19-10.77.1-.39.48-.64.88-.57,1.05.17,1.99.24,2.99.32.8.06,1.63.12,2.53.24.63-1.63,1.44-3.19,2.3-4.83l.17-.32c-1.04-1.16-1.89-2.13-2.92-3.68-.2-.3-.17-.69.08-.96,1.93-2.06,4.42-3.93,7.41-5.54.35-.19.78-.08,1.01.25,1.07,1.57,2.06,3.23,2.95,4.92,1.87-.44,3.79-.67,5.71-.67.73-1.73,1.5-3.53,2.49-5.42.19-.36.61-.51.98-.35,2.37.99,4.64,2.25,6.74,3.73.57.4,1.12.82,1.67,1.23.29.22.64.48.8.94.07.21.05.44-.06.63-.46.83-.88,1.43-1.28,2.01-.4.58-.81,1.18-1.29,2.03.26.5.56,1.08.88,1.68.65,1.23,1.37,2.6,1.86,3.65.62.14,1.2.17,1.81.21.91.05,1.94.11,3.24.52.28.09.49.33.53.63.43,2.93.26,5.66-.5,8.32-.09.32-.38.55-.71.56-.53.02-.98.03-1.41.04-.93.02-1.69.03-2.81.2-.56,1.76-1.48,3.66-2.53,5.26.51.82.82,1.57,1.14,2.35.26.61.52,1.24.9,1.98.18.35.07.79-.26,1-2.86,1.86-5.85,3.1-8.9,3.68-.34.06-.68-.1-.84-.41l-.12-.24c-.68-1.37-1.12-2.25-2.07-3.52-1.77.32-3.89.26-5.63.22h-.14c-.68,1.48-1.18,2.59-1.86,4.17-.12.29-.41.47-.71.47ZM138.79,318.82c1.61,1.59,3.6,2.81,5.81,3.57.62-1.42,1.11-2.51,1.81-4.03.13-.28.41-.46.72-.45l.65.02c1.81.05,4.06.1,5.74-.28.29-.07.6.04.79.28,1.16,1.5,1.68,2.48,2.37,3.86,2.45-.54,4.86-1.54,7.19-2.97-.25-.54-.46-1.02-.64-1.46-.37-.88-.69-1.65-1.28-2.52-.18-.27-.18-.62,0-.88,1.16-1.65,2.21-3.84,2.75-5.7.08-.28.32-.5.61-.55,1.51-.27,2.44-.28,3.52-.3.25,0,.52,0,.8-.02.54-2.13.66-4.32.37-6.65-.9-.23-1.66-.28-2.4-.32-.77-.04-1.57-.09-2.47-.35-.22-.06-.4-.22-.49-.42-.47-1.04-1.28-2.57-1.98-3.91-.4-.76-.78-1.48-1.07-2.06-.11-.23-.11-.49,0-.72.61-1.13,1.1-1.84,1.58-2.53.31-.45.61-.89.93-1.42-.02-.02-.04-.03-.06-.04-.54-.41-1.08-.81-1.63-1.21-1.82-1.28-3.76-2.39-5.79-3.29-.89,1.78-1.61,3.49-2.31,5.14-.12.29-.41.47-.73.47-2.16-.04-4.32.21-6.42.76-.35.09-.72-.07-.89-.4-.82-1.62-1.74-3.2-2.74-4.71-2.35,1.33-4.36,2.82-5.97,4.45.87,1.25,1.62,2.09,2.62,3.2l.17.19c.21.24.26.59.11.87l-.42.8c-.94,1.79-1.82,3.47-2.43,5.22-.12.35-.48.57-.85.51-1.09-.17-2.08-.24-3.03-.31-.77-.06-1.57-.12-2.41-.23-.7,3.17-.67,6.03.09,8.53.94-.24,1.69-.48,2.48-.74.6-.2,1.23-.4,1.97-.61.35-.1.73.06.9.39.94,1.81,2.26,3.62,3.94,5.38.23.24.28.59.13.89-.43.85-.75,1.62-1.05,2.37-.3.75-.59,1.46-.97,2.17ZM151.71,310.66c-.85,0-1.88-.12-3.17-.41-.98-.22-2.94-1.13-4.1-3.19-1-1.76-1.11-3.94-.33-6.29.71-2.13,2.52-3.76,4.62-4.17,2.22-.43,3.76-.39,5.17.13,2.37.89,4.16,3.21,4.45,5.78.28,2.49-.79,5.07-2.79,6.72-.97.8-1.94,1.43-3.85,1.43ZM151.39,297.85c-.68,0-1.44.09-2.35.27-1.54.3-2.92,1.56-3.45,3.14-.65,1.95-.58,3.65.2,5.04.83,1.47,2.3,2.26,3.09,2.44,3.81.85,4.73.1,5.7-.7,0,0,0,0,0,0,1.58-1.3,2.46-3.4,2.24-5.35-.23-2.01-1.62-3.82-3.46-4.51-.59-.22-1.22-.33-1.97-.33Z"/>
    </g>
  </g>
  <g>
    <g>
      <polygon points="482.71 53.01 463.91 88.65 417.41 77.03 419.26 39.67 482.71 53.01"/>
      <path d="M463.91,89.09s-.07,0-.11-.01l-46.49-11.62c-.2-.05-.34-.24-.33-.45l1.85-37.36c0-.13.07-.25.17-.33.1-.08.23-.11.36-.08l63.45,13.34c.13.03.25.12.31.24.06.12.06.27,0,.39l-18.8,35.64c-.08.15-.23.23-.39.23ZM417.87,76.69l45.81,11.44,18.37-34.82-62.38-13.11-1.8,36.49Z"/>
    </g>
    <g>
      <g>
        <polygon class="cls-1" points="475.83 32.73 463.39 88.82 413.24 78.27 424.69 22.1 475.83 32.73"/>
        <path d="M463.39,89.26s-.06,0-.09,0l-50.15-10.55c-.24-.05-.39-.28-.34-.52l11.46-56.17c.02-.11.09-.21.19-.28.1-.06.22-.09.33-.06l51.14,10.62c.12.02.22.09.28.19s.09.22.06.33l-12.44,56.1c-.05.2-.23.34-.43.34ZM413.75,77.93l49.3,10.37,12.25-55.24-50.27-10.44-11.28,55.31Z"/>
      </g>
      <path d="M462.08,53.61s-.02,0-.03,0l-20.31-4.22c-.08-.02-.13-.09-.11-.17.02-.08.1-.13.17-.11l20.31,4.22c.08.02.13.09.11.17-.01.07-.08.12-.14.12Z"/>
      <path d="M460.29,62.27s-.02,0-.03,0l-17.87-3.71c-.08-.02-.13-.09-.11-.17.02-.08.1-.13.17-.11l17.87,3.71c.08.02.13.09.11.17-.01.07-.08.12-.14.12Z"/>
      <path d="M458.49,70.93s-.02,0-.03,0l-17.87-3.71c-.08-.02-.13-.09-.11-.17.02-.08.1-.13.17-.11l17.87,3.71c.08.02.13.09.11.17-.01.07-.08.12-.14.12Z"/>
    </g>
    <g>
      <polygon class="cls-1" points="427.96 33.27 434.03 42.97 463.52 48.7 463.39 88.82 406.17 76.8 406.33 28.71 427.96 33.27"/>
      <path d="M463.39,89.26s-.06,0-.09,0l-57.22-12.02c-.2-.04-.35-.22-.35-.43l.16-48.09c0-.13.06-.26.16-.34.1-.08.24-.12.37-.09l21.63,4.55c.12.02.22.1.28.2l5.97,9.54,29.3,5.69c.21.04.36.22.36.43l-.13,40.13c0,.13-.06.26-.16.34-.08.06-.18.1-.28.1ZM406.61,76.45l56.34,11.84.13-39.23-29.14-5.66c-.12-.02-.22-.09-.29-.2l-5.97-9.54-20.92-4.4-.16,47.19Z"/>
    </g>
    <path d="M463.76,39.97s-.02,0-.03,0l-28.52-5.92c-.08-.02-.13-.09-.11-.17.02-.08.1-.13.17-.11l28.52,5.92c.08.02.13.09.11.17-.01.07-.08.12-.14.12Z"/>
    <path d="M462.86,44.33s-.02,0-.03,0l-15.41-3.2c-.08-.02-.13-.09-.11-.17.02-.08.09-.13.17-.11l15.41,3.2c.08.02.13.09.11.17-.01.07-.08.12-.14.12Z"/>
  </g>
</svg>