<svg width="20" height="21" viewBox="0 0 20 21" fill="none" xmlns="http://www.w3.org/2000/svg">
<path d="M9.14908 0.932115C5.38463 1.28019 1.99719 4.21821 1.1253 7.90549C-0.0470377 12.8376 3.73509 18.3656 8.75436 19.0322C13.7736 19.6989 18.8754 15.3449 18.9873 10.2772C19.1051 5.20936 14.1742 0.471939 9.14908 0.938011V0.932115Z" fill="white"/>
<path d="M9.78514 20.0115C9.39633 20.0115 9.01341 19.9879 8.63048 19.9348C5.99124 19.5808 3.52874 17.9997 1.87332 15.5927C0.217905 13.1797 -0.377102 10.3007 0.235579 7.69897C1.20173 3.64001 4.91315 0.4129 9.06053 0.0353231C11.6762 -0.206562 14.3979 0.802278 16.5364 2.80226C18.7279 4.84944 19.9533 7.58687 19.8885 10.3007C19.8296 12.9673 18.5217 15.5927 16.3008 17.4924C14.3979 19.1266 12.0709 20.0115 9.77925 20.0115H9.78514ZM9.23137 1.84061C5.83217 2.15329 2.79234 4.79634 2.00293 8.11784C1.50218 10.224 2.00293 12.5721 3.36968 14.5602C4.73054 16.5425 6.73942 17.8464 8.87202 18.1295C11.0105 18.4127 13.2904 17.6753 15.1225 16.106C16.9488 14.5367 18.0269 12.4069 18.074 10.2535C18.1211 8.05295 17.1138 5.81698 15.2934 4.12378C13.5319 2.47778 11.3227 1.64593 9.22548 1.84061H9.23137Z" fill="black"/>
</svg>
